999
"DXF R12 Output" (www.mydxf.blogspot.com)
 0 
SECTION
 2 
HEADER
 9 
$ACADVER
 1 
AC1009
 9 
$EXTMIN
 10 
 0 
 20 
 0 
 9 
$EXTMAX
 10 
 8.5 
 20 
 11 
 0 
ENDSEC
 0 
SECTION
 2 
ENTITIES
0
LINE
8
Layer 1
10
10.000000
20
253.440000
11
11.128900
21
254.569000
0
LINE
8
Layer 1
10
11.128900
20
254.569000
11
7.177780
21
253.440000
0
LINE
8
Layer 1
10
7.177780
20
253.440000
11
11.128900
21
252.311000
0
LINE
8
Layer 1
10
11.128900
20
252.311000
11
10.000000
21
253.440000
0
LINE
8
Layer 1
10
10.000000
20
253.440000
11
10.000000
21
253.440000
0
LINE
8
Layer 1
10
10.000000
20
253.440000
11
11.128900
21
254.569000
0
LINE
8
Layer 1
10
11.128900
20
254.569000
11
7.177780
21
253.440000
0
LINE
8
Layer 1
10
7.177780
20
253.440000
11
11.128900
21
252.311000
0
LINE
8
Layer 1
10
11.128900
20
252.311000
11
10.000000
21
253.440000
0
LINE
8
Layer 1
10
10.000000
20
253.440000
11
10.000000
21
253.440000
0
LINE
8
Layer 1
10
10.000000
20
253.440000
11
11.128900
21
254.569000
0
LINE
8
Layer 1
10
11.128900
20
254.569000
11
7.177780
21
253.440000
0
LINE
8
Layer 1
10
7.177780
20
253.440000
11
11.128900
21
252.311000
0
LINE
8
Layer 1
10
11.128900
20
252.311000
11
10.000000
21
253.440000
0
LINE
8
Layer 1
10
10.000000
20
253.440000
11
10.000000
21
253.440000
0
LINE
8
Layer 1
10
10.000000
20
253.440000
11
11.128900
21
254.569000
0
LINE
8
Layer 1
10
11.128900
20
254.569000
11
7.177780
21
253.440000
0
LINE
8
Layer 1
10
7.177780
20
253.440000
11
11.128900
21
252.311000
0
LINE
8
Layer 1
10
11.128900
20
252.311000
11
10.000000
21
253.440000
0
LINE
8
Layer 1
10
10.000000
20
253.440000
11
10.000000
21
253.440000
0
LINE
8
Layer 1
10
10.000000
20
253.440000
11
11.128900
21
254.569000
0
LINE
8
Layer 1
10
11.128900
20
254.569000
11
7.177780
21
253.440000
0
LINE
8
Layer 1
10
7.177780
20
253.440000
11
11.128900
21
252.311000
0
LINE
8
Layer 1
10
11.128900
20
252.311000
11
10.000000
21
253.440000
0
LINE
8
Layer 1
10
10.000000
20
253.440000
11
10.000000
21
253.440000
0
LINE
8
Layer 1
10
10.000000
20
253.440000
11
11.128900
21
254.569000
0
LINE
8
Layer 1
10
11.128900
20
254.569000
11
7.177780
21
253.440000
0
LINE
8
Layer 1
10
7.177780
20
253.440000
11
11.128900
21
252.311000
0
LINE
8
Layer 1
10
11.128900
20
252.311000
11
10.000000
21
253.440000
0
LINE
8
Layer 1
10
10.000000
20
253.440000
11
10.000000
21
253.440000
0
LINE
8
Layer 1
10
10.000000
20
253.440000
11
11.128900
21
254.569000
0
LINE
8
Layer 1
10
11.128900
20
254.569000
11
7.177780
21
253.440000
0
LINE
8
Layer 1
10
7.177780
20
253.440000
11
11.128900
21
252.311000
0
LINE
8
Layer 1
10
11.128900
20
252.311000
11
10.000000
21
253.440000
0
LINE
8
Layer 1
10
10.000000
20
253.440000
11
10.000000
21
253.440000
0
LINE
8
Layer 1
10
10.000000
20
253.440000
11
11.128900
21
254.569000
0
LINE
8
Layer 1
10
11.128900
20
254.569000
11
7.177780
21
253.440000
0
LINE
8
Layer 1
10
7.177780
20
253.440000
11
11.128900
21
252.311000
0
LINE
8
Layer 1
10
11.128900
20
252.311000
11
10.000000
21
253.440000
0
LINE
8
Layer 1
10
10.000000
20
253.440000
11
10.000000
21
253.440000
0
LINE
8
Layer 1
10
10.000000
20
253.440000
11
11.128900
21
254.569000
0
LINE
8
Layer 1
10
11.128900
20
254.569000
11
7.177780
21
253.440000
0
LINE
8
Layer 1
10
7.177780
20
253.440000
11
11.128900
21
252.311000
0
LINE
8
Layer 1
10
11.128900
20
252.311000
11
10.000000
21
253.440000
0
LINE
8
Layer 1
10
10.000000
20
253.440000
11
10.000000
21
253.440000
0
LINE
8
Layer 1
10
10.000000
20
253.440000
11
11.128900
21
254.569000
0
LINE
8
Layer 1
10
11.128900
20
254.569000
11
7.177780
21
253.440000
0
LINE
8
Layer 1
10
7.177780
20
253.440000
11
11.128900
21
252.311000
0
LINE
8
Layer 1
10
11.128900
20
252.311000
11
10.000000
21
253.440000
0
LINE
8
Layer 1
10
10.000000
20
253.440000
11
10.000000
21
253.440000
0
LINE
8
Layer 1
10
10.000000
20
253.440000
11
11.128900
21
254.569000
0
LINE
8
Layer 1
10
11.128900
20
254.569000
11
7.177780
21
253.440000
0
LINE
8
Layer 1
10
7.177780
20
253.440000
11
11.128900
21
252.311000
0
LINE
8
Layer 1
10
11.128900
20
252.311000
11
10.000000
21
253.440000
0
LINE
8
Layer 1
10
10.000000
20
253.440000
11
10.000000
21
253.440000
0
LINE
8
Layer 1
10
10.000000
20
253.440000
11
11.128900
21
254.569000
0
LINE
8
Layer 1
10
11.128900
20
254.569000
11
7.177780
21
253.440000
0
LINE
8
Layer 1
10
7.177780
20
253.440000
11
11.128900
21
252.311000
0
LINE
8
Layer 1
10
11.128900
20
252.311000
11
10.000000
21
253.440000
0
LINE
8
Layer 1
10
10.000000
20
253.440000
11
10.000000
21
253.440000
0
LINE
8
Layer 1
10
10.000000
20
253.440000
11
11.128900
21
254.569000
0
LINE
8
Layer 1
10
11.128900
20
254.569000
11
7.177780
21
253.440000
0
LINE
8
Layer 1
10
7.177780
20
253.440000
11
11.128900
21
252.311000
0
LINE
8
Layer 1
10
11.128900
20
252.311000
11
10.000000
21
253.440000
0
LINE
8
Layer 1
10
10.000000
20
253.440000
11
10.000000
21
253.440000
0
LINE
8
Layer 1
10
10.000000
20
253.440000
11
11.128900
21
254.569000
0
LINE
8
Layer 1
10
11.128900
20
254.569000
11
7.177780
21
253.440000
0
LINE
8
Layer 1
10
7.177780
20
253.440000
11
11.128900
21
252.311000
0
LINE
8
Layer 1
10
11.128900
20
252.311000
11
10.000000
21
253.440000
0
LINE
8
Layer 1
10
10.000000
20
253.440000
11
10.000000
21
253.440000
0
LINE
8
Layer 1
10
10.000000
20
253.440000
11
11.128900
21
254.569000
0
LINE
8
Layer 1
10
11.128900
20
254.569000
11
7.177780
21
253.440000
0
LINE
8
Layer 1
10
7.177780
20
253.440000
11
11.128900
21
252.311000
0
LINE
8
Layer 1
10
11.128900
20
252.311000
11
10.000000
21
253.440000
0
LINE
8
Layer 1
10
10.000000
20
253.440000
11
10.000000
21
253.440000
0
LINE
8
Layer 1
10
10.000000
20
253.440000
11
11.128900
21
254.569000
0
LINE
8
Layer 1
10
11.128900
20
254.569000
11
7.177780
21
253.440000
0
LINE
8
Layer 1
10
7.177780
20
253.440000
11
11.128900
21
252.311000
0
LINE
8
Layer 1
10
11.128900
20
252.311000
11
10.000000
21
253.440000
0
LINE
8
Layer 1
10
10.000000
20
253.440000
11
10.000000
21
253.440000
0
LINE
8
Layer 1
10
10.000000
20
253.440000
11
11.128900
21
254.569000
0
LINE
8
Layer 1
10
11.128900
20
254.569000
11
7.177780
21
253.440000
0
LINE
8
Layer 1
10
7.177780
20
253.440000
11
11.128900
21
252.311000
0
LINE
8
Layer 1
10
11.128900
20
252.311000
11
10.000000
21
253.440000
0
LINE
8
Layer 1
10
10.000000
20
253.440000
11
10.000000
21
253.440000
0
LINE
8
Layer 1
10
10.000000
20
253.440000
11
11.128900
21
254.569000
0
LINE
8
Layer 1
10
11.128900
20
254.569000
11
7.177780
21
253.440000
0
LINE
8
Layer 1
10
7.177780
20
253.440000
11
11.128900
21
252.311000
0
LINE
8
Layer 1
10
11.128900
20
252.311000
11
10.000000
21
253.440000
0
LINE
8
Layer 1
10
10.000000
20
253.440000
11
10.000000
21
253.440000
0
LINE
8
Layer 1
10
10.000000
20
253.440000
11
11.128900
21
254.569000
0
LINE
8
Layer 1
10
11.128900
20
254.569000
11
7.177780
21
253.440000
0
LINE
8
Layer 1
10
7.177780
20
253.440000
11
11.128900
21
252.311000
0
LINE
8
Layer 1
10
11.128900
20
252.311000
11
10.000000
21
253.440000
0
LINE
8
Layer 1
10
10.000000
20
253.440000
11
10.000000
21
253.440000
0
LINE
8
Layer 1
10
10.000000
20
253.440000
11
11.128900
21
254.569000
0
LINE
8
Layer 1
10
11.128900
20
254.569000
11
7.177780
21
253.440000
0
LINE
8
Layer 1
10
7.177780
20
253.440000
11
11.128900
21
252.311000
0
LINE
8
Layer 1
10
11.128900
20
252.311000
11
10.000000
21
253.440000
0
LINE
8
Layer 1
10
10.000000
20
253.440000
11
10.000000
21
253.440000
0
LINE
8
Layer 1
10
10.000000
20
253.440000
11
11.128900
21
254.569000
0
LINE
8
Layer 1
10
11.128900
20
254.569000
11
7.177780
21
253.440000
0
LINE
8
Layer 1
10
7.177780
20
253.440000
11
11.128900
21
252.311000
0
LINE
8
Layer 1
10
11.128900
20
252.311000
11
10.000000
21
253.440000
0
LINE
8
Layer 1
10
10.000000
20
253.440000
11
10.000000
21
253.440000
0
LINE
8
Layer 1
10
10.000000
20
253.440000
11
11.128900
21
254.569000
0
LINE
8
Layer 1
10
11.128900
20
254.569000
11
7.177780
21
253.440000
0
LINE
8
Layer 1
10
7.177780
20
253.440000
11
11.128900
21
252.311000
0
LINE
8
Layer 1
10
11.128900
20
252.311000
11
10.000000
21
253.440000
0
LINE
8
Layer 1
10
10.000000
20
253.440000
11
10.000000
21
253.440000
0
LINE
8
Layer 1
10
10.000000
20
253.440000
11
11.128900
21
254.569000
0
LINE
8
Layer 1
10
11.128900
20
254.569000
11
7.177780
21
253.440000
0
LINE
8
Layer 1
10
7.177780
20
253.440000
11
11.128900
21
252.311000
0
LINE
8
Layer 1
10
11.128900
20
252.311000
11
10.000000
21
253.440000
0
LINE
8
Layer 1
10
10.000000
20
253.440000
11
10.000000
21
253.440000
0
LINE
8
Layer 1
10
10.000000
20
253.440000
11
11.128900
21
254.569000
0
LINE
8
Layer 1
10
11.128900
20
254.569000
11
7.177780
21
253.440000
0
LINE
8
Layer 1
10
7.177780
20
253.440000
11
11.128900
21
252.311000
0
LINE
8
Layer 1
10
11.128900
20
252.311000
11
10.000000
21
253.440000
0
LINE
8
Layer 1
10
10.000000
20
253.440000
11
10.000000
21
253.440000
0
LINE
8
Layer 1
10
10.000000
20
253.440000
11
11.128900
21
254.569000
0
LINE
8
Layer 1
10
11.128900
20
254.569000
11
7.177780
21
253.440000
0
LINE
8
Layer 1
10
7.177780
20
253.440000
11
11.128900
21
252.311000
0
LINE
8
Layer 1
10
11.128900
20
252.311000
11
10.000000
21
253.440000
0
LINE
8
Layer 1
10
10.000000
20
253.440000
11
10.000000
21
253.440000
0
LINE
8
Layer 1
10
10.000000
20
253.440000
11
11.128900
21
254.569000
0
LINE
8
Layer 1
10
11.128900
20
254.569000
11
7.177780
21
253.440000
0
LINE
8
Layer 1
10
7.177780
20
253.440000
11
11.128900
21
252.311000
0
LINE
8
Layer 1
10
11.128900
20
252.311000
11
10.000000
21
253.440000
0
LINE
8
Layer 1
10
10.000000
20
253.440000
11
10.000000
21
253.440000
0
LINE
8
Layer 1
10
0.000000
20
254.023000
11
80.574900
21
254.023000
0
LINE
8
Layer 1
10
80.574900
20
254.023000
11
80.574900
21
316.800000
0
LINE
8
Layer 1
10
80.574900
20
316.800000
11
0.000000
21
316.800000
0
LINE
8
Layer 1
10
0.000000
20
316.800000
11
0.000000
21
254.023000
0
LINE
8
Layer 1
10
0.000000
20
254.023000
11
80.574900
21
254.023000
0
LINE
8
Layer 1
10
80.574900
20
254.023000
11
80.574900
21
316.800000
0
LINE
8
Layer 1
10
80.574900
20
316.800000
11
0.000000
21
316.800000
0
LINE
8
Layer 1
10
0.000000
20
316.800000
11
0.000000
21
254.023000
0
LINE
8
Layer 1
10
0.000000
20
254.023000
11
80.574900
21
254.023000
0
LINE
8
Layer 1
10
80.574900
20
254.023000
11
80.574900
21
316.800000
0
LINE
8
Layer 1
10
80.574900
20
316.800000
11
0.000000
21
316.800000
0
LINE
8
Layer 1
10
0.000000
20
316.800000
11
0.000000
21
254.023000
0
LINE
8
Layer 1
10
0.000000
20
254.023000
11
80.574900
21
254.023000
0
LINE
8
Layer 1
10
80.574900
20
254.023000
11
80.574900
21
316.800000
0
LINE
8
Layer 1
10
80.574900
20
316.800000
11
0.000000
21
316.800000
0
LINE
8
Layer 1
10
0.000000
20
316.800000
11
0.000000
21
254.023000
0
LINE
8
Layer 1
10
0.000000
20
254.023000
11
80.574900
21
254.023000
0
LINE
8
Layer 1
10
80.574900
20
254.023000
11
80.574900
21
316.800000
0
LINE
8
Layer 1
10
80.574900
20
316.800000
11
0.000000
21
316.800000
0
LINE
8
Layer 1
10
0.000000
20
316.800000
11
0.000000
21
254.023000
0
LINE
8
Layer 1
10
0.000000
20
254.023000
11
80.574900
21
254.023000
0
LINE
8
Layer 1
10
80.574900
20
254.023000
11
80.574900
21
316.800000
0
LINE
8
Layer 1
10
80.574900
20
316.800000
11
0.000000
21
316.800000
0
LINE
8
Layer 1
10
0.000000
20
316.800000
11
0.000000
21
254.023000
0
LINE
8
Layer 1
10
0.000000
20
254.023000
11
80.574900
21
254.023000
0
LINE
8
Layer 1
10
80.574900
20
254.023000
11
80.574900
21
316.800000
0
LINE
8
Layer 1
10
80.574900
20
316.800000
11
0.000000
21
316.800000
0
LINE
8
Layer 1
10
0.000000
20
316.800000
11
0.000000
21
254.023000
0
LINE
8
Layer 1
10
0.000000
20
254.023000
11
80.574900
21
254.023000
0
LINE
8
Layer 1
10
80.574900
20
254.023000
11
80.574900
21
316.800000
0
LINE
8
Layer 1
10
80.574900
20
316.800000
11
0.000000
21
316.800000
0
LINE
8
Layer 1
10
0.000000
20
316.800000
11
0.000000
21
254.023000
0
LINE
8
Recorte
10
59.397300
20
272.867000
11
60.190970
21
274.080680
0
LINE
8
Recorte
10
60.190970
20
274.080680
11
61.109845
21
273.383944
0
LINE
8
Recorte
10
61.109845
20
273.383944
11
64.066015
21
275.901894
0
LINE
8
Recorte
10
64.066015
20
275.901894
11
62.372135
21
278.675054
0
LINE
8
Recorte
10
62.372135
20
278.675054
11
63.622845
21
280.297834
0
LINE
8
Recorte
10
63.622845
20
280.297834
11
65.572235
21
280.200524
0
LINE
8
Recorte
10
65.572235
20
280.200524
11
67.277955
21
280.115380
0
LINE
8
Recorte
10
67.277955
20
280.115380
11
68.095959
21
284.518480
0
LINE
8
Recorte
10
68.095959
20
284.518480
11
64.576999
21
285.830370
0
LINE
8
Recorte
10
64.576999
20
285.830370
11
64.137681
21
287.652690
0
LINE
8
Recorte
10
64.137681
20
287.652690
11
66.801151
21
290.062600
0
LINE
8
Recorte
10
66.801151
20
290.062600
11
64.113431
21
293.759050
0
LINE
8
Recorte
10
64.113431
20
293.759050
11
60.541001
21
292.502830
0
LINE
8
Recorte
10
60.541001
20
292.502830
11
58.756171
21
293.588720
0
LINE
8
Recorte
10
58.756171
20
293.588720
11
58.712624
21
297.073500
0
LINE
8
Recorte
10
58.712624
20
297.073500
11
57.710514
21
297.276899
0
LINE
8
Recorte
10
57.710514
20
297.276899
11
57.763264
21
297.541474
0
LINE
8
Recorte
10
57.763264
20
297.541474
11
57.805371
21
297.641454
0
LINE
8
Recorte
10
57.805371
20
297.641454
11
57.904937
21
297.623436
0
LINE
8
Recorte
10
57.904937
20
297.623436
11
58.757399
21
297.306275
0
LINE
8
Recorte
10
58.757399
20
297.306275
11
59.648635
21
297.132297
0
LINE
8
Recorte
10
59.648635
20
297.132297
11
61.464287
21
297.156734
0
LINE
8
Recorte
10
61.464287
20
297.156734
11
62.370442
21
297.413158
0
LINE
8
Recorte
10
62.370442
20
297.413158
11
63.196375
21
297.859198
0
LINE
8
Recorte
10
63.196375
20
297.859198
11
63.920986
21
298.460977
0
LINE
8
Recorte
10
63.920986
20
298.460977
11
64.523177
21
299.184614
0
LINE
8
Recorte
10
64.523177
20
299.184614
11
64.908429
21
299.772885
0
LINE
8
Recorte
10
64.908429
20
299.772885
11
65.103411
21
300.435354
0
LINE
8
Recorte
10
65.103411
20
300.435354
11
65.012167
21
300.726993
0
LINE
8
Recorte
10
65.012167
20
300.726993
11
64.791973
21
300.919872
0
LINE
8
Recorte
10
64.791973
20
300.919872
11
64.042418
21
301.170441
0
LINE
8
Recorte
10
64.042418
20
301.170441
11
63.260703
21
301.317298
0
LINE
8
Recorte
10
63.260703
20
301.317298
11
62.879012
21
300.753286
0
LINE
8
Recorte
10
62.879012
20
300.753286
11
62.340346
21
300.348256
0
LINE
8
Recorte
10
62.340346
20
300.348256
11
61.652748
21
300.173686
0
LINE
8
Recorte
10
61.652748
20
300.173686
11
60.947126
21
300.198952
0
LINE
8
Recorte
10
60.947126
20
300.198952
11
59.608746
21
300.671654
0
LINE
8
Recorte
10
59.608746
20
300.671654
11
58.047417
21
301.694150
0
LINE
8
Recorte
10
58.047417
20
301.694150
11
56.432096
21
302.622214
0
LINE
8
Recorte
10
56.432096
20
302.622214
11
55.233359
21
302.951014
0
LINE
8
Recorte
10
55.233359
20
302.951014
11
53.989826
21
303.000152
0
LINE
8
Recorte
10
53.989826
20
303.000152
11
52.327065
21
302.688825
0
LINE
8
Recorte
10
52.327065
20
302.688825
11
51.562665
21
302.329460
0
LINE
8
Recorte
10
51.562665
20
302.329460
11
50.887586
21
301.816302
0
LINE
8
Recorte
10
50.887586
20
301.816302
11
49.761456
21
300.421572
0
LINE
8
Recorte
10
49.761456
20
300.421572
11
49.324342
21
299.204492
0
LINE
8
Recorte
10
49.324342
20
299.204492
11
51.335172
21
298.794939
0
LINE
8
Recorte
10
51.335172
20
298.794939
11
51.912472
21
299.447493
0
LINE
8
Recorte
10
51.912472
20
299.447493
11
52.249345
21
299.713497
0
LINE
8
Recorte
10
52.249345
20
299.713497
11
52.654382
21
299.865229
0
LINE
8
Recorte
10
52.654382
20
299.865229
11
53.984142
21
299.839364
0
LINE
8
Recorte
10
53.984142
20
299.839364
11
55.216282
21
299.330715
0
LINE
8
Recorte
10
55.216282
20
299.330715
11
54.929649
21
297.843535
0
LINE
8
Recorte
10
54.929649
20
297.843535
11
54.124326
21
298.006695
0
LINE
8
Recorte
10
54.124326
20
298.006695
11
52.711566
21
294.830595
0
LINE
8
Recorte
10
52.711566
20
294.830595
11
50.611986
21
294.492149
0
LINE
8
Recorte
10
50.611986
20
294.492149
11
49.268446
21
295.755049
0
LINE
8
Recorte
10
49.268446
20
295.755049
11
47.913796
21
297.011199
0
LINE
8
Recorte
10
47.913796
20
297.011199
11
43.896536
21
294.673499
0
LINE
8
Recorte
10
43.896536
20
294.673499
11
45.508286
21
291.511179
0
LINE
8
Recorte
10
45.508286
20
291.511179
11
44.393726
21
289.925339
0
LINE
8
Recorte
10
44.393726
20
289.925339
11
42.341196
21
290.012531
0
LINE
8
Recorte
10
42.341196
20
290.012531
11
40.848856
21
290.060387
0
LINE
8
Recorte
10
40.848856
20
290.060387
11
40.522165
21
289.660372
0
LINE
8
Recorte
10
40.522165
20
289.660372
11
40.351110
21
289.174034
0
LINE
8
Recorte
10
40.351110
20
289.174034
11
39.776746
21
285.732804
0
LINE
8
Recorte
10
39.776746
20
285.732804
11
43.157896
21
284.404924
0
LINE
8
Recorte
10
43.157896
20
284.404924
11
43.598868
21
282.394644
0
LINE
8
Recorte
10
43.598868
20
282.394644
11
40.487808
21
279.673294
0
LINE
8
Recorte
10
40.487808
20
279.673294
11
42.105508
21
277.351124
0
LINE
8
Recorte
10
42.105508
20
277.351124
11
42.943473
21
276.198984
0
LINE
8
Recorte
10
42.943473
20
276.198984
11
45.220543
21
277.173530
0
LINE
8
Recorte
10
45.220543
20
277.173530
11
45.613311
21
276.621730
0
LINE
8
Recorte
10
45.613311
20
276.621730
11
42.841500
21
273.479000
0
LINE
8
Recorte
10
42.841500
20
273.479000
11
38.425200
21
274.014000
0
LINE
8
Recorte
10
38.425200
20
274.014000
11
37.181660
21
276.167050
0
LINE
8
Recorte
10
37.181660
20
276.167050
11
36.123306
21
277.580190
0
LINE
8
Recorte
10
36.123306
20
277.580190
11
35.454230
21
278.150459
0
LINE
8
Recorte
10
35.454230
20
278.150459
11
34.675840
21
278.568140
0
LINE
8
Recorte
10
34.675840
20
278.568140
11
33.857879
21
278.807088
0
LINE
8
Recorte
10
33.857879
20
278.807088
11
33.009520
21
278.895012
0
LINE
8
Recorte
10
33.009520
20
278.895012
11
32.160985
21
278.819980
0
LINE
8
Recorte
10
32.160985
20
278.819980
11
31.345724
21
278.577381
0
LINE
8
Recorte
10
31.345724
20
278.577381
11
30.595620
21
278.177475
0
LINE
8
Recorte
10
30.595620
20
278.177475
11
29.942560
21
277.630522
0
LINE
8
Recorte
10
29.942560
20
277.630522
11
29.034093
21
276.424684
0
LINE
8
Recorte
10
29.034093
20
276.424684
11
28.381520
21
275.059102
0
LINE
8
Recorte
10
28.381520
20
275.059102
11
22.641469
21
275.560426
0
LINE
8
Recorte
10
22.641469
20
275.560426
11
17.163220
21
275.925061
0
LINE
8
Recorte
10
17.163220
20
275.925061
11
17.455364
21
274.254331
0
LINE
8
Recorte
10
17.455364
20
274.254331
11
16.175343
21
273.587098
0
LINE
8
Recorte
10
16.175343
20
273.587098
11
15.200653
21
272.511515
0
LINE
8
Recorte
10
15.200653
20
272.511515
11
14.555436
21
271.025902
0
LINE
8
Recorte
10
14.555436
20
271.025902
11
14.263834
21
269.128581
0
LINE
8
Recorte
10
14.263834
20
269.128581
11
14.320997
21
268.218013
0
LINE
8
Recorte
10
14.320997
20
268.218013
11
14.567321
21
267.428538
0
LINE
8
Recorte
10
14.567321
20
267.428538
11
14.966785
21
266.751615
0
LINE
8
Recorte
10
14.966785
20
266.751615
11
15.483370
21
266.178702
0
LINE
8
Recorte
10
15.483370
20
266.178702
11
16.723824
21
265.310746
0
LINE
8
Recorte
10
16.723824
20
265.310746
11
18.000524
21
264.756341
0
LINE
8
Recorte
10
18.000524
20
264.756341
11
18.369486
21
256.941081
0
LINE
8
Recorte
10
18.369486
20
256.941081
11
3.844786
21
256.924656
0
LINE
8
Recorte
10
3.844786
20
256.924656
11
3.844720
21
256.925000
0
LINE
8
Recorte
10
3.844720
20
256.925000
11
3.844720
21
245.721000
0
LINE
8
Recorte
10
3.844720
20
245.721000
11
14.962700
21
245.721000
0
LINE
8
Recorte
10
14.962700
20
245.721000
11
14.972498
21
244.186949
0
LINE
8
Recorte
10
14.972498
20
244.186949
11
15.383284
21
242.912428
0
LINE
8
Recorte
10
15.383284
20
242.912428
11
16.300688
21
241.775422
0
LINE
8
Recorte
10
16.300688
20
241.775422
11
17.830340
21
240.653920
0
LINE
8
Recorte
10
17.830340
20
240.653920
11
16.854955
21
230.184820
0
LINE
8
Recorte
10
16.854955
20
230.184820
11
17.448126
21
230.224740
0
LINE
8
Recorte
10
17.448126
20
230.224740
11
19.084328
21
228.958517
0
LINE
8
Recorte
10
19.084328
20
228.958517
11
20.846366
21
227.881530
0
LINE
8
Recorte
10
20.846366
20
227.881530
11
21.828914
21
227.385381
0
LINE
8
Recorte
10
21.828914
20
227.385381
11
21.905806
21
227.349606
0
LINE
8
Recorte
10
21.905806
20
227.349606
11
21.780026
21
224.825407
0
LINE
8
Recorte
10
21.780026
20
224.825407
11
21.500204
21
222.456918
0
LINE
8
Recorte
10
21.500204
20
222.456918
11
21.092213
21
220.014036
0
LINE
8
Recorte
10
21.092213
20
220.014036
11
26.829813
21
220.201451
0
LINE
8
Recorte
10
26.829813
20
220.201451
11
32.274713
21
220.518951
0
LINE
8
Recorte
10
32.274713
20
220.518951
11
42.283501
21
220.975954
0
LINE
8
Recorte
10
42.283501
20
220.975954
11
52.450238
21
221.239808
0
LINE
8
Recorte
10
52.450238
20
221.239808
11
62.712488
21
221.260917
0
LINE
8
Recorte
10
62.712488
20
221.260917
11
73.007813
21
220.989686
0
LINE
8
Recorte
10
73.007813
20
220.989686
11
80.382966
21
220.986429
0
LINE
8
Recorte
10
80.382966
20
220.986429
11
88.448813
21
220.587106
0
LINE
8
Recorte
10
88.448813
20
220.587106
11
96.658885
21
220.062616
0
LINE
8
Recorte
10
96.658885
20
220.062616
11
104.466713
21
219.683856
0
LINE
8
Recorte
10
104.466713
20
219.683856
11
104.653732
21
220.629351
0
LINE
8
Recorte
10
104.653732
20
220.629351
11
104.930060
21
223.095016
0
LINE
8
Recorte
10
104.930060
20
223.095016
11
104.968249
21
224.724093
0
LINE
8
Recorte
10
104.968249
20
224.724093
11
104.868606
21
226.524627
0
LINE
8
Recorte
10
104.868606
20
226.524627
11
104.577745
21
228.427091
0
LINE
8
Recorte
10
104.577745
20
228.427091
11
104.042279
21
230.361956
0
LINE
8
Recorte
10
104.042279
20
230.361956
11
105.890499
21
230.302424
0
LINE
8
Recorte
10
105.890499
20
230.302424
11
109.497649
21
230.382903
0
LINE
8
Recorte
10
109.497649
20
230.382903
11
109.814045
21
230.396675
0
LINE
8
Recorte
10
109.814045
20
230.396675
11
109.707122
21
231.860430
0
LINE
8
Recorte
10
109.707122
20
231.860430
11
109.312153
21
235.449580
0
LINE
8
Recorte
10
109.312153
20
235.449580
11
108.517834
21
239.960953
0
LINE
8
Recorte
10
108.517834
20
239.960953
11
107.936138
21
242.186481
0
LINE
8
Recorte
10
107.936138
20
242.186481
11
107.212865
21
244.191375
0
LINE
8
Recorte
10
107.212865
20
244.191375
11
106.948282
21
244.792200
0
LINE
8
Recorte
10
106.948282
20
244.792200
11
106.023922
21
246.543374
0
LINE
8
Recorte
10
106.023922
20
246.543374
11
104.964073
21
248.227663
0
LINE
8
Recorte
10
104.964073
20
248.227663
11
102.454782
21
251.401270
0
LINE
8
Recorte
10
102.454782
20
251.401270
11
101.232742
21
252.678430
0
LINE
8
Recorte
10
101.232742
20
252.678430
11
101.228339
21
252.682833
0
LINE
8
Recorte
10
101.228339
20
252.682833
11
99.606298
21
254.348412
0
LINE
8
Recorte
10
99.606298
20
254.348412
11
98.063269
21
255.610333
0
LINE
8
Recorte
10
98.063269
20
255.610333
11
98.003187
21
255.707347
0
LINE
8
Recorte
10
98.003187
20
255.707347
11
97.991052
21
256.345654
0
LINE
8
Recorte
10
97.991052
20
256.345654
11
97.591733
21
258.133550
0
LINE
8
Recorte
10
97.591733
20
258.133550
11
96.888622
21
259.830434
0
LINE
8
Recorte
10
96.888622
20
259.830434
11
96.160833
21
260.907227
0
LINE
8
Recorte
10
96.160833
20
260.907227
11
95.227489
21
261.806375
0
LINE
8
Recorte
10
95.227489
20
261.806375
11
94.146028
21
262.533489
0
LINE
8
Recorte
10
94.146028
20
262.533489
11
92.973892
21
263.094184
0
LINE
8
Recorte
10
92.973892
20
263.094184
11
90.735622
21
263.751152
0
LINE
8
Recorte
10
90.735622
20
263.751152
11
88.417552
21
264.037313
0
LINE
8
Recorte
10
88.417552
20
264.037313
11
87.018856
21
265.385836
0
LINE
8
Recorte
10
87.018856
20
265.385836
11
85.310352
21
266.311623
0
LINE
8
Recorte
10
85.310352
20
266.311623
11
83.811305
21
266.703078
0
LINE
8
Recorte
10
83.811305
20
266.703078
11
82.263792
21
266.793935
0
LINE
8
Recorte
10
82.263792
20
266.793935
11
80.224512
21
266.508710
0
LINE
8
Recorte
10
80.224512
20
266.508710
11
78.260322
21
265.880021
0
LINE
8
Recorte
10
78.260322
20
265.880021
11
77.872817
21
265.740013
0
LINE
8
Recorte
10
77.872817
20
265.740013
11
74.018809
21
267.049705
0
LINE
8
Recorte
10
74.018809
20
267.049705
11
69.987638
21
268.282615
0
LINE
8
Recorte
10
69.987638
20
268.282615
11
65.502006
21
269.443530
0
LINE
8
Recorte
10
65.502006
20
269.443530
11
60.284617
21
270.537233
0
LINE
8
Recorte
10
60.284617
20
270.537233
11
59.397300
21
272.867000
 0 
ENDSEC
 0 
EOF