<?xml version="1.0" encoding="UTF-8" standalone="no"?>
<svg
   xmlns:dc="http://purl.org/dc/elements/1.1/"
   xmlns:cc="http://creativecommons.org/ns#"
   xmlns:rdf="http://www.w3.org/1999/02/22-rdf-syntax-ns#"
   xmlns:svg="http://www.w3.org/2000/svg"
   xmlns="http://www.w3.org/2000/svg"
   xmlns:xlink="http://www.w3.org/1999/xlink"
   xmlns:sodipodi="http://sodipodi.sourceforge.net/DTD/sodipodi-0.dtd"
   xmlns:inkscape="http://www.inkscape.org/namespaces/inkscape"
   version="1.1"
   id="svg54"
   xml:space="preserve"
   width="420mm"
   height="297mm"
   viewBox="0 0 1587.4015 1122.5197"
   sodipodi:docname="OSHWI color_6.svg"
   inkscape:version="1.0.1 (c497b03c, 2020-09-10)"
   inkscape:export-filename="\\Mac\Home\Documents\Papelotes\• 2.020\OSHWDem - AMTEGA 2020\AMTEGA 2020\oshwdem_2020\Badge_2020\badge 2020\OSHWI color_6 silk.png"
   inkscape:export-xdpi="1199.9576"
   inkscape:export-ydpi="1199.9576"><metadata
     id="metadata60"><rdf:RDF><cc:Work
         rdf:about=""><dc:format>image/svg+xml</dc:format><dc:type
           rdf:resource="http://purl.org/dc/dcmitype/StillImage" /><dc:title /><cc:license
           rdf:resource="http://creativecommons.org/licenses/by/4.0/" /></cc:Work><cc:License
         rdf:about="http://creativecommons.org/licenses/by/4.0/"><cc:permits
           rdf:resource="http://creativecommons.org/ns#Reproduction" /><cc:permits
           rdf:resource="http://creativecommons.org/ns#Distribution" /><cc:requires
           rdf:resource="http://creativecommons.org/ns#Notice" /><cc:requires
           rdf:resource="http://creativecommons.org/ns#Attribution" /><cc:permits
           rdf:resource="http://creativecommons.org/ns#DerivativeWorks" /></cc:License></rdf:RDF></metadata><defs
     id="defs58"><marker
       style="overflow:visible"
       id="marker2578"
       refX="0.0"
       refY="0.0"
       orient="auto"
       inkscape:stockid="Arrow1Lstart"
       inkscape:isstock="true"><path
         transform="scale(0.8) translate(12.5,0)"
         style="fill-rule:evenodd;stroke:#ff0000;stroke-width:1pt;stroke-opacity:1;fill:#ffffff;fill-opacity:1"
         d="M 0.0,0.0 L 5.0,-5.0 L -12.5,0.0 L 5.0,5.0 L 0.0,0.0 z "
         id="path2576" /></marker><marker
       style="overflow:visible"
       id="marker2568"
       refX="0.0"
       refY="0.0"
       orient="auto"
       inkscape:stockid="Arrow1Lstart"
       inkscape:isstock="true"><path
         transform="scale(0.8) translate(12.5,0)"
         style="fill-rule:evenodd;stroke:#ff0000;stroke-width:1pt;stroke-opacity:1;fill:#ffffff;fill-opacity:1"
         d="M 0.0,0.0 L 5.0,-5.0 L -12.5,0.0 L 5.0,5.0 L 0.0,0.0 z "
         id="path2566" /></marker><marker
       style="overflow:visible"
       id="marker2558"
       refX="0.0"
       refY="0.0"
       orient="auto"
       inkscape:stockid="Arrow1Lstart"
       inkscape:isstock="true"><path
         transform="scale(0.8) translate(12.5,0)"
         style="fill-rule:evenodd;stroke:#ff0000;stroke-width:1pt;stroke-opacity:1;fill:#ffffff;fill-opacity:1"
         d="M 0.0,0.0 L 5.0,-5.0 L -12.5,0.0 L 5.0,5.0 L 0.0,0.0 z "
         id="path2556" /></marker><marker
       style="overflow:visible"
       id="marker2548"
       refX="0.0"
       refY="0.0"
       orient="auto"
       inkscape:stockid="Arrow1Lstart"
       inkscape:isstock="true"><path
         transform="scale(0.8) translate(12.5,0)"
         style="fill-rule:evenodd;stroke:#ff0000;stroke-width:1pt;stroke-opacity:1;fill:#ffffff;fill-opacity:1"
         d="M 0.0,0.0 L 5.0,-5.0 L -12.5,0.0 L 5.0,5.0 L 0.0,0.0 z "
         id="path2546" /></marker><marker
       style="overflow:visible"
       id="marker2538"
       refX="0.0"
       refY="0.0"
       orient="auto"
       inkscape:stockid="Arrow1Lstart"
       inkscape:isstock="true"><path
         transform="scale(0.8) translate(12.5,0)"
         style="fill-rule:evenodd;stroke:#ff0000;stroke-width:1pt;stroke-opacity:1;fill:#ffffff;fill-opacity:1"
         d="M 0.0,0.0 L 5.0,-5.0 L -12.5,0.0 L 5.0,5.0 L 0.0,0.0 z "
         id="path2536" /></marker><marker
       style="overflow:visible"
       id="marker2528"
       refX="0.0"
       refY="0.0"
       orient="auto"
       inkscape:stockid="Arrow1Lstart"
       inkscape:isstock="true"><path
         transform="scale(0.8) translate(12.5,0)"
         style="fill-rule:evenodd;stroke:#ff0000;stroke-width:1pt;stroke-opacity:1;fill:#ffffff;fill-opacity:1"
         d="M 0.0,0.0 L 5.0,-5.0 L -12.5,0.0 L 5.0,5.0 L 0.0,0.0 z "
         id="path2526" /></marker><marker
       style="overflow:visible"
       id="marker2956"
       refX="0.0"
       refY="0.0"
       orient="auto"
       inkscape:stockid="Arrow1Lstart"
       inkscape:isstock="true"><path
         transform="scale(0.8) translate(12.5,0)"
         style="fill-rule:evenodd;stroke:#ff0000;stroke-width:1pt;stroke-opacity:1;fill:#ffffff;fill-opacity:1"
         d="M 0.0,0.0 L 5.0,-5.0 L -12.5,0.0 L 5.0,5.0 L 0.0,0.0 z "
         id="path2954" /></marker><marker
       style="overflow:visible"
       id="marker1645"
       refX="0.0"
       refY="0.0"
       orient="auto"
       inkscape:stockid="Arrow1Lstart"
       inkscape:isstock="true"><path
         transform="scale(0.8) translate(12.5,0)"
         style="fill-rule:evenodd;stroke:none;stroke-width:1pt;stroke-opacity:1;fill:#ffffff;fill-opacity:1"
         d="M 0.0,0.0 L 5.0,-5.0 L -12.5,0.0 L 5.0,5.0 L 0.0,0.0 z "
         id="path1643" /></marker><marker
       style="overflow:visible"
       id="marker1635"
       refX="0.0"
       refY="0.0"
       orient="auto"
       inkscape:stockid="Arrow1Lstart"
       inkscape:isstock="true"><path
         transform="scale(0.8) translate(12.5,0)"
         style="fill-rule:evenodd;stroke:none;stroke-width:1pt;stroke-opacity:1;fill:#ffffff;fill-opacity:1"
         d="M 0.0,0.0 L 5.0,-5.0 L -12.5,0.0 L 5.0,5.0 L 0.0,0.0 z "
         id="path1633" /></marker><marker
       style="overflow:visible"
       id="marker1625"
       refX="0.0"
       refY="0.0"
       orient="auto"
       inkscape:stockid="Arrow1Lstart"
       inkscape:isstock="true"><path
         transform="scale(0.8) translate(12.5,0)"
         style="fill-rule:evenodd;stroke:none;stroke-width:1pt;stroke-opacity:1;fill:#ffffff;fill-opacity:1"
         d="M 0.0,0.0 L 5.0,-5.0 L -12.5,0.0 L 5.0,5.0 L 0.0,0.0 z "
         id="path1623" /></marker><marker
       style="overflow:visible"
       id="marker1615"
       refX="0.0"
       refY="0.0"
       orient="auto"
       inkscape:stockid="Arrow1Lstart"
       inkscape:isstock="true"><path
         transform="scale(0.8) translate(12.5,0)"
         style="fill-rule:evenodd;stroke:none;stroke-width:1pt;stroke-opacity:1;fill:#ffffff;fill-opacity:1"
         d="M 0.0,0.0 L 5.0,-5.0 L -12.5,0.0 L 5.0,5.0 L 0.0,0.0 z "
         id="path1613" /></marker><marker
       style="overflow:visible"
       id="marker1595"
       refX="0.0"
       refY="0.0"
       orient="auto"
       inkscape:stockid="Arrow1Lstart"
       inkscape:isstock="true"><path
         transform="scale(0.8) translate(12.5,0)"
         style="fill-rule:evenodd;stroke:none;stroke-width:1pt;stroke-opacity:1;fill:#ffffff;fill-opacity:1"
         d="M 0.0,0.0 L 5.0,-5.0 L -12.5,0.0 L 5.0,5.0 L 0.0,0.0 z "
         id="path1593" /></marker><marker
       style="overflow:visible"
       id="marker3612"
       refX="0.0"
       refY="0.0"
       orient="auto"
       inkscape:stockid="Arrow1Lstart"
       inkscape:isstock="true"><path
         transform="scale(0.8) translate(12.5,0)"
         style="fill-rule:evenodd;stroke:#ff0000;stroke-width:1pt;stroke-opacity:1;fill:#ffffff;fill-opacity:1"
         d="M 0.0,0.0 L 5.0,-5.0 L -12.5,0.0 L 5.0,5.0 L 0.0,0.0 z "
         id="path3610" /></marker><marker
       style="overflow:visible"
       id="marker3602"
       refX="0.0"
       refY="0.0"
       orient="auto"
       inkscape:stockid="Arrow1Lstart"
       inkscape:isstock="true"><path
         transform="scale(0.8) translate(12.5,0)"
         style="fill-rule:evenodd;stroke:#ff0000;stroke-width:1pt;stroke-opacity:1;fill:#ffffff;fill-opacity:1"
         d="M 0.0,0.0 L 5.0,-5.0 L -12.5,0.0 L 5.0,5.0 L 0.0,0.0 z "
         id="path3600" /></marker><marker
       style="overflow:visible"
       id="marker3592"
       refX="0.0"
       refY="0.0"
       orient="auto"
       inkscape:stockid="Arrow1Lstart"
       inkscape:isstock="true"><path
         transform="scale(0.8) translate(12.5,0)"
         style="fill-rule:evenodd;stroke:#ff0000;stroke-width:1pt;stroke-opacity:1;fill:#ffffff;fill-opacity:1"
         d="M 0.0,0.0 L 5.0,-5.0 L -12.5,0.0 L 5.0,5.0 L 0.0,0.0 z "
         id="path3590" /></marker><marker
       style="overflow:visible"
       id="marker3582"
       refX="0.0"
       refY="0.0"
       orient="auto"
       inkscape:stockid="Arrow1Lstart"
       inkscape:isstock="true"><path
         transform="scale(0.8) translate(12.5,0)"
         style="fill-rule:evenodd;stroke:#ff0000;stroke-width:1pt;stroke-opacity:1;fill:#ffffff;fill-opacity:1"
         d="M 0.0,0.0 L 5.0,-5.0 L -12.5,0.0 L 5.0,5.0 L 0.0,0.0 z "
         id="path3580" /></marker><marker
       style="overflow:visible"
       id="marker2220"
       refX="0.0"
       refY="0.0"
       orient="auto"
       inkscape:stockid="Arrow1Lstart"
       inkscape:isstock="true"><path
         transform="scale(0.8) translate(12.5,0)"
         style="fill-rule:evenodd;stroke:none;stroke-width:1pt;stroke-opacity:1;fill:#ffffff;fill-opacity:1"
         d="M 0.0,0.0 L 5.0,-5.0 L -12.5,0.0 L 5.0,5.0 L 0.0,0.0 z "
         id="path2218" /></marker><marker
       style="overflow:visible"
       id="marker1936"
       refX="0.0"
       refY="0.0"
       orient="auto"
       inkscape:stockid="Arrow1Lstart"
       inkscape:isstock="true"><path
         transform="scale(0.8) translate(12.5,0)"
         style="fill-rule:evenodd;stroke:none;stroke-width:1pt;stroke-opacity:1;fill:#ffffff;fill-opacity:1"
         d="M 0.0,0.0 L 5.0,-5.0 L -12.5,0.0 L 5.0,5.0 L 0.0,0.0 z "
         id="path1934" /></marker><marker
       style="overflow:visible"
       id="marker1660"
       refX="0.0"
       refY="0.0"
       orient="auto"
       inkscape:stockid="Arrow1Lstart"
       inkscape:isstock="true"><path
         transform="scale(0.8) translate(12.5,0)"
         style="fill-rule:evenodd;stroke:none;stroke-width:1pt;stroke-opacity:1;fill:#ffffff;fill-opacity:1"
         d="M 0.0,0.0 L 5.0,-5.0 L -12.5,0.0 L 5.0,5.0 L 0.0,0.0 z "
         id="path1658" /></marker><marker
       style="overflow:visible"
       id="marker1323"
       refX="0.0"
       refY="0.0"
       orient="auto"
       inkscape:stockid="Arrow1Lstart"
       inkscape:isstock="true"><path
         transform="scale(0.8) translate(12.5,0)"
         style="fill-rule:evenodd;stroke:none;stroke-width:1pt;stroke-opacity:1;fill:#ffffff;fill-opacity:1"
         d="M 0.0,0.0 L 5.0,-5.0 L -12.5,0.0 L 5.0,5.0 L 0.0,0.0 z "
         id="path1321" /></marker><marker
       style="overflow:visible"
       id="marker2932"
       refX="0.0"
       refY="0.0"
       orient="auto"
       inkscape:stockid="Arrow1Lstart"
       inkscape:isstock="true"><path
         transform="scale(0.8) translate(12.5,0)"
         style="fill-rule:evenodd;stroke:#ff0000;stroke-width:1pt;stroke-opacity:1;fill:#ffffff;fill-opacity:1"
         d="M 0.0,0.0 L 5.0,-5.0 L -12.5,0.0 L 5.0,5.0 L 0.0,0.0 z "
         id="path2930" /></marker><marker
       style="overflow:visible"
       id="marker2922"
       refX="0.0"
       refY="0.0"
       orient="auto"
       inkscape:stockid="Arrow1Lstart"
       inkscape:isstock="true"><path
         transform="scale(0.8) translate(12.5,0)"
         style="fill-rule:evenodd;stroke:#ff0000;stroke-width:1pt;stroke-opacity:1;fill:#ffffff;fill-opacity:1"
         d="M 0.0,0.0 L 5.0,-5.0 L -12.5,0.0 L 5.0,5.0 L 0.0,0.0 z "
         id="path2920" /></marker><marker
       style="overflow:visible"
       id="marker2912"
       refX="0.0"
       refY="0.0"
       orient="auto"
       inkscape:stockid="Arrow1Lstart"
       inkscape:isstock="true"><path
         transform="scale(0.8) translate(12.5,0)"
         style="fill-rule:evenodd;stroke:#ff0000;stroke-width:1pt;stroke-opacity:1;fill:#ffffff;fill-opacity:1"
         d="M 0.0,0.0 L 5.0,-5.0 L -12.5,0.0 L 5.0,5.0 L 0.0,0.0 z "
         id="path2910" /></marker><marker
       style="overflow:visible"
       id="marker2902"
       refX="0.0"
       refY="0.0"
       orient="auto"
       inkscape:stockid="Arrow1Lstart"
       inkscape:isstock="true"><path
         transform="scale(0.8) translate(12.5,0)"
         style="fill-rule:evenodd;stroke:#ff0000;stroke-width:1pt;stroke-opacity:1;fill:#ffffff;fill-opacity:1"
         d="M 0.0,0.0 L 5.0,-5.0 L -12.5,0.0 L 5.0,5.0 L 0.0,0.0 z "
         id="path2900" /></marker><marker
       style="overflow:visible"
       id="marker2892"
       refX="0.0"
       refY="0.0"
       orient="auto"
       inkscape:stockid="Arrow1Lstart"
       inkscape:isstock="true"><path
         transform="scale(0.8) translate(12.5,0)"
         style="fill-rule:evenodd;stroke:#ff0000;stroke-width:1pt;stroke-opacity:1;fill:#ffffff;fill-opacity:1"
         d="M 0.0,0.0 L 5.0,-5.0 L -12.5,0.0 L 5.0,5.0 L 0.0,0.0 z "
         id="path2890" /></marker><marker
       style="overflow:visible"
       id="marker2593"
       refX="0.0"
       refY="0.0"
       orient="auto"
       inkscape:stockid="Arrow1Lstart"
       inkscape:isstock="true"><path
         transform="scale(0.8) translate(12.5,0)"
         style="fill-rule:evenodd;stroke:#ff0000;stroke-width:1pt;stroke-opacity:1;fill:#ffffff;fill-opacity:1"
         d="M 0.0,0.0 L 5.0,-5.0 L -12.5,0.0 L 5.0,5.0 L 0.0,0.0 z "
         id="path2591" /></marker><marker
       style="overflow:visible"
       id="marker1616"
       refX="0.0"
       refY="0.0"
       orient="auto"
       inkscape:stockid="Arrow1Lstart"
       inkscape:isstock="true"
       inkscape:collect="always"><path
         transform="scale(0.8) translate(12.5,0)"
         style="fill-rule:evenodd;stroke:#ff0000;stroke-width:1pt;stroke-opacity:1;fill:#0000ff;fill-opacity:1"
         d="M 0.0,0.0 L 5.0,-5.0 L -12.5,0.0 L 5.0,5.0 L 0.0,0.0 z "
         id="path1614" /></marker><marker
       style="overflow:visible"
       id="marker1606"
       refX="0.0"
       refY="0.0"
       orient="auto"
       inkscape:stockid="Arrow1Lstart"
       inkscape:isstock="true"><path
         transform="scale(0.8) translate(12.5,0)"
         style="fill-rule:evenodd;stroke:#ff0000;stroke-width:1pt;stroke-opacity:1;fill:#0000ff;fill-opacity:1"
         d="M 0.0,0.0 L 5.0,-5.0 L -12.5,0.0 L 5.0,5.0 L 0.0,0.0 z "
         id="path1604" /></marker><marker
       style="overflow:visible"
       id="marker1596"
       refX="0.0"
       refY="0.0"
       orient="auto"
       inkscape:stockid="Arrow1Lstart"
       inkscape:isstock="true"><path
         transform="scale(0.8) translate(12.5,0)"
         style="fill-rule:evenodd;stroke:#ff0000;stroke-width:1pt;stroke-opacity:1;fill:#0000ff;fill-opacity:1"
         d="M 0.0,0.0 L 5.0,-5.0 L -12.5,0.0 L 5.0,5.0 L 0.0,0.0 z "
         id="path1594" /></marker><marker
       style="overflow:visible"
       id="marker1586"
       refX="0.0"
       refY="0.0"
       orient="auto"
       inkscape:stockid="Arrow1Lstart"
       inkscape:isstock="true"
       inkscape:collect="always"><path
         transform="scale(0.8) translate(12.5,0)"
         style="fill-rule:evenodd;stroke:#ff0000;stroke-width:1pt;stroke-opacity:1;fill:#0000ff;fill-opacity:1"
         d="M 0.0,0.0 L 5.0,-5.0 L -12.5,0.0 L 5.0,5.0 L 0.0,0.0 z "
         id="path1584" /></marker><marker
       style="overflow:visible"
       id="marker1576"
       refX="0.0"
       refY="0.0"
       orient="auto"
       inkscape:stockid="Arrow1Lstart"
       inkscape:isstock="true"
       inkscape:collect="always"><path
         transform="scale(0.8) translate(12.5,0)"
         style="fill-rule:evenodd;stroke:#ff0000;stroke-width:1pt;stroke-opacity:1;fill:#0000ff;fill-opacity:1"
         d="M 0.0,0.0 L 5.0,-5.0 L -12.5,0.0 L 5.0,5.0 L 0.0,0.0 z "
         id="path1574" /></marker><marker
       style="overflow:visible"
       id="marker1215"
       refX="0.0"
       refY="0.0"
       orient="auto"
       inkscape:stockid="Arrow1Lstart"
       inkscape:isstock="true"><path
         transform="scale(0.8) translate(12.5,0)"
         style="fill-rule:evenodd;stroke:#ff0000;stroke-width:1pt;stroke-opacity:1;fill:#0000ff;fill-opacity:1"
         d="M 0.0,0.0 L 5.0,-5.0 L -12.5,0.0 L 5.0,5.0 L 0.0,0.0 z "
         id="path1213" /></marker><marker
       style="overflow:visible"
       id="marker1205"
       refX="0.0"
       refY="0.0"
       orient="auto"
       inkscape:stockid="Arrow1Lstart"
       inkscape:isstock="true"
       inkscape:collect="always"><path
         transform="scale(0.8) translate(12.5,0)"
         style="fill-rule:evenodd;stroke:#ff0000;stroke-width:1pt;stroke-opacity:1;fill:#0000ff;fill-opacity:1"
         d="M 0.0,0.0 L 5.0,-5.0 L -12.5,0.0 L 5.0,5.0 L 0.0,0.0 z "
         id="path1203" /></marker><marker
       style="overflow:visible"
       id="marker1195"
       refX="0.0"
       refY="0.0"
       orient="auto"
       inkscape:stockid="Arrow1Lstart"
       inkscape:isstock="true"
       inkscape:collect="always"><path
         transform="scale(0.8) translate(12.5,0)"
         style="fill-rule:evenodd;stroke:#ff0000;stroke-width:1pt;stroke-opacity:1;fill:#0000ff;fill-opacity:1"
         d="M 0.0,0.0 L 5.0,-5.0 L -12.5,0.0 L 5.0,5.0 L 0.0,0.0 z "
         id="path1193" /></marker><marker
       style="overflow:visible"
       id="marker1185"
       refX="0.0"
       refY="0.0"
       orient="auto"
       inkscape:stockid="Arrow1Lstart"
       inkscape:isstock="true"
       inkscape:collect="always"><path
         transform="scale(0.8) translate(12.5,0)"
         style="fill-rule:evenodd;stroke:#ff0000;stroke-width:1pt;stroke-opacity:1;fill:#0000ff;fill-opacity:1"
         d="M 0.0,0.0 L 5.0,-5.0 L -12.5,0.0 L 5.0,5.0 L 0.0,0.0 z "
         id="path1183" /></marker><marker
       style="overflow:visible"
       id="marker1175"
       refX="0.0"
       refY="0.0"
       orient="auto"
       inkscape:stockid="Arrow1Lstart"
       inkscape:isstock="true"><path
         transform="scale(0.8) translate(12.5,0)"
         style="fill-rule:evenodd;stroke:#ff0000;stroke-width:1pt;stroke-opacity:1;fill:#0000ff;fill-opacity:1"
         d="M 0.0,0.0 L 5.0,-5.0 L -12.5,0.0 L 5.0,5.0 L 0.0,0.0 z "
         id="path1173" /></marker><marker
       style="overflow:visible"
       id="marker1165"
       refX="0.0"
       refY="0.0"
       orient="auto"
       inkscape:stockid="Arrow1Lstart"
       inkscape:isstock="true"><path
         transform="scale(0.8) translate(12.5,0)"
         style="fill-rule:evenodd;stroke:#ff0000;stroke-width:1pt;stroke-opacity:1;fill:#0000ff;fill-opacity:1"
         d="M 0.0,0.0 L 5.0,-5.0 L -12.5,0.0 L 5.0,5.0 L 0.0,0.0 z "
         id="path1163" /></marker><marker
       style="overflow:visible"
       id="marker2191"
       refX="0.0"
       refY="0.0"
       orient="auto"
       inkscape:stockid="Arrow1Lstart"
       inkscape:isstock="true"><path
         transform="scale(0.8) translate(12.5,0)"
         style="fill-rule:evenodd;stroke:#ff0000;stroke-width:1pt;stroke-opacity:1;fill:#ffffff;fill-opacity:1"
         d="M 0.0,0.0 L 5.0,-5.0 L -12.5,0.0 L 5.0,5.0 L 0.0,0.0 z "
         id="path2189" /></marker><marker
       style="overflow:visible"
       id="marker1983"
       refX="0.0"
       refY="0.0"
       orient="auto"
       inkscape:stockid="Arrow1Lstart"
       inkscape:isstock="true"><path
         transform="scale(0.8) translate(12.5,0)"
         style="fill-rule:evenodd;stroke:#ff0000;stroke-width:1pt;stroke-opacity:1;fill:#ffffff;fill-opacity:1"
         d="M 0.0,0.0 L 5.0,-5.0 L -12.5,0.0 L 5.0,5.0 L 0.0,0.0 z "
         id="path1981" /></marker><marker
       style="overflow:visible"
       id="marker1248"
       refX="0.0"
       refY="0.0"
       orient="auto"
       inkscape:stockid="Arrow1Lstart"
       inkscape:isstock="true"><path
         transform="scale(0.8) translate(12.5,0)"
         style="fill-rule:evenodd;stroke:#000000;stroke-width:1.0pt"
         d="M 0.0,0.0 L 5.0,-5.0 L -12.5,0.0 L 5.0,5.0 L 0.0,0.0 z "
         id="path1246" /></marker><marker
       style="overflow:visible"
       id="marker1220"
       refX="0.0"
       refY="0.0"
       orient="auto"
       inkscape:stockid="Arrow1Lstart"
       inkscape:isstock="true"><path
         transform="scale(0.8) translate(12.5,0)"
         style="fill-rule:evenodd;stroke:#000000;stroke-width:1.0pt"
         d="M 0.0,0.0 L 5.0,-5.0 L -12.5,0.0 L 5.0,5.0 L 0.0,0.0 z "
         id="path1218" /></marker><marker
       style="overflow:visible"
       id="marker1198"
       refX="0.0"
       refY="0.0"
       orient="auto"
       inkscape:stockid="Arrow1Lstart"
       inkscape:isstock="true"><path
         transform="scale(0.8) translate(12.5,0)"
         style="fill-rule:evenodd;stroke:#000000;stroke-width:1.0pt"
         d="M 0.0,0.0 L 5.0,-5.0 L -12.5,0.0 L 5.0,5.0 L 0.0,0.0 z "
         id="path1196" /></marker><marker
       style="overflow:visible"
       id="marker1182"
       refX="0.0"
       refY="0.0"
       orient="auto"
       inkscape:stockid="Arrow1Lstart"
       inkscape:isstock="true"><path
         transform="scale(0.8) translate(12.5,0)"
         style="fill-rule:evenodd;stroke:#000000;stroke-width:1.0pt"
         d="M 0.0,0.0 L 5.0,-5.0 L -12.5,0.0 L 5.0,5.0 L 0.0,0.0 z "
         id="path1180" /></marker><marker
       style="overflow:visible"
       id="Arrow1Lstart"
       refX="0.0"
       refY="0.0"
       orient="auto"
       inkscape:stockid="Arrow1Lstart"
       inkscape:isstock="true"><path
         transform="scale(0.8) translate(12.5,0)"
         style="fill-rule:evenodd;stroke:#000000;stroke-width:1.0pt"
         d="M 0.0,0.0 L 5.0,-5.0 L -12.5,0.0 L 5.0,5.0 L 0.0,0.0 z "
         id="path910" /></marker><clipPath
       clipPathUnits="userSpaceOnUse"
       id="clipPath70"><path
         d="M 0,222.438 H 285.502 V 0 H 0 Z"
         id="path68" /></clipPath><clipPath
       clipPathUnits="userSpaceOnUse"
       id="clipPath158"><path
         d="M 0,222.438 H 285.502 V 0 H 0 Z"
         id="path156" /></clipPath><clipPath
       clipPathUnits="userSpaceOnUse"
       id="clipPath182"><path
         d="M 0,222.438 H 285.502 V 0 H 0 Z"
         id="path180" /></clipPath><clipPath
       clipPathUnits="userSpaceOnUse"
       id="clipPath206"><path
         d="M 0,222.438 H 285.502 V 0 H 0 Z"
         id="path204" /></clipPath><clipPath
       clipPathUnits="userSpaceOnUse"
       id="clipPath222"><path
         d="M 0,222.438 H 285.502 V 0 H 0 Z"
         id="path220" /></clipPath><clipPath
       clipPathUnits="userSpaceOnUse"
       id="clipPath242"><path
         d="M 0,222.438 H 285.502 V 0 H 0 Z"
         id="path240" /></clipPath><clipPath
       clipPathUnits="userSpaceOnUse"
       id="clipPath266"><path
         d="M 0,222.438 H 285.502 V 0 H 0 Z"
         id="path264" /></clipPath><clipPath
       clipPathUnits="userSpaceOnUse"
       id="clipPath292"><path
         d="M 0,222.438 H 285.502 V 0 H 0 Z"
         id="path290" /></clipPath></defs><sodipodi:namedview
     pagecolor="#ffffff"
     bordercolor="#666666"
     borderopacity="1"
     objecttolerance="10"
     gridtolerance="10"
     guidetolerance="10"
     inkscape:pageopacity="0"
     inkscape:pageshadow="2"
     inkscape:window-width="1664"
     inkscape:window-height="1004"
     id="namedview56"
     showgrid="false"
     inkscape:document-units="mm"
     units="mm"
     inkscape:zoom="2"
     inkscape:cx="237.22205"
     inkscape:cy="176.11288"
     inkscape:window-x="3"
     inkscape:window-y="23"
     inkscape:window-maximized="0"
     inkscape:current-layer="layer5"
     inkscape:document-rotation="0"
     showguides="false"
     inkscape:guide-bbox="true"><sodipodi:guide
       position="-32,966.51967"
       orientation="1,0"
       id="guide1115" /></sodipodi:namedview><g
     inkscape:groupmode="layer"
     id="layer5"
     inkscape:label="Recorte 1"><rect
       style="opacity:0.71;fill:#f5f5f5;fill-opacity:1;stroke:none;stroke-width:0.80126;stroke-linecap:round;stroke-linejoin:round;stroke-miterlimit:10;stroke-opacity:1"
       id="rect3815"
       width="461"
       height="358.5"
       x="1.5"
       y="2" /></g><g
     inkscape:groupmode="layer"
     id="layer1"
     inkscape:label="Recorte"
     style="display:none"
     sodipodi:insensitive="true"><path
       style="display:inline;fill:none;fill-opacity:1;stroke:#ff0000;stroke-width:0.582755;stroke-linecap:butt;stroke-linejoin:miter;stroke-miterlimit:10;stroke-dasharray:none;stroke-opacity:1"
       d="m 400.61256,226.99612 c -0.32307,-0.77823 -0.65366,-1.53939 -0.9969,-2.26379 -4.29637,-8.96785 -9.99643,-17.24939 -16.93067,-24.90173 -1.47921,-1.63239 -3.01475,-3.23645 -4.60444,-4.81212 -0.005,-0.005 -0.0111,-0.0112 -0.0166,-0.0166 -6.68942,-6.43286 -13.69181,-9.59524 -16.47913,-11.87996 -0.68502,-3.8507 -2.21785,-7.52372 -3.8721,-11.05087 -3.04371,-5.86515 -8.72987,-9.88902 -14.74996,-12.29718 -5.45208,-2.22003 -11.31447,-3.19636 -17.16744,-3.55354 -3.06253,-3.82431 -7.08842,-6.86862 -11.70735,-8.56918 -3.65115,-1.38345 -7.58422,-1.94394 -11.47889,-1.81726 -3.17941,0.086 -6.30632,0.65635 -9.35873,1.51311 -26.46203,-7.06157 -52.29549,-15.58852 -73.45457,-19.61716 l -1.72574,-0.52929 -1.61775,-4.24589 2.9904,-4.57291 c 1.1538,0.87539 2.3075,1.7509 3.46215,2.62517 3.71313,-3.16196 7.42448,-6.32601 11.13828,-9.48716 -2.22986,-3.41819 -4.4572,-6.84666 -6.38223,-10.44877 1.5957,-2.018466 3.13912,-4.078151 4.71243,-6.114315 2.44944,0.07401 4.89423,0.284417 7.34493,0.366646 2.14227,0.107038 4.28449,0.214916 6.42682,0.320805 1.10147,-5.516221 2.0956,-11.052339 3.08209,-16.590072 -4.42048,-1.645294 -8.83909,-3.295586 -13.25877,-4.942964 -0.55176,-2.288723 -1.10351,-4.577435 -1.65527,-6.866147 3.34516,-3.026683 6.69014,-6.053579 10.03546,-9.0801 -3.37544,-4.642639 -6.75226,-9.28427 -10.12685,-13.927521 -4.48529,1.571461 -8.9779,3.20495 -13.46023,4.733198 -2.19627,-1.436428 -4.48702,-2.72161 -6.72491,-4.091443 -0.0545,-4.37667 -0.11079,-8.753318 -0.16407,-13.130002 -1.2588,-0.254417 -2.51731,-0.510248 -3.77576,-0.766368 0.25679,-0.409332 0.029,-1.813751 0.73255,-1.305687 4.15037,1.97693 8.89913,2.371644 13.41096,1.758447 4.71848,-0.755179 8.84289,-3.755936 11.52531,-7.640689 0.94328,-1.434418 2.19881,-2.905383 2.18622,-4.712562 -0.14875,-0.725736 -0.37688,-1.59598 -1.17344,-1.825573 -1.76974,-0.962319 -3.83823,-1.056128 -5.76956,-1.497427 -0.85147,1.460899 -1.82766,2.988967 -3.46773,3.651169 -3.35591,1.453207 -7.21175,0.453089 -10.29217,-1.218502 -4.11085,-2.251487 -7.58694,-5.572255 -11.96903,-7.349365 -2.89738,-1.2129996 -6.07959,-1.6159502 -9.20202,-1.4239999 -4.23271,0.1675802 -8.5777,1.4736459 -11.68867,4.4605289 -1.61613,1.570674 -3.00115,3.379509 -4.24304,5.25509 -0.88805,1.389576 -1.17543,3.032362 -1.64696,4.58574 2.52549,0.514347 5.05166,1.02534 7.57644,1.543118 1.42431,-1.561834 2.71928,-3.650478 4.97053,-4.032671 3.31605,-0.619735 6.82712,0.208298 9.65275,2.013949 -0.35999,1.867802 -0.71999,3.735605 -1.07998,5.603408 -1.01129,-0.205674 -2.02278,-0.410331 -3.03431,-0.614755 -1.77767,3.985747 -3.53865,7.993205 -5.32303,11.966952 -2.65136,0.332796 -5.26348,0.916392 -7.91082,1.275201 -1.69819,-1.571656 -3.33755,-3.211604 -5.06222,-4.758389 -1.70137,-1.577642 -3.40156,-3.156535 -5.10407,-4.732928 -5.04575,2.935444 -10.09065,5.872363 -15.13627,8.808025 2.02477,3.971413 4.04847,7.943378 6.07278,11.91503 -1.40648,1.986897 -2.7351,4.030209 -4.19944,5.975168 -2.57325,-0.169087 -5.15363,-0.259919 -7.73354,-0.328522 -1.87428,-0.06011 -3.74857,-0.120104 -5.62284,-0.180312 -0.976,0.877688 -1.6813,2.028263 -1.87542,3.339615 -0.71212,4.322768 -1.44138,8.644284 -2.1641,12.965927 4.24738,1.665541 8.49293,3.335717 12.73955,5.003193 0.36478,2.556838 1.12905,5.046079 1.6615,7.574366 -3.91913,3.404293 -7.7815,6.873494 -11.72188,10.253521 2.18903,2.805497 4.14876,5.773907 6.09518,8.749497 0.99607,1.48711 2.0893,2.90539 3.15729,4.34105 2.97701,-0.93255 5.75949,-2.3596 8.57957,-3.67191 0.44311,0.71932 0.93677,1.42137 1.47988,2.07908 l -7.15933,8.11663 c -6.66212,-0.55577 -13.28842,-1.48892 -19.92426,-2.29314 l -2.68084,-0.64554 c -0.66586,-1.15687 -1.33262,-2.31321 -2.00459,-3.46674 -2.25038,-3.77359 -5.23628,-7.40932 -9.44147,-9.04686 -1.98692,-0.81504 -4.13875,-1.17527 -6.27839,-1.2316 -4.29301,-0.0611 -8.5721,1.66443 -11.55574,4.76436 -1.64496,1.68901 -2.96112,3.61566 -4.05483,5.6738 -13.641516,-1.27203 -30.248691,-2.63211 -44.095425,-3.24795 l 1.100743,10.295 c -7.157042,2.3291 -11.4888,8.74422 -12.025104,19.31286 -0.496582,9.78587 8.056821,14.36178 14.079133,16.47377 0.665822,9.29665 1.135846,19.74046 1.390181,29.44645 -18.237978,0.14617 -36.485599,0.0619 -54.7263993,0.0619 v -4e-5 42.21248 H 49.030971 c -0.781122,8.56293 1.405364,13.29229 10.80474,19.09182 l -3.67507,39.44566 2.234959,-0.15041 c 4.058928,3.23982 8.112861,6.53964 12.803932,8.82879 4.549802,2.31281 3.991754,2.00419 3.991754,2.00419 0.012,12.30722 -3.065468,27.63905 -3.065468,27.63905 3.646495,-0.24114 17.941976,-0.47723 21.618189,-0.70614 6.791703,-0.4229 13.632433,-0.82326 20.515373,-1.19628 49.78036,-2.69799 101.77505,-3.9536 153.4748,-1.77365 34.40088,-1.43214 81.2322,3.83704 118.53139,4.92012 0,0 5.18854,-20.8626 -1.59919,-40.23322 5.31959,0.1495 1.99693,0.23561 6.96376,0.2243 5.25236,0.0365 14.044,-0.1521 18.7832,-0.35512 0.071,-10.82303 -3.13789,-39.69536 -9.80078,-55.97586 z"
       id="path1508"
       sodipodi:nodetypes="ccsscccccccccccccccccccccccccccccccccccccccccccccccccccccccccccccccccccccccccsccccccccccccsccccccc" /></g><g
     inkscape:groupmode="layer"
     id="g1114"
     inkscape:label="Solder mask"
     style="display:none"
     sodipodi:insensitive="true"><path
       id="path1298"
       style="display:inline;fill:#ffffff;fill-opacity:0.5;stroke:none;stroke-width:0.582755;stroke-linecap:butt;stroke-linejoin:miter;stroke-miterlimit:10;stroke-dasharray:none;stroke-opacity:1"
       d="m 219.44269,118.38175 c 1.1538,0.87539 2.3075,1.7509 3.46215,2.62517 3.71313,-3.16196 7.42448,-6.32601 11.13828,-9.48716 -2.22986,-3.41819 -4.4572,-6.84666 -6.38223,-10.44877 1.5957,-2.018466 3.13912,-4.078151 4.71243,-6.114315 2.44944,0.07401 4.89423,0.284417 7.34493,0.366646 2.14227,0.107038 4.28449,0.214916 6.42682,0.320805 1.10147,-5.516221 2.0956,-11.052339 3.08209,-16.590072 -4.42048,-1.645294 -8.83909,-3.295586 -13.25877,-4.942964 -0.55176,-2.288723 -1.10351,-4.577435 -1.65527,-6.866147 3.34516,-3.026683 6.69014,-6.053579 10.03546,-9.0801 -3.37544,-4.642639 -6.75226,-9.28427 -10.12685,-13.927521 -4.48529,1.571461 -8.9779,3.20495 -13.46023,4.733198 -2.19627,-1.436428 -4.48702,-2.72161 -6.72491,-4.091443 -0.0545,-4.37667 -0.11079,-8.753318 -0.16407,-13.130002 -1.2588,-0.254417 -2.51731,-0.510248 -3.77576,-0.766368 0.25679,-0.409332 0.029,-1.813751 0.73255,-1.305687 4.15037,1.97693 8.89913,2.371644 13.41096,1.758447 4.71848,-0.755179 8.84289,-3.755936 11.52531,-7.640689 0.94328,-1.434418 2.19881,-2.905383 2.18622,-4.712562 -0.14875,-0.725736 -0.37688,-1.59598 -1.17344,-1.825573 -1.76974,-0.962319 -3.83823,-1.056128 -5.76956,-1.497427 -0.85147,1.460899 -1.82766,2.988967 -3.46773,3.651169 -3.35591,1.453207 -7.21175,0.453089 -10.29217,-1.218502 -4.11085,-2.251487 -7.58694,-5.572255 -11.96903,-7.349365 -2.89738,-1.2129996 -6.07959,-1.6159502 -9.20202,-1.4239999 -4.23271,0.1675802 -8.5777,1.4736459 -11.68867,4.4605289 -1.61613,1.570674 -3.00115,3.379509 -4.24304,5.25509 -0.88805,1.389576 -1.17543,3.032362 -1.64696,4.58574 2.52549,0.514347 5.05166,1.02534 7.57644,1.543118 1.42431,-1.561834 2.71928,-3.650478 4.97053,-4.032671 3.31605,-0.619735 6.82712,0.208298 9.65275,2.013949 -0.35999,1.867802 -0.71999,3.735605 -1.07998,5.603408 -1.01129,-0.205674 -2.02278,-0.410331 -3.03431,-0.614755 -1.77767,3.985747 -3.53865,7.993205 -5.32303,11.966952 -2.65136,0.332796 -5.26348,0.916392 -7.91082,1.275201 -1.69819,-1.571656 -3.33755,-3.211604 -5.06222,-4.758389 -1.70137,-1.577642 -3.40156,-3.156535 -5.10407,-4.732928 -5.04575,2.935444 -10.09065,5.872363 -15.13627,8.808025 2.02477,3.971413 4.04847,7.943378 6.07278,11.91503 -1.40648,1.986897 -2.7351,4.030209 -4.19944,5.975168 -2.57325,-0.169087 -5.15363,-0.259919 -7.73354,-0.328522 -1.87428,-0.06011 -3.74857,-0.120104 -5.62284,-0.180312 -0.976,0.877688 -1.6813,2.028263 -1.87542,3.339615 -0.71212,4.322768 -1.44138,8.644284 -2.1641,12.965927 4.24738,1.665541 8.49293,3.335717 12.73955,5.003193 0.36478,2.556838 1.12905,5.046079 1.6615,7.574366 -3.91913,3.404293 -7.7815,6.873494 -11.72188,10.253521 2.18903,2.805497 4.14876,5.773907 6.09518,8.749497 0.99607,1.48711 2.0893,2.90539 3.15729,4.34105 2.97701,-0.93255 5.75949,-2.3596 8.57957,-3.67191 0.44311,0.71932 0.93677,1.42137 1.47988,2.07908 l -10.44367,11.84013 -16.63992,-2.01664 c -1.57001,-2.69996 -3.11349,-5.41382 -4.68543,-8.11228 -2.25038,-3.77359 -5.23628,-7.40932 -9.44147,-9.04686 -1.98692,-0.81504 -4.13875,-1.17527 -6.27839,-1.2316 -4.29301,-0.0611 -8.5721,1.66443 -11.55574,4.76436 -2.68001,2.75177 -4.48724,6.13433 -5.881705,9.68862 -13.0356,-1.17698 -30.548092,-2.77249 -42.26855,-3.26277 0.12924,1.71643 0.671848,3.7437 1.100743,6.295 -7.157042,2.3291 -11.4888,8.74422 -12.025104,19.31286 -0.496582,9.78587 8.056821,14.36178 14.079133,16.47377 0.888403,12.40448 1.428218,25.24016 1.572195,38.32872 -1.876266,-1.83592 -3.532879,-2.98411 -8.022967,-2.40709 -5.44586,0.69985 -8.318808,7.52946 -9.302322,12.11233 -0.983515,4.58292 5.818768,11.19832 10.907745,11.4602 3.691643,0.18997 5.04655,-0.41493 6.334469,-1.53481 -0.01632,0.82918 -0.04269,1.66191 -0.0623,2.49224 -9.804387,3.56718 -12.28058,7.73342 -12.322098,12.79563 -0.04105,5.0051 1.472803,11.22424 10.909823,16.8393 -0.951609,13.19522 -2.337494,26.38961 -4.226441,39.41077 -0.562604,-0.0839 -0.420583,0.0414 -0.03116,0.22638 -0.02582,0.17744 -0.04668,0.35638 -0.07269,0.53376 0.342051,-0.0253 0.799979,-0.0513 1.158897,-0.0769 0.07665,0.0293 0.236763,0.0914 0.236763,0.0914 0,0 0.0085,-0.072 0.01246,-0.10801 0.258429,-0.0183 0.560679,-0.0377 0.826596,-0.056 4.058928,3.23982 8.112861,6.53964 12.803932,8.82879 4.549802,2.31281 3.991754,2.00419 3.991754,2.00419 0.012,12.30722 -3.065468,27.63905 -3.065468,27.63905 3.646495,-0.24114 17.941976,-0.47723 21.618189,-0.70614 6.791706,-0.4229 13.632436,-0.82326 20.515376,-1.19628 49.78036,-2.69799 101.77505,-3.9536 153.4748,-1.77365 34.40088,-1.43214 81.2322,3.83704 118.53139,4.92012 0,0 5.18854,-20.8626 -1.59919,-40.23322 5.31959,0.1495 1.99693,0.23561 6.96376,0.2243 4.81105,0.031 9.36045,-0.0581 13.59108,-0.30322 0.39498,-0.0184 0.80135,-0.0317 1.19212,-0.0519 0,0 -1.77585,-33.44379 -9.80078,-51.97586 -0.32307,-0.77823 -0.65366,-1.53939 -0.9969,-2.26379 -4.29637,-8.96785 -9.99643,-17.24939 -16.93067,-24.90173 -1.47921,-1.63239 -3.01475,-3.23645 -4.60444,-4.81212 -0.005,-0.005 -0.0111,-0.0112 -0.0166,-0.0166 -4.09345,-4.54194 -8.22887,-8.5162 -11.92541,-11.03028 -0.083,-0.13202 -0.14509,-0.23574 -0.22637,-0.36553 0.0358,-0.79873 0.0367,-1.60103 -0.0457,-2.40502 -0.42334,-4.61397 -2.20423,-8.97328 -4.15375,-13.13 -3.04371,-5.86515 -8.72987,-9.88902 -14.74996,-12.29718 -5.45208,-2.22003 -11.31447,-3.19636 -17.16744,-3.55354 -3.06253,-3.82431 -7.08842,-6.86862 -11.70735,-8.56918 -3.65115,-1.38345 -7.58422,-1.94394 -11.47889,-1.81726 -5.20068,0.14061 -10.26088,1.57737 -15.08434,3.44346 -0.48673,0.1761 -0.97331,0.35142 -1.46005,0.52752 -19.38092,-6.78043 -37.75582,-12.74136 -66.26891,-18.07503 l -3.34347,-8.77517 z"
       sodipodi:nodetypes="cccccccccccccccccccccccccccccccccccccccccccccccccccccccccccccsccsssccscccccccccccscccccccccsscccccccccccccc" /><path
       id="path2943"
       style="display:inline;fill:#ffffff;fill-opacity:0.5;stroke:none;stroke-width:0.582755;stroke-linecap:butt;stroke-linejoin:miter;stroke-miterlimit:10;stroke-dasharray:none;stroke-opacity:1"
       d="m 197.25129,9.3749033 c -0.3915,0.00499 -0.78314,0.01962 -1.17344,0.043615 -4.23271,0.1675802 -8.57768,1.4742437 -11.68864,4.4611267 -1.61614,1.570674 -3.00118,3.378911 -4.24307,5.254492 -0.88805,1.389576 -1.17543,3.032362 -1.64696,4.58574 2.52549,0.514347 5.05166,1.02534 7.57644,1.543118 1.42431,-1.561834 2.71871,-3.651098 4.96996,-4.033291 3.31606,-0.619735 6.82769,0.208918 9.65332,2.014569 -0.35999,1.867802 -0.71999,3.735605 -1.07998,5.603408 -1.01129,-0.205674 -2.02278,-0.410331 -3.03431,-0.614755 -1.77767,3.985747 -3.53865,7.993205 -5.32303,11.966952 -2.65136,0.332796 -5.26348,0.916392 -7.91082,1.275201 -1.69819,-1.571656 -3.33666,-3.211335 -5.06134,-4.758121 -1.70136,-1.577642 -3.40244,-3.156803 -5.10495,-4.733196 -5.04575,2.935444 -10.09065,5.872363 -15.13627,8.808025 2.02477,3.971413 4.04847,7.943378 6.07278,11.91503 -1.40648,1.986897 -2.7351,4.030209 -4.19944,5.975168 -2.57325,-0.169087 -5.15437,-0.259543 -7.73428,-0.328145 -1.87428,-0.06011 -3.74783,-0.120481 -5.6221,-0.180689 -0.976,0.877688 -1.6813,2.028263 -1.87542,3.339615 -0.71212,4.322768 -1.44138,8.644284 -2.1641,12.965927 4.24738,1.665541 8.49292,3.335717 12.73955,5.003193 0.36478,2.556838 1.12904,5.046079 1.6615,7.574366 -3.91914,3.404293 -7.7815,6.873494 -11.72188,10.253521 2.18903,2.805497 4.14921,5.774287 6.09562,8.749877 0.99608,1.48711 2.08886,2.90501 3.15685,4.34067 2.97701,-0.93255 5.75949,-2.3596 8.57957,-3.67191 0.44311,0.71932 0.93771,1.42123 1.48082,2.07894 l -10.44461,11.84027 -16.63992,-2.01664 c -1.57001,-2.69996 -3.11349,-5.41382 -4.68543,-8.11228 -2.25038,-3.77359 -5.23628,-7.40932 -9.44147,-9.04686 -1.98692,-0.81504 -4.13875,-1.17527 -6.27839,-1.2316 -4.29301,-0.0611 -8.5721,1.66443 -11.55574,4.76436 -2.68001,2.75177 -4.48724,6.13433 -5.881705,9.68862 -13.035596,-1.17698 -30.548092,-2.77249 -42.26855,-3.26277 0.12924,1.71643 0.671848,3.7437 1.100743,6.295 -7.157042,2.3291 -11.4888,8.74422 -12.025104,19.31286 -0.496582,9.78587 8.056821,14.36178 14.079133,16.47377 0.665822,9.29665 1.135095,19.73995 1.38943,29.44594 0,0 0.158741,4.40074 -0.09553,10.34283 -0.190069,-0.22057 -0.351438,-0.42903 -0.53168,-0.62307 -1.552562,-1.73208 -3.601153,-3.25555 -6.027091,-3.26484 -2.998819,-0.12442 -5.927775,1.46984 -7.526594,3.9959 -1.612336,2.43649 -2.311477,5.33118 -2.972008,8.1372 -0.374049,3.17855 1.543345,6.11341 3.74876,8.22027 2.252136,2.14251 5.414166,3.74881 8.587877,3.03016 0.888829,-0.17164 1.695881,-0.53835 2.427866,-1.01974 -0.191642,0.7905 -0.398748,1.55958 -0.620986,2.31156 -0.724895,0.30694 -1.452129,0.61047 -2.170334,0.93251 -3.458396,1.57981 -6.483506,4.51719 -7.345905,8.31789 -0.14206,0.62546 -0.232977,1.25813 -0.29284,1.89411 -0.0056,-9e-5 -0.01098,1.1e-4 -0.01662,0 -0.781122,8.56293 1.404526,13.29317 10.803902,19.0927 l -3.673992,39.44401 2.234718,-0.14953 c 4.058928,3.23981 8.11286,6.53964 12.803932,8.82879 4.549802,2.3128 3.991754,2.00418 3.991754,2.00418 0.01201,12.30722 -3.065468,27.63906 -3.065468,27.63906 3.646495,-0.24114 17.941976,-0.47724 21.618189,-0.70615 6.791703,-0.4229 13.632423,-0.82325 20.515373,-1.19628 49.78036,-2.69799 101.77505,-3.9536 153.4748,-1.77364 34.40088,-1.43216 81.2322,3.83704 118.53139,4.92011 0,0 5.18854,-20.8626 -1.59919,-40.23322 5.31959,0.1495 1.99693,0.23561 6.96376,0.22431 4.81106,0.031 9.36043,-0.0581 13.59108,-0.30323 0.39498,-0.0184 0.80135,-0.0317 1.19212,-0.0519 0,0 -1.77585,-33.4438 -9.80078,-51.97586 -0.32307,-0.77823 -0.65366,-1.5394 -0.9969,-2.2638 -4.29637,-8.96784 -9.99643,-17.24939 -16.93067,-24.90173 -1.47921,-1.63238 -3.01475,-3.23645 -4.60444,-4.81212 -0.005,-0.005 -0.0111,-0.0112 -0.0166,-0.0166 -4.09345,-4.54194 -8.22887,-8.51621 -11.92541,-11.03029 -0.083,-0.13202 -0.14509,-0.23574 -0.22637,-0.36553 0.0358,-0.79873 0.0367,-1.60103 -0.0457,-2.40502 -0.42334,-4.61396 -2.20423,-8.97328 -4.15375,-13.13 -3.04371,-5.86516 -8.72987,-9.88902 -14.74996,-12.29718 -5.45208,-2.22003 -11.31447,-3.19634 -17.16744,-3.55353 -3.06253,-3.82431 -7.08842,-6.86863 -11.70735,-8.56919 -3.65115,-1.38345 -7.58422,-1.94393 -11.47889,-1.81726 -5.20068,0.14061 -10.26088,1.57737 -15.08434,3.44346 -0.48673,0.1761 -0.97331,0.35142 -1.46005,0.52752 -19.38092,-6.78043 -37.75582,-12.74136 -66.26891,-18.07503 l -3.34377,-8.7748 2.9907,-4.57328 c 1.1538,0.87539 2.3075,1.75091 3.46215,2.62517 3.71313,-3.16195 7.42448,-6.326 11.13828,-9.48716 -2.22986,-3.41819 -4.4572,-6.84665 -6.38223,-10.44876 1.5957,-2.018473 3.13912,-4.078158 4.71243,-6.114322 2.44944,0.07401 4.8952,0.285385 7.3459,0.367614 2.14227,0.107038 4.28352,0.213948 6.42585,0.319838 1.10147,-5.516222 2.0956,-11.052339 3.08209,-16.590073 -4.42048,-1.645294 -8.83909,-3.295586 -13.25877,-4.942964 -0.55176,-2.288723 -1.10351,-4.577435 -1.65527,-6.866147 3.34516,-3.026683 6.69014,-6.053579 10.03546,-9.080099 -3.37544,-4.64264 -6.75226,-9.284271 -10.12685,-13.927522 -4.48529,1.571461 -8.97789,3.20495 -13.46023,4.733198 -2.19627,-1.436428 -4.48702,-2.72161 -6.72491,-4.091443 -0.0545,-4.37667 -0.11079,-8.753318 -0.16407,-13.130002 -1.2588,-0.254418 -2.51731,-0.510248 -3.77576,-0.766367 0.25679,-0.409333 0.0297,-1.814418 0.73313,-1.306354 4.15037,1.976931 8.89855,2.37231 13.41038,1.759113 4.71848,-0.755179 8.84216,-3.756069 11.52458,-7.640822 0.94328,-1.434418 2.19954,-2.90525 2.18695,-4.712429 -0.14875,-0.725736 -0.37687,-1.59598 -1.17344,-1.825573 -1.76974,-0.962318 -3.83823,-1.056128 -5.76956,-1.497427 -0.85147,1.460899 -1.82829,2.988944 -3.46838,3.651146 -3.35591,1.453208 -7.21048,0.452466 -10.29091,-1.219125 -4.11084,-2.251488 -7.58693,-5.570873 -11.96903,-7.347983 -2.53521,-1.0613738 -5.2887,-1.5032307 -8.02919,-1.4683503 z" /></g><g
     inkscape:groupmode="layer"
     id="layer7"
     inkscape:label="Silkscreen"
     style="display:inline"
     sodipodi:insensitive="true"><g
       inkscape:groupmode="layer"
       id="g1523"
       inkscape:label="fondo"
       style="display:inline"><path
         id="path1521"
         style="display:inline;fill:#ffffff;fill-opacity:1;stroke:none;stroke-width:0.582755;stroke-linecap:butt;stroke-linejoin:miter;stroke-miterlimit:10;stroke-dasharray:none;stroke-opacity:1"
         d="m 197.25,9.375 c -0.3915,0.00498 -0.78156,0.018975 -1.17188,0.042969 -4.23271,0.1675802 -8.57848,1.474054 -11.68945,4.460937 -1.61613,1.570674 -3.0003,3.380279 -4.24219,5.25586 -0.88805,1.389576 -1.17495,3.032559 -1.64648,4.585937 2.52549,0.514347 5.05139,1.025191 7.57617,1.542969 1.42431,-1.561834 2.71944,-3.65101 4.97071,-4.033203 3.31605,-0.619735 6.82671,0.208021 9.65234,2.013672 -0.35999,1.867802 -0.72009,3.735712 -1.08008,5.603515 -1.01129,-0.205674 -2.02363,-0.41081 -3.03516,-0.615234 -1.77767,3.985747 -3.53788,7.99305 -5.32226,11.966797 -2.65136,0.332796 -5.26282,0.916581 -7.91016,1.27539 -1.69819,-1.571656 -3.33783,-3.211027 -5.0625,-4.757812 -1.70137,-1.577642 -3.40296,-3.156029 -5.10547,-4.732422 -5.04575,2.935444 -10.08914,5.870979 -15.13476,8.806641 2.02477,3.971413 4.04795,7.944363 6.07226,11.916015 -1.40648,1.986897 -2.73487,4.029651 -4.19921,5.97461 -2.57327,-0.169087 -5.15447,-0.259522 -7.73438,-0.328125 -1.87428,-0.06011 -3.74878,-0.11948 -5.62305,-0.179688 -0.976,0.877688 -1.68088,2.028492 -1.875,3.339844 -0.71212,4.322768 -1.44134,8.643201 -2.16406,12.964844 4.24738,1.665541 8.49361,3.33643 12.74023,5.003906 0.3648,2.556838 1.12771,5.045932 1.66016,7.574219 -3.91913,3.404293 -7.78032,6.873879 -11.7207,10.253906 2.18903,2.805493 4.14928,5.772453 6.0957,8.748043 0.99607,1.48711 2.08826,2.90614 3.15625,4.3418 2.97701,-0.93255 5.76,-2.35956 8.58008,-3.67187 0.44311,0.71932 0.93736,1.42041 1.48047,2.07812 l -7.16016,8.11719 c -6.66212,-0.55577 -13.28799,-1.48875 -19.92383,-2.29297 l -2.68164,-0.64453 c -0.66586,-1.15687 -1.33193,-2.31327 -2.0039,-3.4668 v -0.002 c -0.10824,-0.18151 -0.2262,-0.36036 -0.33789,-0.54102 -0.46865,-0.75793 -0.96167,-1.51025 -1.4961,-2.23437 -0.14572,-0.19742 -0.30409,-0.38467 -0.45508,-0.57813 -0.87782,-1.12477 -1.83772,-2.18596 -2.9121,-3.10547 -0.41988,-0.35929 -0.85536,-0.69865 -1.3086,-1.01367 -0.45322,-0.31504 -0.92362,-0.60564 -1.41211,-0.86914 -0.48776,-0.26309 -0.99474,-0.49865 -1.51953,-0.70312 l -0.002,-0.002 c -0.49673,-0.20376 -1.00309,-0.37809 -1.51758,-0.52734 -1.54373,-0.4478 -3.15504,-0.66088 -4.75977,-0.70313 -4.29301,-0.0611 -8.57104,1.66375 -11.55468,4.76368 -0.3741,0.38411 -0.72675,0.78409 -1.06836,1.1914 -0.0603,0.0719 -0.12039,0.14417 -0.17969,0.2168 -0.17118,0.20938 -0.32885,0.42777 -0.49219,0.64258 -0.25774,0.33955 -0.50894,0.68306 -0.74804,1.03515 -0.15513,0.22789 -0.30536,0.45873 -0.45313,0.69141 -0.19917,0.31444 -0.39162,0.63262 -0.57813,0.95508 -0.15742,0.2714 -0.31585,0.54183 -0.46484,0.81836 -0.0224,0.0417 -0.0481,0.0813 -0.0703,0.12304 -13.641518,-1.27203 -30.24897,-2.6322 -44.095704,-3.24804 l 1.089843,10.20117 c -0.507276,0.0311 -1.014208,0.0627 -1.521484,0.0937 -2.179183,0.15963 -3.80704,1.89004 -5.171875,3.43359 -4.404375,5.38909 -6.502978,12.69393 -5.378906,19.58594 0.822175,4.50275 4.065368,8.19142 7.90625,10.49024 1.974416,1.20671 4.086998,2.15636 6.269531,2.9121 0.649465,9.33986 1.226967,24.05771 1.351563,28.8125 6.73742,4.00189 12.280564,7.81121 16.816406,11.42188 -4.677642,-0.90121 -9.636196,-1.16482 -14.208985,0.36133 -0.579893,0.18112 -1.206719,0.71776 -1.541015,-0.0801 -0.442921,-0.53128 -1.121223,-1.36637 -1.695313,-1.98438 -1.552562,-1.73209 -3.601406,-3.25633 -6.027343,-3.26562 -2.998822,-0.12442 -5.926572,1.47003 -7.525391,3.99609 -1.612336,2.43649 -2.312125,5.3307 -2.972656,8.13672 -0.374049,3.17854 1.54263,6.11385 3.748047,8.2207 2.252136,2.14253 5.41418,3.74991 8.58789,3.03126 2.960814,-0.57178 5.132426,-3.12493 5.980469,-5.91407 5.067176,-0.26199 10.376976,-0.11533 15.054687,2.06641 2.841705,1.28937 5.189681,3.85931 5.679688,7.00781 0.449826,2.40112 0.07992,4.97705 -1.31836,7.01563 -2.399235,3.63722 -6.506782,6.25935 -10.898437,6.51367 -3.167384,0.22685 -6.268889,-1.4161 -8.089844,-3.97461 -0.147474,-4.42304 -0.296599,-8.84646 -0.443359,-13.26953 -2.073359,1.00978 -4.224455,1.8369 -6.326172,2.77929 -3.458396,1.57981 -6.485257,4.51571 -7.347656,8.31641 -0.143581,0.63216 -0.235247,1.27315 -0.294922,1.91602 -0.0045,-0.007 -0.0091,-0.0143 -0.01367,-0.0215 -0.781122,8.56293 1.40531,13.29227 10.804688,19.0918 l -3.675782,39.44531 2.236328,-0.15039 c 0.769024,0.61386 1.539381,1.22487 2.3125,1.83594 0.656413,0.51882 1.323186,1.02229 1.988282,1.5293 0.534663,0.40758 1.065961,0.82009 1.609375,1.21484 0.28633,0.20799 0.573932,0.41375 0.863281,0.61719 0.224553,0.15789 0.449195,0.31591 0.675781,0.4707 0.334488,0.22847 0.674233,0.44907 1.013672,0.66992 0.25348,0.16494 0.505188,0.332 0.761719,0.49219 0.377276,0.23556 0.761907,0.45944 1.146484,0.68359 0.196937,0.1148 0.390839,0.23417 0.589844,0.34571 0.604274,0.33863 1.216356,0.6655 1.841797,0.9707 0,0 0.002,0 0.002,0 4.544035,2.30986 3.990234,2.0039 3.990234,2.0039 0.012,12.30724 -3.066406,27.63868 -3.066406,27.63868 3.646495,-0.24114 17.942928,-0.47617 21.619141,-0.70508 6.7917,-0.4229 13.63269,-0.82425 20.51563,-1.19727 49.78036,-2.69799 101.77484,-3.95338 153.47461,-1.77343 34.40088,-1.43214 81.23205,3.83684 118.53124,4.91992 0,0 5.18813,-20.8618 -1.5996,-40.23242 5.31959,0.1495 1.99801,0.23396 6.96484,0.22265 5.25236,0.0365 14.044,-0.15049 18.7832,-0.35351 0.071,-10.82303 -3.13789,-39.69607 -9.80078,-55.97657 -0.32307,-0.77823 -0.65481,-1.53927 -0.99805,-2.26367 -4.29637,-8.96785 -9.99544,-17.25 -16.92968,-24.90234 -1.47921,-1.63239 -3.01578,-3.23683 -4.60547,-4.8125 -0.005,-0.005 -0.0101,-0.0102 -0.0156,-0.0156 -6.68942,-6.43286 -13.69315,-9.59614 -16.48047,-11.88086 -0.0614,-0.34508 -0.13646,-0.68704 -0.21093,-1.02929 -0.0256,-0.11751 -0.0452,-0.23635 -0.0723,-0.35352 -0.1175,-0.50944 -0.24962,-1.01623 -0.39258,-1.51953 -0.0571,-0.20097 -0.12278,-0.3996 -0.18359,-0.59961 -0.0998,-0.32857 -0.19966,-0.65642 -0.30859,-0.98242 -0.0619,-0.18509 -0.12878,-0.36846 -0.19336,-0.55274 -0.0993,-0.28355 -0.2015,-0.56601 -0.30664,-0.84765 -0.27937,-0.74781 -0.57662,-1.48988 -0.88868,-2.22461 -0.42067,-0.99088 -0.86034,-1.97316 -1.31445,-2.94141 -0.19023,-0.36657 -0.39125,-0.72588 -0.60156,-1.07812 -0.21031,-0.35224 -0.43089,-0.69714 -0.66016,-1.03516 -0.45853,-0.67603 -0.95288,-1.32355 -1.48047,-1.94336 -0.52728,-0.61946 -1.08853,-1.21121 -1.67578,-1.77539 -0.88171,-0.84707 -1.82489,-1.63247 -2.8164,-2.35742 -0.99114,-0.72467 -2.0292,-1.38852 -3.09961,-1.99414 -1.42722,-0.8075 -2.911,-1.51124 -4.41602,-2.11328 -0.69241,-0.28194 -1.3909,-0.54403 -2.0957,-0.78711 -0.28752,-0.0993 -0.57977,-0.18228 -0.86914,-0.27539 -0.41314,-0.13277 -0.82555,-0.26999 -1.24219,-0.39063 -0.41115,-0.11924 -0.826,-0.22213 -1.24024,-0.33008 -0.30097,-0.0783 -0.59989,-0.16382 -0.90234,-0.23632 -0.49088,-0.11796 -0.98613,-0.22077 -1.48047,-0.32422 -0.22359,-0.0466 -0.4457,-0.0988 -0.66992,-0.14258 -0.61092,-0.11973 -1.22495,-0.22467 -1.83984,-0.32422 -0.0875,-0.0142 -0.17415,-0.0331 -0.26172,-0.0469 -0.011,-0.002 -0.0222,-0.002 -0.0332,-0.004 -0.71433,-0.11195 -1.43042,-0.20967 -2.14843,-0.29688 -0.7193,-0.0873 -1.43875,-0.16174 -2.16016,-0.22656 -0.01,-8.8e-4 -0.0195,-0.003 -0.0293,-0.004 -0.003,-2.4e-4 -0.005,2.3e-4 -0.008,0 -0.72794,-0.065 -1.45709,-0.1196 -2.18554,-0.16407 -6.5e-4,-4e-5 -0.001,4e-5 -0.002,0 -3.1e-4,-3.9e-4 3.1e-4,-0.002 0,-0.002 -0.36235,-0.45251 -0.74207,-0.89065 -1.13086,-1.32031 -0.0507,-0.0561 -0.10116,-0.11228 -0.15234,-0.16797 -0.35496,-0.38609 -0.72019,-0.76123 -1.0957,-1.12695 -0.0558,-0.0544 -0.11176,-0.10822 -0.16797,-0.16211 -0.41772,-0.40017 -0.84376,-0.7907 -1.28516,-1.16407 -0.004,-0.003 -0.008,-0.006 -0.0117,-0.01 -0.46313,-0.39131 -0.93801,-0.76918 -1.42578,-1.12891 -0.0241,-0.0178 -0.05,-0.0331 -0.0742,-0.0508 -0.42904,-0.31424 -0.86753,-0.61404 -1.31445,-0.90234 -0.11726,-0.0757 -0.23702,-0.14682 -0.35547,-0.22071 -0.37102,-0.23116 -0.74657,-0.45545 -1.12891,-0.66796 -0.13854,-0.0771 -0.27798,-0.15201 -0.41796,-0.22657 -0.38172,-0.20312 -0.76812,-0.39622 -1.16016,-0.58008 -0.13291,-0.0624 -0.26438,-0.1274 -0.39844,-0.1875 -0.52131,-0.23353 -1.04998,-0.4543 -1.58789,-0.65234 -0.9122,-0.34564 -1.84279,-0.63982 -2.78516,-0.88477 0,0 -0.002,0 -0.002,0 -2.82896,-0.7351 -5.7704,-1.02665 -8.6914,-0.93164 -0.73758,0.0199 -1.47151,0.0711 -2.20313,0.14063 -0.21102,0.0201 -0.42036,0.0503 -0.63086,0.0742 -0.53868,0.0612 -1.07623,0.13162 -1.61133,0.21679 -0.21264,0.0339 -0.42466,0.07 -0.63672,0.10743 -0.52677,0.0929 -1.05123,0.19699 -1.57422,0.31054 -0.21879,0.0475 -0.43815,0.0917 -0.65624,0.14258 -0.58034,0.13538 -1.15717,0.28396 -1.73243,0.44141 -0.10438,0.0286 -0.21024,0.0508 -0.31445,0.0801 -26.46203,-7.06157 -52.296,-15.58855 -73.45508,-19.61719 l -1.72461,-0.5293 -1.61719,-4.24609 2.99024,-4.57422 c 1.1538,0.87539 2.30629,1.75268 3.46094,2.62695 3.71313,-3.16196 7.42487,-6.32713 11.13867,-9.48828 -2.22986,-3.41819 -4.45778,-6.84711 -6.38281,-10.44922 1.5957,-2.018462 3.13958,-4.077115 4.71289,-6.113279 2.44944,0.07401 4.895,0.284959 7.3457,0.367188 2.14227,0.107038 4.28345,0.214423 6.42578,0.320312 1.10147,-5.516221 2.09554,-11.05211 3.08203,-16.589843 -4.42048,-1.645296 -8.83813,-3.295982 -13.25781,-4.94336 -0.55176,-2.288723 -1.10449,-4.578475 -1.65625,-6.867187 3.34516,-3.026683 6.68984,-6.053556 10.03516,-9.080079 -3.37544,-4.642639 -6.75041,-9.28253 -10.125,-13.925781 -4.48529,1.571461 -8.97861,3.204174 -13.46094,4.732422 -2.19627,-1.436428 -4.48672,-2.721964 -6.72461,-4.091797 -0.0545,-4.37667 -0.11078,-8.752222 -0.16406,-13.128906 -1.2588,-0.254417 -2.51694,-0.511458 -3.77539,-0.767578 0.25679,-0.409332 0.0289,-1.812752 0.73242,-1.304688 4.15037,1.97693 8.89832,2.37101 13.41015,1.757813 4.71848,-0.755179 8.84297,-3.755872 11.52539,-7.640625 0.9433,-1.434418 2.19814,-2.905712 2.18555,-4.712891 -0.14875,-0.725736 -0.37531,-1.596579 -1.17187,-1.826172 -1.76974,-0.962319 -3.8382,-1.054794 -5.76953,-1.496093 -0.85147,1.460899 -1.82868,2.988188 -3.46875,3.65039 -3.35591,1.453207 -7.21255,0.452841 -10.29297,-1.21875 C 213.1372,15.939919 209.66139,12.618907 205.2793,10.841797 202.74409,9.7804221 199.99049,9.3401195 197.25,9.375 Z" /></g><g
       inkscape:groupmode="layer"
       id="g955"
       inkscape:label="línea pantalla"
       style="display:inline"
       sodipodi:insensitive="true"><path
         style="display:inline;fill:none;fill-opacity:1;stroke:#0000ff;stroke-width:2.0095;stroke-linecap:butt;stroke-linejoin:miter;stroke-miterlimit:4;stroke-dasharray:none;stroke-opacity:1"
         d="m 63.844292,128.84635 c 92.513798,9.24535 188.929188,14.81784 266.655768,48.91112 29.35566,15.20668 51.96736,28.81221 65.12346,52.22634 8.59505,15.7045 10.78252,46.95073 10.78252,46.95073 M 55.910817,128.43301 c 2.36282,0.10938 5.017549,0.2473 7.933478,0.41334"
         id="path4088"
         sodipodi:nodetypes="cccccc" /><path
         style="display:inline;fill:none;fill-opacity:1;stroke:#0000ff;stroke-width:2.0095;stroke-linecap:butt;stroke-linejoin:miter;stroke-miterlimit:4;stroke-dasharray:none;stroke-opacity:1"
         d="m 63.843754,150.04389 c 92.517926,7.99519 188.937646,12.81416 266.667666,42.29732 29.35699,13.1504 51.96971,24.91617 65.12638,45.16421 8.59544,13.58093 10.78301,40.602 10.78301,40.602 M 55.909925,149.68645 c 2.362927,0.0946 5.017773,0.21388 7.933832,0.35744"
         id="path4090"
         sodipodi:nodetypes="cccccc" /><path
         style="display:inline;fill:none;fill-opacity:1;stroke:#0000ff;stroke-width:2.0095;stroke-linecap:butt;stroke-linejoin:miter;stroke-miterlimit:4;stroke-dasharray:none;stroke-opacity:1"
         d="m 61.44116,171.2404 c 92.5224,6.74508 191.34879,10.81056 269.08258,35.68384 29.3584,11.09425 51.97221,21.02037 65.12952,38.10249 8.59586,11.45746 10.78355,34.25361 10.78355,34.25361"
         id="path4092"
         sodipodi:nodetypes="cccc" /><path
         style="display:inline;fill:none;fill-opacity:1;stroke:#0000ff;stroke-width:2.0095;stroke-linecap:butt;stroke-linejoin:miter;stroke-miterlimit:4;stroke-dasharray:none;stroke-opacity:1"
         d="m 63.842534,192.4355 c 92.527306,5.49508 188.956796,8.80715 266.694716,29.07086 29.35995,9.03826 51.97497,17.12486 65.13298,31.04129 8.59631,9.33416 10.7841,27.90569 10.7841,27.90569 M 55.907902,192.18983 c 2.363165,0.065 5.01828,0.147 7.934637,0.24567"
         id="path4094"
         sodipodi:nodetypes="cccccc" /><path
         style="display:inline;fill:none;fill-opacity:1;stroke:#0000ff;stroke-width:2.0095;stroke-linecap:butt;stroke-linejoin:miter;stroke-miterlimit:4;stroke-dasharray:none;stroke-opacity:1"
         d="m 61.439806,213.62873 c 92.532824,4.24518 191.370054,6.80391 269.112614,22.45854 29.36169,6.98247 51.97806,13.22972 65.13685,23.9808 8.59682,7.21104 10.78474,21.55838 10.78474,21.55838"
         id="path4096"
         sodipodi:nodetypes="cccc" /><path
         style="display:inline;fill:none;fill-opacity:1;stroke:#0000ff;stroke-width:2.0095;stroke-linecap:butt;stroke-linejoin:miter;stroke-miterlimit:4;stroke-dasharray:none;stroke-opacity:1"
         d="m 63.840987,234.81914 c 92.539213,2.99549 188.981113,4.80098 266.729043,15.84721 29.36372,4.92696 51.98164,9.33515 65.14135,16.92132 8.59742,5.08827 10.7855,15.21203 10.7855,15.21203 M 55.905333,234.68523 c 2.36347,0.0354 5.018927,0.0801 7.935657,0.13391"
         id="path4098"
         sodipodi:nodetypes="cccccc" /><path
         style="display:inline;fill:none;fill-opacity:1;stroke:#0000ff;stroke-width:2.0095;stroke-linecap:butt;stroke-linejoin:miter;stroke-miterlimit:4;stroke-dasharray:none;stroke-opacity:1"
         d="m 59.036228,256.0046 c 92.547022,1.74499 193.801092,2.79674 271.555562,9.23155 29.36621,2.87014 51.98604,5.43808 65.14686,9.8573 8.59814,2.96409 10.7864,8.86155 10.7864,8.86155"
         id="path4100"
         sodipodi:nodetypes="cccc" /><path
         style="display:inline;fill:none;fill-opacity:1;stroke:#0000ff;stroke-width:2.0095;stroke-linecap:butt;stroke-linejoin:miter;stroke-miterlimit:4;stroke-dasharray:none;stroke-opacity:1"
         d="m 385.32689,316.95635 c -39.33161,-1.08306 -79.74587,-6.35419 -116.02122,-4.92206 -54.51675,-2.17953 -109.34293,-0.92387 -161.8358,1.77411 -7.25801,0.37303 -14.471222,0.77363 -21.633014,1.19652 -3.876524,0.22891 -7.737949,0.46435 -11.58314,0.70549"
         id="path1137" /><path
         style="display:inline;fill:none;fill-opacity:1;stroke:#0000ff;stroke-width:2.0095;stroke-linecap:butt;stroke-linejoin:miter;stroke-miterlimit:4;stroke-dasharray:none;stroke-opacity:1"
         d="m 385.32689,285.05696 c -39.33161,-1.08307 -79.74587,-6.35379 -116.02122,-4.92166 -54.51675,-2.17993 -109.34293,-0.92387 -161.8358,1.7737 -7.25801,0.37302 -14.471222,0.77363 -21.633014,1.19653 -3.876524,0.22891 -7.737949,0.46435 -11.58314,0.70549"
         id="path1141" /><path
         style="display:inline;fill:none;fill-opacity:1;stroke:#0000ff;stroke-width:2.0095;stroke-linecap:butt;stroke-linejoin:miter;stroke-miterlimit:4;stroke-dasharray:none;stroke-opacity:1"
         d="m 385.32689,289.31037 c -39.33161,-1.08307 -79.74587,-6.35419 -116.02122,-4.92206 -54.51675,-2.17993 -109.34293,-0.92386 -161.8358,1.77411 -7.25801,0.37302 -14.471222,0.77363 -21.633014,1.19653 -3.876524,0.22891 -7.737949,0.46435 -11.58314,0.70549"
         id="path1143" /><path
         style="display:inline;fill:none;fill-opacity:1;stroke:#0000ff;stroke-width:2.0095;stroke-linecap:butt;stroke-linejoin:miter;stroke-miterlimit:4;stroke-dasharray:none;stroke-opacity:1"
         d="m 385.32689,321.20936 c -39.33161,-1.08302 -79.74587,-6.35378 -116.02122,-4.92166 -54.51675,-2.17992 -109.34293,-0.92386 -161.8358,1.77411 -7.25801,0.37302 -14.471222,0.77363 -21.633014,1.19653 -3.876524,0.2289 -7.737949,0.46434 -11.58314,0.70533"
         id="path1145" /><path
         style="display:inline;fill:none;fill-opacity:1;stroke:#0000ff;stroke-width:2.0095;stroke-linecap:butt;stroke-linejoin:miter;stroke-miterlimit:4;stroke-dasharray:none;stroke-opacity:1"
         d="m 76.483489,317.25441 c 0,0 6.80679,-24.51381 0.675949,-35.64292"
         id="path1158" /><path
         style="display:inline;fill:none;fill-opacity:1;stroke:#0000ff;stroke-width:2.0095;stroke-linecap:butt;stroke-linejoin:miter;stroke-miterlimit:4;stroke-dasharray:none;stroke-opacity:1"
         d="m 103.39701,317.25441 c 0,0 6.80677,-24.51381 0.67608,-35.64292"
         id="path1162" /><path
         style="display:inline;fill:none;fill-opacity:1;stroke:#0000ff;stroke-width:2.0095;stroke-linecap:butt;stroke-linejoin:miter;stroke-miterlimit:4;stroke-dasharray:none;stroke-opacity:1"
         d="m 105.64001,317.25441 c 0,0 6.80677,-24.51381 0.67588,-35.64292"
         id="path1164" /><path
         style="display:inline;fill:none;fill-opacity:1;stroke:#0000ff;stroke-width:2.0095;stroke-linecap:butt;stroke-linejoin:miter;stroke-miterlimit:4;stroke-dasharray:none;stroke-opacity:1"
         d="m 132.55366,315.37023 c 0,0 6.80676,-24.5136 0.67588,-35.64251"
         id="path1166" /><path
         style="display:inline;fill:none;fill-opacity:1;stroke:#0000ff;stroke-width:2.0095;stroke-linecap:butt;stroke-linejoin:miter;stroke-miterlimit:4;stroke-dasharray:none;stroke-opacity:1"
         d="m 134.79628,315.37023 c 0,0 6.80689,-24.5136 0.6762,-35.64251"
         id="path1168" /><path
         style="display:inline;fill:none;fill-opacity:1;stroke:#0000ff;stroke-width:2.0095;stroke-linecap:butt;stroke-linejoin:miter;stroke-miterlimit:4;stroke-dasharray:none;stroke-opacity:1"
         d="m 161.7101,315.37023 c 0,0 6.80675,-24.5136 0.67606,-35.64251"
         id="path1170" /><path
         style="display:inline;fill:none;fill-opacity:1;stroke:#0000ff;stroke-width:2.0095;stroke-linecap:butt;stroke-linejoin:miter;stroke-miterlimit:4;stroke-dasharray:none;stroke-opacity:1"
         d="m 163.9529,315.37023 c 0,0 6.80675,-24.5136 0.67587,-35.64251"
         id="path1172" /><path
         style="display:inline;fill:none;fill-opacity:1;stroke:#0000ff;stroke-width:2.0095;stroke-linecap:butt;stroke-linejoin:miter;stroke-miterlimit:4;stroke-dasharray:none;stroke-opacity:1"
         d="m 190.86246,315.42133 c 0,0 6.80886,-26.00927 0.67623,-37.81749"
         id="path1174" /><path
         style="display:inline;fill:none;fill-opacity:1;stroke:#0000ff;stroke-width:2.0095;stroke-linecap:butt;stroke-linejoin:miter;stroke-miterlimit:4;stroke-dasharray:none;stroke-opacity:1"
         d="m 193.10587,315.42133 c 0,0 6.80881,-26.00927 0.67606,-37.81749"
         id="path1176" /><path
         style="display:inline;fill:none;fill-opacity:1;stroke:#0000ff;stroke-width:2.0095;stroke-linecap:butt;stroke-linejoin:miter;stroke-miterlimit:4;stroke-dasharray:none;stroke-opacity:1"
         d="m 220.02763,315.42133 c 0,0 6.80884,-26.00927 0.6761,-37.81749"
         id="path1178" /><path
         style="display:inline;fill:none;fill-opacity:1;stroke:#0000ff;stroke-width:2.0095;stroke-linecap:butt;stroke-linejoin:miter;stroke-miterlimit:4;stroke-dasharray:none;stroke-opacity:1"
         d="m 222.27127,315.42133 c 0,0 6.80872,-26.00927 0.67606,-37.81749"
         id="path1181" /><path
         style="display:inline;fill:none;fill-opacity:1;stroke:#0000ff;stroke-width:2.0095;stroke-linecap:butt;stroke-linejoin:miter;stroke-miterlimit:4;stroke-dasharray:none;stroke-opacity:1"
         d="m 249.17945,315.37023 c 0,0 6.80673,-24.5136 0.67591,-35.64251"
         id="path1184" /><path
         style="display:inline;fill:none;fill-opacity:1;stroke:#0000ff;stroke-width:2.0095;stroke-linecap:butt;stroke-linejoin:miter;stroke-miterlimit:4;stroke-dasharray:none;stroke-opacity:1"
         d="m 251.4223,315.37023 c 0,0 6.80681,-24.5136 0.67605,-35.64251"
         id="path1186" /><path
         style="display:inline;fill:none;fill-opacity:1;stroke:#0000ff;stroke-width:2.0095;stroke-linecap:butt;stroke-linejoin:miter;stroke-miterlimit:4;stroke-dasharray:none;stroke-opacity:1"
         d="m 278.336,315.37023 c 0,0 6.80676,-24.5136 0.67597,-35.64251"
         id="path1188" /><path
         style="display:inline;fill:none;fill-opacity:1;stroke:#0000ff;stroke-width:2.0095;stroke-linecap:butt;stroke-linejoin:miter;stroke-miterlimit:4;stroke-dasharray:none;stroke-opacity:1"
         d="m 280.57872,315.37023 c 0,0 6.80676,-24.5136 0.67596,-35.64251"
         id="path1190" /><path
         style="display:inline;fill:none;fill-opacity:1;stroke:#0000ff;stroke-width:2.0095;stroke-linecap:butt;stroke-linejoin:miter;stroke-miterlimit:4;stroke-dasharray:none;stroke-opacity:1"
         d="m 307.49241,315.37023 c 0,0 6.80678,-24.5136 0.67592,-35.64251"
         id="path1192" /><path
         style="display:inline;fill:none;fill-opacity:1;stroke:#0000ff;stroke-width:2.0095;stroke-linecap:butt;stroke-linejoin:miter;stroke-miterlimit:4;stroke-dasharray:none;stroke-opacity:1"
         d="m 309.7353,315.37023 c 0,0 6.80673,-24.5136 0.67589,-35.64251"
         id="path1194" /><path
         style="display:inline;fill:none;fill-opacity:1;stroke:#0000ff;stroke-width:2.0095;stroke-linecap:butt;stroke-linejoin:miter;stroke-miterlimit:4;stroke-dasharray:none;stroke-opacity:1"
         d="m 336.64893,317.25441 c 0,0 6.80678,-24.51381 0.67592,-35.64292"
         id="path1197" /><path
         style="display:inline;fill:none;fill-opacity:1;stroke:#0000ff;stroke-width:2.0095;stroke-linecap:butt;stroke-linejoin:miter;stroke-miterlimit:4;stroke-dasharray:none;stroke-opacity:1"
         d="m 338.8917,317.25441 c 0,0 6.80674,-24.51381 0.67592,-35.64292"
         id="path1199" /><path
         style="display:inline;fill:none;fill-opacity:1;stroke:#0000ff;stroke-width:2.0095;stroke-linecap:butt;stroke-linejoin:miter;stroke-miterlimit:4;stroke-dasharray:none;stroke-opacity:1"
         d="m 365.80536,319.38111 c 0,0 6.80678,-24.51379 0.67594,-35.64291"
         id="path1201" /><path
         style="display:inline;fill:none;fill-opacity:1;stroke:#0000ff;stroke-width:2.0095;stroke-linecap:butt;stroke-linejoin:miter;stroke-miterlimit:4;stroke-dasharray:none;stroke-opacity:1"
         d="m 368.0482,319.38111 c 0,0 6.80673,-24.51379 0.67589,-35.64291"
         id="path1204" /><path
         style="display:inline;fill:none;fill-opacity:1;stroke:#0000ff;stroke-width:2.0095;stroke-linecap:butt;stroke-linejoin:miter;stroke-miterlimit:4;stroke-dasharray:none;stroke-opacity:1"
         d="m 368.0482,319.38111 c 0,0 6.80673,-24.51379 0.67589,-35.64291"
         id="path1206" /><path
         style="display:inline;fill:none;fill-opacity:1;stroke:#0000ff;stroke-width:2.0095;stroke-linecap:butt;stroke-linejoin:miter;stroke-miterlimit:4;stroke-dasharray:none;stroke-opacity:1"
         d="m 85.454719,317.25441 c 0,0 0.36143,-1.30167 0.842681,-3.44127 m 1.744546,-26.63045 c -0.405127,-2.06153 -1.022162,-3.95713 -1.911286,-5.5712"
         id="path1208"
         sodipodi:nodetypes="cccc" /><path
         style="display:inline;fill:none;fill-opacity:1;stroke:#0000ff;stroke-width:2.0095;stroke-linecap:butt;stroke-linejoin:miter;stroke-miterlimit:4;stroke-dasharray:none;stroke-opacity:1"
         d="m 94.425783,317.25441 c 0,0 0.442932,-1.595 1.001079,-4.15602 m 1.461663,-26.51489 c -0.403418,-1.82993 -0.984342,-3.51558 -1.78669,-4.97201"
         id="path1210"
         sodipodi:nodetypes="cccc" /><path
         style="display:inline;fill:none;fill-opacity:1;stroke:#0000ff;stroke-width:2.0095;stroke-linecap:butt;stroke-linejoin:miter;stroke-miterlimit:4;stroke-dasharray:none;stroke-opacity:1"
         d="m 114.60873,317.25441 c 0,0 0.36125,-1.30167 0.84253,-3.44127 m 1.74455,-26.63045 c -0.40505,-2.06153 -1.02207,-3.95713 -1.9112,-5.5712"
         id="path1214"
         sodipodi:nodetypes="cccc" /><path
         style="display:inline;fill:none;fill-opacity:1;stroke:#0000ff;stroke-width:2.0095;stroke-linecap:butt;stroke-linejoin:miter;stroke-miterlimit:4;stroke-dasharray:none;stroke-opacity:1"
         d="m 123.57992,317.25441 c 0,0 0.44256,-1.595 1.00069,-4.15602 m 1.46166,-26.51489 c -0.40342,-1.82993 -0.98434,-3.51558 -1.78644,-4.97201"
         id="path1216"
         sodipodi:nodetypes="cccc" /><path
         style="display:inline;fill:none;fill-opacity:1;stroke:#0000ff;stroke-width:2.0095;stroke-linecap:butt;stroke-linejoin:miter;stroke-miterlimit:4;stroke-dasharray:none;stroke-opacity:1"
         d="m 143.76247,315.1277 c 0,0 0.36146,-1.30166 0.84253,-3.44127 m 1.74455,-26.63045 c -0.40505,-2.06153 -1.02208,-3.9569 -1.9112,-5.57079"
         id="path1219"
         sodipodi:nodetypes="cccc" /><path
         style="display:inline;fill:none;fill-opacity:1;stroke:#0000ff;stroke-width:2.0095;stroke-linecap:butt;stroke-linejoin:miter;stroke-miterlimit:4;stroke-dasharray:none;stroke-opacity:1"
         d="m 152.73366,315.1277 c 0,0 0.44295,-1.595 1.00082,-4.15601 m 1.46152,-26.5149 c -0.40341,-1.82993 -0.98421,-3.51518 -1.78643,-4.9716"
         id="path1221"
         sodipodi:nodetypes="cccc" /><path
         style="display:inline;fill:none;fill-opacity:1;stroke:#0000ff;stroke-width:2.0095;stroke-linecap:butt;stroke-linejoin:miter;stroke-miterlimit:4;stroke-dasharray:none;stroke-opacity:1"
         d="m 172.91621,315.1277 c 0,0 0.36145,-1.30166 0.84267,-3.44127 m 1.74451,-26.63045 c -0.40514,-2.06153 -1.02218,-3.9569 -1.9113,-5.57079"
         id="path1223"
         sodipodi:nodetypes="cccc" /><path
         style="display:inline;fill:none;fill-opacity:1;stroke:#0000ff;stroke-width:2.0095;stroke-linecap:butt;stroke-linejoin:miter;stroke-miterlimit:4;stroke-dasharray:none;stroke-opacity:1"
         d="m 181.8874,315.1277 c 0,0 0.44295,-1.595 1.0011,-4.15601 m 1.46124,-26.5149 c -0.40341,-1.82993 -0.98392,-3.51518 -1.78643,-4.9716"
         id="path1225"
         sodipodi:nodetypes="cccc" /><path
         style="display:inline;fill:none;fill-opacity:1;stroke:#0000ff;stroke-width:2.0095;stroke-linecap:butt;stroke-linejoin:miter;stroke-miterlimit:4;stroke-dasharray:none;stroke-opacity:1"
         d="m 202.06995,315.1277 c 0,0 0.36145,-1.30166 0.84291,-3.44127 m 1.7445,-26.63045 c -0.40526,-2.06153 -1.02227,-3.9569 -1.91142,-5.57079"
         id="path1227"
         sodipodi:nodetypes="cccc" /><path
         style="display:inline;fill:none;fill-opacity:1;stroke:#0000ff;stroke-width:2.0095;stroke-linecap:butt;stroke-linejoin:miter;stroke-miterlimit:4;stroke-dasharray:none;stroke-opacity:1"
         d="m 211.04115,315.1277 c 0,0 0.44294,-1.595 1.00109,-4.15601 m 1.46145,-26.5149 c -0.40344,-1.82993 -0.98413,-3.51518 -1.7865,-4.9716"
         id="path1229"
         sodipodi:nodetypes="cccc" /><path
         style="display:inline;fill:none;fill-opacity:1;stroke:#0000ff;stroke-width:2.0095;stroke-linecap:butt;stroke-linejoin:miter;stroke-miterlimit:4;stroke-dasharray:none;stroke-opacity:1"
         d="m 231.22392,315.1277 c 0,0 0.36136,-1.30166 0.84271,-3.44127 m 1.74455,-26.63045 c -0.40513,-2.06153 -1.02214,-3.9569 -1.91128,-5.57079"
         id="path1231"
         sodipodi:nodetypes="cccc" /><path
         style="display:inline;fill:none;fill-opacity:1;stroke:#0000ff;stroke-width:2.0095;stroke-linecap:butt;stroke-linejoin:miter;stroke-miterlimit:4;stroke-dasharray:none;stroke-opacity:1"
         d="m 240.19512,315.1277 c 0,0 0.4428,-1.595 1.00086,-4.15601 m 1.46162,-26.5149 c -0.40344,-1.82993 -0.9843,-3.51518 -1.78646,-4.9716"
         id="path1233"
         sodipodi:nodetypes="cccc" /><path
         style="display:inline;fill:none;fill-opacity:1;stroke:#0000ff;stroke-width:2.0095;stroke-linecap:butt;stroke-linejoin:miter;stroke-miterlimit:4;stroke-dasharray:none;stroke-opacity:1"
         d="m 260.37781,315.1277 c 0,0 0.3614,-1.30166 0.84257,-3.44127 m 1.74455,-26.63045 c -0.40505,-2.06153 -1.02208,-3.9569 -1.9112,-5.57079"
         id="path1235"
         sodipodi:nodetypes="cccc" /><path
         style="display:inline;fill:none;fill-opacity:1;stroke:#0000ff;stroke-width:2.0095;stroke-linecap:butt;stroke-linejoin:miter;stroke-miterlimit:4;stroke-dasharray:none;stroke-opacity:1"
         d="m 269.34901,315.1277 c 0,0 0.4428,-1.595 1.00085,-4.15601 m 1.46152,-26.5149 c -0.40341,-1.82993 -0.98422,-3.51518 -1.78644,-4.9716"
         id="path1237"
         sodipodi:nodetypes="cccc" /><path
         style="display:inline;fill:none;fill-opacity:1;stroke:#0000ff;stroke-width:2.0095;stroke-linecap:butt;stroke-linejoin:miter;stroke-miterlimit:4;stroke-dasharray:none;stroke-opacity:1"
         d="m 289.53159,315.1277 c 0,0 0.36145,-1.30166 0.84267,-3.44127 m 1.74452,-26.63045 c -0.40517,-2.06153 -1.02219,-3.9569 -1.91132,-5.57079"
         id="path1239"
         sodipodi:nodetypes="cccc" /><path
         style="display:inline;fill:none;fill-opacity:1;stroke:#0000ff;stroke-width:2.0095;stroke-linecap:butt;stroke-linejoin:miter;stroke-miterlimit:4;stroke-dasharray:none;stroke-opacity:1"
         d="m 298.50277,315.1277 c 0,0 0.44292,-1.595 1.00095,-4.15601 m 1.46143,-26.5149 c -0.40343,-1.82993 -0.9841,-3.51518 -1.78646,-4.9716"
         id="path1241"
         sodipodi:nodetypes="cccc" /><path
         style="display:inline;fill:none;fill-opacity:1;stroke:#0000ff;stroke-width:2.0095;stroke-linecap:butt;stroke-linejoin:miter;stroke-miterlimit:4;stroke-dasharray:none;stroke-opacity:1"
         d="m 318.68539,317.25441 c 0,0 0.36139,-1.30167 0.84272,-3.44127 m 1.74453,-26.63045 c -0.40514,-2.06153 -1.02217,-3.95713 -1.9113,-5.5712"
         id="path1243"
         sodipodi:nodetypes="cccc" /><path
         style="display:inline;fill:none;fill-opacity:1;stroke:#0000ff;stroke-width:2.0095;stroke-linecap:butt;stroke-linejoin:miter;stroke-miterlimit:4;stroke-dasharray:none;stroke-opacity:1"
         d="m 327.65659,317.25441 c 0,0 0.44288,-1.595 1.00099,-4.15602 m 1.46145,-26.51489 c -0.40344,-1.82993 -0.98412,-3.51558 -1.78646,-4.97201"
         id="path1245"
         sodipodi:nodetypes="cccc" /><path
         style="display:inline;fill:none;fill-opacity:1;stroke:#0000ff;stroke-width:2.0095;stroke-linecap:butt;stroke-linejoin:miter;stroke-miterlimit:4;stroke-dasharray:none;stroke-opacity:1"
         d="m 347.83926,319.38111 c 0,0 0.3614,-1.30166 0.8427,-3.44127 m 1.74453,-26.63045 c -0.40516,-2.06152 -1.02219,-3.95713 -1.91131,-5.57119"
         id="path1247"
         sodipodi:nodetypes="cccc" /><path
         style="display:inline;fill:none;fill-opacity:1;stroke:#0000ff;stroke-width:2.0095;stroke-linecap:butt;stroke-linejoin:miter;stroke-miterlimit:4;stroke-dasharray:none;stroke-opacity:1"
         d="m 356.81045,319.38111 c 0,0 0.44287,-1.59499 1.00093,-4.15601 m 1.4615,-26.51491 c -0.40343,-1.82991 -0.9842,-3.51556 -1.78648,-4.97199"
         id="path1249"
         sodipodi:nodetypes="cccc" /><path
         style="display:inline;fill:none;fill-opacity:1;stroke:#0000ff;stroke-width:2.0095;stroke-linecap:butt;stroke-linejoin:miter;stroke-miterlimit:4;stroke-dasharray:none;stroke-opacity:1"
         d="m 376.9931,321.50742 c 0,0 0.3614,-1.30166 0.84268,-3.44087 m 1.74452,-26.63085 c -0.40512,-2.06113 -1.02214,-3.95672 -1.91127,-5.5708"
         id="path1251"
         sodipodi:nodetypes="cccc" /><path
         style="display:inline;fill:none;fill-opacity:1;stroke:#0000ff;stroke-width:2.12771;stroke-linecap:butt;stroke-linejoin:miter;stroke-miterlimit:4;stroke-dasharray:none;stroke-opacity:1"
         d="m 57.845027,111.94179 c 12.122704,-0.13312 194.896313,16.61535 272.609333,54.84433 29.35055,17.05133 51.95831,32.30729 65.11214,58.56169 8.59356,17.60955 10.78063,52.64609 10.78063,52.64609"
         id="path2941"
         sodipodi:nodetypes="cccc" /><path
         style="display:inline;fill:none;fill-opacity:1;stroke:none;stroke-width:2.0095;stroke-linecap:butt;stroke-linejoin:miter;stroke-miterlimit:4;stroke-dasharray:none;stroke-opacity:1"
         d="m 141.20224,266.00758 c 67.29048,1.316 134.2491,3.17213 189.38955,7.73545 29.36621,2.87014 51.98604,5.43808 65.14686,9.85729 8.59814,2.9641 10.7864,8.86156 10.7864,8.86156"
         id="path1329"
         sodipodi:nodetypes="cccc" /></g><g
       inkscape:groupmode="layer"
       id="layer4"
       inkscape:label="auxiliar"
       style="display:inline"><path
         id="path2514"
         style="display:inline;fill:#ffffff;fill-opacity:1;stroke:#ff0000;stroke-width:0.04019;stroke-linecap:butt;stroke-linejoin:miter;stroke-miterlimit:4;stroke-dasharray:0.12057, 0.04019;stroke-dashoffset:0;stroke-opacity:1;marker-start:url(#marker2578)"
         d="m 101.00195,240.82812 c -2.243655,0.0737 -4.311382,1.05496 -6.2832,2.03711 -2.403715,0.60532 -4.308086,2.40115 -5.861863,4.25201 -2.708675,3.33558 -4.136916,7.88636 -3.198684,12.14057 1.01538,3.99355 5.009057,6.77883 9.060934,6.79576 0.716075,0.037 1.47756,-0.0862 2.15391,-0.15123 1.34209,3.19193 1.473158,7.07408 -0.460073,10.06095 -1.409625,2.21969 -3.624501,3.91139 -6.071177,4.82577 -5.487914,0.53242 -11.019753,0.75888 -16.495001,1.06723 -5.472128,0.28926 -10.945596,0.55114 -16.419062,0.81363 4.211664,3.34584 8.349779,6.86956 13.169166,9.32998 5.516503,2.93653 11.736892,4.37879 17.953881,4.67198 4.95254,-0.0398 9.516363,-2.52893 13.305759,-5.54008 3.12517,-2.57838 6.04307,-5.59833 7.77754,-9.30501 1.33307,-3.41438 1.78215,-7.11504 1.91609,-10.75794 0.10634,-4.96431 -0.62685,-10.04936 -2.83533,-14.5376 -0.2357,-2.44291 1.42018,-4.61965 1.18164,-7.07227 -0.19842,-2.66471 -1.68338,-5.14391 -3.66835,-6.87834 -1.44567,-1.21912 -3.33996,-1.84001 -5.22618,-1.75252 z" /><path
         id="path2516"
         style="display:inline;fill:#ffffff;fill-opacity:1;stroke:#ff0000;stroke-width:0.04019;stroke-linecap:butt;stroke-linejoin:miter;stroke-miterlimit:4;stroke-dasharray:0.12057, 0.04019;stroke-dashoffset:0;stroke-opacity:1;marker-start:url(#marker2568)"
         d="m 325.43555,159.67578 c 2.26192,2.65126 3.18727,6.06502 4.27677,9.29605 0.22999,0.50525 0.32814,1.14307 0.65936,1.55914 4.69138,2.14782 9.1748,4.7617 13.37424,7.7532 2.08043,2.15065 4.11302,4.78645 4.17761,7.908 -0.0554,2.38425 -1.65471,4.44624 -3.41376,5.91916 -0.72448,0.58198 -1.52481,1.07243 -2.38086,1.43555 -3.53627,-2.3658 -8.41181,-2.04475 -11.86914,0.31054 -3.56974,2.29616 -5.66609,6.6366 -5.22264,10.86134 0.35274,3.69469 2.14505,7.20295 4.73631,9.83202 2.59465,2.61855 6.56141,3.84712 10.15234,2.87695 4.17177,-1.01587 7.73441,-4.78899 7.84047,-9.18622 0.0218,-0.58827 -0.0207,-1.17986 -0.12367,-1.75909 3.65374,-1.94893 7.24846,-4.25471 9.89178,-7.49479 2.78644,-3.81415 4.59431,-8.52376 4.24269,-13.30184 -0.32405,-4.73325 -2.1499,-9.20244 -4.12666,-13.45923 -2.91568,-5.69145 -8.34511,-9.66258 -14.13748,-12.0906 -5.73404,-2.42936 -11.94865,-3.48519 -18.13985,-3.81423 -0.89584,-0.0675 -1.79168,-0.13506 -2.68751,-0.20259 0.91666,1.18555 1.83333,2.37109 2.75,3.55664 z" /><path
         id="path2518"
         style="display:inline;fill:#ffffff;fill-opacity:1;stroke:#ff0000;stroke-width:0.04019;stroke-linecap:butt;stroke-linejoin:miter;stroke-miterlimit:4;stroke-dasharray:0.12057, 0.04019;stroke-dashoffset:0;stroke-opacity:1;marker-start:url(#marker2558)"
         d="m 302.61328,145.95898 c -5.11301,0.14588 -10.09516,1.53019 -14.84142,3.36175 -1.24557,0.44908 -2.49114,0.89816 -3.7367,1.34724 9.48527,3.24935 19.02374,6.46108 28.04819,10.95204 1.0049,0.5536 2.14275,0.93995 3.02705,1.66684 3.04293,3.0145 4.57173,7.26899 4.78135,11.49466 0.22599,2.50107 -0.008,5.15128 -1.40491,7.30866 -2.30694,3.67706 -6.45699,5.70411 -10.53527,6.76357 -4.44671,1.13918 -9.12819,1.2189 -13.65079,0.50759 -0.84173,-0.13547 -1.9553,-0.35572 -2.88867,-0.58399 -1.14011,-0.28377 -2.26959,-0.61332 -3.375,-1.01172 -1.45224,-4.85537 -6.30581,-8.46398 -11.39372,-8.30999 -3.81222,0.0187 -7.3567,2.38403 -9.16704,5.68425 -1.76215,3.14886 -2.48522,6.85069 -2.25958,10.43816 0.20804,3.32489 1.94895,6.64185 4.94335,8.25178 4.0045,2.20008 9.12376,1.68286 12.96894,-0.61648 0.88981,-0.5287 1.70937,-1.17854 2.41782,-1.93404 6.41235,2.94841 13.78482,2.97033 20.59206,1.56951 5.47167,-1.16009 10.79697,-3.16163 15.57155,-6.08862 5.50525,-3.55933 9.15978,-9.61389 10.18209,-16.0473 0.86108,-5.37946 0.24517,-10.96774 -1.54972,-16.09837 -2.64403,-7.43822 -8.44733,-13.78726 -15.84481,-16.67116 -3.76187,-1.50213 -7.84524,-2.11324 -11.88477,-1.98438 z" /><path
         id="path2520"
         style="display:inline;fill:#ffffff;fill-opacity:1;stroke:#ff0000;stroke-width:0.04019;stroke-linecap:butt;stroke-linejoin:miter;stroke-miterlimit:4;stroke-dasharray:0.12057, 0.04019;stroke-dashoffset:0;stroke-opacity:1;marker-start:url(#marker2548)"
         d="m 56.888672,117.85156 c -2.068552,0.15517 -3.629143,1.77592 -4.939216,3.23434 -4.430879,5.30935 -6.559739,12.54948 -5.52512,19.40417 0.693406,4.23589 3.570462,7.8164 7.093968,10.12462 4.317366,2.8618 9.376792,4.42452 14.456305,5.24469 0.610407,1.87873 1.42735,3.90919 3.272533,4.88722 1.882273,0.99561 3.986085,1.67697 6.122389,1.7752 3.369566,0.15338 6.475737,-1.89483 8.28818,-4.63326 2.103058,-3.02666 3.108145,-6.74362 2.974714,-10.41622 -0.0064,-3.25418 -1.178584,-6.73817 -3.962099,-8.64392 -1.924512,-1.39201 -4.328062,-1.81816 -6.621536,-2.18351 -2.200794,-0.31093 -4.229586,1.03903 -5.505633,2.7302 -0.715545,0.88703 -1.321533,1.85561 -1.906438,2.83194 -3.378426,-0.93013 -6.932527,-1.82083 -9.724312,-4.0479 -0.876391,-0.7405 -1.703441,-1.77554 -1.525601,-2.99638 -0.13896,-5.81596 -0.275235,-11.63199 -0.416103,-17.44791 -0.69401,0.0456 -1.388021,0.0911 -2.082031,0.13672 z" /><path
         id="path2522"
         style="display:inline;fill:#ffffff;fill-opacity:1;stroke:#ff0000;stroke-width:0.04019;stroke-linecap:butt;stroke-linejoin:miter;stroke-miterlimit:4;stroke-dasharray:0.12057, 0.04019;stroke-dashoffset:0;stroke-opacity:1;marker-start:url(#marker2538)"
         d="m 54.638672,189.54688 c -2.92766,0.0496 -5.640344,1.81146 -7.095703,4.3164 -1.422451,2.34628 -2.084835,5.05335 -2.703744,7.69689 -0.36635,3.04766 1.437884,5.87314 3.518646,7.9328 2.22306,2.17308 5.358354,3.87822 8.55202,3.19736 2.923454,-0.50307 5.099148,-2.99285 5.95925,-5.72744 0.16862,-0.46856 0.958975,-0.11652 1.370541,-0.26359 4.898221,-0.15939 10.036524,0.1289 14.469302,2.42179 2.664547,1.37497 4.773522,3.92838 5.20002,6.94465 0.423971,2.36761 0.04113,4.89527 -1.316308,6.91041 -2.387002,3.68948 -6.519271,6.32962 -10.936951,6.63006 -3.168917,0.25704 -6.307632,-1.32124 -8.176767,-3.85794 -0.348654,-0.46127 -0.08262,-1.14484 -0.196986,-1.69079 -0.129202,-3.87593 -0.259226,-7.75183 -0.387461,-11.62779 -1.94995,0.95173 -3.967462,1.74455 -5.954928,2.60867 -3.349441,1.50417 -6.351433,4.22289 -7.3474,7.85457 -0.81975,2.91321 -0.519723,6.02184 0.0953,8.94496 0.83438,3.8022 3.142553,7.19751 6.268395,9.4955 4.874994,3.87667 11.198651,5.50704 17.347608,5.5322 9.009457,0.0845 17.688061,-5.20185 22.229443,-12.90071 2.342002,-4.003 3.233059,-8.68875 3.459325,-13.27253 0.26717,-6.58453 -1.35452,-13.51844 -5.732054,-18.59955 -2.824359,-3.35662 -6.839454,-5.4572 -10.991766,-6.68986 -5.058334,-1.49527 -10.490604,-2.16067 -15.703786,-1.11485 -1.098174,0.24069 -2.181191,0.56807 -3.203337,1.04003 -0.552582,-0.5781 -0.93352,-1.09521 -1.490234,-1.74414 -1.688728,-2.03983 -3.93075,-4.07722 -6.748433,-4.04196 -0.16133,0.002 -0.322659,0.003 -0.483989,0.005 z" /><path
         id="path2524"
         style="display:inline;fill:#ffffff;fill-opacity:1;stroke:#ff0000;stroke-width:0.04019;stroke-linecap:butt;stroke-linejoin:miter;stroke-miterlimit:4;stroke-dasharray:0.12057, 0.04019;stroke-dashoffset:0;stroke-opacity:1;marker-start:url(#marker2528)"
         d="m 116.35938,100.37891 c -4.23219,0.0928 -8.35999,1.98934 -11.19453,5.13152 -3.77743,4.10415 -5.74933,9.47041 -7.32424,14.72929 -1.168832,4.0187 -2.120416,8.0989 -3.152273,12.15215 -1.293509,8.41938 -0.828267,17.02723 0.529077,25.40785 1.382259,8.1284 3.631994,16.20903 7.572206,23.49107 0.28629,0.65437 0.83555,1.23472 1.00921,1.90843 -0.20788,2.32993 -0.48586,4.71655 0.17106,7.00628 0.68613,2.63459 1.76847,5.16471 3.0471,7.56245 1.68205,2.97644 4.99949,4.81158 8.38731,4.90783 4.28336,0.16184 8.63767,-1.5482 11.55618,-4.71292 2.39208,-2.32637 3.85522,-5.56282 3.94172,-8.90515 0.12809,-3.87755 -0.60882,-8.04108 -3.26743,-11.02451 -2.73858,-3.14174 -7.05813,-4.57017 -11.15235,-4.30859 -2.15071,-3.91461 -3.03455,-8.36505 -3.79511,-12.72318 -0.3856,-2.35847 -0.66502,-4.73323 -0.88262,-7.11276 -0.085,-1.03248 -0.19027,-2.38424 -0.24821,-3.43066 -0.26816,-5.45378 -0.3667,-10.96758 0.52463,-16.37267 0.95893,-5.2482 2.51151,-10.50972 5.54194,-14.96034 7.14583,0.84637 14.2917,1.6924 21.4375,2.53906 -2.20481,-3.64751 -4.26417,-7.37909 -6.40798,-11.06167 -2.22194,-3.71705 -5.1423,-7.30908 -9.26979,-8.96145 -2.21189,-0.92142 -4.63405,-1.30919 -7.0234,-1.26203 z" /></g><g
       inkscape:groupmode="layer"
       id="g903"
       inkscape:label="Silkscreen azul"
       style="display:inline"><path
         style="display:inline;fill:#0000ff;fill-opacity:1;stroke:#ff0000;stroke-width:0.04019;stroke-linecap:butt;stroke-linejoin:miter;stroke-miterlimit:4;stroke-dasharray:0.12057, 0.04019;stroke-dashoffset:0;stroke-opacity:1;marker-start:url(#marker1185)"
         d="m 87.736281,294.63815 c 8.600222,0.69342 18.676869,-9.21051 20.355619,-14.35681 1.95455,-5.99179 2.371,-16.09894 -1.31305,-23.13208 -0.70386,-4.58259 2.94381,-6.11913 -0.10636,-11.01413 -4.03388,-6.47368 -10.347695,-1.49699 -11.483002,-1.32625 -2.128254,0.32007 -8.246195,5.24871 -7.798861,12.67289 0.279441,4.63745 5.40258,7.93889 10.59067,6.02001 4.537463,8.94802 0.460222,16.13951 -6.860465,19.17167 -1.14357,0.47365 -28.290463,1.73914 -28.290463,1.73914 9.11875,7.35626 16.305688,9.53214 24.905912,10.22556 z"
         id="path1157"
         sodipodi:nodetypes="zscssscscz" /><path
         style="display:inline;fill:#0000ff;fill-opacity:1;stroke:#ff0000;stroke-width:0.04019;stroke-linecap:butt;stroke-linejoin:miter;stroke-miterlimit:4;stroke-dasharray:0.12057, 0.04019;stroke-dashoffset:0;stroke-opacity:1;marker-start:url(#marker1195)"
         d="m 331.86458,169.024 c 3.33218,1.50497 8.28047,4.245 13.10465,7.64992 2.9145,2.90797 5.12934,6.33136 4.95037,9.93725 -0.16404,3.30468 -3.37649,7.70983 -8.10134,9.18144 -7.15853,-5.91048 -19.9721,2.98315 -12.63529,14.8211 6.54255,10.5564 19.25432,2.84505 16.09394,-5.20396 4.20242,-1.92451 9.24145,-5.32224 11.19105,-8.36168 4.8039,-7.48941 4.15075,-13.30792 -0.14928,-22.97581 -4.30006,-9.66791 -16.53786,-14.79481 -29.30043,-15.62104 3.03502,3.72485 3.63675,7.49413 4.84633,10.57278 z"
         id="path1155"
         sodipodi:nodetypes="ccscscszcc" /><path
         style="display:inline;fill:#0000ff;fill-opacity:1;stroke:#ff0000;stroke-width:0.04019;stroke-linecap:butt;stroke-linejoin:miter;stroke-miterlimit:4;stroke-dasharray:0.12057, 0.04019;stroke-dashoffset:0;stroke-opacity:1;marker-start:url(#marker1205)"
         d="m 290.04859,150.62576 c 13.50806,4.58728 20.85073,8.03481 26.00158,10.77539 4.32186,4.14912 5.92365,9.21581 5.90657,15.44884 -0.0361,13.16046 -19.71481,18.60127 -35.58685,12.43271 -2.02688,-9.50025 -16.70293,-12.15803 -18.98492,2.3236 -2.28201,14.48166 13.61644,13.65556 17.58552,7.14582 9.98853,5.55319 24.24484,2.70338 34.40415,-2.91551 7.24036,-4.00445 13.11782,-13.30027 10.09861,-27.05852 -3.01926,-13.75821 -16.99482,-26.55487 -39.42466,-18.15233 z"
         id="path1153"
         sodipodi:nodetypes="ccscscszc" /><path
         style="display:inline;fill:#0000ff;fill-opacity:1;stroke:#ff0000;stroke-width:0.04019;stroke-linecap:butt;stroke-linejoin:miter;stroke-miterlimit:4;stroke-dasharray:0.12057, 0.04019;stroke-dashoffset:0;stroke-opacity:1;marker-start:url(#marker1576)"
         d="m 57.02091,119.84783 c -2.366708,-0.10367 -9.828093,8.42913 -8.756843,19.36088 1.171161,11.95132 18.732472,14.60461 21.171291,14.82315 1.508403,3.94082 1.136301,4.80793 5.856955,6.15738 7.431142,2.12426 10.770953,-6.27122 11.178475,-9.68123 0.473015,-3.95811 0.407554,-10.08122 -6.29946,-11.42243 -3.103933,-0.6207 -4.629753,-1.80815 -8.55959,5.46777 -2.676858,-0.84824 -12.878027,-2.69336 -14.196784,-8.17814 z"
         id="path1571"
         sodipodi:nodetypes="cscsssccc" /><path
         style="display:inline;fill:#0000ff;fill-opacity:1;stroke:#ff0000;stroke-width:0.04019;stroke-linecap:butt;stroke-linejoin:miter;stroke-miterlimit:4;stroke-dasharray:0.12057, 0.04019;stroke-dashoffset:0;stroke-opacity:1;marker-start:url(#marker1586)"
         d="m 60.996498,215.50039 c -1.754141,0.9167 -9.946204,2.70052 -9.898682,11.0306 0.04752,8.3301 3.799944,11.81956 7.826025,14.45538 5.814946,3.80698 13.399143,4.17946 17.116682,3.73487 9.191062,-1.09917 17.121663,-8.09476 19.508438,-15.65455 3.176958,-10.06252 1.713473,-24.38247 -9.294806,-29.94542 -6.664761,-3.36799 -17.218423,-4.65642 -22.704737,-1.65531 -1.674094,0.91575 -4.095602,-5.83233 -8.307486,-5.92585 -6.387952,-0.14186 -7.494979,6.99658 -8.323364,9.81857 -1.075484,3.66377 4.273257,9.39889 8.316343,9.47807 5.304328,0.10389 6.101031,-5.96036 6.101031,-5.96036 17.416868,-1.49313 25.311131,4.63505 24.695701,14.10682 -0.61542,9.47177 -16.704825,18.87768 -24.678538,7.24698 z"
         id="path1569"
         sodipodi:nodetypes="czsssssssscscc" /><path
         style="display:inline;fill:#0000ff;fill-opacity:1;stroke:#ff0000;stroke-width:0.04019;stroke-linecap:butt;stroke-linejoin:miter;stroke-miterlimit:4;stroke-dasharray:0.12057, 0.04019;stroke-dashoffset:0;stroke-opacity:1;marker-start:url(#marker1616)"
         d="m 116.68318,117.00025 c -3.7811,5.035 -5.5494,11.09128 -6.59465,16.86371 -1.78055,9.83349 -0.35096,34.23387 5.39126,41.9709 5.06661,-0.75626 12.04999,1.42341 13.20531,9.35059 0.90307,6.19658 -0.78749,9.54027 -4.65512,12.75686 -3.47563,2.89066 -12.35804,5.12043 -15.74855,-2.03748 -3.89053,-8.21353 -2.50847,-9.18149 -2.4603,-13.40436 -7.920287,-12.47081 -11.599756,-34.94754 -9.139131,-49.91347 3.251084,-12.06637 5.869731,-30.23132 20.384991,-30.22026 10.57567,0.31367 13.27827,8.66155 18.22253,16.8371 z"
         id="path1003"
         sodipodi:nodetypes="cccscsccccc" /><path
         id="path2497"
         style="display:inline;fill:#0000ff;fill-opacity:1;stroke:none;stroke-width:0.582755;stroke-linecap:butt;stroke-linejoin:miter;stroke-miterlimit:10;stroke-dasharray:none;stroke-opacity:1"
         d="m 198.58256,11.518238 c -6.80133,-0.168014 -11.24697,1.562184 -14.59835,5.979323 -0.9914,1.30501 -2.34445,2.734618 -2.81417,4.596123 1.3681,0.278368 2.73795,0.557491 4.10391,0.834904 0.84932,-1.033507 1.72427,-1.948751 2.75809,-2.714476 2.56496,-1.904119 8.22672,-1.715377 12.23279,0.344762 0.96135,0.4941 1.88465,1.064524 2.79547,1.671884 l -1.75911,9.129941 c -1.15534,-0.235189 -2.31087,-0.468956 -3.4663,-0.70406 -1.7056,3.840091 -3.41086,7.682322 -5.11742,11.524577 -3.28833,0.295761 -6.45968,1.103299 -9.79038,1.49535 -1.02031,-0.346885 -2.37816,-1.97682 -3.12155,-2.652169 -2.30325,-2.137511 -4.60858,-4.273813 -6.91184,-6.411312 -4.01295,2.336197 -8.02665,4.670712 -12.03756,7.005299 1.91089,3.750189 3.82438,7.505994 5.73632,11.25666 -1.43918,2.074583 -2.87863,4.147727 -4.31782,6.222317 -0.38534,0.511213 -0.77138,1.019932 -1.15682,1.52858 -1.08198,0.418403 -2.99255,0.01202 -4.32197,0.0021 -3.10836,-0.09852 -6.21778,-0.199072 -9.32933,-0.29907 -0.7291,0.670624 -0.80918,2.542396 -1.03428,3.696836 -0.50768,3.034861 -1.01674,6.068074 -1.52443,9.102945 3.99845,1.570614 8.00015,3.142898 11.99811,4.714502 0.50125,0.517345 0.47895,1.871375 0.65213,2.567025 0.57769,2.471067 1.15447,4.943389 1.73212,7.414436 -3.12408,2.655294 -8.0755,7.140833 -11.19851,9.796617 2.8339,3.672688 4.30224,6.586088 7.13822,10.259758 1.03085,-0.28068 5.53041,-2.41442 8.72703,-3.94606 -2.11295,-4.715107 -1.8887,-10.509301 1.77988,-15.273334 2.2108,-2.872316 5.63769,-4.975471 9.50378,-5.628332 0.9047,-0.154347 1.89852,-0.182685 2.89724,-0.168223 0.38356,0.03786 0.76858,0.07327 1.15266,0.110079 4.78101,1.000961 7.84873,3.125469 9.70524,5.842247 -2.23548,1.836061 -4.20759,3.703789 -5.82564,6.463229 -0.6348,1.08199 -0.83692,2.550065 -1.47042,3.775757 -0.0333,0.0074 -0.0667,0.01648 -0.0996,0.02286 -0.65988,-0.890372 -0.7706,-1.916259 -1.65942,-2.691629 -2.41522,-2.104645 -5.73354,-1.860923 -7.68028,-0.342689 -0.739,0.575756 -0.91841,1.149364 -1.34789,2.247177 -1.08617,2.771578 0.94832,4.998828 3.14231,6.018788 -0.53331,2.53695 -1.06636,5.0774 -1.5992,7.6159 -1.92623,-0.68944 -3.6177,-1.78614 -5.04888,-3.14232 l -10.32988,12.43456 60.43448,10.51076 -5.27734,-10.39891 c -1.5896,0.7933 -3.30797,1.36754 -5.12157,1.70303 -1.98799,0.36733 -4.29581,0.83116 -6.90353,0.24507 0.55613,-2.69172 1.11303,-5.38277 1.6698,-8.07281 3.7497,-0.47608 6.47717,-1.37593 8.25974,-4.56289 0.3679,-0.65959 0.68029,-1.75629 0.70613,-2.66048 0.032,-1.09487 0.20173,-1.97602 0.002,-2.89724 -0.50826,-2.36667 -2.24285,-4.55454 -4.43829,-5.90248 -0.87229,-0.537943 -2.29843,-1.179011 -3.69683,-1.268971 -3.98314,-0.256993 -6.87229,1.001058 -8.70834,3.721761 -3.39033,5.02121 0.069,11.48342 4.97203,13.0407 -0.50276,2.65643 -1.00443,5.31769 -1.5078,7.9752 -2.48247,0.0889 -6.61601,-2.91765 -7.82359,-3.94606 -4.05041,-3.44685 -6.71783,-7.50046 -7.37083,-13.02201 -0.17019,-1.45212 0.19473,-2.79305 0.216,-4.47774 0.0188,-1.598323 0.70248,-3.53721 1.30635,-4.768507 3.12941,-6.385571 9.1099,-10.05059 16.38862,-10.606599 1.38649,-0.105698 2.79865,0.191372 4.40505,0.280376 3.02701,0.163704 6.67873,2.064268 8.35112,3.177627 5.91781,3.944438 10.476,10.818733 8.80386,19.385533 -0.30404,1.56446 -0.60292,3.05207 -1.20666,4.26591 -0.43616,0.87983 -0.93374,1.7038 -1.47665,2.48187 1.81503,1.37732 3.5688,2.71287 3.76744,2.85778 l 8.41342,-7.1673 c 0,0 -4.26737,-6.46831 -6.02086,-10.15799 -0.0806,-0.21416 1.1982,-1.733001 1.45174,-2.058187 1.53476,-2.000371 3.06913,-3.998233 4.60235,-5.998009 1.78794,-0.232301 3.80569,0.144925 5.74256,0.159919 2.4631,0.125051 4.92861,0.247274 7.3916,0.369677 0.32776,-1.684064 0.65374,-3.368426 0.98028,-5.053033 0.47796,-2.647819 0.95527,-5.299349 1.43097,-7.9482 -4.21902,-1.573007 -8.43897,-3.145142 -12.65647,-4.718659 -0.73917,-3.064571 -1.47742,-6.127611 -2.21395,-9.192246 3.18371,-2.882738 6.36985,-5.764293 9.5557,-8.646032 -2.69141,-3.699066 -5.38091,-7.399207 -8.07074,-11.098819 -4.24948,1.502724 -8.50145,3.004557 -12.752,4.506818 -0.25668,0.07495 -1.8233,-1.017721 -2.18695,-1.244048 -2.1903,-1.312675 -4.38251,-2.628671 -6.57124,-3.941908 -0.0537,-4.200242 -0.10314,-8.399681 -0.15784,-12.600399 -1.41085,-0.286907 -2.82364,-0.574698 -4.23475,-0.861903 l 1.47459,-6.340698 c 2.96857,1.811997 6.35216,3.243491 10.88697,3.269001 1.36435,0.0072 2.71514,-0.0022 3.93983,-0.209765 4.32241,-0.727529 7.60162,-3.218471 10.01677,-6.531771 0.27446,-0.376015 2.29539,-3.126367 1.92527,-3.684376 -0.83277,-0.541796 -2.58886,-0.782437 -3.74046,-1.013514 -2.61412,4.42837 -8.85884,5.468467 -15.24633,2.234717 -4.63224,-2.348324 -7.39954,-5.482859 -12.5298,-7.636668 -1.52064,-0.639483 -4.00143,-1.157301 -5.67609,-1.198357 z m 14.85173,38.582101 c 1.50839,0.0527 2.55981,1.30559 2.59818,2.442405 0.0201,0.581694 -0.31053,0.954409 -0.51299,1.366583 0.59107,0.341266 3.09327,1.736658 3.60753,1.659423 0.42463,-0.681124 1.35046,-1.018369 2.13087,-1.246125 3.35118,-0.980626 6.3643,1.289282 6.889,3.75499 0.46305,2.161124 -1.1452,4.69501 -2.93047,4.949192 0.29174,0.634923 0.58623,1.269673 0.88059,1.904499 0.73062,0.05253 1.48238,-0.0043 2.22433,0.369677 1.38997,0.695863 2.55698,2.758813 1.31467,4.38636 -0.4739,0.618205 -1.16306,0.768915 -1.74873,1.198353 -0.24129,0.407012 0.1101,2.756144 0.15576,3.393617 0.16563,2.370431 -0.37049,4.650583 -0.44653,7.262833 -0.0911,0.681954 -0.18353,1.363174 -0.27623,2.045723 -0.1755,0.790864 -0.35153,1.580834 -0.52959,2.371793 -0.56992,2.289158 -1.39528,4.706941 -2.49848,6.508921 -0.70394,1.075546 -1.40722,2.152421 -2.11219,3.227467 -0.42624,0.488306 -0.85622,0.974314 -1.2835,1.46212 l -0.42161,-0.924209 c 0.0298,0.0053 0.0587,0.01085 0.0893,0.01659 2.70194,-3.317449 4.78515,-7.364703 5.90871,-12.878702 0.20438,-1.317471 0.41032,-2.633719 0.61683,-3.950212 0.0195,-1.694995 0.23331,-3.330751 0.11215,-4.936733 -0.12418,-1.16004 -0.24754,-2.31872 -0.37176,-3.47876 -2.29468,-0.331407 -4.27138,-2.167266 -3.2067,-4.309521 0.3775,-0.759792 1.20294,-1.004301 1.48705,-1.547274 -0.30435,-0.580212 -0.60787,-1.159147 -0.91175,-1.740417 -0.56352,-0.0023 -1.12651,-0.0044 -1.69058,-0.0083 -2.33011,-0.136536 -3.28139,-1.7139 -4.1309,-2.772627 -0.7627,0.01567 -3.39466,0.268673 -3.92114,0.587755 -0.45071,3.764009 -6.22357,4.672289 -8.13097,1.412275 -1.90086,-3.249217 0.90186,-7.000322 5.06549,-5.734251 0.29202,-0.822871 0.58436,-1.64617 0.87853,-2.469404 -2.25308,-0.76059 -1.40285,-3.903048 0.49429,-4.270055 0.23253,-0.04529 0.45536,-0.06153 0.67083,-0.054 z m -32.23725,51.880331 c -0.11848,3.65978 0.79911,6.53095 1.99173,9.35839 -1.54897,0.98312 -5.84969,1.60838 -8.54011,1.11944 0.51803,-2.5428 1.03488,-5.08507 1.5535,-7.62629 1.22407,-0.34445 2.57232,-0.42204 3.48085,-1.18174 0.48506,-0.53436 0.96765,-1.06489 1.45173,-1.59711 0.0207,-0.0225 0.0398,-0.0485 0.0623,-0.0727 z m 2.34627,18.98579 c 2.3865,0.64823 1.91175,-1.71511 3.55779,-1.19637 1.64604,0.51874 0.0248,3.48405 -3.95698,2.53553 -3.98176,-0.94853 -3.53601,-5.06124 -2.03977,-4.63132 1.49624,0.42993 0.0525,2.64391 2.43896,3.29216 z"
         sodipodi:nodetypes="scccccccccccccccccccccccccccccccccccccccccccccccccccccccccccccccccccccccccccccccccccccccccccscccccccccccccccccccccccccccccccccscccccccccczzzzz" /><path
         style="display:inline;fill:#0000ff;fill-opacity:1;fill-rule:nonzero;stroke:none;stroke-width:1.16828"
         d="m 213.01657,54.773922 c -0.27756,0.82705 -0.55437,1.653168 -0.8339,2.479305 1.2807,0.476735 2.16152,1.866426 2.2947,3.029385 1.16837,-0.125483 2.33775,-0.253083 3.50509,-0.379056 -0.0525,-0.583967 -0.10517,-1.170512 -0.15771,-1.754463 0.014,-0.765566 0.58007,-1.31891 0.56603,-1.86044 -1.19273,-0.593555 -2.38859,-1.185934 -3.58242,-1.779985 -0.56538,0.02383 -0.95748,0.383662 -1.79173,0.26533"
         id="path2505" /><g
         id="g2528"
         style="opacity:1;fill:#0000ff;fill-opacity:1;stroke:none;stroke-width:1.00406;stroke-miterlimit:10;stroke-dasharray:none"
         transform="matrix(0.3812392,0.13875972,-0.11472264,0.31519784,82.634784,91.326289)" /></g><g
       inkscape:groupmode="layer"
       id="layer2"
       inkscape:label="texto"
       style="display:inline"
       sodipodi:insensitive="true"><path
         style="display:inline;fill:#ffffff;fill-opacity:1;stroke:none;stroke-width:2.0095;stroke-linecap:butt;stroke-linejoin:miter;stroke-miterlimit:4;stroke-dasharray:none;stroke-opacity:1"
         d="m 322.84303,251.85804 c -54.48665,-4.18431 -119.57641,-5.91952 -184.80865,-7.17922 -7.06668,-0.51259 -8.99975,21.27524 -0.53032,21.25697 65.38726,1.2601 130.65984,2.99261 185.2827,7.18512 2.62669,0.20162 2.66386,-21.06261 0.0563,-21.26287 z"
         id="path1335"
         sodipodi:nodetypes="ccccc" /><text
         xml:space="preserve"
         style="font-style:normal;font-variant:normal;font-weight:normal;font-stretch:normal;font-size:20px;line-height:1.25;font-family:Geneva;-inkscape-font-specification:'Geneva, Normal';font-variant-ligatures:normal;font-variant-caps:normal;font-variant-numeric:normal;font-variant-east-asian:normal;letter-spacing:0px;word-spacing:0px;display:inline;fill:#000000;fill-opacity:1;stroke:none"
         id="text1274"><textPath
           xlink:href="#path1329"
           id="textPath1332">OSHWDem 2020<tspan
   id="tspan1270"
   style="font-style:normal;font-variant:normal;font-weight:normal;font-stretch:normal;font-size:20px;font-family:Geneva;-inkscape-font-specification:'Geneva, Normal';font-variant-ligatures:normal;font-variant-caps:normal;font-variant-numeric:normal;font-variant-east-asian:normal;fill:#000000;stroke:none" /></textPath></text><path
         style="display:inline;fill:none;fill-opacity:1;stroke:none;stroke-width:2.0095;stroke-linecap:butt;stroke-linejoin:miter;stroke-miterlimit:4;stroke-dasharray:none;stroke-opacity:1"
         d="m 130.17413,154.40899 c 70.96306,6.14267 141.07245,14.28566 200.32252,36.75933 29.35699,13.1504 51.96971,24.91617 65.12638,45.16421 8.59544,13.58094 10.78301,40.60201 10.78301,40.60201"
         id="path2463"
         sodipodi:nodetypes="cccc" /></g></g></svg>
