G04 #@! TF.GenerationSoftware,KiCad,Pcbnew,(5.1.5-0-10_14)*
G04 #@! TF.CreationDate,2020-10-20T19:31:47+02:00*
G04 #@! TF.ProjectId,badge_2020,62616467-655f-4323-9032-302e6b696361,rev?*
G04 #@! TF.SameCoordinates,Original*
G04 #@! TF.FileFunction,Copper,L2,Bot*
G04 #@! TF.FilePolarity,Positive*
%FSLAX46Y46*%
G04 Gerber Fmt 4.6, Leading zero omitted, Abs format (unit mm)*
G04 Created by KiCad (PCBNEW (5.1.5-0-10_14)) date 2020-10-20 19:31:47*
%MOMM*%
%LPD*%
G04 APERTURE LIST*
%ADD10C,1.524000*%
%ADD11O,1.600000X1.600000*%
%ADD12R,1.600000X1.600000*%
%ADD13R,2.540000X3.510000*%
%ADD14C,1.600000*%
%ADD15O,1.070000X1.800000*%
%ADD16R,1.070000X1.800000*%
%ADD17O,1.500000X1.500000*%
%ADD18R,1.500000X1.500000*%
%ADD19O,1.800000X1.717500*%
%ADD20R,1.800000X1.717500*%
%ADD21C,2.000000*%
%ADD22C,0.800000*%
%ADD23C,0.500000*%
G04 APERTURE END LIST*
D10*
X132364000Y-116276000D03*
X132364000Y-113776000D03*
X132364000Y-111776000D03*
X132364000Y-109276000D03*
D11*
X135890000Y-93726000D03*
X143510000Y-101346000D03*
X138430000Y-93726000D03*
X140970000Y-101346000D03*
X140970000Y-93726000D03*
X138430000Y-101346000D03*
X143510000Y-93726000D03*
D12*
X135890000Y-101346000D03*
D13*
X186638000Y-112522000D03*
X157278000Y-112522000D03*
D14*
X176784000Y-135382000D03*
X174244000Y-135382000D03*
D15*
X209042000Y-134620000D03*
X210312000Y-134620000D03*
X212852000Y-134620000D03*
D16*
X211582000Y-134620000D03*
D15*
X184912000Y-134620000D03*
X186182000Y-134620000D03*
X188722000Y-134620000D03*
D16*
X187452000Y-134620000D03*
D15*
X162306000Y-134620000D03*
X163576000Y-134620000D03*
X166116000Y-134620000D03*
D16*
X164846000Y-134620000D03*
D15*
X137922000Y-134620000D03*
X139192000Y-134620000D03*
X141732000Y-134620000D03*
D16*
X140462000Y-134620000D03*
D11*
X135128000Y-127254000D03*
X135128000Y-129794000D03*
D12*
X135128000Y-124714000D03*
D17*
X148336000Y-132334000D03*
D18*
X155956000Y-132334000D03*
D17*
X148336000Y-136906000D03*
D18*
X155956000Y-136906000D03*
D17*
X148336000Y-134620000D03*
D18*
X155956000Y-134620000D03*
D11*
X203200000Y-139700000D03*
D14*
X213360000Y-139700000D03*
D11*
X137668000Y-139700000D03*
D14*
X147828000Y-139700000D03*
D11*
X190246000Y-139700000D03*
D14*
X200406000Y-139700000D03*
D11*
X204470000Y-133350000D03*
D14*
X194310000Y-133350000D03*
D19*
X139446000Y-110990000D03*
X139446000Y-113280000D03*
D20*
X139446000Y-115570000D03*
D11*
X194310000Y-136652000D03*
D14*
X204470000Y-136652000D03*
D11*
X187198000Y-139700000D03*
D14*
X177038000Y-139700000D03*
D11*
X160782000Y-139700000D03*
D14*
X150622000Y-139700000D03*
D11*
X163830000Y-139700000D03*
D14*
X173990000Y-139700000D03*
D21*
X204366000Y-130302000D03*
X204366000Y-125802000D03*
X197866000Y-130302000D03*
X197866000Y-125802000D03*
D22*
X153162000Y-139954000D03*
D23*
X130891048Y-120705011D02*
X128582970Y-118396933D01*
X128582970Y-118396933D02*
X128582970Y-110431030D01*
X136049163Y-120705011D02*
X130891048Y-120705011D01*
X136652000Y-121307848D02*
X136049163Y-120705011D01*
X128582970Y-110431030D02*
X132080000Y-106934000D01*
X134838047Y-91247990D02*
X145095990Y-91247990D01*
X132080000Y-94006038D02*
X134838047Y-91247990D01*
X132080000Y-106934000D02*
X132080000Y-94006038D01*
X145095990Y-91247990D02*
X146304000Y-92456000D01*
X146304000Y-92456000D02*
X146304000Y-105664000D01*
X146304000Y-105664000D02*
X146304000Y-106426000D01*
X146304000Y-110744000D02*
X148082000Y-112522000D01*
X148082000Y-112522000D02*
X157278000Y-112522000D01*
X146304000Y-105664000D02*
X146304000Y-110744000D01*
X136652000Y-121385962D02*
X136652000Y-121307848D01*
X140208000Y-126492000D02*
X140208000Y-124941962D01*
X139446000Y-127254000D02*
X140208000Y-126492000D01*
X140208000Y-124941962D02*
X136652000Y-121385962D01*
X135128000Y-127254000D02*
X139446000Y-127254000D01*
X194310000Y-133604000D02*
X194310000Y-136652000D01*
X193040000Y-132080000D02*
X194310000Y-133350000D01*
X187198000Y-130810000D02*
X191770000Y-130810000D01*
X191770000Y-130810000D02*
X194310000Y-133350000D01*
X136339115Y-120005001D02*
X137453057Y-121118943D01*
X139192000Y-132588000D02*
X139192000Y-134620000D01*
X131181001Y-120005001D02*
X136339115Y-120005001D01*
X130754000Y-109276000D02*
X129282980Y-110747020D01*
X129282980Y-118106980D02*
X131181001Y-120005001D01*
X129282980Y-110747020D02*
X129282980Y-118106980D01*
X132364000Y-109276000D02*
X130754000Y-109276000D01*
X186638000Y-130250000D02*
X187198000Y-130810000D01*
X186638000Y-112522000D02*
X186638000Y-130250000D01*
X137453057Y-121118943D02*
X137453057Y-121197057D01*
X140540113Y-124206000D02*
X140794113Y-124460000D01*
X140462000Y-124206000D02*
X140540113Y-124206000D01*
X137453057Y-121197057D02*
X140462000Y-124206000D01*
X140794113Y-124460000D02*
X141732000Y-124460000D01*
X141732000Y-124460000D02*
X142748000Y-125476000D01*
X142748000Y-125476000D02*
X142748000Y-130810000D01*
X142748000Y-130810000D02*
X141224000Y-132334000D01*
X139446000Y-132334000D02*
X139192000Y-132588000D01*
X141224000Y-132334000D02*
X139446000Y-132334000D01*
X157226000Y-134620000D02*
X155956000Y-134620000D01*
X158242000Y-137668000D02*
X158242000Y-135636000D01*
X157480000Y-138430000D02*
X158242000Y-137668000D01*
X151892000Y-138430000D02*
X157480000Y-138430000D01*
X158242000Y-135636000D02*
X157226000Y-134620000D01*
X150622000Y-139700000D02*
X151892000Y-138430000D01*
X144272000Y-131344037D02*
X144272000Y-139192000D01*
X149975370Y-141478000D02*
X150622000Y-140831370D01*
X145555018Y-130061018D02*
X144272000Y-131344037D01*
X150752020Y-129663980D02*
X145952057Y-129663980D01*
X146558000Y-141478000D02*
X149975370Y-141478000D01*
X150814010Y-129601990D02*
X150752020Y-129663980D01*
X150622000Y-140831370D02*
X150622000Y-139700000D01*
X132364000Y-113776000D02*
X131080000Y-113776000D01*
X146859017Y-125936983D02*
X151082983Y-125936983D01*
X136919019Y-118604981D02*
X141237019Y-122922981D01*
X144272000Y-139192000D02*
X146558000Y-141478000D01*
X141237019Y-122922981D02*
X143845017Y-122922981D01*
X151384000Y-129286000D02*
X150814010Y-129601990D01*
X132320981Y-118604981D02*
X136919019Y-118604981D01*
X151082983Y-125936983D02*
X151384000Y-126238000D01*
X130683000Y-116967000D02*
X132320981Y-118604981D01*
X145952057Y-129663980D02*
X145555018Y-130061018D01*
X151384000Y-126238000D02*
X151384000Y-129286000D01*
X130683000Y-114173000D02*
X130683000Y-116967000D01*
X131080000Y-113776000D02*
X130683000Y-114173000D01*
X143845017Y-122922981D02*
X146859017Y-125936983D01*
X202400001Y-140499999D02*
X203200000Y-139700000D01*
X201949999Y-140950001D02*
X202400001Y-140499999D01*
X165080001Y-140950001D02*
X201949999Y-140950001D01*
X163830000Y-139700000D02*
X165080001Y-140950001D01*
X162052000Y-141478000D02*
X163830000Y-139700000D01*
X160020000Y-141478000D02*
X162052000Y-141478000D01*
X158750000Y-140208000D02*
X160020000Y-141478000D01*
X158750000Y-138684000D02*
X158750000Y-140208000D01*
X158688010Y-119318010D02*
X159258000Y-119888000D01*
X143571990Y-106487990D02*
X143571990Y-115279331D01*
X147266873Y-119318010D02*
X158688010Y-119318010D01*
X143569765Y-115566373D02*
X143569765Y-115620902D01*
X143571990Y-115279331D02*
X143569765Y-115566373D01*
X143569765Y-115620902D02*
X147266873Y-119318010D01*
X138430000Y-101346000D02*
X143571990Y-106487990D01*
X159258000Y-137922000D02*
X158750000Y-138684000D01*
X159258000Y-122682000D02*
X159258000Y-137922000D01*
X159258000Y-119888000D02*
X159258000Y-122682000D01*
X204366000Y-127216213D02*
X203312213Y-128270000D01*
X204366000Y-125802000D02*
X204366000Y-127216213D01*
X203312213Y-128270000D02*
X202184000Y-128270000D01*
X202184000Y-128270000D02*
X201168000Y-129286000D01*
X201168000Y-137668000D02*
X203200000Y-139700000D01*
X201168000Y-129286000D02*
X201168000Y-137668000D01*
X197866000Y-125802000D02*
X204366000Y-125802000D01*
X187198000Y-137668000D02*
X187198000Y-139700000D01*
X187452000Y-137414000D02*
X187198000Y-137668000D01*
X187452000Y-134620000D02*
X187452000Y-137414000D01*
X187198000Y-139700000D02*
X190246000Y-139700000D01*
X137918000Y-113280000D02*
X139446000Y-113280000D01*
X135890000Y-93726000D02*
X133604000Y-96012000D01*
X136906000Y-112268000D02*
X137918000Y-113280000D01*
X133604000Y-102642037D02*
X136906000Y-105944038D01*
X136906000Y-105944038D02*
X136906000Y-112268000D01*
X133604000Y-96012000D02*
X133604000Y-102642037D01*
X155344000Y-127762000D02*
X155344000Y-127912000D01*
X152530020Y-120018020D02*
X153416000Y-120904000D01*
X146976920Y-120018020D02*
X152530020Y-120018020D01*
X153416000Y-120904000D02*
X153416000Y-124460000D01*
X142748000Y-115789100D02*
X146976920Y-120018020D01*
X153416000Y-124460000D02*
X155448000Y-126492000D01*
X142748000Y-115062000D02*
X142748000Y-115789100D01*
X140966000Y-113280000D02*
X142748000Y-115062000D01*
X155448000Y-126492000D02*
X155344000Y-128016000D01*
X139446000Y-113280000D02*
X140966000Y-113280000D01*
X155344000Y-130452000D02*
X155344000Y-127762000D01*
X155956000Y-131064000D02*
X155344000Y-130452000D01*
X155956000Y-132334000D02*
X155956000Y-131064000D01*
X160782000Y-132588000D02*
X160782000Y-139700000D01*
X160020000Y-119380000D02*
X160020000Y-131826000D01*
X159258000Y-118618000D02*
X160020000Y-119380000D01*
X160020000Y-131826000D02*
X160782000Y-132588000D01*
X147556826Y-118618000D02*
X159258000Y-118618000D01*
X144272000Y-115281853D02*
X147556826Y-118618000D01*
X144272000Y-105918000D02*
X144272000Y-115281853D01*
X140970000Y-102616000D02*
X144272000Y-105918000D01*
X140970000Y-101346000D02*
X140970000Y-102616000D01*
X204470000Y-133604000D02*
X204470000Y-136652000D01*
X151892000Y-121920000D02*
X151892000Y-124206000D01*
X150690030Y-120718030D02*
X151892000Y-121920000D01*
X151384000Y-132334000D02*
X148336000Y-132334000D01*
X146686967Y-120718030D02*
X150690030Y-120718030D01*
X141986000Y-116017062D02*
X146686967Y-120718030D01*
X151892000Y-124206000D02*
X153416000Y-125730000D01*
X153416000Y-125730000D02*
X153416000Y-130302000D01*
X153416000Y-130302000D02*
X151384000Y-132334000D01*
X141925062Y-116017062D02*
X141478000Y-115570000D01*
X141986000Y-116017062D02*
X141925062Y-116017062D01*
X141478000Y-115570000D02*
X139446000Y-115570000D01*
X132842000Y-103124000D02*
X135890000Y-106172000D01*
X132842000Y-94234000D02*
X132842000Y-103124000D01*
X135128000Y-91948000D02*
X132842000Y-94234000D01*
X141732000Y-91948000D02*
X135128000Y-91948000D01*
X143510000Y-93726000D02*
X141732000Y-91948000D01*
X141478000Y-122174000D02*
X135890000Y-116586000D01*
X147099999Y-125188001D02*
X144085998Y-122174000D01*
X152400000Y-126238000D02*
X151350001Y-125188001D01*
X151350001Y-125188001D02*
X147099999Y-125188001D01*
X151638000Y-130302000D02*
X152400000Y-129540000D01*
X151191990Y-130363990D02*
X151384000Y-130302000D01*
X135890000Y-116586000D02*
X135890000Y-106172000D01*
X147828000Y-139700000D02*
X145542000Y-137414000D01*
X152400000Y-129540000D02*
X152400000Y-126238000D01*
X151384000Y-130302000D02*
X151638000Y-130302000D01*
X144085998Y-122174000D02*
X141478000Y-122174000D01*
X145542000Y-132080000D02*
X147258010Y-130363990D01*
X145480010Y-137098010D02*
X145542000Y-132080000D01*
X147258010Y-130363990D02*
X151191990Y-130363990D01*
X145542000Y-137414000D02*
X145480010Y-137098010D01*
X192532000Y-137922000D02*
X194310000Y-139700000D01*
X192532000Y-133858000D02*
X192532000Y-137922000D01*
X191516000Y-132842000D02*
X192532000Y-133858000D01*
X191516000Y-132780010D02*
X191516000Y-132842000D01*
X182433990Y-132780010D02*
X191516000Y-132780010D01*
X194310000Y-139700000D02*
X200406000Y-139700000D01*
X181864000Y-133350000D02*
X182433990Y-132780010D01*
X181102000Y-135382000D02*
X181864000Y-134620000D01*
X176784000Y-135382000D02*
X181102000Y-135382000D01*
X181864000Y-134620000D02*
X181864000Y-133350000D01*
X161036000Y-118872000D02*
X161036000Y-131318000D01*
X174498000Y-133096000D02*
X176784000Y-135382000D01*
X147808311Y-117875689D02*
X160039689Y-117875689D01*
X173990000Y-133096000D02*
X174498000Y-133096000D01*
X161544000Y-131826000D02*
X172720000Y-131826000D01*
X161036000Y-131318000D02*
X161544000Y-131826000D01*
X160039689Y-117875689D02*
X161036000Y-118872000D01*
X172720000Y-131826000D02*
X173990000Y-133096000D01*
X145288000Y-115316000D02*
X147808311Y-117875689D01*
X145288000Y-98044000D02*
X145288000Y-115316000D01*
X140970000Y-93726000D02*
X145288000Y-98044000D01*
X153162000Y-139954000D02*
X153162000Y-139954000D01*
X129982990Y-117536990D02*
X130048000Y-117602000D01*
X129982990Y-113079380D02*
X131286370Y-111776000D01*
X129982990Y-117510953D02*
X129982990Y-113079380D01*
X130048000Y-117575963D02*
X129982990Y-117510953D01*
X131286370Y-111776000D02*
X132364000Y-111776000D01*
X130048000Y-117602000D02*
X130048000Y-117575963D01*
X145988010Y-142178010D02*
X150937990Y-142178010D01*
X143510000Y-139700000D02*
X145988010Y-142178010D01*
X143510000Y-125222000D02*
X143510000Y-139700000D01*
X141022076Y-123698000D02*
X141986000Y-123698000D01*
X150937990Y-142178010D02*
X153162000Y-139954000D01*
X141986000Y-123698000D02*
X143510000Y-125222000D01*
X130048000Y-117602000D02*
X131523028Y-119304991D01*
X136629067Y-119304991D02*
X141022076Y-123698000D01*
X131523028Y-119304991D02*
X136629067Y-119304991D01*
M02*
