G04 #@! TF.GenerationSoftware,KiCad,Pcbnew,(5.1.5-0-10_14)*
G04 #@! TF.CreationDate,2020-11-16T18:29:34+01:00*
G04 #@! TF.ProjectId,badge_2020,62616467-655f-4323-9032-302e6b696361,rev?*
G04 #@! TF.SameCoordinates,Original*
G04 #@! TF.FileFunction,Legend,Bot*
G04 #@! TF.FilePolarity,Positive*
%FSLAX46Y46*%
G04 Gerber Fmt 4.6, Leading zero omitted, Abs format (unit mm)*
G04 Created by KiCad (PCBNEW (5.1.5-0-10_14)) date 2020-11-16 18:29:34*
%MOMM*%
%LPD*%
G04 APERTURE LIST*
%ADD10C,0.450000*%
%ADD11C,0.500000*%
%ADD12C,0.120000*%
%ADD13C,0.010000*%
%ADD14C,0.150000*%
G04 APERTURE END LIST*
D10*
X188992000Y-110998190D02*
X188896761Y-110807714D01*
X188896761Y-110522000D01*
X188992000Y-110236285D01*
X189182476Y-110045809D01*
X189372952Y-109950571D01*
X189753904Y-109855333D01*
X190039619Y-109855333D01*
X190420571Y-109950571D01*
X190611047Y-110045809D01*
X190801523Y-110236285D01*
X190896761Y-110522000D01*
X190896761Y-110712476D01*
X190801523Y-110998190D01*
X190706285Y-111093428D01*
X190039619Y-111093428D01*
X190039619Y-110712476D01*
X190896761Y-111950571D02*
X188896761Y-111950571D01*
X190896761Y-113093428D01*
X188896761Y-113093428D01*
X190896761Y-114045809D02*
X188896761Y-114045809D01*
X188896761Y-114522000D01*
X188992000Y-114807714D01*
X189182476Y-114998190D01*
X189372952Y-115093428D01*
X189753904Y-115188666D01*
X190039619Y-115188666D01*
X190420571Y-115093428D01*
X190611047Y-114998190D01*
X190801523Y-114807714D01*
X190896761Y-114522000D01*
X190896761Y-114045809D01*
X155447809Y-112553714D02*
X152400190Y-112553714D01*
X153924000Y-114077523D02*
X153924000Y-111029904D01*
D11*
X137922000Y-109728000D02*
X137922000Y-116840000D01*
D12*
X167674775Y-133403000D02*
X167674775Y-133903000D01*
X167924775Y-133653000D02*
X167424775Y-133653000D01*
X162519000Y-134844000D02*
X162519000Y-135412000D01*
X162559000Y-134610000D02*
X162559000Y-135646000D01*
X162599000Y-134451000D02*
X162599000Y-135805000D01*
X162639000Y-134323000D02*
X162639000Y-135933000D01*
X162679000Y-134213000D02*
X162679000Y-136043000D01*
X162719000Y-134117000D02*
X162719000Y-136139000D01*
X162759000Y-134030000D02*
X162759000Y-136226000D01*
X162799000Y-133950000D02*
X162799000Y-136306000D01*
X162839000Y-136168000D02*
X162839000Y-136379000D01*
X162839000Y-133877000D02*
X162839000Y-134088000D01*
X162879000Y-136168000D02*
X162879000Y-136447000D01*
X162879000Y-133809000D02*
X162879000Y-134088000D01*
X162919000Y-136168000D02*
X162919000Y-136511000D01*
X162919000Y-133745000D02*
X162919000Y-134088000D01*
X162959000Y-136168000D02*
X162959000Y-136571000D01*
X162959000Y-133685000D02*
X162959000Y-134088000D01*
X162999000Y-136168000D02*
X162999000Y-136628000D01*
X162999000Y-133628000D02*
X162999000Y-134088000D01*
X163039000Y-136168000D02*
X163039000Y-136682000D01*
X163039000Y-133574000D02*
X163039000Y-134088000D01*
X163079000Y-136168000D02*
X163079000Y-136733000D01*
X163079000Y-133523000D02*
X163079000Y-134088000D01*
X163119000Y-136168000D02*
X163119000Y-136781000D01*
X163119000Y-133475000D02*
X163119000Y-134088000D01*
X163159000Y-136168000D02*
X163159000Y-136827000D01*
X163159000Y-133429000D02*
X163159000Y-134088000D01*
X163199000Y-136168000D02*
X163199000Y-136871000D01*
X163199000Y-133385000D02*
X163199000Y-134088000D01*
X163239000Y-136168000D02*
X163239000Y-136913000D01*
X163239000Y-133343000D02*
X163239000Y-134088000D01*
X163279000Y-136168000D02*
X163279000Y-136954000D01*
X163279000Y-133302000D02*
X163279000Y-134088000D01*
X163319000Y-136168000D02*
X163319000Y-136992000D01*
X163319000Y-133264000D02*
X163319000Y-134088000D01*
X163359000Y-136168000D02*
X163359000Y-137029000D01*
X163359000Y-133227000D02*
X163359000Y-134088000D01*
X163399000Y-136168000D02*
X163399000Y-137065000D01*
X163399000Y-133191000D02*
X163399000Y-134088000D01*
X163439000Y-136168000D02*
X163439000Y-137099000D01*
X163439000Y-133157000D02*
X163439000Y-134088000D01*
X163479000Y-136168000D02*
X163479000Y-137132000D01*
X163479000Y-133124000D02*
X163479000Y-134088000D01*
X163519000Y-136168000D02*
X163519000Y-137163000D01*
X163519000Y-133093000D02*
X163519000Y-134088000D01*
X163559000Y-136168000D02*
X163559000Y-137193000D01*
X163559000Y-133063000D02*
X163559000Y-134088000D01*
X163599000Y-136168000D02*
X163599000Y-137223000D01*
X163599000Y-133033000D02*
X163599000Y-134088000D01*
X163639000Y-136168000D02*
X163639000Y-137250000D01*
X163639000Y-133006000D02*
X163639000Y-134088000D01*
X163679000Y-136168000D02*
X163679000Y-137277000D01*
X163679000Y-132979000D02*
X163679000Y-134088000D01*
X163719000Y-136168000D02*
X163719000Y-137303000D01*
X163719000Y-132953000D02*
X163719000Y-134088000D01*
X163759000Y-136168000D02*
X163759000Y-137328000D01*
X163759000Y-132928000D02*
X163759000Y-134088000D01*
X163799000Y-136168000D02*
X163799000Y-137352000D01*
X163799000Y-132904000D02*
X163799000Y-134088000D01*
X163839000Y-136168000D02*
X163839000Y-137375000D01*
X163839000Y-132881000D02*
X163839000Y-134088000D01*
X163879000Y-136168000D02*
X163879000Y-137396000D01*
X163879000Y-132860000D02*
X163879000Y-134088000D01*
X163919000Y-136168000D02*
X163919000Y-137418000D01*
X163919000Y-132838000D02*
X163919000Y-134088000D01*
X163959000Y-136168000D02*
X163959000Y-137438000D01*
X163959000Y-132818000D02*
X163959000Y-134088000D01*
X163999000Y-136168000D02*
X163999000Y-137457000D01*
X163999000Y-132799000D02*
X163999000Y-134088000D01*
X164039000Y-136168000D02*
X164039000Y-137476000D01*
X164039000Y-132780000D02*
X164039000Y-134088000D01*
X164079000Y-136168000D02*
X164079000Y-137493000D01*
X164079000Y-132763000D02*
X164079000Y-134088000D01*
X164119000Y-136168000D02*
X164119000Y-137510000D01*
X164119000Y-132746000D02*
X164119000Y-134088000D01*
X164159000Y-136168000D02*
X164159000Y-137526000D01*
X164159000Y-132730000D02*
X164159000Y-134088000D01*
X164199000Y-136168000D02*
X164199000Y-137542000D01*
X164199000Y-132714000D02*
X164199000Y-134088000D01*
X164239000Y-136168000D02*
X164239000Y-137556000D01*
X164239000Y-132700000D02*
X164239000Y-134088000D01*
X164279000Y-136168000D02*
X164279000Y-137570000D01*
X164279000Y-132686000D02*
X164279000Y-134088000D01*
X164319000Y-136168000D02*
X164319000Y-137583000D01*
X164319000Y-132673000D02*
X164319000Y-134088000D01*
X164359000Y-136168000D02*
X164359000Y-137596000D01*
X164359000Y-132660000D02*
X164359000Y-134088000D01*
X164399000Y-136168000D02*
X164399000Y-137608000D01*
X164399000Y-132648000D02*
X164399000Y-134088000D01*
X164440000Y-136168000D02*
X164440000Y-137619000D01*
X164440000Y-132637000D02*
X164440000Y-134088000D01*
X164480000Y-136168000D02*
X164480000Y-137629000D01*
X164480000Y-132627000D02*
X164480000Y-134088000D01*
X164520000Y-136168000D02*
X164520000Y-137639000D01*
X164520000Y-132617000D02*
X164520000Y-134088000D01*
X164560000Y-136168000D02*
X164560000Y-137648000D01*
X164560000Y-132608000D02*
X164560000Y-134088000D01*
X164600000Y-136168000D02*
X164600000Y-137656000D01*
X164600000Y-132600000D02*
X164600000Y-134088000D01*
X164640000Y-136168000D02*
X164640000Y-137664000D01*
X164640000Y-132592000D02*
X164640000Y-134088000D01*
X164680000Y-136168000D02*
X164680000Y-137671000D01*
X164680000Y-132585000D02*
X164680000Y-134088000D01*
X164720000Y-136168000D02*
X164720000Y-137678000D01*
X164720000Y-132578000D02*
X164720000Y-134088000D01*
X164760000Y-136168000D02*
X164760000Y-137684000D01*
X164760000Y-132572000D02*
X164760000Y-134088000D01*
X164800000Y-136168000D02*
X164800000Y-137689000D01*
X164800000Y-132567000D02*
X164800000Y-134088000D01*
X164840000Y-136168000D02*
X164840000Y-137693000D01*
X164840000Y-132563000D02*
X164840000Y-134088000D01*
X164880000Y-136168000D02*
X164880000Y-137697000D01*
X164880000Y-132559000D02*
X164880000Y-134088000D01*
X164920000Y-132555000D02*
X164920000Y-137701000D01*
X164960000Y-132552000D02*
X164960000Y-137704000D01*
X165000000Y-132550000D02*
X165000000Y-137706000D01*
X165040000Y-132549000D02*
X165040000Y-137707000D01*
X165080000Y-132548000D02*
X165080000Y-137708000D01*
X165120000Y-132548000D02*
X165120000Y-137708000D01*
X167740000Y-135128000D02*
G75*
G03X167740000Y-135128000I-2620000J0D01*
G01*
X143376815Y-127064827D02*
G75*
G02X138029000Y-127528830I-2787815J1080827D01*
G01*
X143376815Y-124903173D02*
G75*
G03X138029000Y-124439170I-2787815J-1080827D01*
G01*
X142843479Y-127064429D02*
G75*
G02X138334316Y-127064000I-2254479J1080429D01*
G01*
X142843479Y-124903571D02*
G75*
G03X138334316Y-124904000I-2254479J-1080429D01*
G01*
X138029000Y-127529000D02*
X138029000Y-127064000D01*
X138029000Y-124904000D02*
X138029000Y-124439000D01*
D13*
G36*
X212732130Y-117709324D02*
G01*
X212557290Y-117737501D01*
X212441098Y-117804637D01*
X212364496Y-117927237D01*
X212308426Y-118121807D01*
X212268584Y-118323809D01*
X212207156Y-118626743D01*
X212141689Y-118847375D01*
X212057270Y-119004418D01*
X211938985Y-119116588D01*
X211771918Y-119202597D01*
X211541157Y-119281159D01*
X211494485Y-119295131D01*
X211305930Y-119338182D01*
X211144012Y-119337974D01*
X210985680Y-119286643D01*
X210807887Y-119176320D01*
X210587584Y-118999139D01*
X210561428Y-118976664D01*
X210353103Y-118807392D01*
X210184228Y-118705868D01*
X210034538Y-118673744D01*
X209883765Y-118712676D01*
X209711644Y-118824317D01*
X209497907Y-119010321D01*
X209435700Y-119068536D01*
X209313456Y-119205494D01*
X209254432Y-119339693D01*
X209259556Y-119490605D01*
X209329753Y-119677699D01*
X209465950Y-119920447D01*
X209477105Y-119938610D01*
X209614599Y-120170273D01*
X209697380Y-120344630D01*
X209728557Y-120487913D01*
X209711240Y-120626358D01*
X209648539Y-120786197D01*
X209591263Y-120901656D01*
X209475945Y-121110270D01*
X209365465Y-121257100D01*
X209238183Y-121354022D01*
X209072457Y-121412912D01*
X208846648Y-121445644D01*
X208568700Y-121462800D01*
X208000600Y-121488200D01*
X207913151Y-121666906D01*
X207863032Y-121811454D01*
X207818824Y-122011676D01*
X207792485Y-122203011D01*
X207779435Y-122399020D01*
X207792995Y-122538307D01*
X207848021Y-122638658D01*
X207959366Y-122717859D01*
X208141887Y-122793696D01*
X208342686Y-122861781D01*
X208612358Y-122960077D01*
X208801490Y-123058004D01*
X208929764Y-123171869D01*
X209016861Y-123317975D01*
X209068318Y-123462937D01*
X209127642Y-123697527D01*
X209142710Y-123885413D01*
X209105021Y-124046966D01*
X209006073Y-124202557D01*
X208837363Y-124372555D01*
X208609542Y-124562124D01*
X208444824Y-124697705D01*
X208346060Y-124795841D01*
X208296855Y-124878594D01*
X208280814Y-124968027D01*
X208280000Y-125005592D01*
X208312588Y-125207135D01*
X208399555Y-125419217D01*
X208524704Y-125619687D01*
X208671839Y-125786394D01*
X208824764Y-125897186D01*
X208956408Y-125930699D01*
X209021245Y-125911108D01*
X209162938Y-125858420D01*
X209364788Y-125779161D01*
X209610096Y-125679859D01*
X209816700Y-125594425D01*
X210079218Y-125482955D01*
X210305553Y-125383115D01*
X210480433Y-125301947D01*
X210588584Y-125246494D01*
X210616800Y-125225479D01*
X210579764Y-125175664D01*
X210487715Y-125095538D01*
X210456653Y-125071904D01*
X210355502Y-125002858D01*
X210275847Y-124979712D01*
X210175005Y-124998702D01*
X210062953Y-125037202D01*
X209920881Y-125085949D01*
X209821653Y-125115994D01*
X209798051Y-125120651D01*
X209747162Y-125079723D01*
X209672489Y-124978743D01*
X209593409Y-124849634D01*
X209529301Y-124724320D01*
X209499545Y-124634725D01*
X209499200Y-124628331D01*
X209532847Y-124542327D01*
X209618315Y-124423190D01*
X209674895Y-124360541D01*
X209850589Y-124180600D01*
X209793315Y-123418600D01*
X209771672Y-123108489D01*
X209760785Y-122874525D01*
X209761332Y-122691758D01*
X209773988Y-122535237D01*
X209799431Y-122380009D01*
X209824702Y-122261026D01*
X209995437Y-121721012D01*
X210251920Y-121222083D01*
X210585055Y-120775112D01*
X210985743Y-120390975D01*
X211444889Y-120080545D01*
X211785515Y-119917241D01*
X211950451Y-119851642D01*
X212075177Y-119804692D01*
X212133066Y-119786404D01*
X212133303Y-119786399D01*
X212113369Y-119815747D01*
X212034590Y-119891192D01*
X211957826Y-119958672D01*
X211816656Y-120105013D01*
X211674988Y-120291549D01*
X211605782Y-120403172D01*
X211535655Y-120538039D01*
X211491382Y-120655918D01*
X211467095Y-120787172D01*
X211456928Y-120962162D01*
X211455000Y-121183400D01*
X211465293Y-121485789D01*
X211503665Y-121731738D01*
X211581358Y-121947981D01*
X211709611Y-122161253D01*
X211899668Y-122398288D01*
X212024212Y-122537153D01*
X212234705Y-122781598D01*
X212376480Y-122989732D01*
X212461406Y-123187118D01*
X212501353Y-123399319D01*
X212508934Y-123581139D01*
X212465395Y-123911556D01*
X212342632Y-124203877D01*
X212152970Y-124444849D01*
X211908736Y-124621218D01*
X211622256Y-124719730D01*
X211434954Y-124735950D01*
X211136455Y-124699483D01*
X211132406Y-124697606D01*
X209988421Y-124697606D01*
X209922359Y-124757164D01*
X209877202Y-124764800D01*
X209817857Y-124722503D01*
X209804000Y-124663200D01*
X209840151Y-124581475D01*
X209917146Y-124563625D01*
X209981800Y-124612400D01*
X209988421Y-124697606D01*
X211132406Y-124697606D01*
X210896762Y-124588391D01*
X210697358Y-124393957D01*
X210691048Y-124385755D01*
X210569538Y-124160886D01*
X210528319Y-123928827D01*
X210560156Y-123708094D01*
X210657815Y-123517201D01*
X210814060Y-123374664D01*
X211021657Y-123298996D01*
X211118591Y-123291600D01*
X211279776Y-123336623D01*
X211375374Y-123425781D01*
X211439670Y-123550638D01*
X211418662Y-123636429D01*
X211320007Y-123667604D01*
X211259496Y-123661104D01*
X211123393Y-123678507D01*
X211056618Y-123722639D01*
X210983160Y-123853126D01*
X210993964Y-123991275D01*
X211075414Y-124117503D01*
X211213894Y-124212228D01*
X211395787Y-124255867D01*
X211428037Y-124256800D01*
X211583523Y-124238850D01*
X211717306Y-124171489D01*
X211824047Y-124082903D01*
X211927689Y-123981364D01*
X211984517Y-123893596D01*
X212008542Y-123782741D01*
X212013771Y-123611940D01*
X212013800Y-123583649D01*
X212006767Y-123387427D01*
X211978028Y-123251078D01*
X211916128Y-123133389D01*
X211871474Y-123071692D01*
X211680499Y-122877659D01*
X211449168Y-122756782D01*
X211173218Y-122697648D01*
X210859132Y-122707586D01*
X210572682Y-122806962D01*
X210325117Y-122984945D01*
X210127686Y-123230702D01*
X209991637Y-123533403D01*
X209928219Y-123882214D01*
X209927333Y-123897336D01*
X209913032Y-124083064D01*
X209885507Y-124202143D01*
X209830557Y-124289518D01*
X209733985Y-124380135D01*
X209729671Y-124383800D01*
X209596515Y-124526813D01*
X209558439Y-124661758D01*
X209613072Y-124809299D01*
X209671507Y-124890633D01*
X209792510Y-125041867D01*
X210042295Y-124961989D01*
X210292081Y-124882110D01*
X210464224Y-125025822D01*
X210741932Y-125197914D01*
X211075649Y-125294340D01*
X211473201Y-125317242D01*
X211521934Y-125315328D01*
X211894834Y-125265818D01*
X212209134Y-125149195D01*
X212491113Y-124954183D01*
X212599317Y-124853130D01*
X212759583Y-124674226D01*
X212884277Y-124484667D01*
X212989018Y-124255403D01*
X213089425Y-123957386D01*
X213100091Y-123921800D01*
X213258498Y-123527133D01*
X213474364Y-123216172D01*
X213747909Y-122988679D01*
X213940906Y-122904677D01*
X213077322Y-122904677D01*
X213041071Y-122980609D01*
X212973645Y-123031370D01*
X212953600Y-123037600D01*
X212895293Y-123006440D01*
X212866130Y-122980609D01*
X212829834Y-122890452D01*
X212871435Y-122811080D01*
X212953600Y-122783600D01*
X213046486Y-122820899D01*
X213077322Y-122904677D01*
X213940906Y-122904677D01*
X214079354Y-122844418D01*
X214110053Y-122836026D01*
X214403458Y-122803081D01*
X214682125Y-122851148D01*
X214934368Y-122967294D01*
X215148500Y-123138588D01*
X215312835Y-123352097D01*
X215415687Y-123594889D01*
X215445371Y-123854031D01*
X215390199Y-124116592D01*
X215348739Y-124206792D01*
X215196564Y-124408638D01*
X215001607Y-124545351D01*
X214785379Y-124611550D01*
X214569388Y-124601850D01*
X214375146Y-124510869D01*
X214321293Y-124463907D01*
X214203077Y-124298758D01*
X214172800Y-124169267D01*
X214201279Y-124017029D01*
X214272048Y-123926432D01*
X214363110Y-123907358D01*
X214452467Y-123969688D01*
X214486844Y-124028200D01*
X214579433Y-124129544D01*
X214708508Y-124157241D01*
X214839353Y-124110127D01*
X214906520Y-124042296D01*
X214980105Y-123863245D01*
X214965539Y-123684429D01*
X214875021Y-123521997D01*
X214720745Y-123392096D01*
X214514909Y-123310874D01*
X214339516Y-123291600D01*
X214100334Y-123338353D01*
X213892499Y-123466278D01*
X213727670Y-123656875D01*
X213617502Y-123891641D01*
X213573654Y-124152075D01*
X213607781Y-124419677D01*
X213614628Y-124442089D01*
X213756316Y-124732124D01*
X213965773Y-124959427D01*
X214227088Y-125118880D01*
X214524346Y-125205365D01*
X214841633Y-125213766D01*
X215163037Y-125138965D01*
X215407750Y-125018701D01*
X215556497Y-124929536D01*
X215657547Y-124887760D01*
X215749020Y-124886374D01*
X215869038Y-124918382D01*
X215900235Y-124928308D01*
X216078891Y-124975513D01*
X216194356Y-124971515D01*
X216275193Y-124908735D01*
X216332869Y-124813533D01*
X216390065Y-124663200D01*
X216154000Y-124663200D01*
X216128290Y-124746576D01*
X216065100Y-124755129D01*
X215989525Y-124705037D01*
X215976200Y-124663200D01*
X216018431Y-124591471D01*
X216065100Y-124571270D01*
X216137107Y-124588942D01*
X216154000Y-124663200D01*
X216390065Y-124663200D01*
X216398044Y-124642230D01*
X216381975Y-124509057D01*
X216278358Y-124383542D01*
X216236729Y-124348744D01*
X216152304Y-124276195D01*
X216099844Y-124205609D01*
X216069828Y-124109632D01*
X216052734Y-123960907D01*
X216042203Y-123789944D01*
X215977262Y-123371065D01*
X215830490Y-123011845D01*
X215599603Y-122708739D01*
X215282318Y-122458203D01*
X215127590Y-122370300D01*
X214901400Y-122290543D01*
X214613338Y-122242462D01*
X214298681Y-122228002D01*
X213992711Y-122249112D01*
X213769495Y-122295374D01*
X213381922Y-122367123D01*
X213021601Y-122348333D01*
X212698078Y-122242548D01*
X212420895Y-122053310D01*
X212199598Y-121784162D01*
X212148221Y-121693563D01*
X212048681Y-121407090D01*
X212029119Y-121106172D01*
X212085936Y-120816002D01*
X212215536Y-120561769D01*
X212327754Y-120436037D01*
X212504119Y-120320841D01*
X212727042Y-120233017D01*
X212941684Y-120193493D01*
X212964669Y-120192989D01*
X213177122Y-120237912D01*
X213376782Y-120356875D01*
X213539707Y-120526886D01*
X213641954Y-120724958D01*
X213664611Y-120865098D01*
X213630381Y-121007212D01*
X213543819Y-121143504D01*
X213429676Y-121247571D01*
X213312703Y-121293011D01*
X213268104Y-121288079D01*
X213181649Y-121215767D01*
X213155857Y-121100491D01*
X213198407Y-120985979D01*
X213212307Y-120970413D01*
X213237984Y-120884508D01*
X213194679Y-120782766D01*
X213102076Y-120698957D01*
X213039051Y-120673182D01*
X212858997Y-120675119D01*
X212696259Y-120759661D01*
X212570902Y-120907854D01*
X212502988Y-121100740D01*
X212496401Y-121185899D01*
X212542480Y-121431981D01*
X212671794Y-121634911D01*
X212870951Y-121782947D01*
X213126562Y-121864344D01*
X213283800Y-121876457D01*
X213577864Y-121831304D01*
X213828703Y-121705676D01*
X214028527Y-121514318D01*
X214169547Y-121271976D01*
X214243973Y-120993393D01*
X214244015Y-120693317D01*
X214161884Y-120386490D01*
X214119584Y-120294400D01*
X213957220Y-120059611D01*
X213736256Y-119852842D01*
X213497490Y-119711169D01*
X213372153Y-119646570D01*
X213328839Y-119611096D01*
X212547200Y-119611096D01*
X212505752Y-119644166D01*
X212403826Y-119696213D01*
X212382100Y-119705910D01*
X212256925Y-119760058D01*
X212203209Y-119778409D01*
X212199147Y-119765460D01*
X212213909Y-119740602D01*
X212268588Y-119699864D01*
X212366271Y-119653611D01*
X212468644Y-119616729D01*
X212537394Y-119604106D01*
X212547200Y-119611096D01*
X213328839Y-119611096D01*
X213295712Y-119583966D01*
X213287591Y-119568894D01*
X213266361Y-119482136D01*
X213236924Y-119352065D01*
X213024471Y-119352065D01*
X212990271Y-119424609D01*
X212904292Y-119478529D01*
X212847210Y-119436302D01*
X212839519Y-119418100D01*
X212838861Y-119405400D01*
X212588097Y-119405400D01*
X212582606Y-119492157D01*
X212566703Y-119499795D01*
X212564679Y-119495266D01*
X212554630Y-119394419D01*
X212562797Y-119342866D01*
X212578967Y-119322150D01*
X212587762Y-119389624D01*
X212588097Y-119405400D01*
X212838861Y-119405400D01*
X212833897Y-119309619D01*
X212887370Y-119237331D01*
X212926999Y-119227600D01*
X213002241Y-119266764D01*
X213024471Y-119352065D01*
X213236924Y-119352065D01*
X213235024Y-119343673D01*
X213226301Y-119303800D01*
X213194433Y-119182794D01*
X213171122Y-119151400D01*
X212648800Y-119151400D01*
X212623400Y-119176800D01*
X212598000Y-119151400D01*
X212623400Y-119126000D01*
X212648800Y-119151400D01*
X213171122Y-119151400D01*
X213146668Y-119118468D01*
X213052276Y-119086610D01*
X212928200Y-119068934D01*
X212674200Y-119037269D01*
X212951510Y-119043534D01*
X213228820Y-119049800D01*
X213307110Y-119320666D01*
X213362375Y-119478995D01*
X213434535Y-119591725D01*
X213545563Y-119677427D01*
X213717431Y-119754675D01*
X213893400Y-119816221D01*
X214421665Y-120041066D01*
X214896562Y-120342953D01*
X215309727Y-120712606D01*
X215652794Y-121140748D01*
X215917400Y-121618102D01*
X216095178Y-122135392D01*
X216130311Y-122296882D01*
X216163907Y-122516698D01*
X216181974Y-122752988D01*
X216185499Y-123032469D01*
X216175469Y-123381859D01*
X216172716Y-123445051D01*
X216139058Y-124190939D01*
X216534058Y-124552929D01*
X216420089Y-124787513D01*
X216340552Y-124928053D01*
X216264074Y-125026366D01*
X216230971Y-125050933D01*
X216140907Y-125052485D01*
X215998472Y-125023480D01*
X215922747Y-125000354D01*
X215777258Y-124955501D01*
X215681620Y-124949827D01*
X215590488Y-124987015D01*
X215516118Y-125033369D01*
X215410601Y-125113009D01*
X215357498Y-125175616D01*
X215356009Y-125188181D01*
X215404792Y-125222164D01*
X215530757Y-125288456D01*
X215717785Y-125379145D01*
X215949758Y-125486321D01*
X216104628Y-125555610D01*
X216456943Y-125705487D01*
X216732185Y-125807672D01*
X216941736Y-125864463D01*
X217096973Y-125878157D01*
X217209277Y-125851051D01*
X217283199Y-125793500D01*
X217379673Y-125661882D01*
X217483051Y-125487488D01*
X217577653Y-125301370D01*
X217647797Y-125134577D01*
X217677803Y-125018161D01*
X217678001Y-125011701D01*
X217669060Y-124923552D01*
X217633207Y-124840872D01*
X217556897Y-124747006D01*
X217426586Y-124625298D01*
X217228727Y-124459093D01*
X217228340Y-124458775D01*
X217015356Y-124267739D01*
X216880862Y-124099111D01*
X216813215Y-123928413D01*
X216800770Y-123731170D01*
X216814959Y-123589880D01*
X216857752Y-123368322D01*
X216926302Y-123201003D01*
X217036886Y-123072278D01*
X217205783Y-122966503D01*
X217449274Y-122868034D01*
X217627200Y-122809331D01*
X217856491Y-122731496D01*
X218004412Y-122660420D01*
X218088367Y-122579043D01*
X218125755Y-122470306D01*
X218133977Y-122317151D01*
X218133959Y-122312528D01*
X218116898Y-122044149D01*
X218072624Y-121797717D01*
X218007714Y-121601693D01*
X217946586Y-121501650D01*
X217891296Y-121459293D01*
X217804001Y-121432170D01*
X217664002Y-121417095D01*
X217450598Y-121410879D01*
X217352627Y-121410199D01*
X217095861Y-121402927D01*
X216889172Y-121384533D01*
X216754600Y-121357265D01*
X216729767Y-121346699D01*
X216561965Y-121204432D01*
X216401169Y-120975453D01*
X216300784Y-120776135D01*
X216247812Y-120634237D01*
X216231328Y-120507501D01*
X216256744Y-120373593D01*
X216329468Y-120210179D01*
X216454910Y-119994925D01*
X216512182Y-119903346D01*
X216647523Y-119664849D01*
X216708779Y-119476146D01*
X216692512Y-119314013D01*
X216595284Y-119155227D01*
X216413657Y-118976564D01*
X216369346Y-118938474D01*
X216180937Y-118787581D01*
X216030529Y-118700310D01*
X215895533Y-118678036D01*
X215753360Y-118722137D01*
X215581420Y-118833989D01*
X215376226Y-118998999D01*
X215197583Y-119139979D01*
X215036348Y-119252659D01*
X214914835Y-119322172D01*
X214868821Y-119337100D01*
X214559310Y-119322140D01*
X214268822Y-119240372D01*
X214028076Y-119101921D01*
X213955685Y-119036198D01*
X213882210Y-118936683D01*
X213819755Y-118794488D01*
X213760331Y-118588115D01*
X213715294Y-118389400D01*
X213652580Y-118115297D01*
X213589621Y-117925890D01*
X213509821Y-117805597D01*
X213396581Y-117738841D01*
X213233303Y-117710040D01*
X213003389Y-117703614D01*
X212984676Y-117703599D01*
X212732130Y-117709324D01*
G37*
X212732130Y-117709324D02*
X212557290Y-117737501D01*
X212441098Y-117804637D01*
X212364496Y-117927237D01*
X212308426Y-118121807D01*
X212268584Y-118323809D01*
X212207156Y-118626743D01*
X212141689Y-118847375D01*
X212057270Y-119004418D01*
X211938985Y-119116588D01*
X211771918Y-119202597D01*
X211541157Y-119281159D01*
X211494485Y-119295131D01*
X211305930Y-119338182D01*
X211144012Y-119337974D01*
X210985680Y-119286643D01*
X210807887Y-119176320D01*
X210587584Y-118999139D01*
X210561428Y-118976664D01*
X210353103Y-118807392D01*
X210184228Y-118705868D01*
X210034538Y-118673744D01*
X209883765Y-118712676D01*
X209711644Y-118824317D01*
X209497907Y-119010321D01*
X209435700Y-119068536D01*
X209313456Y-119205494D01*
X209254432Y-119339693D01*
X209259556Y-119490605D01*
X209329753Y-119677699D01*
X209465950Y-119920447D01*
X209477105Y-119938610D01*
X209614599Y-120170273D01*
X209697380Y-120344630D01*
X209728557Y-120487913D01*
X209711240Y-120626358D01*
X209648539Y-120786197D01*
X209591263Y-120901656D01*
X209475945Y-121110270D01*
X209365465Y-121257100D01*
X209238183Y-121354022D01*
X209072457Y-121412912D01*
X208846648Y-121445644D01*
X208568700Y-121462800D01*
X208000600Y-121488200D01*
X207913151Y-121666906D01*
X207863032Y-121811454D01*
X207818824Y-122011676D01*
X207792485Y-122203011D01*
X207779435Y-122399020D01*
X207792995Y-122538307D01*
X207848021Y-122638658D01*
X207959366Y-122717859D01*
X208141887Y-122793696D01*
X208342686Y-122861781D01*
X208612358Y-122960077D01*
X208801490Y-123058004D01*
X208929764Y-123171869D01*
X209016861Y-123317975D01*
X209068318Y-123462937D01*
X209127642Y-123697527D01*
X209142710Y-123885413D01*
X209105021Y-124046966D01*
X209006073Y-124202557D01*
X208837363Y-124372555D01*
X208609542Y-124562124D01*
X208444824Y-124697705D01*
X208346060Y-124795841D01*
X208296855Y-124878594D01*
X208280814Y-124968027D01*
X208280000Y-125005592D01*
X208312588Y-125207135D01*
X208399555Y-125419217D01*
X208524704Y-125619687D01*
X208671839Y-125786394D01*
X208824764Y-125897186D01*
X208956408Y-125930699D01*
X209021245Y-125911108D01*
X209162938Y-125858420D01*
X209364788Y-125779161D01*
X209610096Y-125679859D01*
X209816700Y-125594425D01*
X210079218Y-125482955D01*
X210305553Y-125383115D01*
X210480433Y-125301947D01*
X210588584Y-125246494D01*
X210616800Y-125225479D01*
X210579764Y-125175664D01*
X210487715Y-125095538D01*
X210456653Y-125071904D01*
X210355502Y-125002858D01*
X210275847Y-124979712D01*
X210175005Y-124998702D01*
X210062953Y-125037202D01*
X209920881Y-125085949D01*
X209821653Y-125115994D01*
X209798051Y-125120651D01*
X209747162Y-125079723D01*
X209672489Y-124978743D01*
X209593409Y-124849634D01*
X209529301Y-124724320D01*
X209499545Y-124634725D01*
X209499200Y-124628331D01*
X209532847Y-124542327D01*
X209618315Y-124423190D01*
X209674895Y-124360541D01*
X209850589Y-124180600D01*
X209793315Y-123418600D01*
X209771672Y-123108489D01*
X209760785Y-122874525D01*
X209761332Y-122691758D01*
X209773988Y-122535237D01*
X209799431Y-122380009D01*
X209824702Y-122261026D01*
X209995437Y-121721012D01*
X210251920Y-121222083D01*
X210585055Y-120775112D01*
X210985743Y-120390975D01*
X211444889Y-120080545D01*
X211785515Y-119917241D01*
X211950451Y-119851642D01*
X212075177Y-119804692D01*
X212133066Y-119786404D01*
X212133303Y-119786399D01*
X212113369Y-119815747D01*
X212034590Y-119891192D01*
X211957826Y-119958672D01*
X211816656Y-120105013D01*
X211674988Y-120291549D01*
X211605782Y-120403172D01*
X211535655Y-120538039D01*
X211491382Y-120655918D01*
X211467095Y-120787172D01*
X211456928Y-120962162D01*
X211455000Y-121183400D01*
X211465293Y-121485789D01*
X211503665Y-121731738D01*
X211581358Y-121947981D01*
X211709611Y-122161253D01*
X211899668Y-122398288D01*
X212024212Y-122537153D01*
X212234705Y-122781598D01*
X212376480Y-122989732D01*
X212461406Y-123187118D01*
X212501353Y-123399319D01*
X212508934Y-123581139D01*
X212465395Y-123911556D01*
X212342632Y-124203877D01*
X212152970Y-124444849D01*
X211908736Y-124621218D01*
X211622256Y-124719730D01*
X211434954Y-124735950D01*
X211136455Y-124699483D01*
X211132406Y-124697606D01*
X209988421Y-124697606D01*
X209922359Y-124757164D01*
X209877202Y-124764800D01*
X209817857Y-124722503D01*
X209804000Y-124663200D01*
X209840151Y-124581475D01*
X209917146Y-124563625D01*
X209981800Y-124612400D01*
X209988421Y-124697606D01*
X211132406Y-124697606D01*
X210896762Y-124588391D01*
X210697358Y-124393957D01*
X210691048Y-124385755D01*
X210569538Y-124160886D01*
X210528319Y-123928827D01*
X210560156Y-123708094D01*
X210657815Y-123517201D01*
X210814060Y-123374664D01*
X211021657Y-123298996D01*
X211118591Y-123291600D01*
X211279776Y-123336623D01*
X211375374Y-123425781D01*
X211439670Y-123550638D01*
X211418662Y-123636429D01*
X211320007Y-123667604D01*
X211259496Y-123661104D01*
X211123393Y-123678507D01*
X211056618Y-123722639D01*
X210983160Y-123853126D01*
X210993964Y-123991275D01*
X211075414Y-124117503D01*
X211213894Y-124212228D01*
X211395787Y-124255867D01*
X211428037Y-124256800D01*
X211583523Y-124238850D01*
X211717306Y-124171489D01*
X211824047Y-124082903D01*
X211927689Y-123981364D01*
X211984517Y-123893596D01*
X212008542Y-123782741D01*
X212013771Y-123611940D01*
X212013800Y-123583649D01*
X212006767Y-123387427D01*
X211978028Y-123251078D01*
X211916128Y-123133389D01*
X211871474Y-123071692D01*
X211680499Y-122877659D01*
X211449168Y-122756782D01*
X211173218Y-122697648D01*
X210859132Y-122707586D01*
X210572682Y-122806962D01*
X210325117Y-122984945D01*
X210127686Y-123230702D01*
X209991637Y-123533403D01*
X209928219Y-123882214D01*
X209927333Y-123897336D01*
X209913032Y-124083064D01*
X209885507Y-124202143D01*
X209830557Y-124289518D01*
X209733985Y-124380135D01*
X209729671Y-124383800D01*
X209596515Y-124526813D01*
X209558439Y-124661758D01*
X209613072Y-124809299D01*
X209671507Y-124890633D01*
X209792510Y-125041867D01*
X210042295Y-124961989D01*
X210292081Y-124882110D01*
X210464224Y-125025822D01*
X210741932Y-125197914D01*
X211075649Y-125294340D01*
X211473201Y-125317242D01*
X211521934Y-125315328D01*
X211894834Y-125265818D01*
X212209134Y-125149195D01*
X212491113Y-124954183D01*
X212599317Y-124853130D01*
X212759583Y-124674226D01*
X212884277Y-124484667D01*
X212989018Y-124255403D01*
X213089425Y-123957386D01*
X213100091Y-123921800D01*
X213258498Y-123527133D01*
X213474364Y-123216172D01*
X213747909Y-122988679D01*
X213940906Y-122904677D01*
X213077322Y-122904677D01*
X213041071Y-122980609D01*
X212973645Y-123031370D01*
X212953600Y-123037600D01*
X212895293Y-123006440D01*
X212866130Y-122980609D01*
X212829834Y-122890452D01*
X212871435Y-122811080D01*
X212953600Y-122783600D01*
X213046486Y-122820899D01*
X213077322Y-122904677D01*
X213940906Y-122904677D01*
X214079354Y-122844418D01*
X214110053Y-122836026D01*
X214403458Y-122803081D01*
X214682125Y-122851148D01*
X214934368Y-122967294D01*
X215148500Y-123138588D01*
X215312835Y-123352097D01*
X215415687Y-123594889D01*
X215445371Y-123854031D01*
X215390199Y-124116592D01*
X215348739Y-124206792D01*
X215196564Y-124408638D01*
X215001607Y-124545351D01*
X214785379Y-124611550D01*
X214569388Y-124601850D01*
X214375146Y-124510869D01*
X214321293Y-124463907D01*
X214203077Y-124298758D01*
X214172800Y-124169267D01*
X214201279Y-124017029D01*
X214272048Y-123926432D01*
X214363110Y-123907358D01*
X214452467Y-123969688D01*
X214486844Y-124028200D01*
X214579433Y-124129544D01*
X214708508Y-124157241D01*
X214839353Y-124110127D01*
X214906520Y-124042296D01*
X214980105Y-123863245D01*
X214965539Y-123684429D01*
X214875021Y-123521997D01*
X214720745Y-123392096D01*
X214514909Y-123310874D01*
X214339516Y-123291600D01*
X214100334Y-123338353D01*
X213892499Y-123466278D01*
X213727670Y-123656875D01*
X213617502Y-123891641D01*
X213573654Y-124152075D01*
X213607781Y-124419677D01*
X213614628Y-124442089D01*
X213756316Y-124732124D01*
X213965773Y-124959427D01*
X214227088Y-125118880D01*
X214524346Y-125205365D01*
X214841633Y-125213766D01*
X215163037Y-125138965D01*
X215407750Y-125018701D01*
X215556497Y-124929536D01*
X215657547Y-124887760D01*
X215749020Y-124886374D01*
X215869038Y-124918382D01*
X215900235Y-124928308D01*
X216078891Y-124975513D01*
X216194356Y-124971515D01*
X216275193Y-124908735D01*
X216332869Y-124813533D01*
X216390065Y-124663200D01*
X216154000Y-124663200D01*
X216128290Y-124746576D01*
X216065100Y-124755129D01*
X215989525Y-124705037D01*
X215976200Y-124663200D01*
X216018431Y-124591471D01*
X216065100Y-124571270D01*
X216137107Y-124588942D01*
X216154000Y-124663200D01*
X216390065Y-124663200D01*
X216398044Y-124642230D01*
X216381975Y-124509057D01*
X216278358Y-124383542D01*
X216236729Y-124348744D01*
X216152304Y-124276195D01*
X216099844Y-124205609D01*
X216069828Y-124109632D01*
X216052734Y-123960907D01*
X216042203Y-123789944D01*
X215977262Y-123371065D01*
X215830490Y-123011845D01*
X215599603Y-122708739D01*
X215282318Y-122458203D01*
X215127590Y-122370300D01*
X214901400Y-122290543D01*
X214613338Y-122242462D01*
X214298681Y-122228002D01*
X213992711Y-122249112D01*
X213769495Y-122295374D01*
X213381922Y-122367123D01*
X213021601Y-122348333D01*
X212698078Y-122242548D01*
X212420895Y-122053310D01*
X212199598Y-121784162D01*
X212148221Y-121693563D01*
X212048681Y-121407090D01*
X212029119Y-121106172D01*
X212085936Y-120816002D01*
X212215536Y-120561769D01*
X212327754Y-120436037D01*
X212504119Y-120320841D01*
X212727042Y-120233017D01*
X212941684Y-120193493D01*
X212964669Y-120192989D01*
X213177122Y-120237912D01*
X213376782Y-120356875D01*
X213539707Y-120526886D01*
X213641954Y-120724958D01*
X213664611Y-120865098D01*
X213630381Y-121007212D01*
X213543819Y-121143504D01*
X213429676Y-121247571D01*
X213312703Y-121293011D01*
X213268104Y-121288079D01*
X213181649Y-121215767D01*
X213155857Y-121100491D01*
X213198407Y-120985979D01*
X213212307Y-120970413D01*
X213237984Y-120884508D01*
X213194679Y-120782766D01*
X213102076Y-120698957D01*
X213039051Y-120673182D01*
X212858997Y-120675119D01*
X212696259Y-120759661D01*
X212570902Y-120907854D01*
X212502988Y-121100740D01*
X212496401Y-121185899D01*
X212542480Y-121431981D01*
X212671794Y-121634911D01*
X212870951Y-121782947D01*
X213126562Y-121864344D01*
X213283800Y-121876457D01*
X213577864Y-121831304D01*
X213828703Y-121705676D01*
X214028527Y-121514318D01*
X214169547Y-121271976D01*
X214243973Y-120993393D01*
X214244015Y-120693317D01*
X214161884Y-120386490D01*
X214119584Y-120294400D01*
X213957220Y-120059611D01*
X213736256Y-119852842D01*
X213497490Y-119711169D01*
X213372153Y-119646570D01*
X213328839Y-119611096D01*
X212547200Y-119611096D01*
X212505752Y-119644166D01*
X212403826Y-119696213D01*
X212382100Y-119705910D01*
X212256925Y-119760058D01*
X212203209Y-119778409D01*
X212199147Y-119765460D01*
X212213909Y-119740602D01*
X212268588Y-119699864D01*
X212366271Y-119653611D01*
X212468644Y-119616729D01*
X212537394Y-119604106D01*
X212547200Y-119611096D01*
X213328839Y-119611096D01*
X213295712Y-119583966D01*
X213287591Y-119568894D01*
X213266361Y-119482136D01*
X213236924Y-119352065D01*
X213024471Y-119352065D01*
X212990271Y-119424609D01*
X212904292Y-119478529D01*
X212847210Y-119436302D01*
X212839519Y-119418100D01*
X212838861Y-119405400D01*
X212588097Y-119405400D01*
X212582606Y-119492157D01*
X212566703Y-119499795D01*
X212564679Y-119495266D01*
X212554630Y-119394419D01*
X212562797Y-119342866D01*
X212578967Y-119322150D01*
X212587762Y-119389624D01*
X212588097Y-119405400D01*
X212838861Y-119405400D01*
X212833897Y-119309619D01*
X212887370Y-119237331D01*
X212926999Y-119227600D01*
X213002241Y-119266764D01*
X213024471Y-119352065D01*
X213236924Y-119352065D01*
X213235024Y-119343673D01*
X213226301Y-119303800D01*
X213194433Y-119182794D01*
X213171122Y-119151400D01*
X212648800Y-119151400D01*
X212623400Y-119176800D01*
X212598000Y-119151400D01*
X212623400Y-119126000D01*
X212648800Y-119151400D01*
X213171122Y-119151400D01*
X213146668Y-119118468D01*
X213052276Y-119086610D01*
X212928200Y-119068934D01*
X212674200Y-119037269D01*
X212951510Y-119043534D01*
X213228820Y-119049800D01*
X213307110Y-119320666D01*
X213362375Y-119478995D01*
X213434535Y-119591725D01*
X213545563Y-119677427D01*
X213717431Y-119754675D01*
X213893400Y-119816221D01*
X214421665Y-120041066D01*
X214896562Y-120342953D01*
X215309727Y-120712606D01*
X215652794Y-121140748D01*
X215917400Y-121618102D01*
X216095178Y-122135392D01*
X216130311Y-122296882D01*
X216163907Y-122516698D01*
X216181974Y-122752988D01*
X216185499Y-123032469D01*
X216175469Y-123381859D01*
X216172716Y-123445051D01*
X216139058Y-124190939D01*
X216534058Y-124552929D01*
X216420089Y-124787513D01*
X216340552Y-124928053D01*
X216264074Y-125026366D01*
X216230971Y-125050933D01*
X216140907Y-125052485D01*
X215998472Y-125023480D01*
X215922747Y-125000354D01*
X215777258Y-124955501D01*
X215681620Y-124949827D01*
X215590488Y-124987015D01*
X215516118Y-125033369D01*
X215410601Y-125113009D01*
X215357498Y-125175616D01*
X215356009Y-125188181D01*
X215404792Y-125222164D01*
X215530757Y-125288456D01*
X215717785Y-125379145D01*
X215949758Y-125486321D01*
X216104628Y-125555610D01*
X216456943Y-125705487D01*
X216732185Y-125807672D01*
X216941736Y-125864463D01*
X217096973Y-125878157D01*
X217209277Y-125851051D01*
X217283199Y-125793500D01*
X217379673Y-125661882D01*
X217483051Y-125487488D01*
X217577653Y-125301370D01*
X217647797Y-125134577D01*
X217677803Y-125018161D01*
X217678001Y-125011701D01*
X217669060Y-124923552D01*
X217633207Y-124840872D01*
X217556897Y-124747006D01*
X217426586Y-124625298D01*
X217228727Y-124459093D01*
X217228340Y-124458775D01*
X217015356Y-124267739D01*
X216880862Y-124099111D01*
X216813215Y-123928413D01*
X216800770Y-123731170D01*
X216814959Y-123589880D01*
X216857752Y-123368322D01*
X216926302Y-123201003D01*
X217036886Y-123072278D01*
X217205783Y-122966503D01*
X217449274Y-122868034D01*
X217627200Y-122809331D01*
X217856491Y-122731496D01*
X218004412Y-122660420D01*
X218088367Y-122579043D01*
X218125755Y-122470306D01*
X218133977Y-122317151D01*
X218133959Y-122312528D01*
X218116898Y-122044149D01*
X218072624Y-121797717D01*
X218007714Y-121601693D01*
X217946586Y-121501650D01*
X217891296Y-121459293D01*
X217804001Y-121432170D01*
X217664002Y-121417095D01*
X217450598Y-121410879D01*
X217352627Y-121410199D01*
X217095861Y-121402927D01*
X216889172Y-121384533D01*
X216754600Y-121357265D01*
X216729767Y-121346699D01*
X216561965Y-121204432D01*
X216401169Y-120975453D01*
X216300784Y-120776135D01*
X216247812Y-120634237D01*
X216231328Y-120507501D01*
X216256744Y-120373593D01*
X216329468Y-120210179D01*
X216454910Y-119994925D01*
X216512182Y-119903346D01*
X216647523Y-119664849D01*
X216708779Y-119476146D01*
X216692512Y-119314013D01*
X216595284Y-119155227D01*
X216413657Y-118976564D01*
X216369346Y-118938474D01*
X216180937Y-118787581D01*
X216030529Y-118700310D01*
X215895533Y-118678036D01*
X215753360Y-118722137D01*
X215581420Y-118833989D01*
X215376226Y-118998999D01*
X215197583Y-119139979D01*
X215036348Y-119252659D01*
X214914835Y-119322172D01*
X214868821Y-119337100D01*
X214559310Y-119322140D01*
X214268822Y-119240372D01*
X214028076Y-119101921D01*
X213955685Y-119036198D01*
X213882210Y-118936683D01*
X213819755Y-118794488D01*
X213760331Y-118588115D01*
X213715294Y-118389400D01*
X213652580Y-118115297D01*
X213589621Y-117925890D01*
X213509821Y-117805597D01*
X213396581Y-117738841D01*
X213233303Y-117710040D01*
X213003389Y-117703614D01*
X212984676Y-117703599D01*
X212732130Y-117709324D01*
G36*
X215105896Y-126233318D02*
G01*
X215048777Y-126333491D01*
X215045726Y-126352300D01*
X215046361Y-126450718D01*
X215099327Y-126487401D01*
X215182428Y-126492000D01*
X215301103Y-126476531D01*
X215366881Y-126440745D01*
X215378735Y-126354861D01*
X215365519Y-126285391D01*
X215299488Y-126201898D01*
X215201207Y-126186997D01*
X215105896Y-126233318D01*
G37*
X215105896Y-126233318D02*
X215048777Y-126333491D01*
X215045726Y-126352300D01*
X215046361Y-126450718D01*
X215099327Y-126487401D01*
X215182428Y-126492000D01*
X215301103Y-126476531D01*
X215366881Y-126440745D01*
X215378735Y-126354861D01*
X215365519Y-126285391D01*
X215299488Y-126201898D01*
X215201207Y-126186997D01*
X215105896Y-126233318D01*
G36*
X210083400Y-126148565D02*
G01*
X209992870Y-126163413D01*
X209945543Y-126205797D01*
X209924365Y-126303171D01*
X209916009Y-126418031D01*
X209901017Y-126674263D01*
X209728418Y-126654113D01*
X209540809Y-126675129D01*
X209400603Y-126780155D01*
X209316680Y-126959188D01*
X209296000Y-127141235D01*
X209320369Y-127354814D01*
X209401249Y-127497198D01*
X209550303Y-127578484D01*
X209779194Y-127608773D01*
X209836908Y-127609600D01*
X210004956Y-127604364D01*
X210129448Y-127590780D01*
X210176534Y-127575733D01*
X210191239Y-127513202D01*
X210202721Y-127373360D01*
X210209377Y-127180481D01*
X210209767Y-127135545D01*
X209904823Y-127135545D01*
X209886319Y-127315592D01*
X209836291Y-127427711D01*
X209766017Y-127462253D01*
X209686774Y-127409570D01*
X209650344Y-127353252D01*
X209610565Y-127207404D01*
X209620564Y-127048035D01*
X209674286Y-126918598D01*
X209716547Y-126878123D01*
X209810360Y-126860063D01*
X209874482Y-126933404D01*
X209903631Y-127090921D01*
X209904823Y-127135545D01*
X210209767Y-127135545D01*
X210210400Y-127062710D01*
X210218851Y-126769947D01*
X210245866Y-126558036D01*
X210293943Y-126407508D01*
X210294636Y-126406041D01*
X210340390Y-126261935D01*
X210307371Y-126177097D01*
X210190456Y-126145286D01*
X210083400Y-126148565D01*
G37*
X210083400Y-126148565D02*
X209992870Y-126163413D01*
X209945543Y-126205797D01*
X209924365Y-126303171D01*
X209916009Y-126418031D01*
X209901017Y-126674263D01*
X209728418Y-126654113D01*
X209540809Y-126675129D01*
X209400603Y-126780155D01*
X209316680Y-126959188D01*
X209296000Y-127141235D01*
X209320369Y-127354814D01*
X209401249Y-127497198D01*
X209550303Y-127578484D01*
X209779194Y-127608773D01*
X209836908Y-127609600D01*
X210004956Y-127604364D01*
X210129448Y-127590780D01*
X210176534Y-127575733D01*
X210191239Y-127513202D01*
X210202721Y-127373360D01*
X210209377Y-127180481D01*
X210209767Y-127135545D01*
X209904823Y-127135545D01*
X209886319Y-127315592D01*
X209836291Y-127427711D01*
X209766017Y-127462253D01*
X209686774Y-127409570D01*
X209650344Y-127353252D01*
X209610565Y-127207404D01*
X209620564Y-127048035D01*
X209674286Y-126918598D01*
X209716547Y-126878123D01*
X209810360Y-126860063D01*
X209874482Y-126933404D01*
X209903631Y-127090921D01*
X209904823Y-127135545D01*
X210209767Y-127135545D01*
X210210400Y-127062710D01*
X210218851Y-126769947D01*
X210245866Y-126558036D01*
X210293943Y-126407508D01*
X210294636Y-126406041D01*
X210340390Y-126261935D01*
X210307371Y-126177097D01*
X210190456Y-126145286D01*
X210083400Y-126148565D01*
G36*
X212125789Y-126193280D02*
G01*
X212022594Y-126218427D01*
X211997409Y-126273001D01*
X212038623Y-126367359D01*
X212066746Y-126411945D01*
X212108958Y-126511357D01*
X212129977Y-126660633D01*
X212132408Y-126882082D01*
X212130246Y-126956257D01*
X212115400Y-127381000D01*
X211961402Y-127396090D01*
X211811103Y-127376746D01*
X211685846Y-127281790D01*
X211575322Y-127179974D01*
X211511623Y-127167203D01*
X211487240Y-127246799D01*
X211490180Y-127368300D01*
X211505800Y-127584200D01*
X212051900Y-127598618D01*
X212298268Y-127602977D01*
X212459561Y-127599304D01*
X212552114Y-127585789D01*
X212592262Y-127560623D01*
X212598000Y-127538116D01*
X212567712Y-127450893D01*
X212547200Y-127431800D01*
X212525314Y-127370152D01*
X212508283Y-127229300D01*
X212498218Y-127031599D01*
X212496400Y-126893807D01*
X212499483Y-126651563D01*
X212510364Y-126493550D01*
X212531492Y-126402540D01*
X212565319Y-126361305D01*
X212572600Y-126357970D01*
X212640115Y-126294008D01*
X212648800Y-126257964D01*
X212621255Y-126217430D01*
X212527722Y-126195047D01*
X212351858Y-126187313D01*
X212318600Y-126187200D01*
X212125789Y-126193280D01*
G37*
X212125789Y-126193280D02*
X212022594Y-126218427D01*
X211997409Y-126273001D01*
X212038623Y-126367359D01*
X212066746Y-126411945D01*
X212108958Y-126511357D01*
X212129977Y-126660633D01*
X212132408Y-126882082D01*
X212130246Y-126956257D01*
X212115400Y-127381000D01*
X211961402Y-127396090D01*
X211811103Y-127376746D01*
X211685846Y-127281790D01*
X211575322Y-127179974D01*
X211511623Y-127167203D01*
X211487240Y-127246799D01*
X211490180Y-127368300D01*
X211505800Y-127584200D01*
X212051900Y-127598618D01*
X212298268Y-127602977D01*
X212459561Y-127599304D01*
X212552114Y-127585789D01*
X212592262Y-127560623D01*
X212598000Y-127538116D01*
X212567712Y-127450893D01*
X212547200Y-127431800D01*
X212525314Y-127370152D01*
X212508283Y-127229300D01*
X212498218Y-127031599D01*
X212496400Y-126893807D01*
X212499483Y-126651563D01*
X212510364Y-126493550D01*
X212531492Y-126402540D01*
X212565319Y-126361305D01*
X212572600Y-126357970D01*
X212640115Y-126294008D01*
X212648800Y-126257964D01*
X212621255Y-126217430D01*
X212527722Y-126195047D01*
X212351858Y-126187313D01*
X212318600Y-126187200D01*
X212125789Y-126193280D01*
G36*
X213080012Y-126644634D02*
G01*
X212924532Y-126735593D01*
X212812982Y-126877084D01*
X212765238Y-127063237D01*
X212774671Y-127189647D01*
X212856044Y-127404744D01*
X213004674Y-127543773D01*
X213219660Y-127606010D01*
X213298036Y-127609600D01*
X213475718Y-127596075D01*
X213594188Y-127546826D01*
X213655164Y-127492857D01*
X213772798Y-127301078D01*
X213795181Y-127116146D01*
X213454059Y-127116146D01*
X213423588Y-127293826D01*
X213412058Y-127326892D01*
X213338778Y-127432895D01*
X213248562Y-127447810D01*
X213164080Y-127368770D01*
X213158588Y-127358939D01*
X213113447Y-127211375D01*
X213113807Y-127051344D01*
X213152839Y-126909505D01*
X213223714Y-126816519D01*
X213283800Y-126796800D01*
X213377750Y-126841120D01*
X213436641Y-126956406D01*
X213454059Y-127116146D01*
X213795181Y-127116146D01*
X213798634Y-127087624D01*
X213743648Y-126903519D01*
X213611238Y-126733650D01*
X213443243Y-126637793D01*
X213259541Y-126610077D01*
X213080012Y-126644634D01*
G37*
X213080012Y-126644634D02*
X212924532Y-126735593D01*
X212812982Y-126877084D01*
X212765238Y-127063237D01*
X212774671Y-127189647D01*
X212856044Y-127404744D01*
X213004674Y-127543773D01*
X213219660Y-127606010D01*
X213298036Y-127609600D01*
X213475718Y-127596075D01*
X213594188Y-127546826D01*
X213655164Y-127492857D01*
X213772798Y-127301078D01*
X213795181Y-127116146D01*
X213454059Y-127116146D01*
X213423588Y-127293826D01*
X213412058Y-127326892D01*
X213338778Y-127432895D01*
X213248562Y-127447810D01*
X213164080Y-127368770D01*
X213158588Y-127358939D01*
X213113447Y-127211375D01*
X213113807Y-127051344D01*
X213152839Y-126909505D01*
X213223714Y-126816519D01*
X213283800Y-126796800D01*
X213377750Y-126841120D01*
X213436641Y-126956406D01*
X213454059Y-127116146D01*
X213795181Y-127116146D01*
X213798634Y-127087624D01*
X213743648Y-126903519D01*
X213611238Y-126733650D01*
X213443243Y-126637793D01*
X213259541Y-126610077D01*
X213080012Y-126644634D01*
G36*
X215022855Y-127012700D02*
G01*
X215006751Y-127212610D01*
X214985102Y-127385327D01*
X214962540Y-127494046D01*
X214962117Y-127495300D01*
X214946255Y-127560059D01*
X214969853Y-127594165D01*
X215054002Y-127607413D01*
X215208276Y-127609600D01*
X215363133Y-127602414D01*
X215466755Y-127583843D01*
X215493600Y-127565020D01*
X215458845Y-127498815D01*
X215417400Y-127457200D01*
X215366472Y-127360807D01*
X215344546Y-127206727D01*
X215351523Y-127034612D01*
X215387300Y-126884116D01*
X215419012Y-126825195D01*
X215458259Y-126730950D01*
X215404945Y-126671854D01*
X215257327Y-126646440D01*
X215205514Y-126645177D01*
X215044427Y-126644400D01*
X215022855Y-127012700D01*
G37*
X215022855Y-127012700D02*
X215006751Y-127212610D01*
X214985102Y-127385327D01*
X214962540Y-127494046D01*
X214962117Y-127495300D01*
X214946255Y-127560059D01*
X214969853Y-127594165D01*
X215054002Y-127607413D01*
X215208276Y-127609600D01*
X215363133Y-127602414D01*
X215466755Y-127583843D01*
X215493600Y-127565020D01*
X215458845Y-127498815D01*
X215417400Y-127457200D01*
X215366472Y-127360807D01*
X215344546Y-127206727D01*
X215351523Y-127034612D01*
X215387300Y-126884116D01*
X215419012Y-126825195D01*
X215458259Y-126730950D01*
X215404945Y-126671854D01*
X215257327Y-126646440D01*
X215205514Y-126645177D01*
X215044427Y-126644400D01*
X215022855Y-127012700D01*
G36*
X215989066Y-126659427D02*
G01*
X215950800Y-126694110D01*
X215912120Y-126714815D01*
X215827040Y-126687432D01*
X215683530Y-126652972D01*
X215585221Y-126689288D01*
X215551543Y-126787723D01*
X215553538Y-126809272D01*
X215590382Y-126894403D01*
X215687121Y-126924357D01*
X215721630Y-126925656D01*
X215858340Y-126967351D01*
X215933840Y-127073741D01*
X215939879Y-127222816D01*
X215885859Y-127363845D01*
X215826515Y-127479715D01*
X215798692Y-127558593D01*
X215798400Y-127562916D01*
X215844337Y-127588483D01*
X215962834Y-127605439D01*
X216077800Y-127609600D01*
X216248343Y-127602214D01*
X216335558Y-127577017D01*
X216357200Y-127536398D01*
X216326240Y-127449908D01*
X216306400Y-127431800D01*
X216271556Y-127360287D01*
X216257409Y-127226876D01*
X216263147Y-127068967D01*
X216287962Y-126923958D01*
X216319100Y-126845360D01*
X216356106Y-126758464D01*
X216319906Y-126703501D01*
X216306400Y-126694427D01*
X216206988Y-126658241D01*
X216087809Y-126646563D01*
X215989066Y-126659427D01*
G37*
X215989066Y-126659427D02*
X215950800Y-126694110D01*
X215912120Y-126714815D01*
X215827040Y-126687432D01*
X215683530Y-126652972D01*
X215585221Y-126689288D01*
X215551543Y-126787723D01*
X215553538Y-126809272D01*
X215590382Y-126894403D01*
X215687121Y-126924357D01*
X215721630Y-126925656D01*
X215858340Y-126967351D01*
X215933840Y-127073741D01*
X215939879Y-127222816D01*
X215885859Y-127363845D01*
X215826515Y-127479715D01*
X215798692Y-127558593D01*
X215798400Y-127562916D01*
X215844337Y-127588483D01*
X215962834Y-127605439D01*
X216077800Y-127609600D01*
X216248343Y-127602214D01*
X216335558Y-127577017D01*
X216357200Y-127536398D01*
X216326240Y-127449908D01*
X216306400Y-127431800D01*
X216271556Y-127360287D01*
X216257409Y-127226876D01*
X216263147Y-127068967D01*
X216287962Y-126923958D01*
X216319100Y-126845360D01*
X216356106Y-126758464D01*
X216319906Y-126703501D01*
X216306400Y-126694427D01*
X216206988Y-126658241D01*
X216087809Y-126646563D01*
X215989066Y-126659427D01*
G36*
X217002749Y-126202327D02*
G01*
X216799014Y-126249514D01*
X216672364Y-126331469D01*
X216650078Y-126359904D01*
X216613224Y-126489880D01*
X216629711Y-126645400D01*
X216693168Y-126769807D01*
X216696575Y-126773317D01*
X216753785Y-126841629D01*
X216734291Y-126883354D01*
X216693759Y-126908046D01*
X216586170Y-127019373D01*
X216543872Y-127173638D01*
X216564355Y-127338114D01*
X216645111Y-127480070D01*
X216743119Y-127551797D01*
X216843514Y-127577099D01*
X217000997Y-127595243D01*
X217189394Y-127605879D01*
X217382533Y-127608656D01*
X217554244Y-127603223D01*
X217678353Y-127589228D01*
X217728689Y-127566321D01*
X217728800Y-127565020D01*
X217694045Y-127498815D01*
X217652600Y-127457200D01*
X217613830Y-127397086D01*
X217589944Y-127283068D01*
X217582892Y-127169333D01*
X217220800Y-127169333D01*
X217204279Y-127357065D01*
X217153435Y-127449990D01*
X217066353Y-127449596D01*
X216958101Y-127373126D01*
X216876146Y-127260851D01*
X216890438Y-127148041D01*
X216966800Y-127050800D01*
X217087077Y-126958121D01*
X217168906Y-126959429D01*
X217212638Y-127054885D01*
X217220800Y-127169333D01*
X217582892Y-127169333D01*
X217578436Y-127097490D01*
X217576400Y-126920577D01*
X217581528Y-126710425D01*
X217590328Y-126602066D01*
X217220800Y-126602066D01*
X217200546Y-126745972D01*
X217142203Y-126796581D01*
X217049397Y-126752253D01*
X216998849Y-126702546D01*
X216943007Y-126580435D01*
X216980825Y-126462059D01*
X217067698Y-126390776D01*
X217153851Y-126364534D01*
X217201596Y-126409875D01*
X217219779Y-126539010D01*
X217220800Y-126602066D01*
X217590328Y-126602066D01*
X217595289Y-126540990D01*
X217615249Y-126436447D01*
X217627200Y-126415800D01*
X217669876Y-126344148D01*
X217678000Y-126285801D01*
X217668314Y-126235489D01*
X217625343Y-126205876D01*
X217528222Y-126191609D01*
X217356083Y-126187335D01*
X217293661Y-126187200D01*
X217002749Y-126202327D01*
G37*
X217002749Y-126202327D02*
X216799014Y-126249514D01*
X216672364Y-126331469D01*
X216650078Y-126359904D01*
X216613224Y-126489880D01*
X216629711Y-126645400D01*
X216693168Y-126769807D01*
X216696575Y-126773317D01*
X216753785Y-126841629D01*
X216734291Y-126883354D01*
X216693759Y-126908046D01*
X216586170Y-127019373D01*
X216543872Y-127173638D01*
X216564355Y-127338114D01*
X216645111Y-127480070D01*
X216743119Y-127551797D01*
X216843514Y-127577099D01*
X217000997Y-127595243D01*
X217189394Y-127605879D01*
X217382533Y-127608656D01*
X217554244Y-127603223D01*
X217678353Y-127589228D01*
X217728689Y-127566321D01*
X217728800Y-127565020D01*
X217694045Y-127498815D01*
X217652600Y-127457200D01*
X217613830Y-127397086D01*
X217589944Y-127283068D01*
X217582892Y-127169333D01*
X217220800Y-127169333D01*
X217204279Y-127357065D01*
X217153435Y-127449990D01*
X217066353Y-127449596D01*
X216958101Y-127373126D01*
X216876146Y-127260851D01*
X216890438Y-127148041D01*
X216966800Y-127050800D01*
X217087077Y-126958121D01*
X217168906Y-126959429D01*
X217212638Y-127054885D01*
X217220800Y-127169333D01*
X217582892Y-127169333D01*
X217578436Y-127097490D01*
X217576400Y-126920577D01*
X217581528Y-126710425D01*
X217590328Y-126602066D01*
X217220800Y-126602066D01*
X217200546Y-126745972D01*
X217142203Y-126796581D01*
X217049397Y-126752253D01*
X216998849Y-126702546D01*
X216943007Y-126580435D01*
X216980825Y-126462059D01*
X217067698Y-126390776D01*
X217153851Y-126364534D01*
X217201596Y-126409875D01*
X217219779Y-126539010D01*
X217220800Y-126602066D01*
X217590328Y-126602066D01*
X217595289Y-126540990D01*
X217615249Y-126436447D01*
X217627200Y-126415800D01*
X217669876Y-126344148D01*
X217678000Y-126285801D01*
X217668314Y-126235489D01*
X217625343Y-126205876D01*
X217528222Y-126191609D01*
X217356083Y-126187335D01*
X217293661Y-126187200D01*
X217002749Y-126202327D01*
G36*
X208581361Y-126625442D02*
G01*
X208451733Y-126654620D01*
X208394742Y-126703089D01*
X208381621Y-126796462D01*
X208381600Y-126803292D01*
X208395830Y-126916815D01*
X208447569Y-126941792D01*
X208550395Y-126883579D01*
X208562391Y-126874615D01*
X208676283Y-126814552D01*
X208749900Y-126798415D01*
X208830031Y-126815504D01*
X208826536Y-126862497D01*
X208747788Y-126926182D01*
X208634118Y-126981120D01*
X208445511Y-127089955D01*
X208345129Y-127218162D01*
X208325650Y-127350573D01*
X208379751Y-127472020D01*
X208500110Y-127567337D01*
X208679403Y-127621354D01*
X208910307Y-127618905D01*
X208939824Y-127614320D01*
X209086121Y-127556457D01*
X209144179Y-127449684D01*
X209122706Y-127323624D01*
X209090614Y-127280788D01*
X209030226Y-127296293D01*
X208945468Y-127351991D01*
X208800971Y-127433310D01*
X208692687Y-127452958D01*
X208638590Y-127409023D01*
X208635600Y-127384939D01*
X208679211Y-127323475D01*
X208786927Y-127263637D01*
X208815200Y-127253406D01*
X209000476Y-127157912D01*
X209101431Y-127034838D01*
X209124674Y-126901929D01*
X209076814Y-126776932D01*
X208964458Y-126677593D01*
X208794215Y-126621658D01*
X208581361Y-126625442D01*
G37*
X208581361Y-126625442D02*
X208451733Y-126654620D01*
X208394742Y-126703089D01*
X208381621Y-126796462D01*
X208381600Y-126803292D01*
X208395830Y-126916815D01*
X208447569Y-126941792D01*
X208550395Y-126883579D01*
X208562391Y-126874615D01*
X208676283Y-126814552D01*
X208749900Y-126798415D01*
X208830031Y-126815504D01*
X208826536Y-126862497D01*
X208747788Y-126926182D01*
X208634118Y-126981120D01*
X208445511Y-127089955D01*
X208345129Y-127218162D01*
X208325650Y-127350573D01*
X208379751Y-127472020D01*
X208500110Y-127567337D01*
X208679403Y-127621354D01*
X208910307Y-127618905D01*
X208939824Y-127614320D01*
X209086121Y-127556457D01*
X209144179Y-127449684D01*
X209122706Y-127323624D01*
X209090614Y-127280788D01*
X209030226Y-127296293D01*
X208945468Y-127351991D01*
X208800971Y-127433310D01*
X208692687Y-127452958D01*
X208638590Y-127409023D01*
X208635600Y-127384939D01*
X208679211Y-127323475D01*
X208786927Y-127263637D01*
X208815200Y-127253406D01*
X209000476Y-127157912D01*
X209101431Y-127034838D01*
X209124674Y-126901929D01*
X209076814Y-126776932D01*
X208964458Y-126677593D01*
X208794215Y-126621658D01*
X208581361Y-126625442D01*
G36*
X210737176Y-126670021D02*
G01*
X210627732Y-126755420D01*
X210574956Y-126913398D01*
X210566000Y-127063128D01*
X210546012Y-127273463D01*
X210488931Y-127407163D01*
X210484824Y-127411898D01*
X210429513Y-127507204D01*
X210467505Y-127569490D01*
X210600184Y-127599786D01*
X210740864Y-127602745D01*
X210901900Y-127604288D01*
X211021125Y-127615010D01*
X211058391Y-127625352D01*
X211133976Y-127626365D01*
X211229237Y-127592530D01*
X211343396Y-127494700D01*
X211372591Y-127371616D01*
X211369698Y-127364015D01*
X211059491Y-127364015D01*
X211035950Y-127422268D01*
X210970072Y-127421164D01*
X210942478Y-127402646D01*
X210880491Y-127316251D01*
X210870800Y-127273179D01*
X210898437Y-127209537D01*
X210966478Y-127225242D01*
X211021354Y-127277174D01*
X211059491Y-127364015D01*
X211369698Y-127364015D01*
X211323334Y-127242238D01*
X211202137Y-127125521D01*
X211042458Y-127048772D01*
X210928544Y-126992859D01*
X210872121Y-126929249D01*
X210870800Y-126919860D01*
X210904417Y-126857557D01*
X210992707Y-126864921D01*
X211096410Y-126925415D01*
X211220175Y-126991919D01*
X211301659Y-126979759D01*
X211328000Y-126901280D01*
X211281639Y-126785985D01*
X211159258Y-126696562D01*
X210985909Y-126648554D01*
X210913926Y-126644400D01*
X210737176Y-126670021D01*
G37*
X210737176Y-126670021D02*
X210627732Y-126755420D01*
X210574956Y-126913398D01*
X210566000Y-127063128D01*
X210546012Y-127273463D01*
X210488931Y-127407163D01*
X210484824Y-127411898D01*
X210429513Y-127507204D01*
X210467505Y-127569490D01*
X210600184Y-127599786D01*
X210740864Y-127602745D01*
X210901900Y-127604288D01*
X211021125Y-127615010D01*
X211058391Y-127625352D01*
X211133976Y-127626365D01*
X211229237Y-127592530D01*
X211343396Y-127494700D01*
X211372591Y-127371616D01*
X211369698Y-127364015D01*
X211059491Y-127364015D01*
X211035950Y-127422268D01*
X210970072Y-127421164D01*
X210942478Y-127402646D01*
X210880491Y-127316251D01*
X210870800Y-127273179D01*
X210898437Y-127209537D01*
X210966478Y-127225242D01*
X211021354Y-127277174D01*
X211059491Y-127364015D01*
X211369698Y-127364015D01*
X211323334Y-127242238D01*
X211202137Y-127125521D01*
X211042458Y-127048772D01*
X210928544Y-126992859D01*
X210872121Y-126929249D01*
X210870800Y-126919860D01*
X210904417Y-126857557D01*
X210992707Y-126864921D01*
X211096410Y-126925415D01*
X211220175Y-126991919D01*
X211301659Y-126979759D01*
X211328000Y-126901280D01*
X211281639Y-126785985D01*
X211159258Y-126696562D01*
X210985909Y-126648554D01*
X210913926Y-126644400D01*
X210737176Y-126670021D01*
G36*
X214209378Y-126654498D02*
G01*
X214053601Y-126667829D01*
X213972233Y-126694492D01*
X213938096Y-126749464D01*
X213928126Y-126809500D01*
X213942223Y-126919183D01*
X214016932Y-126948982D01*
X214149305Y-126898272D01*
X214200242Y-126866990D01*
X214304627Y-126815242D01*
X214380043Y-126831644D01*
X214401655Y-126847811D01*
X214460358Y-126953309D01*
X214474747Y-127107676D01*
X214442893Y-127267444D01*
X214422288Y-127313231D01*
X214372753Y-127376449D01*
X214294777Y-127397436D01*
X214154356Y-127384678D01*
X214142888Y-127382978D01*
X214001125Y-127368255D01*
X213934301Y-127383263D01*
X213918800Y-127426900D01*
X213964107Y-127506768D01*
X214078092Y-127577007D01*
X214227857Y-127625949D01*
X214380499Y-127641927D01*
X214477600Y-127625065D01*
X214656724Y-127509674D01*
X214772775Y-127336406D01*
X214814741Y-127133204D01*
X214771610Y-126928010D01*
X214760971Y-126906077D01*
X214657451Y-126759100D01*
X214520398Y-126677978D01*
X214325162Y-126651469D01*
X214209378Y-126654498D01*
G37*
X214209378Y-126654498D02*
X214053601Y-126667829D01*
X213972233Y-126694492D01*
X213938096Y-126749464D01*
X213928126Y-126809500D01*
X213942223Y-126919183D01*
X214016932Y-126948982D01*
X214149305Y-126898272D01*
X214200242Y-126866990D01*
X214304627Y-126815242D01*
X214380043Y-126831644D01*
X214401655Y-126847811D01*
X214460358Y-126953309D01*
X214474747Y-127107676D01*
X214442893Y-127267444D01*
X214422288Y-127313231D01*
X214372753Y-127376449D01*
X214294777Y-127397436D01*
X214154356Y-127384678D01*
X214142888Y-127382978D01*
X214001125Y-127368255D01*
X213934301Y-127383263D01*
X213918800Y-127426900D01*
X213964107Y-127506768D01*
X214078092Y-127577007D01*
X214227857Y-127625949D01*
X214380499Y-127641927D01*
X214477600Y-127625065D01*
X214656724Y-127509674D01*
X214772775Y-127336406D01*
X214814741Y-127133204D01*
X214771610Y-126928010D01*
X214760971Y-126906077D01*
X214657451Y-126759100D01*
X214520398Y-126677978D01*
X214325162Y-126651469D01*
X214209378Y-126654498D01*
G36*
X189317433Y-122147598D02*
G01*
X189210027Y-122153112D01*
X189120794Y-122160901D01*
X189061662Y-122170153D01*
X189060667Y-122170398D01*
X189007578Y-122177931D01*
X188915874Y-122184225D01*
X188789262Y-122189153D01*
X188631444Y-122192587D01*
X188446125Y-122194399D01*
X188356875Y-122194649D01*
X187748333Y-122195167D01*
X187748333Y-122787834D01*
X188234234Y-122787834D01*
X188170349Y-122888375D01*
X188105032Y-123011532D01*
X188062914Y-123143415D01*
X188041298Y-123295040D01*
X188036933Y-123433417D01*
X188056092Y-123678566D01*
X188111186Y-123901769D01*
X188201639Y-124102145D01*
X188326873Y-124278814D01*
X188486310Y-124430895D01*
X188679374Y-124557508D01*
X188817250Y-124623480D01*
X188973869Y-124674907D01*
X189160736Y-124712247D01*
X189367835Y-124734487D01*
X189585150Y-124740614D01*
X189802666Y-124729616D01*
X189835110Y-124726382D01*
X189913776Y-124718836D01*
X189963551Y-124719020D01*
X189997619Y-124729992D01*
X190029163Y-124754810D01*
X190051264Y-124776520D01*
X190109433Y-124855989D01*
X190133933Y-124939561D01*
X190122764Y-125018001D01*
X190109144Y-125043945D01*
X190085308Y-125076159D01*
X190057281Y-125102284D01*
X190020470Y-125123091D01*
X189970281Y-125139351D01*
X189902123Y-125151838D01*
X189811400Y-125161321D01*
X189693521Y-125168574D01*
X189543892Y-125174368D01*
X189357920Y-125179476D01*
X189293500Y-125181009D01*
X189092764Y-125186150D01*
X188928550Y-125191862D01*
X188795048Y-125199007D01*
X188686448Y-125208450D01*
X188596940Y-125221053D01*
X188520715Y-125237680D01*
X188451961Y-125259195D01*
X188384869Y-125286460D01*
X188313628Y-125320338D01*
X188295870Y-125329245D01*
X188147427Y-125424905D01*
X188019162Y-125548562D01*
X187921060Y-125690272D01*
X187908114Y-125715415D01*
X187848201Y-125837873D01*
X187909392Y-125902701D01*
X187945570Y-125938530D01*
X188002658Y-125992197D01*
X188074486Y-126058194D01*
X188154887Y-126131013D01*
X188237693Y-126205144D01*
X188316734Y-126275080D01*
X188385843Y-126335312D01*
X188438850Y-126380330D01*
X188469588Y-126404627D01*
X188474473Y-126407334D01*
X188480467Y-126387973D01*
X188486889Y-126337047D01*
X188492410Y-126265283D01*
X188492710Y-126260079D01*
X188513772Y-126127208D01*
X188563242Y-126021106D01*
X188645734Y-125934823D01*
X188753039Y-125867849D01*
X188799412Y-125844668D01*
X188839278Y-125827921D01*
X188880606Y-125816561D01*
X188931365Y-125809543D01*
X188999526Y-125805821D01*
X189093057Y-125804350D01*
X189219929Y-125804084D01*
X189239053Y-125804084D01*
X189371068Y-125804308D01*
X189468312Y-125805609D01*
X189538345Y-125808929D01*
X189588730Y-125815208D01*
X189627027Y-125825389D01*
X189660798Y-125840412D01*
X189697517Y-125861167D01*
X189746932Y-125894649D01*
X189796945Y-125939044D01*
X189851678Y-125999321D01*
X189915253Y-126080447D01*
X189991791Y-126187393D01*
X190085414Y-126325127D01*
X190097909Y-126343834D01*
X190390415Y-126757534D01*
X190695566Y-127141198D01*
X191011557Y-127493266D01*
X191336580Y-127812180D01*
X191668831Y-128096378D01*
X192006504Y-128344302D01*
X192347791Y-128554392D01*
X192690889Y-128725089D01*
X192988188Y-128839915D01*
X193223033Y-128909064D01*
X193458012Y-128958424D01*
X193701900Y-128988925D01*
X193963470Y-129001496D01*
X194251498Y-128997069D01*
X194398002Y-128989412D01*
X194904978Y-128939665D01*
X195389892Y-128855076D01*
X195851926Y-128735845D01*
X196290264Y-128582171D01*
X196580125Y-128455374D01*
X196850000Y-128327007D01*
X196850000Y-127906920D01*
X196849529Y-127778775D01*
X196848215Y-127666398D01*
X196846206Y-127576150D01*
X196843653Y-127514392D01*
X196840704Y-127487485D01*
X196840154Y-127486834D01*
X196819282Y-127497538D01*
X196771044Y-127526358D01*
X196703578Y-127568350D01*
X196654946Y-127599294D01*
X196309458Y-127801320D01*
X195953807Y-127969839D01*
X195583898Y-128106056D01*
X195195635Y-128211175D01*
X194784924Y-128286399D01*
X194347667Y-128332935D01*
X194115731Y-128345904D01*
X193808076Y-128345662D01*
X193523117Y-128317432D01*
X193249981Y-128259011D01*
X192977793Y-128168200D01*
X192751438Y-128069811D01*
X192433413Y-127899489D01*
X192125607Y-127695212D01*
X191826105Y-127455306D01*
X191532992Y-127178100D01*
X191244353Y-126861921D01*
X190958272Y-126505097D01*
X190956373Y-126502584D01*
X190888497Y-126410710D01*
X190813573Y-126305965D01*
X190735459Y-126194115D01*
X190658014Y-126080927D01*
X190585096Y-125972168D01*
X190520562Y-125873605D01*
X190468270Y-125791005D01*
X190432079Y-125730134D01*
X190415846Y-125696760D01*
X190415333Y-125693836D01*
X190432960Y-125673555D01*
X190477624Y-125646072D01*
X190505292Y-125632673D01*
X190620438Y-125563928D01*
X190723582Y-125470688D01*
X190799990Y-125366402D01*
X190802904Y-125361027D01*
X190827587Y-125304606D01*
X190841863Y-125241453D01*
X190848112Y-125157834D01*
X190848996Y-125095000D01*
X190847019Y-124997276D01*
X190838614Y-124925398D01*
X190820565Y-124863003D01*
X190789853Y-124794128D01*
X190738228Y-124708948D01*
X190672477Y-124626402D01*
X190635417Y-124589516D01*
X190540378Y-124505859D01*
X190645026Y-124407973D01*
X190741724Y-124296400D01*
X190828929Y-124155641D01*
X190899354Y-123998786D01*
X190934228Y-123888500D01*
X190954936Y-123772702D01*
X190966337Y-123631053D01*
X190968422Y-123478735D01*
X190967333Y-123456508D01*
X190281942Y-123456508D01*
X190277510Y-123586948D01*
X190262503Y-123704713D01*
X190236896Y-123796438D01*
X190233180Y-123804909D01*
X190145180Y-123946311D01*
X190026638Y-124060771D01*
X189882673Y-124144159D01*
X189764545Y-124183020D01*
X189661119Y-124198104D01*
X189534894Y-124203042D01*
X189404093Y-124198131D01*
X189286942Y-124183670D01*
X189245040Y-124174522D01*
X189083053Y-124112027D01*
X188945656Y-124016684D01*
X188836456Y-123891459D01*
X188781293Y-123793250D01*
X188759310Y-123739680D01*
X188745013Y-123685996D01*
X188736841Y-123621004D01*
X188733234Y-123533511D01*
X188732583Y-123444000D01*
X188733413Y-123335394D01*
X188737146Y-123257658D01*
X188745648Y-123199342D01*
X188760787Y-123148993D01*
X188784429Y-123095163D01*
X188791980Y-123079628D01*
X188880688Y-122944556D01*
X188997808Y-122836531D01*
X189138024Y-122757015D01*
X189296025Y-122707467D01*
X189466495Y-122689348D01*
X189644121Y-122704118D01*
X189823590Y-122753237D01*
X189886151Y-122778947D01*
X190021942Y-122861641D01*
X190138712Y-122975602D01*
X190226263Y-123110691D01*
X190232011Y-123122782D01*
X190259170Y-123211061D01*
X190275821Y-123326758D01*
X190281942Y-123456508D01*
X190967333Y-123456508D01*
X190961178Y-123330925D01*
X190944593Y-123202805D01*
X190934771Y-123158250D01*
X190856759Y-122939672D01*
X190742869Y-122740849D01*
X190596455Y-122565863D01*
X190420868Y-122418794D01*
X190240963Y-122313815D01*
X190073712Y-122241697D01*
X189913069Y-122191634D01*
X189745964Y-122160906D01*
X189559328Y-122146791D01*
X189431083Y-122145171D01*
X189317433Y-122147598D01*
G37*
X189317433Y-122147598D02*
X189210027Y-122153112D01*
X189120794Y-122160901D01*
X189061662Y-122170153D01*
X189060667Y-122170398D01*
X189007578Y-122177931D01*
X188915874Y-122184225D01*
X188789262Y-122189153D01*
X188631444Y-122192587D01*
X188446125Y-122194399D01*
X188356875Y-122194649D01*
X187748333Y-122195167D01*
X187748333Y-122787834D01*
X188234234Y-122787834D01*
X188170349Y-122888375D01*
X188105032Y-123011532D01*
X188062914Y-123143415D01*
X188041298Y-123295040D01*
X188036933Y-123433417D01*
X188056092Y-123678566D01*
X188111186Y-123901769D01*
X188201639Y-124102145D01*
X188326873Y-124278814D01*
X188486310Y-124430895D01*
X188679374Y-124557508D01*
X188817250Y-124623480D01*
X188973869Y-124674907D01*
X189160736Y-124712247D01*
X189367835Y-124734487D01*
X189585150Y-124740614D01*
X189802666Y-124729616D01*
X189835110Y-124726382D01*
X189913776Y-124718836D01*
X189963551Y-124719020D01*
X189997619Y-124729992D01*
X190029163Y-124754810D01*
X190051264Y-124776520D01*
X190109433Y-124855989D01*
X190133933Y-124939561D01*
X190122764Y-125018001D01*
X190109144Y-125043945D01*
X190085308Y-125076159D01*
X190057281Y-125102284D01*
X190020470Y-125123091D01*
X189970281Y-125139351D01*
X189902123Y-125151838D01*
X189811400Y-125161321D01*
X189693521Y-125168574D01*
X189543892Y-125174368D01*
X189357920Y-125179476D01*
X189293500Y-125181009D01*
X189092764Y-125186150D01*
X188928550Y-125191862D01*
X188795048Y-125199007D01*
X188686448Y-125208450D01*
X188596940Y-125221053D01*
X188520715Y-125237680D01*
X188451961Y-125259195D01*
X188384869Y-125286460D01*
X188313628Y-125320338D01*
X188295870Y-125329245D01*
X188147427Y-125424905D01*
X188019162Y-125548562D01*
X187921060Y-125690272D01*
X187908114Y-125715415D01*
X187848201Y-125837873D01*
X187909392Y-125902701D01*
X187945570Y-125938530D01*
X188002658Y-125992197D01*
X188074486Y-126058194D01*
X188154887Y-126131013D01*
X188237693Y-126205144D01*
X188316734Y-126275080D01*
X188385843Y-126335312D01*
X188438850Y-126380330D01*
X188469588Y-126404627D01*
X188474473Y-126407334D01*
X188480467Y-126387973D01*
X188486889Y-126337047D01*
X188492410Y-126265283D01*
X188492710Y-126260079D01*
X188513772Y-126127208D01*
X188563242Y-126021106D01*
X188645734Y-125934823D01*
X188753039Y-125867849D01*
X188799412Y-125844668D01*
X188839278Y-125827921D01*
X188880606Y-125816561D01*
X188931365Y-125809543D01*
X188999526Y-125805821D01*
X189093057Y-125804350D01*
X189219929Y-125804084D01*
X189239053Y-125804084D01*
X189371068Y-125804308D01*
X189468312Y-125805609D01*
X189538345Y-125808929D01*
X189588730Y-125815208D01*
X189627027Y-125825389D01*
X189660798Y-125840412D01*
X189697517Y-125861167D01*
X189746932Y-125894649D01*
X189796945Y-125939044D01*
X189851678Y-125999321D01*
X189915253Y-126080447D01*
X189991791Y-126187393D01*
X190085414Y-126325127D01*
X190097909Y-126343834D01*
X190390415Y-126757534D01*
X190695566Y-127141198D01*
X191011557Y-127493266D01*
X191336580Y-127812180D01*
X191668831Y-128096378D01*
X192006504Y-128344302D01*
X192347791Y-128554392D01*
X192690889Y-128725089D01*
X192988188Y-128839915D01*
X193223033Y-128909064D01*
X193458012Y-128958424D01*
X193701900Y-128988925D01*
X193963470Y-129001496D01*
X194251498Y-128997069D01*
X194398002Y-128989412D01*
X194904978Y-128939665D01*
X195389892Y-128855076D01*
X195851926Y-128735845D01*
X196290264Y-128582171D01*
X196580125Y-128455374D01*
X196850000Y-128327007D01*
X196850000Y-127906920D01*
X196849529Y-127778775D01*
X196848215Y-127666398D01*
X196846206Y-127576150D01*
X196843653Y-127514392D01*
X196840704Y-127487485D01*
X196840154Y-127486834D01*
X196819282Y-127497538D01*
X196771044Y-127526358D01*
X196703578Y-127568350D01*
X196654946Y-127599294D01*
X196309458Y-127801320D01*
X195953807Y-127969839D01*
X195583898Y-128106056D01*
X195195635Y-128211175D01*
X194784924Y-128286399D01*
X194347667Y-128332935D01*
X194115731Y-128345904D01*
X193808076Y-128345662D01*
X193523117Y-128317432D01*
X193249981Y-128259011D01*
X192977793Y-128168200D01*
X192751438Y-128069811D01*
X192433413Y-127899489D01*
X192125607Y-127695212D01*
X191826105Y-127455306D01*
X191532992Y-127178100D01*
X191244353Y-126861921D01*
X190958272Y-126505097D01*
X190956373Y-126502584D01*
X190888497Y-126410710D01*
X190813573Y-126305965D01*
X190735459Y-126194115D01*
X190658014Y-126080927D01*
X190585096Y-125972168D01*
X190520562Y-125873605D01*
X190468270Y-125791005D01*
X190432079Y-125730134D01*
X190415846Y-125696760D01*
X190415333Y-125693836D01*
X190432960Y-125673555D01*
X190477624Y-125646072D01*
X190505292Y-125632673D01*
X190620438Y-125563928D01*
X190723582Y-125470688D01*
X190799990Y-125366402D01*
X190802904Y-125361027D01*
X190827587Y-125304606D01*
X190841863Y-125241453D01*
X190848112Y-125157834D01*
X190848996Y-125095000D01*
X190847019Y-124997276D01*
X190838614Y-124925398D01*
X190820565Y-124863003D01*
X190789853Y-124794128D01*
X190738228Y-124708948D01*
X190672477Y-124626402D01*
X190635417Y-124589516D01*
X190540378Y-124505859D01*
X190645026Y-124407973D01*
X190741724Y-124296400D01*
X190828929Y-124155641D01*
X190899354Y-123998786D01*
X190934228Y-123888500D01*
X190954936Y-123772702D01*
X190966337Y-123631053D01*
X190968422Y-123478735D01*
X190967333Y-123456508D01*
X190281942Y-123456508D01*
X190277510Y-123586948D01*
X190262503Y-123704713D01*
X190236896Y-123796438D01*
X190233180Y-123804909D01*
X190145180Y-123946311D01*
X190026638Y-124060771D01*
X189882673Y-124144159D01*
X189764545Y-124183020D01*
X189661119Y-124198104D01*
X189534894Y-124203042D01*
X189404093Y-124198131D01*
X189286942Y-124183670D01*
X189245040Y-124174522D01*
X189083053Y-124112027D01*
X188945656Y-124016684D01*
X188836456Y-123891459D01*
X188781293Y-123793250D01*
X188759310Y-123739680D01*
X188745013Y-123685996D01*
X188736841Y-123621004D01*
X188733234Y-123533511D01*
X188732583Y-123444000D01*
X188733413Y-123335394D01*
X188737146Y-123257658D01*
X188745648Y-123199342D01*
X188760787Y-123148993D01*
X188784429Y-123095163D01*
X188791980Y-123079628D01*
X188880688Y-122944556D01*
X188997808Y-122836531D01*
X189138024Y-122757015D01*
X189296025Y-122707467D01*
X189466495Y-122689348D01*
X189644121Y-122704118D01*
X189823590Y-122753237D01*
X189886151Y-122778947D01*
X190021942Y-122861641D01*
X190138712Y-122975602D01*
X190226263Y-123110691D01*
X190232011Y-123122782D01*
X190259170Y-123211061D01*
X190275821Y-123326758D01*
X190281942Y-123456508D01*
X190967333Y-123456508D01*
X190961178Y-123330925D01*
X190944593Y-123202805D01*
X190934771Y-123158250D01*
X190856759Y-122939672D01*
X190742869Y-122740849D01*
X190596455Y-122565863D01*
X190420868Y-122418794D01*
X190240963Y-122313815D01*
X190073712Y-122241697D01*
X189913069Y-122191634D01*
X189745964Y-122160906D01*
X189559328Y-122146791D01*
X189431083Y-122145171D01*
X189317433Y-122147598D01*
G36*
X203299902Y-126543113D02*
G01*
X203221167Y-126572247D01*
X203152504Y-126631229D01*
X203111748Y-126710686D01*
X203099273Y-126799736D01*
X203115454Y-126887496D01*
X203160663Y-126963084D01*
X203206445Y-127000933D01*
X203282674Y-127029506D01*
X203376972Y-127040925D01*
X203468072Y-127033688D01*
X203506917Y-127022140D01*
X203587501Y-126967487D01*
X203638205Y-126885655D01*
X203651230Y-126809548D01*
X203462336Y-126809548D01*
X203453321Y-126831935D01*
X203415978Y-126863555D01*
X203364174Y-126867893D01*
X203315191Y-126845675D01*
X203297493Y-126825375D01*
X203287291Y-126776881D01*
X203311954Y-126734613D01*
X203364273Y-126709470D01*
X203375336Y-126707690D01*
X203429081Y-126718057D01*
X203460615Y-126756046D01*
X203462336Y-126809548D01*
X203651230Y-126809548D01*
X203655083Y-126787035D01*
X203650391Y-126716283D01*
X203630811Y-126666368D01*
X203588086Y-126616317D01*
X203587747Y-126615978D01*
X203505373Y-126561485D01*
X203404890Y-126536655D01*
X203299902Y-126543113D01*
G37*
X203299902Y-126543113D02*
X203221167Y-126572247D01*
X203152504Y-126631229D01*
X203111748Y-126710686D01*
X203099273Y-126799736D01*
X203115454Y-126887496D01*
X203160663Y-126963084D01*
X203206445Y-127000933D01*
X203282674Y-127029506D01*
X203376972Y-127040925D01*
X203468072Y-127033688D01*
X203506917Y-127022140D01*
X203587501Y-126967487D01*
X203638205Y-126885655D01*
X203651230Y-126809548D01*
X203462336Y-126809548D01*
X203453321Y-126831935D01*
X203415978Y-126863555D01*
X203364174Y-126867893D01*
X203315191Y-126845675D01*
X203297493Y-126825375D01*
X203287291Y-126776881D01*
X203311954Y-126734613D01*
X203364273Y-126709470D01*
X203375336Y-126707690D01*
X203429081Y-126718057D01*
X203460615Y-126756046D01*
X203462336Y-126809548D01*
X203651230Y-126809548D01*
X203655083Y-126787035D01*
X203650391Y-126716283D01*
X203630811Y-126666368D01*
X203588086Y-126616317D01*
X203587747Y-126615978D01*
X203505373Y-126561485D01*
X203404890Y-126536655D01*
X203299902Y-126543113D01*
G36*
X202522667Y-127021167D02*
G01*
X202593645Y-127021167D01*
X202655250Y-127023292D01*
X202736715Y-127028745D01*
X202789437Y-127033382D01*
X202871188Y-127037666D01*
X202925519Y-127029762D01*
X202961996Y-127010931D01*
X203028975Y-126938029D01*
X203064905Y-126845931D01*
X203065623Y-126818566D01*
X202874166Y-126818566D01*
X202873554Y-126821096D01*
X202857297Y-126858736D01*
X202825067Y-126870522D01*
X202791816Y-126868995D01*
X202745945Y-126860288D01*
X202727231Y-126837007D01*
X202723750Y-126788334D01*
X202728270Y-126737325D01*
X202748013Y-126714593D01*
X202778479Y-126707888D01*
X202837793Y-126717541D01*
X202871995Y-126757180D01*
X202874166Y-126818566D01*
X203065623Y-126818566D01*
X203067517Y-126746488D01*
X203034541Y-126651549D01*
X203031720Y-126646809D01*
X202973511Y-126576440D01*
X202902166Y-126542226D01*
X202808045Y-126539613D01*
X202805317Y-126539913D01*
X202713167Y-126550300D01*
X202713167Y-126259167D01*
X202522667Y-126259167D01*
X202522667Y-127021167D01*
G37*
X202522667Y-127021167D02*
X202593645Y-127021167D01*
X202655250Y-127023292D01*
X202736715Y-127028745D01*
X202789437Y-127033382D01*
X202871188Y-127037666D01*
X202925519Y-127029762D01*
X202961996Y-127010931D01*
X203028975Y-126938029D01*
X203064905Y-126845931D01*
X203065623Y-126818566D01*
X202874166Y-126818566D01*
X202873554Y-126821096D01*
X202857297Y-126858736D01*
X202825067Y-126870522D01*
X202791816Y-126868995D01*
X202745945Y-126860288D01*
X202727231Y-126837007D01*
X202723750Y-126788334D01*
X202728270Y-126737325D01*
X202748013Y-126714593D01*
X202778479Y-126707888D01*
X202837793Y-126717541D01*
X202871995Y-126757180D01*
X202874166Y-126818566D01*
X203065623Y-126818566D01*
X203067517Y-126746488D01*
X203034541Y-126651549D01*
X203031720Y-126646809D01*
X202973511Y-126576440D01*
X202902166Y-126542226D01*
X202808045Y-126539613D01*
X202805317Y-126539913D01*
X202713167Y-126550300D01*
X202713167Y-126259167D01*
X202522667Y-126259167D01*
X202522667Y-127021167D01*
G36*
X202125434Y-126541979D02*
G01*
X202087582Y-126565214D01*
X202046883Y-126603718D01*
X201996869Y-126662896D01*
X201975197Y-126717733D01*
X201972333Y-126754467D01*
X201972333Y-126830667D01*
X202131083Y-126830667D01*
X202220740Y-126833147D01*
X202271546Y-126841712D01*
X202286754Y-126858047D01*
X202269619Y-126883838D01*
X202256365Y-126895593D01*
X202219848Y-126912485D01*
X202182569Y-126898185D01*
X202140743Y-126883050D01*
X202084251Y-126874886D01*
X202027699Y-126874054D01*
X201985693Y-126880916D01*
X201972333Y-126892987D01*
X201985026Y-126921090D01*
X202016133Y-126963767D01*
X202021664Y-126970323D01*
X202061270Y-127006523D01*
X202110500Y-127025888D01*
X202185604Y-127034807D01*
X202185705Y-127034814D01*
X202259364Y-127035423D01*
X202321531Y-127029133D01*
X202345118Y-127022741D01*
X202416083Y-126971200D01*
X202462359Y-126895049D01*
X202481877Y-126805462D01*
X202472569Y-126713610D01*
X202462609Y-126693060D01*
X202280767Y-126693060D01*
X202275713Y-126699881D01*
X202232804Y-126702124D01*
X202227392Y-126702234D01*
X202181089Y-126699978D01*
X202171432Y-126688928D01*
X202179076Y-126678957D01*
X202211808Y-126664965D01*
X202252101Y-126677525D01*
X202280767Y-126693060D01*
X202462609Y-126693060D01*
X202432367Y-126630669D01*
X202420389Y-126616079D01*
X202377029Y-126575027D01*
X202329728Y-126552436D01*
X202261273Y-126540920D01*
X202240938Y-126539079D01*
X202170797Y-126535185D01*
X202125434Y-126541979D01*
G37*
X202125434Y-126541979D02*
X202087582Y-126565214D01*
X202046883Y-126603718D01*
X201996869Y-126662896D01*
X201975197Y-126717733D01*
X201972333Y-126754467D01*
X201972333Y-126830667D01*
X202131083Y-126830667D01*
X202220740Y-126833147D01*
X202271546Y-126841712D01*
X202286754Y-126858047D01*
X202269619Y-126883838D01*
X202256365Y-126895593D01*
X202219848Y-126912485D01*
X202182569Y-126898185D01*
X202140743Y-126883050D01*
X202084251Y-126874886D01*
X202027699Y-126874054D01*
X201985693Y-126880916D01*
X201972333Y-126892987D01*
X201985026Y-126921090D01*
X202016133Y-126963767D01*
X202021664Y-126970323D01*
X202061270Y-127006523D01*
X202110500Y-127025888D01*
X202185604Y-127034807D01*
X202185705Y-127034814D01*
X202259364Y-127035423D01*
X202321531Y-127029133D01*
X202345118Y-127022741D01*
X202416083Y-126971200D01*
X202462359Y-126895049D01*
X202481877Y-126805462D01*
X202472569Y-126713610D01*
X202462609Y-126693060D01*
X202280767Y-126693060D01*
X202275713Y-126699881D01*
X202232804Y-126702124D01*
X202227392Y-126702234D01*
X202181089Y-126699978D01*
X202171432Y-126688928D01*
X202179076Y-126678957D01*
X202211808Y-126664965D01*
X202252101Y-126677525D01*
X202280767Y-126693060D01*
X202462609Y-126693060D01*
X202432367Y-126630669D01*
X202420389Y-126616079D01*
X202377029Y-126575027D01*
X202329728Y-126552436D01*
X202261273Y-126540920D01*
X202240938Y-126539079D01*
X202170797Y-126535185D01*
X202125434Y-126541979D01*
G36*
X199927020Y-126535856D02*
G01*
X199890256Y-126549133D01*
X199861803Y-126556906D01*
X199807456Y-126559144D01*
X199780895Y-126558118D01*
X199686333Y-126552303D01*
X199686333Y-127024364D01*
X199780895Y-127018549D01*
X199841264Y-127018073D01*
X199882534Y-127023691D01*
X199890256Y-127027534D01*
X199919237Y-127037023D01*
X199972661Y-127042078D01*
X199988311Y-127042334D01*
X200051435Y-127034725D01*
X200104294Y-127005923D01*
X200143533Y-126970367D01*
X200189992Y-126916607D01*
X200210913Y-126865584D01*
X200214957Y-126809548D01*
X200033336Y-126809548D01*
X200024321Y-126831935D01*
X199986978Y-126863555D01*
X199935174Y-126867893D01*
X199886191Y-126845675D01*
X199868493Y-126825375D01*
X199858291Y-126776881D01*
X199882954Y-126734613D01*
X199935273Y-126709470D01*
X199946336Y-126707690D01*
X200000081Y-126718057D01*
X200031615Y-126756046D01*
X200033336Y-126809548D01*
X200214957Y-126809548D01*
X200215500Y-126802029D01*
X200204918Y-126697494D01*
X200170834Y-126622555D01*
X200109889Y-126569582D01*
X200053770Y-126547467D01*
X199987226Y-126535705D01*
X199927020Y-126535856D01*
G37*
X199927020Y-126535856D02*
X199890256Y-126549133D01*
X199861803Y-126556906D01*
X199807456Y-126559144D01*
X199780895Y-126558118D01*
X199686333Y-126552303D01*
X199686333Y-127024364D01*
X199780895Y-127018549D01*
X199841264Y-127018073D01*
X199882534Y-127023691D01*
X199890256Y-127027534D01*
X199919237Y-127037023D01*
X199972661Y-127042078D01*
X199988311Y-127042334D01*
X200051435Y-127034725D01*
X200104294Y-127005923D01*
X200143533Y-126970367D01*
X200189992Y-126916607D01*
X200210913Y-126865584D01*
X200214957Y-126809548D01*
X200033336Y-126809548D01*
X200024321Y-126831935D01*
X199986978Y-126863555D01*
X199935174Y-126867893D01*
X199886191Y-126845675D01*
X199868493Y-126825375D01*
X199858291Y-126776881D01*
X199882954Y-126734613D01*
X199935273Y-126709470D01*
X199946336Y-126707690D01*
X200000081Y-126718057D01*
X200031615Y-126756046D01*
X200033336Y-126809548D01*
X200214957Y-126809548D01*
X200215500Y-126802029D01*
X200204918Y-126697494D01*
X200170834Y-126622555D01*
X200109889Y-126569582D01*
X200053770Y-126547467D01*
X199987226Y-126535705D01*
X199927020Y-126535856D01*
G36*
X199299126Y-126540035D02*
G01*
X199259310Y-126561968D01*
X199243476Y-126607373D01*
X199241833Y-126642431D01*
X199246862Y-126702370D01*
X199263368Y-126723112D01*
X199293483Y-126706745D01*
X199300526Y-126700008D01*
X199340529Y-126684109D01*
X199384004Y-126699293D01*
X199418689Y-126737340D01*
X199432333Y-126788334D01*
X199415246Y-126848243D01*
X199371695Y-126882710D01*
X199313243Y-126884891D01*
X199286844Y-126874433D01*
X199257981Y-126862358D01*
X199245146Y-126873532D01*
X199241901Y-126916404D01*
X199241833Y-126933491D01*
X199247182Y-126990412D01*
X199268945Y-127023432D01*
X199315700Y-127038691D01*
X199393848Y-127042334D01*
X199457467Y-127035107D01*
X199509786Y-127007405D01*
X199550867Y-126970367D01*
X199598210Y-126914846D01*
X199619078Y-126862036D01*
X199622833Y-126810566D01*
X199605765Y-126702443D01*
X199557768Y-126616917D01*
X199483654Y-126559278D01*
X199388233Y-126534815D01*
X199371616Y-126534334D01*
X199299126Y-126540035D01*
G37*
X199299126Y-126540035D02*
X199259310Y-126561968D01*
X199243476Y-126607373D01*
X199241833Y-126642431D01*
X199246862Y-126702370D01*
X199263368Y-126723112D01*
X199293483Y-126706745D01*
X199300526Y-126700008D01*
X199340529Y-126684109D01*
X199384004Y-126699293D01*
X199418689Y-126737340D01*
X199432333Y-126788334D01*
X199415246Y-126848243D01*
X199371695Y-126882710D01*
X199313243Y-126884891D01*
X199286844Y-126874433D01*
X199257981Y-126862358D01*
X199245146Y-126873532D01*
X199241901Y-126916404D01*
X199241833Y-126933491D01*
X199247182Y-126990412D01*
X199268945Y-127023432D01*
X199315700Y-127038691D01*
X199393848Y-127042334D01*
X199457467Y-127035107D01*
X199509786Y-127007405D01*
X199550867Y-126970367D01*
X199598210Y-126914846D01*
X199619078Y-126862036D01*
X199622833Y-126810566D01*
X199605765Y-126702443D01*
X199557768Y-126616917D01*
X199483654Y-126559278D01*
X199388233Y-126534815D01*
X199371616Y-126534334D01*
X199299126Y-126540035D01*
G36*
X198516572Y-126569738D02*
G01*
X198451920Y-126615978D01*
X198409346Y-126665564D01*
X198389591Y-126714742D01*
X198384591Y-126784152D01*
X198384583Y-126788334D01*
X198389065Y-126859170D01*
X198407923Y-126908835D01*
X198449274Y-126958028D01*
X198452358Y-126961127D01*
X198499721Y-127002006D01*
X198548496Y-127024159D01*
X198616475Y-127034629D01*
X198642858Y-127036518D01*
X198724897Y-127037464D01*
X198783497Y-127025591D01*
X198834095Y-126999000D01*
X198899294Y-126933424D01*
X198934026Y-126850044D01*
X198937208Y-126788334D01*
X198755000Y-126788334D01*
X198737867Y-126836909D01*
X198696414Y-126865868D01*
X198645559Y-126871480D01*
X198600221Y-126850017D01*
X198585667Y-126830667D01*
X198574590Y-126776540D01*
X198585667Y-126746000D01*
X198623707Y-126711218D01*
X198673938Y-126705180D01*
X198721441Y-126724157D01*
X198751297Y-126764419D01*
X198755000Y-126788334D01*
X198937208Y-126788334D01*
X198938688Y-126759653D01*
X198913674Y-126673046D01*
X198859377Y-126601018D01*
X198818500Y-126572247D01*
X198719799Y-126539355D01*
X198614621Y-126539060D01*
X198516572Y-126569738D01*
G37*
X198516572Y-126569738D02*
X198451920Y-126615978D01*
X198409346Y-126665564D01*
X198389591Y-126714742D01*
X198384591Y-126784152D01*
X198384583Y-126788334D01*
X198389065Y-126859170D01*
X198407923Y-126908835D01*
X198449274Y-126958028D01*
X198452358Y-126961127D01*
X198499721Y-127002006D01*
X198548496Y-127024159D01*
X198616475Y-127034629D01*
X198642858Y-127036518D01*
X198724897Y-127037464D01*
X198783497Y-127025591D01*
X198834095Y-126999000D01*
X198899294Y-126933424D01*
X198934026Y-126850044D01*
X198937208Y-126788334D01*
X198755000Y-126788334D01*
X198737867Y-126836909D01*
X198696414Y-126865868D01*
X198645559Y-126871480D01*
X198600221Y-126850017D01*
X198585667Y-126830667D01*
X198574590Y-126776540D01*
X198585667Y-126746000D01*
X198623707Y-126711218D01*
X198673938Y-126705180D01*
X198721441Y-126724157D01*
X198751297Y-126764419D01*
X198755000Y-126788334D01*
X198937208Y-126788334D01*
X198938688Y-126759653D01*
X198913674Y-126673046D01*
X198859377Y-126601018D01*
X198818500Y-126572247D01*
X198719799Y-126539355D01*
X198614621Y-126539060D01*
X198516572Y-126569738D01*
G36*
X196726520Y-126542532D02*
G01*
X196688121Y-126566908D01*
X196649383Y-126603718D01*
X196599369Y-126662896D01*
X196577697Y-126717733D01*
X196574833Y-126754467D01*
X196574833Y-126830667D01*
X196733583Y-126830667D01*
X196823240Y-126833147D01*
X196874046Y-126841712D01*
X196889254Y-126858047D01*
X196872119Y-126883838D01*
X196858865Y-126895593D01*
X196822348Y-126912485D01*
X196785069Y-126898185D01*
X196743243Y-126883050D01*
X196686751Y-126874886D01*
X196630199Y-126874054D01*
X196588193Y-126880916D01*
X196574833Y-126892987D01*
X196587526Y-126921090D01*
X196618633Y-126963767D01*
X196624164Y-126970323D01*
X196663770Y-127006523D01*
X196713000Y-127025888D01*
X196788104Y-127034807D01*
X196788205Y-127034814D01*
X196861268Y-127035563D01*
X196922276Y-127029647D01*
X196945250Y-127023476D01*
X197014809Y-126977525D01*
X197055776Y-126909464D01*
X197071738Y-126812604D01*
X197072250Y-126786592D01*
X197062116Y-126693060D01*
X196883267Y-126693060D01*
X196878213Y-126699881D01*
X196835304Y-126702124D01*
X196829892Y-126702234D01*
X196783589Y-126699978D01*
X196773932Y-126688928D01*
X196781576Y-126678957D01*
X196814308Y-126664965D01*
X196854601Y-126677525D01*
X196883267Y-126693060D01*
X197062116Y-126693060D01*
X197060899Y-126681828D01*
X197024100Y-126608826D01*
X196957741Y-126563174D01*
X196857705Y-126540459D01*
X196841257Y-126538898D01*
X196771690Y-126535180D01*
X196726520Y-126542532D01*
G37*
X196726520Y-126542532D02*
X196688121Y-126566908D01*
X196649383Y-126603718D01*
X196599369Y-126662896D01*
X196577697Y-126717733D01*
X196574833Y-126754467D01*
X196574833Y-126830667D01*
X196733583Y-126830667D01*
X196823240Y-126833147D01*
X196874046Y-126841712D01*
X196889254Y-126858047D01*
X196872119Y-126883838D01*
X196858865Y-126895593D01*
X196822348Y-126912485D01*
X196785069Y-126898185D01*
X196743243Y-126883050D01*
X196686751Y-126874886D01*
X196630199Y-126874054D01*
X196588193Y-126880916D01*
X196574833Y-126892987D01*
X196587526Y-126921090D01*
X196618633Y-126963767D01*
X196624164Y-126970323D01*
X196663770Y-127006523D01*
X196713000Y-127025888D01*
X196788104Y-127034807D01*
X196788205Y-127034814D01*
X196861268Y-127035563D01*
X196922276Y-127029647D01*
X196945250Y-127023476D01*
X197014809Y-126977525D01*
X197055776Y-126909464D01*
X197071738Y-126812604D01*
X197072250Y-126786592D01*
X197062116Y-126693060D01*
X196883267Y-126693060D01*
X196878213Y-126699881D01*
X196835304Y-126702124D01*
X196829892Y-126702234D01*
X196783589Y-126699978D01*
X196773932Y-126688928D01*
X196781576Y-126678957D01*
X196814308Y-126664965D01*
X196854601Y-126677525D01*
X196883267Y-126693060D01*
X197062116Y-126693060D01*
X197060899Y-126681828D01*
X197024100Y-126608826D01*
X196957741Y-126563174D01*
X196857705Y-126540459D01*
X196841257Y-126538898D01*
X196771690Y-126535180D01*
X196726520Y-126542532D01*
G36*
X196229937Y-126540050D02*
G01*
X196190108Y-126561997D01*
X196174287Y-126607369D01*
X196172667Y-126641978D01*
X196174338Y-126694145D01*
X196184726Y-126712589D01*
X196211893Y-126705913D01*
X196226481Y-126699407D01*
X196270836Y-126686431D01*
X196306064Y-126702030D01*
X196324509Y-126719101D01*
X196356097Y-126772619D01*
X196354251Y-126825070D01*
X196326165Y-126866405D01*
X196279030Y-126886579D01*
X196220041Y-126875544D01*
X196214513Y-126872739D01*
X196187171Y-126860992D01*
X196175471Y-126870693D01*
X196174695Y-126910273D01*
X196176671Y-126940358D01*
X196183250Y-127031750D01*
X196278500Y-127036722D01*
X196356374Y-127032246D01*
X196423037Y-127014025D01*
X196431692Y-127009727D01*
X196501955Y-126950505D01*
X196540847Y-126874259D01*
X196550701Y-126789576D01*
X196533853Y-126705045D01*
X196492638Y-126629253D01*
X196429390Y-126570788D01*
X196346444Y-126538239D01*
X196302449Y-126534334D01*
X196229937Y-126540050D01*
G37*
X196229937Y-126540050D02*
X196190108Y-126561997D01*
X196174287Y-126607369D01*
X196172667Y-126641978D01*
X196174338Y-126694145D01*
X196184726Y-126712589D01*
X196211893Y-126705913D01*
X196226481Y-126699407D01*
X196270836Y-126686431D01*
X196306064Y-126702030D01*
X196324509Y-126719101D01*
X196356097Y-126772619D01*
X196354251Y-126825070D01*
X196326165Y-126866405D01*
X196279030Y-126886579D01*
X196220041Y-126875544D01*
X196214513Y-126872739D01*
X196187171Y-126860992D01*
X196175471Y-126870693D01*
X196174695Y-126910273D01*
X196176671Y-126940358D01*
X196183250Y-127031750D01*
X196278500Y-127036722D01*
X196356374Y-127032246D01*
X196423037Y-127014025D01*
X196431692Y-127009727D01*
X196501955Y-126950505D01*
X196540847Y-126874259D01*
X196550701Y-126789576D01*
X196533853Y-126705045D01*
X196492638Y-126629253D01*
X196429390Y-126570788D01*
X196346444Y-126538239D01*
X196302449Y-126534334D01*
X196229937Y-126540050D01*
G36*
X195188248Y-126545014D02*
G01*
X195125292Y-126567324D01*
X195051753Y-126622749D01*
X195006413Y-126699119D01*
X194989542Y-126786212D01*
X195001407Y-126873803D01*
X195042279Y-126951671D01*
X195112425Y-127009592D01*
X195113641Y-127010225D01*
X195186244Y-127032444D01*
X195276748Y-127040321D01*
X195362898Y-127032931D01*
X195400083Y-127022140D01*
X195480325Y-126967837D01*
X195529802Y-126886228D01*
X195542185Y-126809548D01*
X195355503Y-126809548D01*
X195346488Y-126831935D01*
X195309144Y-126863555D01*
X195257341Y-126867893D01*
X195208358Y-126845675D01*
X195190660Y-126825375D01*
X195180457Y-126776881D01*
X195205120Y-126734613D01*
X195257440Y-126709470D01*
X195268503Y-126707690D01*
X195322248Y-126718057D01*
X195353782Y-126756046D01*
X195355503Y-126809548D01*
X195542185Y-126809548D01*
X195545808Y-126787114D01*
X195541425Y-126715825D01*
X195523155Y-126666293D01*
X195483318Y-126618399D01*
X195480204Y-126615268D01*
X195396818Y-126560049D01*
X195295416Y-126536079D01*
X195188248Y-126545014D01*
G37*
X195188248Y-126545014D02*
X195125292Y-126567324D01*
X195051753Y-126622749D01*
X195006413Y-126699119D01*
X194989542Y-126786212D01*
X195001407Y-126873803D01*
X195042279Y-126951671D01*
X195112425Y-127009592D01*
X195113641Y-127010225D01*
X195186244Y-127032444D01*
X195276748Y-127040321D01*
X195362898Y-127032931D01*
X195400083Y-127022140D01*
X195480325Y-126967837D01*
X195529802Y-126886228D01*
X195542185Y-126809548D01*
X195355503Y-126809548D01*
X195346488Y-126831935D01*
X195309144Y-126863555D01*
X195257341Y-126867893D01*
X195208358Y-126845675D01*
X195190660Y-126825375D01*
X195180457Y-126776881D01*
X195205120Y-126734613D01*
X195257440Y-126709470D01*
X195268503Y-126707690D01*
X195322248Y-126718057D01*
X195353782Y-126756046D01*
X195355503Y-126809548D01*
X195542185Y-126809548D01*
X195545808Y-126787114D01*
X195541425Y-126715825D01*
X195523155Y-126666293D01*
X195483318Y-126618399D01*
X195480204Y-126615268D01*
X195396818Y-126560049D01*
X195295416Y-126536079D01*
X195188248Y-126545014D01*
G36*
X194283238Y-126569738D02*
G01*
X194218587Y-126615978D01*
X194176013Y-126665564D01*
X194156258Y-126714742D01*
X194151258Y-126784152D01*
X194151250Y-126788334D01*
X194155732Y-126859170D01*
X194174589Y-126908835D01*
X194215941Y-126958028D01*
X194219025Y-126961127D01*
X194266388Y-127002006D01*
X194315163Y-127024159D01*
X194383142Y-127034629D01*
X194409525Y-127036518D01*
X194491564Y-127037464D01*
X194550164Y-127025591D01*
X194600762Y-126999000D01*
X194665960Y-126933424D01*
X194700693Y-126850044D01*
X194703875Y-126788334D01*
X194521667Y-126788334D01*
X194504534Y-126836909D01*
X194463080Y-126865868D01*
X194412225Y-126871480D01*
X194366888Y-126850017D01*
X194352333Y-126830667D01*
X194341257Y-126776540D01*
X194352333Y-126746000D01*
X194390374Y-126711218D01*
X194440605Y-126705180D01*
X194488108Y-126724157D01*
X194517964Y-126764419D01*
X194521667Y-126788334D01*
X194703875Y-126788334D01*
X194705355Y-126759653D01*
X194680340Y-126673046D01*
X194626043Y-126601018D01*
X194585167Y-126572247D01*
X194486465Y-126539355D01*
X194381287Y-126539060D01*
X194283238Y-126569738D01*
G37*
X194283238Y-126569738D02*
X194218587Y-126615978D01*
X194176013Y-126665564D01*
X194156258Y-126714742D01*
X194151258Y-126784152D01*
X194151250Y-126788334D01*
X194155732Y-126859170D01*
X194174589Y-126908835D01*
X194215941Y-126958028D01*
X194219025Y-126961127D01*
X194266388Y-127002006D01*
X194315163Y-127024159D01*
X194383142Y-127034629D01*
X194409525Y-127036518D01*
X194491564Y-127037464D01*
X194550164Y-127025591D01*
X194600762Y-126999000D01*
X194665960Y-126933424D01*
X194700693Y-126850044D01*
X194703875Y-126788334D01*
X194521667Y-126788334D01*
X194504534Y-126836909D01*
X194463080Y-126865868D01*
X194412225Y-126871480D01*
X194366888Y-126850017D01*
X194352333Y-126830667D01*
X194341257Y-126776540D01*
X194352333Y-126746000D01*
X194390374Y-126711218D01*
X194440605Y-126705180D01*
X194488108Y-126724157D01*
X194517964Y-126764419D01*
X194521667Y-126788334D01*
X194703875Y-126788334D01*
X194705355Y-126759653D01*
X194680340Y-126673046D01*
X194626043Y-126601018D01*
X194585167Y-126572247D01*
X194486465Y-126539355D01*
X194381287Y-126539060D01*
X194283238Y-126569738D01*
G36*
X192874736Y-126634978D02*
G01*
X192871926Y-126690736D01*
X192878496Y-126712860D01*
X192900583Y-126709924D01*
X192921735Y-126700658D01*
X192981214Y-126690997D01*
X193027023Y-126720847D01*
X193051672Y-126770595D01*
X193050094Y-126822614D01*
X193019291Y-126864305D01*
X192972084Y-126887732D01*
X192921298Y-126884960D01*
X192894731Y-126867709D01*
X192878802Y-126859048D01*
X192872697Y-126879697D01*
X192874582Y-126935918D01*
X192874622Y-126936500D01*
X192881250Y-127031750D01*
X192976500Y-127037770D01*
X193072612Y-127030506D01*
X193124667Y-127006991D01*
X193201796Y-126934225D01*
X193238670Y-126849577D01*
X193236478Y-126749797D01*
X193229509Y-126720442D01*
X193187559Y-126630026D01*
X193119897Y-126572740D01*
X193024847Y-126547352D01*
X192991587Y-126545778D01*
X192881250Y-126544917D01*
X192874736Y-126634978D01*
G37*
X192874736Y-126634978D02*
X192871926Y-126690736D01*
X192878496Y-126712860D01*
X192900583Y-126709924D01*
X192921735Y-126700658D01*
X192981214Y-126690997D01*
X193027023Y-126720847D01*
X193051672Y-126770595D01*
X193050094Y-126822614D01*
X193019291Y-126864305D01*
X192972084Y-126887732D01*
X192921298Y-126884960D01*
X192894731Y-126867709D01*
X192878802Y-126859048D01*
X192872697Y-126879697D01*
X192874582Y-126935918D01*
X192874622Y-126936500D01*
X192881250Y-127031750D01*
X192976500Y-127037770D01*
X193072612Y-127030506D01*
X193124667Y-127006991D01*
X193201796Y-126934225D01*
X193238670Y-126849577D01*
X193236478Y-126749797D01*
X193229509Y-126720442D01*
X193187559Y-126630026D01*
X193119897Y-126572740D01*
X193024847Y-126547352D01*
X192991587Y-126545778D01*
X192881250Y-126544917D01*
X192874736Y-126634978D01*
G36*
X192548170Y-126542828D02*
G01*
X192482838Y-126550880D01*
X192403300Y-126554777D01*
X192378542Y-126554811D01*
X192278000Y-126553407D01*
X192278000Y-127023260D01*
X192378542Y-127022543D01*
X192461868Y-127024488D01*
X192544806Y-127030213D01*
X192563750Y-127032289D01*
X192638305Y-127032108D01*
X192696224Y-127015242D01*
X192768847Y-126950755D01*
X192808054Y-126860768D01*
X192815260Y-126789527D01*
X192815067Y-126788334D01*
X192637833Y-126788334D01*
X192620407Y-126836764D01*
X192577905Y-126866090D01*
X192524990Y-126871799D01*
X192476325Y-126849375D01*
X192467980Y-126840623D01*
X192451906Y-126803546D01*
X192464934Y-126755957D01*
X192501235Y-126715816D01*
X192550437Y-126704089D01*
X192598479Y-126718141D01*
X192631297Y-126755340D01*
X192637833Y-126788334D01*
X192815067Y-126788334D01*
X192798613Y-126686736D01*
X192752515Y-126607119D01*
X192682571Y-126555850D01*
X192594383Y-126538105D01*
X192548170Y-126542828D01*
G37*
X192548170Y-126542828D02*
X192482838Y-126550880D01*
X192403300Y-126554777D01*
X192378542Y-126554811D01*
X192278000Y-126553407D01*
X192278000Y-127023260D01*
X192378542Y-127022543D01*
X192461868Y-127024488D01*
X192544806Y-127030213D01*
X192563750Y-127032289D01*
X192638305Y-127032108D01*
X192696224Y-127015242D01*
X192768847Y-126950755D01*
X192808054Y-126860768D01*
X192815260Y-126789527D01*
X192815067Y-126788334D01*
X192637833Y-126788334D01*
X192620407Y-126836764D01*
X192577905Y-126866090D01*
X192524990Y-126871799D01*
X192476325Y-126849375D01*
X192467980Y-126840623D01*
X192451906Y-126803546D01*
X192464934Y-126755957D01*
X192501235Y-126715816D01*
X192550437Y-126704089D01*
X192598479Y-126718141D01*
X192631297Y-126755340D01*
X192637833Y-126788334D01*
X192815067Y-126788334D01*
X192798613Y-126686736D01*
X192752515Y-126607119D01*
X192682571Y-126555850D01*
X192594383Y-126538105D01*
X192548170Y-126542828D01*
G36*
X204158570Y-126496012D02*
G01*
X204095631Y-126669356D01*
X204031769Y-126501303D01*
X203967906Y-126333250D01*
X203869703Y-126326799D01*
X203811839Y-126326284D01*
X203776244Y-126332288D01*
X203770904Y-126337382D01*
X203767780Y-126363168D01*
X203759540Y-126423322D01*
X203747241Y-126510330D01*
X203731941Y-126616680D01*
X203721592Y-126687792D01*
X203672877Y-127021167D01*
X203871501Y-127021167D01*
X203909083Y-126671917D01*
X203980254Y-126846542D01*
X204016816Y-126932175D01*
X204044633Y-126984972D01*
X204068629Y-127012161D01*
X204093727Y-127020973D01*
X204099160Y-127021167D01*
X204125972Y-127014934D01*
X204149623Y-126991103D01*
X204175372Y-126941978D01*
X204207327Y-126862886D01*
X204237408Y-126791156D01*
X204262652Y-126744061D01*
X204279246Y-126728369D01*
X204281861Y-126730594D01*
X204291572Y-126764330D01*
X204302590Y-126825808D01*
X204310977Y-126888875D01*
X204325990Y-127021167D01*
X204419162Y-127021167D01*
X204480962Y-127016913D01*
X204508764Y-127002396D01*
X204512333Y-126989067D01*
X204509110Y-126956622D01*
X204500442Y-126892153D01*
X204487834Y-126805393D01*
X204472791Y-126706076D01*
X204456817Y-126603936D01*
X204441417Y-126508707D01*
X204428095Y-126430123D01*
X204418356Y-126377919D01*
X204416694Y-126370292D01*
X204403090Y-126339889D01*
X204372587Y-126325965D01*
X204313602Y-126322667D01*
X204221510Y-126322667D01*
X204158570Y-126496012D01*
G37*
X204158570Y-126496012D02*
X204095631Y-126669356D01*
X204031769Y-126501303D01*
X203967906Y-126333250D01*
X203869703Y-126326799D01*
X203811839Y-126326284D01*
X203776244Y-126332288D01*
X203770904Y-126337382D01*
X203767780Y-126363168D01*
X203759540Y-126423322D01*
X203747241Y-126510330D01*
X203731941Y-126616680D01*
X203721592Y-126687792D01*
X203672877Y-127021167D01*
X203871501Y-127021167D01*
X203909083Y-126671917D01*
X203980254Y-126846542D01*
X204016816Y-126932175D01*
X204044633Y-126984972D01*
X204068629Y-127012161D01*
X204093727Y-127020973D01*
X204099160Y-127021167D01*
X204125972Y-127014934D01*
X204149623Y-126991103D01*
X204175372Y-126941978D01*
X204207327Y-126862886D01*
X204237408Y-126791156D01*
X204262652Y-126744061D01*
X204279246Y-126728369D01*
X204281861Y-126730594D01*
X204291572Y-126764330D01*
X204302590Y-126825808D01*
X204310977Y-126888875D01*
X204325990Y-127021167D01*
X204419162Y-127021167D01*
X204480962Y-127016913D01*
X204508764Y-127002396D01*
X204512333Y-126989067D01*
X204509110Y-126956622D01*
X204500442Y-126892153D01*
X204487834Y-126805393D01*
X204472791Y-126706076D01*
X204456817Y-126603936D01*
X204441417Y-126508707D01*
X204428095Y-126430123D01*
X204418356Y-126377919D01*
X204416694Y-126370292D01*
X204403090Y-126339889D01*
X204372587Y-126325965D01*
X204313602Y-126322667D01*
X204221510Y-126322667D01*
X204158570Y-126496012D01*
G36*
X201549000Y-126626652D02*
G01*
X201550414Y-126685599D01*
X201559338Y-126712175D01*
X201582797Y-126716338D01*
X201609035Y-126711768D01*
X201670724Y-126712146D01*
X201711694Y-126744201D01*
X201733906Y-126810694D01*
X201739500Y-126895679D01*
X201739500Y-127021167D01*
X201908833Y-127021167D01*
X201908833Y-126553072D01*
X201797708Y-126555317D01*
X201718037Y-126553885D01*
X201643859Y-126547683D01*
X201617792Y-126543545D01*
X201549000Y-126529529D01*
X201549000Y-126626652D01*
G37*
X201549000Y-126626652D02*
X201550414Y-126685599D01*
X201559338Y-126712175D01*
X201582797Y-126716338D01*
X201609035Y-126711768D01*
X201670724Y-126712146D01*
X201711694Y-126744201D01*
X201733906Y-126810694D01*
X201739500Y-126895679D01*
X201739500Y-127021167D01*
X201908833Y-127021167D01*
X201908833Y-126553072D01*
X201797708Y-126555317D01*
X201718037Y-126553885D01*
X201643859Y-126547683D01*
X201617792Y-126543545D01*
X201549000Y-126529529D01*
X201549000Y-126626652D01*
G36*
X201151421Y-126541087D02*
G01*
X201105335Y-126555053D01*
X201061942Y-126602043D01*
X201033717Y-126688261D01*
X201020750Y-126813378D01*
X201019833Y-126865575D01*
X201019833Y-127021167D01*
X201210333Y-127021167D01*
X201210333Y-126861753D01*
X201212440Y-126774550D01*
X201219733Y-126721680D01*
X201233675Y-126695305D01*
X201242353Y-126690051D01*
X201287176Y-126688126D01*
X201317465Y-126723277D01*
X201333830Y-126796695D01*
X201337333Y-126875592D01*
X201337333Y-127021167D01*
X201527833Y-127021167D01*
X201527833Y-126552362D01*
X201422494Y-126557953D01*
X201358838Y-126558477D01*
X201313894Y-126553587D01*
X201302550Y-126548939D01*
X201268699Y-126537368D01*
X201212154Y-126534942D01*
X201151421Y-126541087D01*
G37*
X201151421Y-126541087D02*
X201105335Y-126555053D01*
X201061942Y-126602043D01*
X201033717Y-126688261D01*
X201020750Y-126813378D01*
X201019833Y-126865575D01*
X201019833Y-127021167D01*
X201210333Y-127021167D01*
X201210333Y-126861753D01*
X201212440Y-126774550D01*
X201219733Y-126721680D01*
X201233675Y-126695305D01*
X201242353Y-126690051D01*
X201287176Y-126688126D01*
X201317465Y-126723277D01*
X201333830Y-126796695D01*
X201337333Y-126875592D01*
X201337333Y-127021167D01*
X201527833Y-127021167D01*
X201527833Y-126552362D01*
X201422494Y-126557953D01*
X201358838Y-126558477D01*
X201313894Y-126553587D01*
X201302550Y-126548939D01*
X201268699Y-126537368D01*
X201212154Y-126534942D01*
X201151421Y-126541087D01*
G36*
X200765833Y-127021167D02*
G01*
X200935167Y-127021167D01*
X200935167Y-126555500D01*
X200765833Y-126555500D01*
X200765833Y-127021167D01*
G37*
X200765833Y-127021167D02*
X200935167Y-127021167D01*
X200935167Y-126555500D01*
X200765833Y-126555500D01*
X200765833Y-127021167D01*
G36*
X200358875Y-126555555D02*
G01*
X200289235Y-126559382D01*
X200254734Y-126572470D01*
X200251796Y-126600310D01*
X200276840Y-126648392D01*
X200326287Y-126722208D01*
X200342786Y-126746421D01*
X200428744Y-126873000D01*
X200343289Y-126873000D01*
X200288750Y-126875183D01*
X200264386Y-126888756D01*
X200258045Y-126924250D01*
X200257833Y-126947084D01*
X200257833Y-127021167D01*
X200726953Y-127021167D01*
X200678948Y-126941792D01*
X200634403Y-126870075D01*
X200587760Y-126797703D01*
X200581547Y-126788334D01*
X200532151Y-126714250D01*
X200617242Y-126707741D01*
X200671662Y-126701038D01*
X200695921Y-126684627D01*
X200702160Y-126647184D01*
X200702333Y-126628366D01*
X200702333Y-126555500D01*
X200467236Y-126555500D01*
X200358875Y-126555555D01*
G37*
X200358875Y-126555555D02*
X200289235Y-126559382D01*
X200254734Y-126572470D01*
X200251796Y-126600310D01*
X200276840Y-126648392D01*
X200326287Y-126722208D01*
X200342786Y-126746421D01*
X200428744Y-126873000D01*
X200343289Y-126873000D01*
X200288750Y-126875183D01*
X200264386Y-126888756D01*
X200258045Y-126924250D01*
X200257833Y-126947084D01*
X200257833Y-127021167D01*
X200726953Y-127021167D01*
X200678948Y-126941792D01*
X200634403Y-126870075D01*
X200587760Y-126797703D01*
X200581547Y-126788334D01*
X200532151Y-126714250D01*
X200617242Y-126707741D01*
X200671662Y-126701038D01*
X200695921Y-126684627D01*
X200702160Y-126647184D01*
X200702333Y-126628366D01*
X200702333Y-126555500D01*
X200467236Y-126555500D01*
X200358875Y-126555555D01*
G36*
X198987833Y-127021167D02*
G01*
X199178333Y-127021167D01*
X199178333Y-126555500D01*
X198987833Y-126555500D01*
X198987833Y-127021167D01*
G37*
X198987833Y-127021167D02*
X199178333Y-127021167D01*
X199178333Y-126555500D01*
X198987833Y-126555500D01*
X198987833Y-127021167D01*
G36*
X197941626Y-126540448D02*
G01*
X197909108Y-126556665D01*
X197889897Y-126573937D01*
X197868490Y-126600158D01*
X197855102Y-126633375D01*
X197847923Y-126683473D01*
X197845144Y-126760340D01*
X197844833Y-126820084D01*
X197844833Y-127021167D01*
X198014167Y-127021167D01*
X198014167Y-126875592D01*
X198020702Y-126773340D01*
X198040715Y-126710228D01*
X198074815Y-126685066D01*
X198109147Y-126690051D01*
X198126500Y-126707197D01*
X198136557Y-126747367D01*
X198140780Y-126818400D01*
X198141167Y-126861753D01*
X198141167Y-127021167D01*
X198331667Y-127021167D01*
X198331667Y-126555500D01*
X198260688Y-126555500D01*
X198199546Y-126553236D01*
X198118072Y-126547413D01*
X198062335Y-126542187D01*
X197988068Y-126536475D01*
X197941626Y-126540448D01*
G37*
X197941626Y-126540448D02*
X197909108Y-126556665D01*
X197889897Y-126573937D01*
X197868490Y-126600158D01*
X197855102Y-126633375D01*
X197847923Y-126683473D01*
X197845144Y-126760340D01*
X197844833Y-126820084D01*
X197844833Y-127021167D01*
X198014167Y-127021167D01*
X198014167Y-126875592D01*
X198020702Y-126773340D01*
X198040715Y-126710228D01*
X198074815Y-126685066D01*
X198109147Y-126690051D01*
X198126500Y-126707197D01*
X198136557Y-126747367D01*
X198140780Y-126818400D01*
X198141167Y-126861753D01*
X198141167Y-127021167D01*
X198331667Y-127021167D01*
X198331667Y-126555500D01*
X198260688Y-126555500D01*
X198199546Y-126553236D01*
X198118072Y-126547413D01*
X198062335Y-126542187D01*
X197988068Y-126536475D01*
X197941626Y-126540448D01*
G36*
X197019333Y-126407334D02*
G01*
X197021576Y-126461543D01*
X197035424Y-126485633D01*
X197071557Y-126491811D01*
X197093417Y-126492000D01*
X197167500Y-126492000D01*
X197167500Y-127021167D01*
X197358000Y-127021167D01*
X197358000Y-126492000D01*
X197432083Y-126492000D01*
X197479516Y-126489437D01*
X197500596Y-126473611D01*
X197506001Y-126432317D01*
X197506167Y-126407334D01*
X197506167Y-126322667D01*
X197019333Y-126322667D01*
X197019333Y-126407334D01*
G37*
X197019333Y-126407334D02*
X197021576Y-126461543D01*
X197035424Y-126485633D01*
X197071557Y-126491811D01*
X197093417Y-126492000D01*
X197167500Y-126492000D01*
X197167500Y-127021167D01*
X197358000Y-127021167D01*
X197358000Y-126492000D01*
X197432083Y-126492000D01*
X197479516Y-126489437D01*
X197500596Y-126473611D01*
X197506001Y-126432317D01*
X197506167Y-126407334D01*
X197506167Y-126322667D01*
X197019333Y-126322667D01*
X197019333Y-126407334D01*
G36*
X195692516Y-126552491D02*
G01*
X195655235Y-126584175D01*
X195629338Y-126613379D01*
X195613342Y-126644858D01*
X195604890Y-126689311D01*
X195601626Y-126757438D01*
X195601167Y-126829705D01*
X195601167Y-127021167D01*
X195791667Y-127021167D01*
X195791667Y-126861753D01*
X195793773Y-126774550D01*
X195801067Y-126721680D01*
X195815008Y-126695305D01*
X195823686Y-126690051D01*
X195868509Y-126688126D01*
X195898798Y-126723277D01*
X195915163Y-126796695D01*
X195918667Y-126875592D01*
X195918667Y-127021167D01*
X196088000Y-127021167D01*
X196088000Y-126553407D01*
X195987458Y-126554124D01*
X195902680Y-126551715D01*
X195817052Y-126544837D01*
X195798110Y-126542474D01*
X195735383Y-126538430D01*
X195692516Y-126552491D01*
G37*
X195692516Y-126552491D02*
X195655235Y-126584175D01*
X195629338Y-126613379D01*
X195613342Y-126644858D01*
X195604890Y-126689311D01*
X195601626Y-126757438D01*
X195601167Y-126829705D01*
X195601167Y-127021167D01*
X195791667Y-127021167D01*
X195791667Y-126861753D01*
X195793773Y-126774550D01*
X195801067Y-126721680D01*
X195815008Y-126695305D01*
X195823686Y-126690051D01*
X195868509Y-126688126D01*
X195898798Y-126723277D01*
X195915163Y-126796695D01*
X195918667Y-126875592D01*
X195918667Y-127021167D01*
X196088000Y-127021167D01*
X196088000Y-126553407D01*
X195987458Y-126554124D01*
X195902680Y-126551715D01*
X195817052Y-126544837D01*
X195798110Y-126542474D01*
X195735383Y-126538430D01*
X195692516Y-126552491D01*
G36*
X194754500Y-127021167D02*
G01*
X194945000Y-127021167D01*
X194945000Y-126259167D01*
X194754500Y-126259167D01*
X194754500Y-127021167D01*
G37*
X194754500Y-127021167D02*
X194945000Y-127021167D01*
X194945000Y-126259167D01*
X194754500Y-126259167D01*
X194754500Y-127021167D01*
G36*
X193611401Y-126661215D02*
G01*
X193699911Y-126766931D01*
X193636871Y-126846424D01*
X193588511Y-126903989D01*
X193542377Y-126953590D01*
X193529166Y-126966239D01*
X193484500Y-127006561D01*
X193484500Y-126555500D01*
X193294000Y-126555500D01*
X193294000Y-127021167D01*
X193514714Y-127021167D01*
X193613803Y-127020694D01*
X193679762Y-127017937D01*
X193721793Y-127010886D01*
X193749099Y-126997531D01*
X193770882Y-126975862D01*
X193781259Y-126962959D01*
X193827090Y-126904750D01*
X193873548Y-126962959D01*
X193905236Y-126996377D01*
X193941318Y-127013888D01*
X193996335Y-127020439D01*
X194044610Y-127021167D01*
X194169213Y-127021167D01*
X194118314Y-126962959D01*
X194069166Y-126907470D01*
X194014343Y-126846539D01*
X194005970Y-126837332D01*
X193944525Y-126769914D01*
X194031803Y-126667999D01*
X194119082Y-126566084D01*
X194011144Y-126559605D01*
X193932986Y-126560369D01*
X193881725Y-126576115D01*
X193861274Y-126591074D01*
X193828933Y-126616361D01*
X193808683Y-126612122D01*
X193792463Y-126592261D01*
X193762287Y-126569203D01*
X193708477Y-126557853D01*
X193644237Y-126555500D01*
X193522891Y-126555500D01*
X193611401Y-126661215D01*
G37*
X193611401Y-126661215D02*
X193699911Y-126766931D01*
X193636871Y-126846424D01*
X193588511Y-126903989D01*
X193542377Y-126953590D01*
X193529166Y-126966239D01*
X193484500Y-127006561D01*
X193484500Y-126555500D01*
X193294000Y-126555500D01*
X193294000Y-127021167D01*
X193514714Y-127021167D01*
X193613803Y-127020694D01*
X193679762Y-127017937D01*
X193721793Y-127010886D01*
X193749099Y-126997531D01*
X193770882Y-126975862D01*
X193781259Y-126962959D01*
X193827090Y-126904750D01*
X193873548Y-126962959D01*
X193905236Y-126996377D01*
X193941318Y-127013888D01*
X193996335Y-127020439D01*
X194044610Y-127021167D01*
X194169213Y-127021167D01*
X194118314Y-126962959D01*
X194069166Y-126907470D01*
X194014343Y-126846539D01*
X194005970Y-126837332D01*
X193944525Y-126769914D01*
X194031803Y-126667999D01*
X194119082Y-126566084D01*
X194011144Y-126559605D01*
X193932986Y-126560369D01*
X193881725Y-126576115D01*
X193861274Y-126591074D01*
X193828933Y-126616361D01*
X193808683Y-126612122D01*
X193792463Y-126592261D01*
X193762287Y-126569203D01*
X193708477Y-126557853D01*
X193644237Y-126555500D01*
X193522891Y-126555500D01*
X193611401Y-126661215D01*
G36*
X198576924Y-126297690D02*
G01*
X198555101Y-126312802D01*
X198532263Y-126333187D01*
X198530481Y-126353014D01*
X198553028Y-126383529D01*
X198585711Y-126417962D01*
X198642232Y-126469970D01*
X198683098Y-126489206D01*
X198716362Y-126477974D01*
X198733792Y-126460300D01*
X198745919Y-126433696D01*
X198735001Y-126399893D01*
X198703557Y-126354467D01*
X198657020Y-126301817D01*
X198618473Y-126283919D01*
X198576924Y-126297690D01*
G37*
X198576924Y-126297690D02*
X198555101Y-126312802D01*
X198532263Y-126333187D01*
X198530481Y-126353014D01*
X198553028Y-126383529D01*
X198585711Y-126417962D01*
X198642232Y-126469970D01*
X198683098Y-126489206D01*
X198716362Y-126477974D01*
X198733792Y-126460300D01*
X198745919Y-126433696D01*
X198735001Y-126399893D01*
X198703557Y-126354467D01*
X198657020Y-126301817D01*
X198618473Y-126283919D01*
X198576924Y-126297690D01*
G36*
X194343590Y-126297690D02*
G01*
X194321767Y-126312802D01*
X194298929Y-126333187D01*
X194297147Y-126353014D01*
X194319695Y-126383529D01*
X194352378Y-126417962D01*
X194408899Y-126469970D01*
X194449765Y-126489206D01*
X194483029Y-126477974D01*
X194500459Y-126460300D01*
X194512586Y-126433696D01*
X194501668Y-126399893D01*
X194470223Y-126354467D01*
X194423686Y-126301817D01*
X194385140Y-126283919D01*
X194343590Y-126297690D01*
G37*
X194343590Y-126297690D02*
X194321767Y-126312802D01*
X194298929Y-126333187D01*
X194297147Y-126353014D01*
X194319695Y-126383529D01*
X194352378Y-126417962D01*
X194408899Y-126469970D01*
X194449765Y-126489206D01*
X194483029Y-126477974D01*
X194500459Y-126460300D01*
X194512586Y-126433696D01*
X194501668Y-126399893D01*
X194470223Y-126354467D01*
X194423686Y-126301817D01*
X194385140Y-126283919D01*
X194343590Y-126297690D01*
G36*
X200803101Y-126286336D02*
G01*
X200773055Y-126311567D01*
X200763808Y-126329243D01*
X200752469Y-126392968D01*
X200775756Y-126442926D01*
X200827672Y-126469109D01*
X200848653Y-126470834D01*
X200902586Y-126459807D01*
X200936216Y-126437819D01*
X200955219Y-126387501D01*
X200940790Y-126336541D01*
X200899645Y-126297724D01*
X200855562Y-126284295D01*
X200803101Y-126286336D01*
G37*
X200803101Y-126286336D02*
X200773055Y-126311567D01*
X200763808Y-126329243D01*
X200752469Y-126392968D01*
X200775756Y-126442926D01*
X200827672Y-126469109D01*
X200848653Y-126470834D01*
X200902586Y-126459807D01*
X200936216Y-126437819D01*
X200955219Y-126387501D01*
X200940790Y-126336541D01*
X200899645Y-126297724D01*
X200855562Y-126284295D01*
X200803101Y-126286336D01*
G36*
X199032034Y-126294473D02*
G01*
X198997709Y-126336423D01*
X198991596Y-126400762D01*
X199001913Y-126440984D01*
X199029390Y-126459785D01*
X199077079Y-126466777D01*
X199130219Y-126467462D01*
X199156543Y-126452263D01*
X199170154Y-126415876D01*
X199171522Y-126347865D01*
X199139096Y-126301920D01*
X199089720Y-126284555D01*
X199032034Y-126294473D01*
G37*
X199032034Y-126294473D02*
X198997709Y-126336423D01*
X198991596Y-126400762D01*
X199001913Y-126440984D01*
X199029390Y-126459785D01*
X199077079Y-126466777D01*
X199130219Y-126467462D01*
X199156543Y-126452263D01*
X199170154Y-126415876D01*
X199171522Y-126347865D01*
X199139096Y-126301920D01*
X199089720Y-126284555D01*
X199032034Y-126294473D01*
G36*
X193348958Y-126288513D02*
G01*
X193311245Y-126303079D01*
X193297082Y-126330445D01*
X193298057Y-126381588D01*
X193306378Y-126434180D01*
X193327142Y-126458053D01*
X193369886Y-126466623D01*
X193429410Y-126460962D01*
X193461470Y-126441329D01*
X193480712Y-126389996D01*
X193471377Y-126333505D01*
X193440151Y-126295253D01*
X193395281Y-126284294D01*
X193348958Y-126288513D01*
G37*
X193348958Y-126288513D02*
X193311245Y-126303079D01*
X193297082Y-126330445D01*
X193298057Y-126381588D01*
X193306378Y-126434180D01*
X193327142Y-126458053D01*
X193369886Y-126466623D01*
X193429410Y-126460962D01*
X193461470Y-126441329D01*
X193480712Y-126389996D01*
X193471377Y-126333505D01*
X193440151Y-126295253D01*
X193395281Y-126284294D01*
X193348958Y-126288513D01*
G36*
X200347956Y-125566515D02*
G01*
X200321972Y-125582414D01*
X200321333Y-125586067D01*
X200315086Y-125600793D01*
X200295933Y-125586067D01*
X200249700Y-125565015D01*
X200181786Y-125560768D01*
X200108839Y-125572156D01*
X200047506Y-125598008D01*
X200038948Y-125604135D01*
X199982638Y-125672389D01*
X199954328Y-125758464D01*
X199953179Y-125850914D01*
X199978351Y-125938288D01*
X200029005Y-126009139D01*
X200070826Y-126038723D01*
X200158532Y-126065724D01*
X200244747Y-126060648D01*
X200280392Y-126046755D01*
X200302960Y-126037790D01*
X200315236Y-126047023D01*
X200320325Y-126082482D01*
X200321333Y-126152199D01*
X200321333Y-126280334D01*
X200490667Y-126280334D01*
X200490667Y-125802767D01*
X200313571Y-125802767D01*
X200303961Y-125853689D01*
X200266834Y-125890036D01*
X200226083Y-125899334D01*
X200173685Y-125882082D01*
X200148188Y-125846503D01*
X200135546Y-125800050D01*
X200153555Y-125761633D01*
X200162506Y-125751253D01*
X200199816Y-125719473D01*
X200226083Y-125708834D01*
X200257985Y-125723232D01*
X200289661Y-125751253D01*
X200313571Y-125802767D01*
X200490667Y-125802767D01*
X200490667Y-125560667D01*
X200406000Y-125560667D01*
X200347956Y-125566515D01*
G37*
X200347956Y-125566515D02*
X200321972Y-125582414D01*
X200321333Y-125586067D01*
X200315086Y-125600793D01*
X200295933Y-125586067D01*
X200249700Y-125565015D01*
X200181786Y-125560768D01*
X200108839Y-125572156D01*
X200047506Y-125598008D01*
X200038948Y-125604135D01*
X199982638Y-125672389D01*
X199954328Y-125758464D01*
X199953179Y-125850914D01*
X199978351Y-125938288D01*
X200029005Y-126009139D01*
X200070826Y-126038723D01*
X200158532Y-126065724D01*
X200244747Y-126060648D01*
X200280392Y-126046755D01*
X200302960Y-126037790D01*
X200315236Y-126047023D01*
X200320325Y-126082482D01*
X200321333Y-126152199D01*
X200321333Y-126280334D01*
X200490667Y-126280334D01*
X200490667Y-125802767D01*
X200313571Y-125802767D01*
X200303961Y-125853689D01*
X200266834Y-125890036D01*
X200226083Y-125899334D01*
X200173685Y-125882082D01*
X200148188Y-125846503D01*
X200135546Y-125800050D01*
X200153555Y-125761633D01*
X200162506Y-125751253D01*
X200199816Y-125719473D01*
X200226083Y-125708834D01*
X200257985Y-125723232D01*
X200289661Y-125751253D01*
X200313571Y-125802767D01*
X200490667Y-125802767D01*
X200490667Y-125560667D01*
X200406000Y-125560667D01*
X200347956Y-125566515D01*
G36*
X202855579Y-125572709D02*
G01*
X202781774Y-125611438D01*
X202730395Y-125680762D01*
X202721514Y-125700337D01*
X202694723Y-125771812D01*
X202689789Y-125817530D01*
X202711762Y-125843177D01*
X202765694Y-125854438D01*
X202856633Y-125856998D01*
X202860669Y-125857000D01*
X202945270Y-125858188D01*
X202994800Y-125862727D01*
X203016482Y-125872083D01*
X203017535Y-125887721D01*
X203017155Y-125888750D01*
X202988945Y-125912605D01*
X202943368Y-125920053D01*
X202902833Y-125909183D01*
X202893083Y-125899334D01*
X202865331Y-125885804D01*
X202812688Y-125878554D01*
X202796584Y-125878167D01*
X202741019Y-125882225D01*
X202716902Y-125897605D01*
X202713167Y-125916811D01*
X202732705Y-125971581D01*
X202784827Y-126018526D01*
X202859798Y-126050821D01*
X202918851Y-126060933D01*
X202988637Y-126061560D01*
X203046473Y-126054560D01*
X203062417Y-126049624D01*
X203141761Y-125993223D01*
X203192529Y-125911394D01*
X203210867Y-125813068D01*
X203200092Y-125730342D01*
X203190223Y-125708834D01*
X202998917Y-125708834D01*
X202990561Y-125723750D01*
X202949129Y-125729981D01*
X202946000Y-125730000D01*
X202902974Y-125724364D01*
X202892522Y-125709841D01*
X202893083Y-125708834D01*
X202923026Y-125690867D01*
X202946000Y-125687667D01*
X202985999Y-125697677D01*
X202998917Y-125708834D01*
X203190223Y-125708834D01*
X203159897Y-125642746D01*
X203093845Y-125587361D01*
X202999511Y-125562483D01*
X202958439Y-125560667D01*
X202855579Y-125572709D01*
G37*
X202855579Y-125572709D02*
X202781774Y-125611438D01*
X202730395Y-125680762D01*
X202721514Y-125700337D01*
X202694723Y-125771812D01*
X202689789Y-125817530D01*
X202711762Y-125843177D01*
X202765694Y-125854438D01*
X202856633Y-125856998D01*
X202860669Y-125857000D01*
X202945270Y-125858188D01*
X202994800Y-125862727D01*
X203016482Y-125872083D01*
X203017535Y-125887721D01*
X203017155Y-125888750D01*
X202988945Y-125912605D01*
X202943368Y-125920053D01*
X202902833Y-125909183D01*
X202893083Y-125899334D01*
X202865331Y-125885804D01*
X202812688Y-125878554D01*
X202796584Y-125878167D01*
X202741019Y-125882225D01*
X202716902Y-125897605D01*
X202713167Y-125916811D01*
X202732705Y-125971581D01*
X202784827Y-126018526D01*
X202859798Y-126050821D01*
X202918851Y-126060933D01*
X202988637Y-126061560D01*
X203046473Y-126054560D01*
X203062417Y-126049624D01*
X203141761Y-125993223D01*
X203192529Y-125911394D01*
X203210867Y-125813068D01*
X203200092Y-125730342D01*
X203190223Y-125708834D01*
X202998917Y-125708834D01*
X202990561Y-125723750D01*
X202949129Y-125729981D01*
X202946000Y-125730000D01*
X202902974Y-125724364D01*
X202892522Y-125709841D01*
X202893083Y-125708834D01*
X202923026Y-125690867D01*
X202946000Y-125687667D01*
X202985999Y-125697677D01*
X202998917Y-125708834D01*
X203190223Y-125708834D01*
X203159897Y-125642746D01*
X203093845Y-125587361D01*
X202999511Y-125562483D01*
X202958439Y-125560667D01*
X202855579Y-125572709D01*
G36*
X201838529Y-125564905D02*
G01*
X201728917Y-125571250D01*
X201722229Y-125652614D01*
X201719651Y-125704937D01*
X201729699Y-125725265D01*
X201761362Y-125723780D01*
X201781304Y-125719533D01*
X201850173Y-125718810D01*
X201894191Y-125749632D01*
X201908833Y-125805475D01*
X201892424Y-125856556D01*
X201852733Y-125893256D01*
X201804068Y-125905267D01*
X201779953Y-125898327D01*
X201742313Y-125881646D01*
X201724253Y-125889671D01*
X201718669Y-125929554D01*
X201718333Y-125960365D01*
X201723034Y-126016950D01*
X201741636Y-126045269D01*
X201765958Y-126055326D01*
X201855801Y-126066505D01*
X201944498Y-126046355D01*
X201965672Y-126037686D01*
X202035827Y-125986294D01*
X202080152Y-125911185D01*
X202097376Y-125823127D01*
X202086224Y-125732885D01*
X202045424Y-125651226D01*
X202015235Y-125618508D01*
X201967871Y-125582041D01*
X201921567Y-125565807D01*
X201857057Y-125563962D01*
X201838529Y-125564905D01*
G37*
X201838529Y-125564905D02*
X201728917Y-125571250D01*
X201722229Y-125652614D01*
X201719651Y-125704937D01*
X201729699Y-125725265D01*
X201761362Y-125723780D01*
X201781304Y-125719533D01*
X201850173Y-125718810D01*
X201894191Y-125749632D01*
X201908833Y-125805475D01*
X201892424Y-125856556D01*
X201852733Y-125893256D01*
X201804068Y-125905267D01*
X201779953Y-125898327D01*
X201742313Y-125881646D01*
X201724253Y-125889671D01*
X201718669Y-125929554D01*
X201718333Y-125960365D01*
X201723034Y-126016950D01*
X201741636Y-126045269D01*
X201765958Y-126055326D01*
X201855801Y-126066505D01*
X201944498Y-126046355D01*
X201965672Y-126037686D01*
X202035827Y-125986294D01*
X202080152Y-125911185D01*
X202097376Y-125823127D01*
X202086224Y-125732885D01*
X202045424Y-125651226D01*
X202015235Y-125618508D01*
X201967871Y-125582041D01*
X201921567Y-125565807D01*
X201857057Y-125563962D01*
X201838529Y-125564905D01*
G36*
X200871667Y-126049593D02*
G01*
X200972208Y-126048876D01*
X201055535Y-126050798D01*
X201138473Y-126056465D01*
X201157417Y-126058521D01*
X201245066Y-126056048D01*
X201297509Y-126037806D01*
X201349660Y-125990304D01*
X201393797Y-125919367D01*
X201419349Y-125843820D01*
X201422000Y-125816080D01*
X201418003Y-125794801D01*
X201226603Y-125794801D01*
X201224172Y-125847900D01*
X201206100Y-125873934D01*
X201158495Y-125897136D01*
X201104769Y-125892363D01*
X201064842Y-125861759D01*
X201062987Y-125858534D01*
X201051379Y-125804053D01*
X201069158Y-125757164D01*
X201106466Y-125726832D01*
X201153446Y-125722023D01*
X201190928Y-125742177D01*
X201226603Y-125794801D01*
X201418003Y-125794801D01*
X201408000Y-125741563D01*
X201372567Y-125664391D01*
X201325553Y-125604656D01*
X201313693Y-125595183D01*
X201259039Y-125572360D01*
X201189007Y-125562027D01*
X201120898Y-125564823D01*
X201072013Y-125581385D01*
X201066400Y-125586067D01*
X201045426Y-125600793D01*
X201041000Y-125586067D01*
X201021508Y-125568653D01*
X200968508Y-125560858D01*
X200956333Y-125560667D01*
X200871667Y-125560667D01*
X200871667Y-126049593D01*
G37*
X200871667Y-126049593D02*
X200972208Y-126048876D01*
X201055535Y-126050798D01*
X201138473Y-126056465D01*
X201157417Y-126058521D01*
X201245066Y-126056048D01*
X201297509Y-126037806D01*
X201349660Y-125990304D01*
X201393797Y-125919367D01*
X201419349Y-125843820D01*
X201422000Y-125816080D01*
X201418003Y-125794801D01*
X201226603Y-125794801D01*
X201224172Y-125847900D01*
X201206100Y-125873934D01*
X201158495Y-125897136D01*
X201104769Y-125892363D01*
X201064842Y-125861759D01*
X201062987Y-125858534D01*
X201051379Y-125804053D01*
X201069158Y-125757164D01*
X201106466Y-125726832D01*
X201153446Y-125722023D01*
X201190928Y-125742177D01*
X201226603Y-125794801D01*
X201418003Y-125794801D01*
X201408000Y-125741563D01*
X201372567Y-125664391D01*
X201325553Y-125604656D01*
X201313693Y-125595183D01*
X201259039Y-125572360D01*
X201189007Y-125562027D01*
X201120898Y-125564823D01*
X201072013Y-125581385D01*
X201066400Y-125586067D01*
X201045426Y-125600793D01*
X201041000Y-125586067D01*
X201021508Y-125568653D01*
X200968508Y-125560858D01*
X200956333Y-125560667D01*
X200871667Y-125560667D01*
X200871667Y-126049593D01*
G36*
X199368833Y-126049676D02*
G01*
X199479958Y-126048679D01*
X199561230Y-126050090D01*
X199638381Y-126054807D01*
X199665167Y-126057721D01*
X199728235Y-126059574D01*
X199779664Y-126050331D01*
X199781583Y-126049545D01*
X199848064Y-125999617D01*
X199894648Y-125922469D01*
X199917451Y-125830068D01*
X199916852Y-125818272D01*
X199727153Y-125818272D01*
X199708176Y-125865775D01*
X199667915Y-125895630D01*
X199644000Y-125899334D01*
X199599556Y-125885212D01*
X199584733Y-125873934D01*
X199558936Y-125825489D01*
X199564796Y-125776116D01*
X199594425Y-125736988D01*
X199639937Y-125719278D01*
X199686333Y-125730000D01*
X199721116Y-125768040D01*
X199727153Y-125818272D01*
X199916852Y-125818272D01*
X199912589Y-125734381D01*
X199898573Y-125689049D01*
X199869798Y-125635834D01*
X199830226Y-125599717D01*
X199771972Y-125577658D01*
X199687153Y-125566616D01*
X199573188Y-125563558D01*
X199368833Y-125563139D01*
X199368833Y-126049676D01*
G37*
X199368833Y-126049676D02*
X199479958Y-126048679D01*
X199561230Y-126050090D01*
X199638381Y-126054807D01*
X199665167Y-126057721D01*
X199728235Y-126059574D01*
X199779664Y-126050331D01*
X199781583Y-126049545D01*
X199848064Y-125999617D01*
X199894648Y-125922469D01*
X199917451Y-125830068D01*
X199916852Y-125818272D01*
X199727153Y-125818272D01*
X199708176Y-125865775D01*
X199667915Y-125895630D01*
X199644000Y-125899334D01*
X199599556Y-125885212D01*
X199584733Y-125873934D01*
X199558936Y-125825489D01*
X199564796Y-125776116D01*
X199594425Y-125736988D01*
X199639937Y-125719278D01*
X199686333Y-125730000D01*
X199721116Y-125768040D01*
X199727153Y-125818272D01*
X199916852Y-125818272D01*
X199912589Y-125734381D01*
X199898573Y-125689049D01*
X199869798Y-125635834D01*
X199830226Y-125599717D01*
X199771972Y-125577658D01*
X199687153Y-125566616D01*
X199573188Y-125563558D01*
X199368833Y-125563139D01*
X199368833Y-126049676D01*
G36*
X198395167Y-126049593D02*
G01*
X198495708Y-126048572D01*
X198575420Y-126050187D01*
X198651665Y-126055467D01*
X198670333Y-126057655D01*
X198734286Y-126059333D01*
X198787363Y-126049524D01*
X198789118Y-126048810D01*
X198857498Y-125998522D01*
X198903524Y-125921609D01*
X198924225Y-125829079D01*
X198922073Y-125801544D01*
X198739822Y-125801544D01*
X198732309Y-125851576D01*
X198695136Y-125888081D01*
X198648108Y-125899009D01*
X198604741Y-125885256D01*
X198589900Y-125873934D01*
X198566088Y-125823907D01*
X198578187Y-125767953D01*
X198597762Y-125742095D01*
X198637229Y-125713143D01*
X198673419Y-125718330D01*
X198712187Y-125750687D01*
X198739822Y-125801544D01*
X198922073Y-125801544D01*
X198916632Y-125731942D01*
X198892364Y-125666077D01*
X198864285Y-125621439D01*
X198829187Y-125591834D01*
X198778353Y-125574309D01*
X198703059Y-125565913D01*
X198594587Y-125563693D01*
X198589883Y-125563691D01*
X198395167Y-125563691D01*
X198395167Y-126049593D01*
G37*
X198395167Y-126049593D02*
X198495708Y-126048572D01*
X198575420Y-126050187D01*
X198651665Y-126055467D01*
X198670333Y-126057655D01*
X198734286Y-126059333D01*
X198787363Y-126049524D01*
X198789118Y-126048810D01*
X198857498Y-125998522D01*
X198903524Y-125921609D01*
X198924225Y-125829079D01*
X198922073Y-125801544D01*
X198739822Y-125801544D01*
X198732309Y-125851576D01*
X198695136Y-125888081D01*
X198648108Y-125899009D01*
X198604741Y-125885256D01*
X198589900Y-125873934D01*
X198566088Y-125823907D01*
X198578187Y-125767953D01*
X198597762Y-125742095D01*
X198637229Y-125713143D01*
X198673419Y-125718330D01*
X198712187Y-125750687D01*
X198739822Y-125801544D01*
X198922073Y-125801544D01*
X198916632Y-125731942D01*
X198892364Y-125666077D01*
X198864285Y-125621439D01*
X198829187Y-125591834D01*
X198778353Y-125574309D01*
X198703059Y-125565913D01*
X198594587Y-125563693D01*
X198589883Y-125563691D01*
X198395167Y-125563691D01*
X198395167Y-126049593D01*
G36*
X197693471Y-125562510D02*
G01*
X197485000Y-125562758D01*
X197485000Y-126049676D01*
X197596125Y-126048679D01*
X197677392Y-126050359D01*
X197754540Y-126055759D01*
X197781333Y-126059071D01*
X197865729Y-126054994D01*
X197920604Y-126029733D01*
X197987108Y-125965318D01*
X198024510Y-125880369D01*
X198029266Y-125818272D01*
X197843320Y-125818272D01*
X197824343Y-125865775D01*
X197784081Y-125895630D01*
X197760167Y-125899334D01*
X197715723Y-125885212D01*
X197700900Y-125873934D01*
X197675103Y-125825489D01*
X197680963Y-125776116D01*
X197710592Y-125736988D01*
X197756103Y-125719278D01*
X197802500Y-125730000D01*
X197837282Y-125768040D01*
X197843320Y-125818272D01*
X198029266Y-125818272D01*
X198031733Y-125786076D01*
X198007701Y-125693632D01*
X197959752Y-125622603D01*
X197931183Y-125594930D01*
X197902913Y-125577356D01*
X197864868Y-125567608D01*
X197806974Y-125563412D01*
X197719157Y-125562496D01*
X197693471Y-125562510D01*
G37*
X197693471Y-125562510D02*
X197485000Y-125562758D01*
X197485000Y-126049676D01*
X197596125Y-126048679D01*
X197677392Y-126050359D01*
X197754540Y-126055759D01*
X197781333Y-126059071D01*
X197865729Y-126054994D01*
X197920604Y-126029733D01*
X197987108Y-125965318D01*
X198024510Y-125880369D01*
X198029266Y-125818272D01*
X197843320Y-125818272D01*
X197824343Y-125865775D01*
X197784081Y-125895630D01*
X197760167Y-125899334D01*
X197715723Y-125885212D01*
X197700900Y-125873934D01*
X197675103Y-125825489D01*
X197680963Y-125776116D01*
X197710592Y-125736988D01*
X197756103Y-125719278D01*
X197802500Y-125730000D01*
X197837282Y-125768040D01*
X197843320Y-125818272D01*
X198029266Y-125818272D01*
X198031733Y-125786076D01*
X198007701Y-125693632D01*
X197959752Y-125622603D01*
X197931183Y-125594930D01*
X197902913Y-125577356D01*
X197864868Y-125567608D01*
X197806974Y-125563412D01*
X197719157Y-125562496D01*
X197693471Y-125562510D01*
G36*
X204184250Y-125349311D02*
G01*
X204078417Y-125349346D01*
X203964209Y-125666673D01*
X203924586Y-125774201D01*
X203888948Y-125866132D01*
X203860040Y-125935754D01*
X203840608Y-125976350D01*
X203834467Y-125984000D01*
X203814598Y-125969041D01*
X203778714Y-125931692D01*
X203736439Y-125883250D01*
X203697401Y-125835009D01*
X203671225Y-125798263D01*
X203665667Y-125785934D01*
X203678473Y-125765462D01*
X203711886Y-125722943D01*
X203753957Y-125673079D01*
X203842247Y-125571250D01*
X203730138Y-125564760D01*
X203656362Y-125564331D01*
X203607932Y-125576299D01*
X203569330Y-125604021D01*
X203520631Y-125649772D01*
X203492807Y-125605219D01*
X203466999Y-125577765D01*
X203425643Y-125564309D01*
X203355674Y-125560668D01*
X203353659Y-125560667D01*
X203291498Y-125563157D01*
X203251090Y-125569553D01*
X203242333Y-125575180D01*
X203254990Y-125597713D01*
X203287996Y-125642101D01*
X203329113Y-125692608D01*
X203415893Y-125795524D01*
X203302655Y-125916220D01*
X203189417Y-126036917D01*
X203303417Y-126043414D01*
X203374596Y-126044490D01*
X203421567Y-126034017D01*
X203461991Y-126006690D01*
X203479609Y-125990498D01*
X203541801Y-125931084D01*
X203584333Y-125989292D01*
X203605750Y-126015988D01*
X203629121Y-126032950D01*
X203663918Y-126042384D01*
X203719615Y-126046493D01*
X203805686Y-126047482D01*
X203834471Y-126047500D01*
X203929597Y-126047065D01*
X203990704Y-126044433D01*
X204026107Y-126037611D01*
X204044119Y-126024607D01*
X204053054Y-126003431D01*
X204055359Y-125994584D01*
X204067242Y-125963650D01*
X204090632Y-125947862D01*
X204137380Y-125942236D01*
X204181256Y-125941667D01*
X204248910Y-125944051D01*
X204287385Y-125954570D01*
X204309720Y-125978270D01*
X204317982Y-125994584D01*
X204339893Y-126028195D01*
X204374484Y-126043694D01*
X204436288Y-126047499D01*
X204437796Y-126047500D01*
X204494910Y-126044356D01*
X204529439Y-126036398D01*
X204534049Y-126031625D01*
X204527276Y-126007401D01*
X204508178Y-125950390D01*
X204479160Y-125867494D01*
X204442629Y-125765614D01*
X204440357Y-125759380D01*
X204231815Y-125759380D01*
X204216448Y-125770785D01*
X204186501Y-125772334D01*
X204155669Y-125769738D01*
X204144876Y-125754440D01*
X204150575Y-125715178D01*
X204158447Y-125683247D01*
X204181060Y-125594160D01*
X204207503Y-125667372D01*
X204228173Y-125728210D01*
X204231815Y-125759380D01*
X204440357Y-125759380D01*
X204412341Y-125682513D01*
X204290083Y-125349277D01*
X204184250Y-125349311D01*
G37*
X204184250Y-125349311D02*
X204078417Y-125349346D01*
X203964209Y-125666673D01*
X203924586Y-125774201D01*
X203888948Y-125866132D01*
X203860040Y-125935754D01*
X203840608Y-125976350D01*
X203834467Y-125984000D01*
X203814598Y-125969041D01*
X203778714Y-125931692D01*
X203736439Y-125883250D01*
X203697401Y-125835009D01*
X203671225Y-125798263D01*
X203665667Y-125785934D01*
X203678473Y-125765462D01*
X203711886Y-125722943D01*
X203753957Y-125673079D01*
X203842247Y-125571250D01*
X203730138Y-125564760D01*
X203656362Y-125564331D01*
X203607932Y-125576299D01*
X203569330Y-125604021D01*
X203520631Y-125649772D01*
X203492807Y-125605219D01*
X203466999Y-125577765D01*
X203425643Y-125564309D01*
X203355674Y-125560668D01*
X203353659Y-125560667D01*
X203291498Y-125563157D01*
X203251090Y-125569553D01*
X203242333Y-125575180D01*
X203254990Y-125597713D01*
X203287996Y-125642101D01*
X203329113Y-125692608D01*
X203415893Y-125795524D01*
X203302655Y-125916220D01*
X203189417Y-126036917D01*
X203303417Y-126043414D01*
X203374596Y-126044490D01*
X203421567Y-126034017D01*
X203461991Y-126006690D01*
X203479609Y-125990498D01*
X203541801Y-125931084D01*
X203584333Y-125989292D01*
X203605750Y-126015988D01*
X203629121Y-126032950D01*
X203663918Y-126042384D01*
X203719615Y-126046493D01*
X203805686Y-126047482D01*
X203834471Y-126047500D01*
X203929597Y-126047065D01*
X203990704Y-126044433D01*
X204026107Y-126037611D01*
X204044119Y-126024607D01*
X204053054Y-126003431D01*
X204055359Y-125994584D01*
X204067242Y-125963650D01*
X204090632Y-125947862D01*
X204137380Y-125942236D01*
X204181256Y-125941667D01*
X204248910Y-125944051D01*
X204287385Y-125954570D01*
X204309720Y-125978270D01*
X204317982Y-125994584D01*
X204339893Y-126028195D01*
X204374484Y-126043694D01*
X204436288Y-126047499D01*
X204437796Y-126047500D01*
X204494910Y-126044356D01*
X204529439Y-126036398D01*
X204534049Y-126031625D01*
X204527276Y-126007401D01*
X204508178Y-125950390D01*
X204479160Y-125867494D01*
X204442629Y-125765614D01*
X204440357Y-125759380D01*
X204231815Y-125759380D01*
X204216448Y-125770785D01*
X204186501Y-125772334D01*
X204155669Y-125769738D01*
X204144876Y-125754440D01*
X204150575Y-125715178D01*
X204158447Y-125683247D01*
X204181060Y-125594160D01*
X204207503Y-125667372D01*
X204228173Y-125728210D01*
X204231815Y-125759380D01*
X204440357Y-125759380D01*
X204412341Y-125682513D01*
X204290083Y-125349277D01*
X204184250Y-125349311D01*
G36*
X202340712Y-125563977D02*
G01*
X202277088Y-125566952D01*
X202237626Y-125574341D01*
X202213243Y-125588134D01*
X202194855Y-125610320D01*
X202189974Y-125617648D01*
X202167003Y-125676312D01*
X202151738Y-125771832D01*
X202145468Y-125859684D01*
X202136489Y-126047500D01*
X202330386Y-126047500D01*
X202336568Y-125883459D01*
X202340357Y-125801067D01*
X202346135Y-125752232D01*
X202357058Y-125728189D01*
X202376282Y-125720178D01*
X202395667Y-125719417D01*
X202422325Y-125721538D01*
X202438538Y-125733744D01*
X202447464Y-125764795D01*
X202452259Y-125823454D01*
X202454766Y-125883459D01*
X202460948Y-126047500D01*
X202649667Y-126047500D01*
X202649667Y-125563428D01*
X202437584Y-125563428D01*
X202340712Y-125563977D01*
G37*
X202340712Y-125563977D02*
X202277088Y-125566952D01*
X202237626Y-125574341D01*
X202213243Y-125588134D01*
X202194855Y-125610320D01*
X202189974Y-125617648D01*
X202167003Y-125676312D01*
X202151738Y-125771832D01*
X202145468Y-125859684D01*
X202136489Y-126047500D01*
X202330386Y-126047500D01*
X202336568Y-125883459D01*
X202340357Y-125801067D01*
X202346135Y-125752232D01*
X202357058Y-125728189D01*
X202376282Y-125720178D01*
X202395667Y-125719417D01*
X202422325Y-125721538D01*
X202438538Y-125733744D01*
X202447464Y-125764795D01*
X202452259Y-125823454D01*
X202454766Y-125883459D01*
X202460948Y-126047500D01*
X202649667Y-126047500D01*
X202649667Y-125563428D01*
X202437584Y-125563428D01*
X202340712Y-125563977D01*
G36*
X201464333Y-126047500D02*
G01*
X201654833Y-126047500D01*
X201654833Y-125560667D01*
X201464333Y-125560667D01*
X201464333Y-126047500D01*
G37*
X201464333Y-126047500D02*
X201654833Y-126047500D01*
X201654833Y-125560667D01*
X201464333Y-125560667D01*
X201464333Y-126047500D01*
G36*
X198960711Y-125567316D02*
G01*
X198948088Y-125594779D01*
X198945500Y-125645334D01*
X198948030Y-125699633D01*
X198961609Y-125723771D01*
X198995222Y-125729873D01*
X199008255Y-125730000D01*
X199060280Y-125740619D01*
X199093380Y-125776206D01*
X199110543Y-125842354D01*
X199114833Y-125929692D01*
X199114833Y-126047500D01*
X199306720Y-126047500D01*
X199294750Y-125571250D01*
X199204792Y-125564741D01*
X199144770Y-125565376D01*
X199116152Y-125576875D01*
X199114833Y-125581361D01*
X199102953Y-125593807D01*
X199073892Y-125582578D01*
X199019177Y-125564122D01*
X198989225Y-125560667D01*
X198960711Y-125567316D01*
G37*
X198960711Y-125567316D02*
X198948088Y-125594779D01*
X198945500Y-125645334D01*
X198948030Y-125699633D01*
X198961609Y-125723771D01*
X198995222Y-125729873D01*
X199008255Y-125730000D01*
X199060280Y-125740619D01*
X199093380Y-125776206D01*
X199110543Y-125842354D01*
X199114833Y-125929692D01*
X199114833Y-126047500D01*
X199306720Y-126047500D01*
X199294750Y-125571250D01*
X199204792Y-125564741D01*
X199144770Y-125565376D01*
X199116152Y-125576875D01*
X199114833Y-125581361D01*
X199102953Y-125593807D01*
X199073892Y-125582578D01*
X199019177Y-125564122D01*
X198989225Y-125560667D01*
X198960711Y-125567316D01*
G36*
X201487463Y-125331682D02*
G01*
X201465498Y-125373285D01*
X201466920Y-125422626D01*
X201490139Y-125467094D01*
X201533566Y-125494079D01*
X201557942Y-125497167D01*
X201606968Y-125486117D01*
X201629433Y-125471767D01*
X201652228Y-125423611D01*
X201648448Y-125367047D01*
X201624363Y-125328896D01*
X201581617Y-125312315D01*
X201534405Y-125310429D01*
X201487463Y-125331682D01*
G37*
X201487463Y-125331682D02*
X201465498Y-125373285D01*
X201466920Y-125422626D01*
X201490139Y-125467094D01*
X201533566Y-125494079D01*
X201557942Y-125497167D01*
X201606968Y-125486117D01*
X201629433Y-125471767D01*
X201652228Y-125423611D01*
X201648448Y-125367047D01*
X201624363Y-125328896D01*
X201581617Y-125312315D01*
X201534405Y-125310429D01*
X201487463Y-125331682D01*
G36*
X202738818Y-122213764D02*
G01*
X202589882Y-122231458D01*
X202452675Y-122265174D01*
X202312434Y-122318185D01*
X202213231Y-122364260D01*
X202020055Y-122482064D01*
X201851938Y-122633142D01*
X201710076Y-122815800D01*
X201595668Y-123028343D01*
X201509911Y-123269077D01*
X201476784Y-123406066D01*
X201466018Y-123480078D01*
X201457106Y-123584350D01*
X201450057Y-123712447D01*
X201444879Y-123857933D01*
X201441580Y-124014372D01*
X201440169Y-124175331D01*
X201440653Y-124334373D01*
X201443041Y-124485063D01*
X201447341Y-124620966D01*
X201453562Y-124735647D01*
X201461711Y-124822670D01*
X201471797Y-124875600D01*
X201474895Y-124883290D01*
X201541174Y-124970821D01*
X201628279Y-125028485D01*
X201727408Y-125055966D01*
X201829758Y-125052950D01*
X201926526Y-125019120D01*
X202008910Y-124954161D01*
X202045668Y-124903751D01*
X202057861Y-124880580D01*
X202067682Y-124853769D01*
X202075499Y-124818417D01*
X202081682Y-124769626D01*
X202086599Y-124702493D01*
X202090618Y-124612120D01*
X202094110Y-124493606D01*
X202097444Y-124342052D01*
X202100596Y-124174250D01*
X202104074Y-123989101D01*
X202107371Y-123840945D01*
X202110910Y-123724447D01*
X202115112Y-123634271D01*
X202120401Y-123565082D01*
X202127197Y-123511545D01*
X202135925Y-123468323D01*
X202147004Y-123430082D01*
X202160859Y-123391485D01*
X202162977Y-123385926D01*
X202246974Y-123216626D01*
X202356406Y-123080763D01*
X202490597Y-122978926D01*
X202648872Y-122911706D01*
X202726608Y-122893128D01*
X202923025Y-122873831D01*
X203105891Y-122891119D01*
X203271717Y-122943396D01*
X203417012Y-123029068D01*
X203538286Y-123146538D01*
X203632048Y-123294211D01*
X203639709Y-123310430D01*
X203670550Y-123383080D01*
X203695208Y-123456044D01*
X203714340Y-123535104D01*
X203728602Y-123626044D01*
X203738652Y-123734645D01*
X203745148Y-123866692D01*
X203748747Y-124027967D01*
X203750106Y-124224252D01*
X203750174Y-124282245D01*
X203750342Y-124449684D01*
X203751015Y-124580202D01*
X203752608Y-124679211D01*
X203755537Y-124752123D01*
X203760216Y-124804351D01*
X203767063Y-124841307D01*
X203776491Y-124868402D01*
X203788918Y-124891049D01*
X203797958Y-124904715D01*
X203881257Y-124996739D01*
X203978454Y-125048959D01*
X204088818Y-125061067D01*
X204146678Y-125052444D01*
X204252409Y-125010721D01*
X204329961Y-124938144D01*
X204365476Y-124876392D01*
X204377887Y-124845453D01*
X204387475Y-124810284D01*
X204394605Y-124765233D01*
X204399638Y-124704646D01*
X204402937Y-124622868D01*
X204404867Y-124514246D01*
X204405789Y-124373126D01*
X204406035Y-124244573D01*
X204405214Y-124030084D01*
X204401906Y-123851357D01*
X204395450Y-123701861D01*
X204385182Y-123575065D01*
X204370439Y-123464437D01*
X204350559Y-123363445D01*
X204324878Y-123265559D01*
X204297973Y-123179859D01*
X204236335Y-123014493D01*
X204168528Y-122877829D01*
X204086271Y-122756287D01*
X203981283Y-122636286D01*
X203942497Y-122596950D01*
X203780221Y-122456528D01*
X203608031Y-122349785D01*
X203420087Y-122274516D01*
X203210546Y-122228515D01*
X202973567Y-122209577D01*
X202914250Y-122208817D01*
X202738818Y-122213764D01*
G37*
X202738818Y-122213764D02*
X202589882Y-122231458D01*
X202452675Y-122265174D01*
X202312434Y-122318185D01*
X202213231Y-122364260D01*
X202020055Y-122482064D01*
X201851938Y-122633142D01*
X201710076Y-122815800D01*
X201595668Y-123028343D01*
X201509911Y-123269077D01*
X201476784Y-123406066D01*
X201466018Y-123480078D01*
X201457106Y-123584350D01*
X201450057Y-123712447D01*
X201444879Y-123857933D01*
X201441580Y-124014372D01*
X201440169Y-124175331D01*
X201440653Y-124334373D01*
X201443041Y-124485063D01*
X201447341Y-124620966D01*
X201453562Y-124735647D01*
X201461711Y-124822670D01*
X201471797Y-124875600D01*
X201474895Y-124883290D01*
X201541174Y-124970821D01*
X201628279Y-125028485D01*
X201727408Y-125055966D01*
X201829758Y-125052950D01*
X201926526Y-125019120D01*
X202008910Y-124954161D01*
X202045668Y-124903751D01*
X202057861Y-124880580D01*
X202067682Y-124853769D01*
X202075499Y-124818417D01*
X202081682Y-124769626D01*
X202086599Y-124702493D01*
X202090618Y-124612120D01*
X202094110Y-124493606D01*
X202097444Y-124342052D01*
X202100596Y-124174250D01*
X202104074Y-123989101D01*
X202107371Y-123840945D01*
X202110910Y-123724447D01*
X202115112Y-123634271D01*
X202120401Y-123565082D01*
X202127197Y-123511545D01*
X202135925Y-123468323D01*
X202147004Y-123430082D01*
X202160859Y-123391485D01*
X202162977Y-123385926D01*
X202246974Y-123216626D01*
X202356406Y-123080763D01*
X202490597Y-122978926D01*
X202648872Y-122911706D01*
X202726608Y-122893128D01*
X202923025Y-122873831D01*
X203105891Y-122891119D01*
X203271717Y-122943396D01*
X203417012Y-123029068D01*
X203538286Y-123146538D01*
X203632048Y-123294211D01*
X203639709Y-123310430D01*
X203670550Y-123383080D01*
X203695208Y-123456044D01*
X203714340Y-123535104D01*
X203728602Y-123626044D01*
X203738652Y-123734645D01*
X203745148Y-123866692D01*
X203748747Y-124027967D01*
X203750106Y-124224252D01*
X203750174Y-124282245D01*
X203750342Y-124449684D01*
X203751015Y-124580202D01*
X203752608Y-124679211D01*
X203755537Y-124752123D01*
X203760216Y-124804351D01*
X203767063Y-124841307D01*
X203776491Y-124868402D01*
X203788918Y-124891049D01*
X203797958Y-124904715D01*
X203881257Y-124996739D01*
X203978454Y-125048959D01*
X204088818Y-125061067D01*
X204146678Y-125052444D01*
X204252409Y-125010721D01*
X204329961Y-124938144D01*
X204365476Y-124876392D01*
X204377887Y-124845453D01*
X204387475Y-124810284D01*
X204394605Y-124765233D01*
X204399638Y-124704646D01*
X204402937Y-124622868D01*
X204404867Y-124514246D01*
X204405789Y-124373126D01*
X204406035Y-124244573D01*
X204405214Y-124030084D01*
X204401906Y-123851357D01*
X204395450Y-123701861D01*
X204385182Y-123575065D01*
X204370439Y-123464437D01*
X204350559Y-123363445D01*
X204324878Y-123265559D01*
X204297973Y-123179859D01*
X204236335Y-123014493D01*
X204168528Y-122877829D01*
X204086271Y-122756287D01*
X203981283Y-122636286D01*
X203942497Y-122596950D01*
X203780221Y-122456528D01*
X203608031Y-122349785D01*
X203420087Y-122274516D01*
X203210546Y-122228515D01*
X202973567Y-122209577D01*
X202914250Y-122208817D01*
X202738818Y-122213764D01*
G36*
X197126258Y-122210598D02*
G01*
X196899355Y-122251508D01*
X196681998Y-122325135D01*
X196479976Y-122432027D01*
X196466198Y-122441008D01*
X196289667Y-122582774D01*
X196138634Y-122756907D01*
X196014747Y-122960801D01*
X195919648Y-123191850D01*
X195865914Y-123392066D01*
X195856079Y-123450577D01*
X195848334Y-123525926D01*
X195842493Y-123622790D01*
X195838370Y-123745846D01*
X195835780Y-123899770D01*
X195834537Y-124089240D01*
X195834368Y-124186995D01*
X195834345Y-124369668D01*
X195834721Y-124514915D01*
X195835821Y-124627643D01*
X195837966Y-124712757D01*
X195841480Y-124775166D01*
X195846686Y-124819775D01*
X195853908Y-124851492D01*
X195863467Y-124875224D01*
X195875688Y-124895877D01*
X195881625Y-124904715D01*
X195952540Y-124989578D01*
X196029420Y-125038318D01*
X196122681Y-125056911D01*
X196148077Y-125057551D01*
X196267524Y-125039147D01*
X196365663Y-124984847D01*
X196437217Y-124900670D01*
X196449111Y-124878397D01*
X196458714Y-124852062D01*
X196466382Y-124816838D01*
X196472467Y-124767897D01*
X196477325Y-124700411D01*
X196481310Y-124609555D01*
X196484775Y-124490499D01*
X196488076Y-124338417D01*
X196491298Y-124163667D01*
X196494748Y-123976614D01*
X196498036Y-123826676D01*
X196501559Y-123708638D01*
X196505714Y-123617286D01*
X196510896Y-123547405D01*
X196517503Y-123493780D01*
X196525930Y-123451196D01*
X196536576Y-123414439D01*
X196549836Y-123378294D01*
X196551316Y-123374525D01*
X196628704Y-123223988D01*
X196731235Y-123094442D01*
X196852272Y-122992460D01*
X196985176Y-122924615D01*
X197015580Y-122914856D01*
X197162318Y-122886244D01*
X197321193Y-122877355D01*
X197469646Y-122889247D01*
X197488529Y-122892672D01*
X197657005Y-122941554D01*
X197797483Y-123017928D01*
X197912992Y-123124678D01*
X198006558Y-123264690D01*
X198081210Y-123440849D01*
X198089238Y-123465167D01*
X198100471Y-123506336D01*
X198109672Y-123556328D01*
X198117181Y-123620294D01*
X198123339Y-123703383D01*
X198128487Y-123810747D01*
X198132966Y-123947537D01*
X198137115Y-124118903D01*
X198139198Y-124220400D01*
X198142918Y-124402441D01*
X198146385Y-124547021D01*
X198149993Y-124659010D01*
X198154132Y-124743275D01*
X198159197Y-124804684D01*
X198165579Y-124848106D01*
X198173670Y-124878410D01*
X198183863Y-124900462D01*
X198195391Y-124917592D01*
X198268663Y-124997607D01*
X198346942Y-125042107D01*
X198441906Y-125057383D01*
X198455244Y-125057551D01*
X198574702Y-125039144D01*
X198672859Y-124984827D01*
X198744417Y-124900670D01*
X198756318Y-124878415D01*
X198765924Y-124852130D01*
X198773590Y-124816986D01*
X198779669Y-124768157D01*
X198784513Y-124700814D01*
X198788478Y-124610130D01*
X198791915Y-124491277D01*
X198795179Y-124339427D01*
X198798381Y-124163667D01*
X198801787Y-123976661D01*
X198805035Y-123826771D01*
X198808524Y-123708783D01*
X198812648Y-123617483D01*
X198817804Y-123547657D01*
X198824389Y-123494091D01*
X198832799Y-123451571D01*
X198843430Y-123414884D01*
X198856678Y-123378815D01*
X198858366Y-123374525D01*
X198943745Y-123208992D01*
X199056254Y-123074968D01*
X199143957Y-123005080D01*
X199235350Y-122950962D01*
X199326885Y-122914888D01*
X199430424Y-122893934D01*
X199557831Y-122885177D01*
X199633417Y-122884456D01*
X199737836Y-122886293D01*
X199814120Y-122892558D01*
X199876421Y-122905753D01*
X199938894Y-122928380D01*
X199977322Y-122945237D01*
X200114551Y-123025933D01*
X200227062Y-123133974D01*
X200318073Y-123273351D01*
X200390800Y-123448055D01*
X200396405Y-123465167D01*
X200407638Y-123506336D01*
X200416839Y-123556328D01*
X200424348Y-123620294D01*
X200430506Y-123703383D01*
X200435654Y-123810747D01*
X200440132Y-123947537D01*
X200444282Y-124118903D01*
X200446364Y-124220400D01*
X200450084Y-124402441D01*
X200453552Y-124547021D01*
X200457159Y-124659010D01*
X200461299Y-124743275D01*
X200466364Y-124804684D01*
X200472745Y-124848106D01*
X200480836Y-124878410D01*
X200491029Y-124900462D01*
X200502558Y-124917592D01*
X200589603Y-125004792D01*
X200689782Y-125052595D01*
X200800681Y-125060031D01*
X200839917Y-125053302D01*
X200942710Y-125013065D01*
X201021560Y-124941607D01*
X201047494Y-124904500D01*
X201062205Y-124878884D01*
X201073559Y-124851058D01*
X201082090Y-124815235D01*
X201088332Y-124765633D01*
X201092817Y-124696465D01*
X201096080Y-124601947D01*
X201098654Y-124476293D01*
X201100912Y-124325434D01*
X201102198Y-124067606D01*
X201097779Y-123846102D01*
X201086785Y-123655188D01*
X201068345Y-123489132D01*
X201041589Y-123342201D01*
X201005648Y-123208662D01*
X200959651Y-123082782D01*
X200902728Y-122958829D01*
X200889592Y-122933062D01*
X200762548Y-122730496D01*
X200607917Y-122559932D01*
X200426228Y-122421724D01*
X200218008Y-122316227D01*
X199983785Y-122243792D01*
X199816141Y-122214388D01*
X199587765Y-122202198D01*
X199360358Y-122222201D01*
X199140601Y-122272172D01*
X198935176Y-122349882D01*
X198750766Y-122453106D01*
X198594052Y-122579616D01*
X198536744Y-122640738D01*
X198462883Y-122727028D01*
X198364063Y-122621381D01*
X198201416Y-122477543D01*
X198013590Y-122363122D01*
X197806374Y-122278667D01*
X197585555Y-122224728D01*
X197356921Y-122201855D01*
X197126258Y-122210598D01*
G37*
X197126258Y-122210598D02*
X196899355Y-122251508D01*
X196681998Y-122325135D01*
X196479976Y-122432027D01*
X196466198Y-122441008D01*
X196289667Y-122582774D01*
X196138634Y-122756907D01*
X196014747Y-122960801D01*
X195919648Y-123191850D01*
X195865914Y-123392066D01*
X195856079Y-123450577D01*
X195848334Y-123525926D01*
X195842493Y-123622790D01*
X195838370Y-123745846D01*
X195835780Y-123899770D01*
X195834537Y-124089240D01*
X195834368Y-124186995D01*
X195834345Y-124369668D01*
X195834721Y-124514915D01*
X195835821Y-124627643D01*
X195837966Y-124712757D01*
X195841480Y-124775166D01*
X195846686Y-124819775D01*
X195853908Y-124851492D01*
X195863467Y-124875224D01*
X195875688Y-124895877D01*
X195881625Y-124904715D01*
X195952540Y-124989578D01*
X196029420Y-125038318D01*
X196122681Y-125056911D01*
X196148077Y-125057551D01*
X196267524Y-125039147D01*
X196365663Y-124984847D01*
X196437217Y-124900670D01*
X196449111Y-124878397D01*
X196458714Y-124852062D01*
X196466382Y-124816838D01*
X196472467Y-124767897D01*
X196477325Y-124700411D01*
X196481310Y-124609555D01*
X196484775Y-124490499D01*
X196488076Y-124338417D01*
X196491298Y-124163667D01*
X196494748Y-123976614D01*
X196498036Y-123826676D01*
X196501559Y-123708638D01*
X196505714Y-123617286D01*
X196510896Y-123547405D01*
X196517503Y-123493780D01*
X196525930Y-123451196D01*
X196536576Y-123414439D01*
X196549836Y-123378294D01*
X196551316Y-123374525D01*
X196628704Y-123223988D01*
X196731235Y-123094442D01*
X196852272Y-122992460D01*
X196985176Y-122924615D01*
X197015580Y-122914856D01*
X197162318Y-122886244D01*
X197321193Y-122877355D01*
X197469646Y-122889247D01*
X197488529Y-122892672D01*
X197657005Y-122941554D01*
X197797483Y-123017928D01*
X197912992Y-123124678D01*
X198006558Y-123264690D01*
X198081210Y-123440849D01*
X198089238Y-123465167D01*
X198100471Y-123506336D01*
X198109672Y-123556328D01*
X198117181Y-123620294D01*
X198123339Y-123703383D01*
X198128487Y-123810747D01*
X198132966Y-123947537D01*
X198137115Y-124118903D01*
X198139198Y-124220400D01*
X198142918Y-124402441D01*
X198146385Y-124547021D01*
X198149993Y-124659010D01*
X198154132Y-124743275D01*
X198159197Y-124804684D01*
X198165579Y-124848106D01*
X198173670Y-124878410D01*
X198183863Y-124900462D01*
X198195391Y-124917592D01*
X198268663Y-124997607D01*
X198346942Y-125042107D01*
X198441906Y-125057383D01*
X198455244Y-125057551D01*
X198574702Y-125039144D01*
X198672859Y-124984827D01*
X198744417Y-124900670D01*
X198756318Y-124878415D01*
X198765924Y-124852130D01*
X198773590Y-124816986D01*
X198779669Y-124768157D01*
X198784513Y-124700814D01*
X198788478Y-124610130D01*
X198791915Y-124491277D01*
X198795179Y-124339427D01*
X198798381Y-124163667D01*
X198801787Y-123976661D01*
X198805035Y-123826771D01*
X198808524Y-123708783D01*
X198812648Y-123617483D01*
X198817804Y-123547657D01*
X198824389Y-123494091D01*
X198832799Y-123451571D01*
X198843430Y-123414884D01*
X198856678Y-123378815D01*
X198858366Y-123374525D01*
X198943745Y-123208992D01*
X199056254Y-123074968D01*
X199143957Y-123005080D01*
X199235350Y-122950962D01*
X199326885Y-122914888D01*
X199430424Y-122893934D01*
X199557831Y-122885177D01*
X199633417Y-122884456D01*
X199737836Y-122886293D01*
X199814120Y-122892558D01*
X199876421Y-122905753D01*
X199938894Y-122928380D01*
X199977322Y-122945237D01*
X200114551Y-123025933D01*
X200227062Y-123133974D01*
X200318073Y-123273351D01*
X200390800Y-123448055D01*
X200396405Y-123465167D01*
X200407638Y-123506336D01*
X200416839Y-123556328D01*
X200424348Y-123620294D01*
X200430506Y-123703383D01*
X200435654Y-123810747D01*
X200440132Y-123947537D01*
X200444282Y-124118903D01*
X200446364Y-124220400D01*
X200450084Y-124402441D01*
X200453552Y-124547021D01*
X200457159Y-124659010D01*
X200461299Y-124743275D01*
X200466364Y-124804684D01*
X200472745Y-124848106D01*
X200480836Y-124878410D01*
X200491029Y-124900462D01*
X200502558Y-124917592D01*
X200589603Y-125004792D01*
X200689782Y-125052595D01*
X200800681Y-125060031D01*
X200839917Y-125053302D01*
X200942710Y-125013065D01*
X201021560Y-124941607D01*
X201047494Y-124904500D01*
X201062205Y-124878884D01*
X201073559Y-124851058D01*
X201082090Y-124815235D01*
X201088332Y-124765633D01*
X201092817Y-124696465D01*
X201096080Y-124601947D01*
X201098654Y-124476293D01*
X201100912Y-124325434D01*
X201102198Y-124067606D01*
X201097779Y-123846102D01*
X201086785Y-123655188D01*
X201068345Y-123489132D01*
X201041589Y-123342201D01*
X201005648Y-123208662D01*
X200959651Y-123082782D01*
X200902728Y-122958829D01*
X200889592Y-122933062D01*
X200762548Y-122730496D01*
X200607917Y-122559932D01*
X200426228Y-122421724D01*
X200218008Y-122316227D01*
X199983785Y-122243792D01*
X199816141Y-122214388D01*
X199587765Y-122202198D01*
X199360358Y-122222201D01*
X199140601Y-122272172D01*
X198935176Y-122349882D01*
X198750766Y-122453106D01*
X198594052Y-122579616D01*
X198536744Y-122640738D01*
X198462883Y-122727028D01*
X198364063Y-122621381D01*
X198201416Y-122477543D01*
X198013590Y-122363122D01*
X197806374Y-122278667D01*
X197585555Y-122224728D01*
X197356921Y-122201855D01*
X197126258Y-122210598D01*
G36*
X194933588Y-121355691D02*
G01*
X194840468Y-121407064D01*
X194781749Y-121473339D01*
X194758835Y-121512537D01*
X194744450Y-121554836D01*
X194736694Y-121611238D01*
X194733669Y-121692743D01*
X194733333Y-121753797D01*
X194733333Y-121962334D01*
X194389375Y-121962413D01*
X194258201Y-121962947D01*
X194161965Y-121964983D01*
X194093279Y-121969274D01*
X194044753Y-121976575D01*
X194009000Y-121987640D01*
X193978630Y-122003222D01*
X193976432Y-122004552D01*
X193893985Y-122077186D01*
X193842442Y-122169618D01*
X193821803Y-122272716D01*
X193832069Y-122377347D01*
X193873239Y-122474377D01*
X193945313Y-122554674D01*
X193976432Y-122576281D01*
X194006698Y-122592222D01*
X194041811Y-122603589D01*
X194089158Y-122611139D01*
X194156129Y-122615624D01*
X194250111Y-122617798D01*
X194378495Y-122618416D01*
X194389375Y-122618421D01*
X194733333Y-122618500D01*
X194733333Y-123445051D01*
X194733108Y-123660371D01*
X194732338Y-123837336D01*
X194730883Y-123979921D01*
X194728600Y-124092103D01*
X194725349Y-124177858D01*
X194720990Y-124241161D01*
X194715379Y-124285989D01*
X194708378Y-124316317D01*
X194701830Y-124332523D01*
X194670327Y-124393443D01*
X194357872Y-124400263D01*
X194233218Y-124403608D01*
X194143335Y-124408005D01*
X194080658Y-124414460D01*
X194037624Y-124423982D01*
X194006671Y-124437579D01*
X193988995Y-124449417D01*
X193908364Y-124534452D01*
X193862163Y-124637761D01*
X193852432Y-124750359D01*
X193881209Y-124863263D01*
X193890597Y-124882849D01*
X193929196Y-124947662D01*
X193972852Y-124995147D01*
X194028704Y-125028024D01*
X194103888Y-125049010D01*
X194205543Y-125060824D01*
X194340807Y-125066185D01*
X194373417Y-125066735D01*
X194490162Y-125067023D01*
X194601776Y-125064849D01*
X194696227Y-125060602D01*
X194761483Y-125054669D01*
X194765530Y-125054063D01*
X194919964Y-125008815D01*
X195058800Y-124925050D01*
X195180213Y-124804285D01*
X195282380Y-124648031D01*
X195302516Y-124608167D01*
X195378917Y-124449417D01*
X195385057Y-123533959D01*
X195391196Y-122618500D01*
X195473391Y-122618500D01*
X195564732Y-122598762D01*
X195644849Y-122544772D01*
X195707066Y-122464367D01*
X195744707Y-122365382D01*
X195752861Y-122290417D01*
X195735071Y-122176215D01*
X195685295Y-122080610D01*
X195608922Y-122010175D01*
X195511342Y-121971482D01*
X195488430Y-121967979D01*
X195394224Y-121957360D01*
X195386018Y-121753055D01*
X195379864Y-121647559D01*
X195369919Y-121572960D01*
X195353932Y-121517851D01*
X195330552Y-121472282D01*
X195259788Y-121395363D01*
X195162359Y-121350913D01*
X195050833Y-121338435D01*
X194933588Y-121355691D01*
G37*
X194933588Y-121355691D02*
X194840468Y-121407064D01*
X194781749Y-121473339D01*
X194758835Y-121512537D01*
X194744450Y-121554836D01*
X194736694Y-121611238D01*
X194733669Y-121692743D01*
X194733333Y-121753797D01*
X194733333Y-121962334D01*
X194389375Y-121962413D01*
X194258201Y-121962947D01*
X194161965Y-121964983D01*
X194093279Y-121969274D01*
X194044753Y-121976575D01*
X194009000Y-121987640D01*
X193978630Y-122003222D01*
X193976432Y-122004552D01*
X193893985Y-122077186D01*
X193842442Y-122169618D01*
X193821803Y-122272716D01*
X193832069Y-122377347D01*
X193873239Y-122474377D01*
X193945313Y-122554674D01*
X193976432Y-122576281D01*
X194006698Y-122592222D01*
X194041811Y-122603589D01*
X194089158Y-122611139D01*
X194156129Y-122615624D01*
X194250111Y-122617798D01*
X194378495Y-122618416D01*
X194389375Y-122618421D01*
X194733333Y-122618500D01*
X194733333Y-123445051D01*
X194733108Y-123660371D01*
X194732338Y-123837336D01*
X194730883Y-123979921D01*
X194728600Y-124092103D01*
X194725349Y-124177858D01*
X194720990Y-124241161D01*
X194715379Y-124285989D01*
X194708378Y-124316317D01*
X194701830Y-124332523D01*
X194670327Y-124393443D01*
X194357872Y-124400263D01*
X194233218Y-124403608D01*
X194143335Y-124408005D01*
X194080658Y-124414460D01*
X194037624Y-124423982D01*
X194006671Y-124437579D01*
X193988995Y-124449417D01*
X193908364Y-124534452D01*
X193862163Y-124637761D01*
X193852432Y-124750359D01*
X193881209Y-124863263D01*
X193890597Y-124882849D01*
X193929196Y-124947662D01*
X193972852Y-124995147D01*
X194028704Y-125028024D01*
X194103888Y-125049010D01*
X194205543Y-125060824D01*
X194340807Y-125066185D01*
X194373417Y-125066735D01*
X194490162Y-125067023D01*
X194601776Y-125064849D01*
X194696227Y-125060602D01*
X194761483Y-125054669D01*
X194765530Y-125054063D01*
X194919964Y-125008815D01*
X195058800Y-124925050D01*
X195180213Y-124804285D01*
X195282380Y-124648031D01*
X195302516Y-124608167D01*
X195378917Y-124449417D01*
X195385057Y-123533959D01*
X195391196Y-122618500D01*
X195473391Y-122618500D01*
X195564732Y-122598762D01*
X195644849Y-122544772D01*
X195707066Y-122464367D01*
X195744707Y-122365382D01*
X195752861Y-122290417D01*
X195735071Y-122176215D01*
X195685295Y-122080610D01*
X195608922Y-122010175D01*
X195511342Y-121971482D01*
X195488430Y-121967979D01*
X195394224Y-121957360D01*
X195386018Y-121753055D01*
X195379864Y-121647559D01*
X195369919Y-121572960D01*
X195353932Y-121517851D01*
X195330552Y-121472282D01*
X195259788Y-121395363D01*
X195162359Y-121350913D01*
X195050833Y-121338435D01*
X194933588Y-121355691D01*
G36*
X192439723Y-122289174D02*
G01*
X192221293Y-122323607D01*
X192023836Y-122390047D01*
X191842126Y-122490311D01*
X191670940Y-122626219D01*
X191651434Y-122644460D01*
X191516833Y-122792655D01*
X191412791Y-122954637D01*
X191337467Y-123135373D01*
X191289022Y-123339827D01*
X191265612Y-123572964D01*
X191262739Y-123692709D01*
X191262000Y-123909667D01*
X192246250Y-123909667D01*
X192445826Y-123909918D01*
X192631839Y-123910636D01*
X192800133Y-123911772D01*
X192946553Y-123913274D01*
X193066943Y-123915090D01*
X193157147Y-123917171D01*
X193213009Y-123919465D01*
X193230500Y-123921728D01*
X193219470Y-123944603D01*
X193191234Y-123990013D01*
X193168438Y-124023993D01*
X193067927Y-124135132D01*
X192930816Y-124231959D01*
X192761055Y-124312313D01*
X192562597Y-124374036D01*
X192503521Y-124387455D01*
X192407266Y-124412320D01*
X192338938Y-124442838D01*
X192284138Y-124485479D01*
X192283087Y-124486495D01*
X192215899Y-124577260D01*
X192183950Y-124678278D01*
X192184800Y-124781588D01*
X192216011Y-124879227D01*
X192275144Y-124963236D01*
X192359758Y-125025653D01*
X192457917Y-125057148D01*
X192518091Y-125059850D01*
X192594466Y-125054796D01*
X192623869Y-125050823D01*
X192799230Y-125011418D01*
X192987036Y-124949431D01*
X193168761Y-124871137D01*
X193198750Y-124856127D01*
X193323166Y-124779632D01*
X193452985Y-124677930D01*
X193578092Y-124560781D01*
X193688370Y-124437944D01*
X193773703Y-124319178D01*
X193796037Y-124279933D01*
X193885659Y-124068673D01*
X193941062Y-123847940D01*
X193962900Y-123623518D01*
X193951824Y-123401191D01*
X193917701Y-123232334D01*
X193211734Y-123232334D01*
X192021600Y-123232334D01*
X192052121Y-123188758D01*
X192136197Y-123102796D01*
X192250604Y-123034443D01*
X192386298Y-122985752D01*
X192534239Y-122958777D01*
X192685384Y-122955570D01*
X192830691Y-122978186D01*
X192892995Y-122997793D01*
X193012883Y-123052773D01*
X193112112Y-123118230D01*
X193180056Y-123187123D01*
X193181213Y-123188758D01*
X193211734Y-123232334D01*
X193917701Y-123232334D01*
X193908487Y-123186741D01*
X193833542Y-122985953D01*
X193727640Y-122804609D01*
X193614506Y-122670806D01*
X193451997Y-122529050D01*
X193280811Y-122422274D01*
X193094178Y-122347670D01*
X192885331Y-122302430D01*
X192684349Y-122284928D01*
X192439723Y-122289174D01*
G37*
X192439723Y-122289174D02*
X192221293Y-122323607D01*
X192023836Y-122390047D01*
X191842126Y-122490311D01*
X191670940Y-122626219D01*
X191651434Y-122644460D01*
X191516833Y-122792655D01*
X191412791Y-122954637D01*
X191337467Y-123135373D01*
X191289022Y-123339827D01*
X191265612Y-123572964D01*
X191262739Y-123692709D01*
X191262000Y-123909667D01*
X192246250Y-123909667D01*
X192445826Y-123909918D01*
X192631839Y-123910636D01*
X192800133Y-123911772D01*
X192946553Y-123913274D01*
X193066943Y-123915090D01*
X193157147Y-123917171D01*
X193213009Y-123919465D01*
X193230500Y-123921728D01*
X193219470Y-123944603D01*
X193191234Y-123990013D01*
X193168438Y-124023993D01*
X193067927Y-124135132D01*
X192930816Y-124231959D01*
X192761055Y-124312313D01*
X192562597Y-124374036D01*
X192503521Y-124387455D01*
X192407266Y-124412320D01*
X192338938Y-124442838D01*
X192284138Y-124485479D01*
X192283087Y-124486495D01*
X192215899Y-124577260D01*
X192183950Y-124678278D01*
X192184800Y-124781588D01*
X192216011Y-124879227D01*
X192275144Y-124963236D01*
X192359758Y-125025653D01*
X192457917Y-125057148D01*
X192518091Y-125059850D01*
X192594466Y-125054796D01*
X192623869Y-125050823D01*
X192799230Y-125011418D01*
X192987036Y-124949431D01*
X193168761Y-124871137D01*
X193198750Y-124856127D01*
X193323166Y-124779632D01*
X193452985Y-124677930D01*
X193578092Y-124560781D01*
X193688370Y-124437944D01*
X193773703Y-124319178D01*
X193796037Y-124279933D01*
X193885659Y-124068673D01*
X193941062Y-123847940D01*
X193962900Y-123623518D01*
X193951824Y-123401191D01*
X193917701Y-123232334D01*
X193211734Y-123232334D01*
X192021600Y-123232334D01*
X192052121Y-123188758D01*
X192136197Y-123102796D01*
X192250604Y-123034443D01*
X192386298Y-122985752D01*
X192534239Y-122958777D01*
X192685384Y-122955570D01*
X192830691Y-122978186D01*
X192892995Y-122997793D01*
X193012883Y-123052773D01*
X193112112Y-123118230D01*
X193180056Y-123187123D01*
X193181213Y-123188758D01*
X193211734Y-123232334D01*
X193917701Y-123232334D01*
X193908487Y-123186741D01*
X193833542Y-122985953D01*
X193727640Y-122804609D01*
X193614506Y-122670806D01*
X193451997Y-122529050D01*
X193280811Y-122422274D01*
X193094178Y-122347670D01*
X192885331Y-122302430D01*
X192684349Y-122284928D01*
X192439723Y-122289174D01*
G36*
X185979707Y-122213241D02*
G01*
X185728038Y-122262514D01*
X185502274Y-122345266D01*
X185302475Y-122461447D01*
X185128700Y-122611008D01*
X184981009Y-122793898D01*
X184859461Y-123010068D01*
X184779873Y-123210540D01*
X184712246Y-123412250D01*
X184704827Y-124121334D01*
X184697408Y-124830417D01*
X184746496Y-124902554D01*
X184817112Y-124987800D01*
X184892744Y-125037132D01*
X184983878Y-125056618D01*
X185014411Y-125057551D01*
X185133868Y-125039144D01*
X185232025Y-124984827D01*
X185303583Y-124900670D01*
X185315577Y-124878209D01*
X185325246Y-124851642D01*
X185332956Y-124816094D01*
X185339071Y-124766693D01*
X185343955Y-124698563D01*
X185347972Y-124606831D01*
X185351486Y-124486623D01*
X185354861Y-124333064D01*
X185357865Y-124174250D01*
X185361820Y-123974707D01*
X185366180Y-123812138D01*
X185371697Y-123681188D01*
X185379123Y-123576499D01*
X185389211Y-123492714D01*
X185402712Y-123424478D01*
X185420377Y-123366432D01*
X185442960Y-123313220D01*
X185471212Y-123259486D01*
X185491139Y-123224865D01*
X185590359Y-123095958D01*
X185718046Y-122994594D01*
X185868951Y-122922720D01*
X186037822Y-122882287D01*
X186219408Y-122875241D01*
X186376750Y-122896300D01*
X186541264Y-122948105D01*
X186679248Y-123029317D01*
X186793108Y-123142298D01*
X186885248Y-123289413D01*
X186955571Y-123465167D01*
X186966804Y-123506336D01*
X186976005Y-123556328D01*
X186983514Y-123620294D01*
X186989673Y-123703383D01*
X186994821Y-123810747D01*
X186999299Y-123947537D01*
X187003449Y-124118903D01*
X187005531Y-124220400D01*
X187009251Y-124402441D01*
X187012719Y-124547021D01*
X187016326Y-124659010D01*
X187020466Y-124743275D01*
X187025530Y-124804684D01*
X187031912Y-124848106D01*
X187040003Y-124878410D01*
X187050196Y-124900462D01*
X187061725Y-124917592D01*
X187148770Y-125004792D01*
X187248949Y-125052595D01*
X187359848Y-125060031D01*
X187399083Y-125053302D01*
X187501877Y-125013065D01*
X187580727Y-124941607D01*
X187606661Y-124904500D01*
X187621372Y-124878884D01*
X187632726Y-124851058D01*
X187641257Y-124815235D01*
X187647498Y-124765633D01*
X187651984Y-124696465D01*
X187655246Y-124601947D01*
X187657821Y-124476293D01*
X187660078Y-124325434D01*
X187661365Y-124067606D01*
X187656946Y-123846102D01*
X187645952Y-123655188D01*
X187627512Y-123489132D01*
X187600756Y-123342201D01*
X187564815Y-123208662D01*
X187518818Y-123082782D01*
X187461895Y-122958829D01*
X187448759Y-122933062D01*
X187323295Y-122734885D01*
X187168548Y-122565274D01*
X186987927Y-122425899D01*
X186784841Y-122318430D01*
X186562697Y-122244537D01*
X186324906Y-122205890D01*
X186074875Y-122204161D01*
X185979707Y-122213241D01*
G37*
X185979707Y-122213241D02*
X185728038Y-122262514D01*
X185502274Y-122345266D01*
X185302475Y-122461447D01*
X185128700Y-122611008D01*
X184981009Y-122793898D01*
X184859461Y-123010068D01*
X184779873Y-123210540D01*
X184712246Y-123412250D01*
X184704827Y-124121334D01*
X184697408Y-124830417D01*
X184746496Y-124902554D01*
X184817112Y-124987800D01*
X184892744Y-125037132D01*
X184983878Y-125056618D01*
X185014411Y-125057551D01*
X185133868Y-125039144D01*
X185232025Y-124984827D01*
X185303583Y-124900670D01*
X185315577Y-124878209D01*
X185325246Y-124851642D01*
X185332956Y-124816094D01*
X185339071Y-124766693D01*
X185343955Y-124698563D01*
X185347972Y-124606831D01*
X185351486Y-124486623D01*
X185354861Y-124333064D01*
X185357865Y-124174250D01*
X185361820Y-123974707D01*
X185366180Y-123812138D01*
X185371697Y-123681188D01*
X185379123Y-123576499D01*
X185389211Y-123492714D01*
X185402712Y-123424478D01*
X185420377Y-123366432D01*
X185442960Y-123313220D01*
X185471212Y-123259486D01*
X185491139Y-123224865D01*
X185590359Y-123095958D01*
X185718046Y-122994594D01*
X185868951Y-122922720D01*
X186037822Y-122882287D01*
X186219408Y-122875241D01*
X186376750Y-122896300D01*
X186541264Y-122948105D01*
X186679248Y-123029317D01*
X186793108Y-123142298D01*
X186885248Y-123289413D01*
X186955571Y-123465167D01*
X186966804Y-123506336D01*
X186976005Y-123556328D01*
X186983514Y-123620294D01*
X186989673Y-123703383D01*
X186994821Y-123810747D01*
X186999299Y-123947537D01*
X187003449Y-124118903D01*
X187005531Y-124220400D01*
X187009251Y-124402441D01*
X187012719Y-124547021D01*
X187016326Y-124659010D01*
X187020466Y-124743275D01*
X187025530Y-124804684D01*
X187031912Y-124848106D01*
X187040003Y-124878410D01*
X187050196Y-124900462D01*
X187061725Y-124917592D01*
X187148770Y-125004792D01*
X187248949Y-125052595D01*
X187359848Y-125060031D01*
X187399083Y-125053302D01*
X187501877Y-125013065D01*
X187580727Y-124941607D01*
X187606661Y-124904500D01*
X187621372Y-124878884D01*
X187632726Y-124851058D01*
X187641257Y-124815235D01*
X187647498Y-124765633D01*
X187651984Y-124696465D01*
X187655246Y-124601947D01*
X187657821Y-124476293D01*
X187660078Y-124325434D01*
X187661365Y-124067606D01*
X187656946Y-123846102D01*
X187645952Y-123655188D01*
X187627512Y-123489132D01*
X187600756Y-123342201D01*
X187564815Y-123208662D01*
X187518818Y-123082782D01*
X187461895Y-122958829D01*
X187448759Y-122933062D01*
X187323295Y-122734885D01*
X187168548Y-122565274D01*
X186987927Y-122425899D01*
X186784841Y-122318430D01*
X186562697Y-122244537D01*
X186324906Y-122205890D01*
X186074875Y-122204161D01*
X185979707Y-122213241D01*
G36*
X202870926Y-123406020D02*
G01*
X202765174Y-123431069D01*
X202681182Y-123474494D01*
X202598696Y-123561474D01*
X202547313Y-123666883D01*
X202526389Y-123782247D01*
X202535280Y-123899094D01*
X202573341Y-124008949D01*
X202639930Y-124103340D01*
X202734333Y-124173758D01*
X202827533Y-124204672D01*
X202934244Y-124215058D01*
X203029894Y-124202780D01*
X203141882Y-124149368D01*
X203230297Y-124066153D01*
X203290782Y-123961053D01*
X203318981Y-123841983D01*
X203310539Y-123716861D01*
X203306418Y-123700171D01*
X203268203Y-123613710D01*
X203205877Y-123528103D01*
X203131626Y-123457820D01*
X203072821Y-123422759D01*
X202979478Y-123402457D01*
X202870926Y-123406020D01*
G37*
X202870926Y-123406020D02*
X202765174Y-123431069D01*
X202681182Y-123474494D01*
X202598696Y-123561474D01*
X202547313Y-123666883D01*
X202526389Y-123782247D01*
X202535280Y-123899094D01*
X202573341Y-124008949D01*
X202639930Y-124103340D01*
X202734333Y-124173758D01*
X202827533Y-124204672D01*
X202934244Y-124215058D01*
X203029894Y-124202780D01*
X203141882Y-124149368D01*
X203230297Y-124066153D01*
X203290782Y-123961053D01*
X203318981Y-123841983D01*
X203310539Y-123716861D01*
X203306418Y-123700171D01*
X203268203Y-123613710D01*
X203205877Y-123528103D01*
X203131626Y-123457820D01*
X203072821Y-123422759D01*
X202979478Y-123402457D01*
X202870926Y-123406020D01*
G36*
X186050503Y-123420023D02*
G01*
X185941711Y-123471665D01*
X185857071Y-123551755D01*
X185802269Y-123655420D01*
X185784811Y-123738311D01*
X185782958Y-123867821D01*
X185806954Y-123971496D01*
X185859176Y-124058730D01*
X185868686Y-124069951D01*
X185969065Y-124156536D01*
X186082719Y-124205841D01*
X186203785Y-124215808D01*
X186259085Y-124206920D01*
X186379846Y-124158598D01*
X186472877Y-124080005D01*
X186534738Y-123975539D01*
X186561989Y-123849598D01*
X186563000Y-123818205D01*
X186554447Y-123701817D01*
X186525725Y-123611415D01*
X186472240Y-123533620D01*
X186461112Y-123521485D01*
X186376174Y-123449716D01*
X186283389Y-123411884D01*
X186177760Y-123401700D01*
X186050503Y-123420023D01*
G37*
X186050503Y-123420023D02*
X185941711Y-123471665D01*
X185857071Y-123551755D01*
X185802269Y-123655420D01*
X185784811Y-123738311D01*
X185782958Y-123867821D01*
X185806954Y-123971496D01*
X185859176Y-124058730D01*
X185868686Y-124069951D01*
X185969065Y-124156536D01*
X186082719Y-124205841D01*
X186203785Y-124215808D01*
X186259085Y-124206920D01*
X186379846Y-124158598D01*
X186472877Y-124080005D01*
X186534738Y-123975539D01*
X186561989Y-123849598D01*
X186563000Y-123818205D01*
X186554447Y-123701817D01*
X186525725Y-123611415D01*
X186472240Y-123533620D01*
X186461112Y-123521485D01*
X186376174Y-123449716D01*
X186283389Y-123411884D01*
X186177760Y-123401700D01*
X186050503Y-123420023D01*
D12*
X153330000Y-135986000D02*
X153330000Y-137826000D01*
X153090000Y-135986000D02*
X153090000Y-137826000D01*
X153210000Y-135986000D02*
X153210000Y-137826000D01*
X149326000Y-136906000D02*
X150506000Y-136906000D01*
X154966000Y-136906000D02*
X153786000Y-136906000D01*
X150506000Y-135986000D02*
X153786000Y-135986000D01*
X150506000Y-137826000D02*
X150506000Y-135986000D01*
X153786000Y-137826000D02*
X150506000Y-137826000D01*
X153786000Y-135986000D02*
X153786000Y-137826000D01*
X153330000Y-133700000D02*
X153330000Y-135540000D01*
X153090000Y-133700000D02*
X153090000Y-135540000D01*
X153210000Y-133700000D02*
X153210000Y-135540000D01*
X149326000Y-134620000D02*
X150506000Y-134620000D01*
X154966000Y-134620000D02*
X153786000Y-134620000D01*
X150506000Y-133700000D02*
X153786000Y-133700000D01*
X150506000Y-135540000D02*
X150506000Y-133700000D01*
X153786000Y-135540000D02*
X150506000Y-135540000D01*
X153786000Y-133700000D02*
X153786000Y-135540000D01*
X186888000Y-135851000D02*
X186888000Y-135836000D01*
X186888000Y-137976000D02*
X186888000Y-137961000D01*
X182348000Y-135851000D02*
X182348000Y-135836000D01*
X182348000Y-137976000D02*
X182348000Y-137961000D01*
X182348000Y-135836000D02*
X186888000Y-135836000D01*
X182348000Y-137976000D02*
X186888000Y-137976000D01*
D14*
X126364000Y-106776000D02*
X126364000Y-118776000D01*
D12*
X157902000Y-120704000D02*
X161520000Y-120704000D01*
X157902000Y-118994000D02*
X157902000Y-120704000D01*
X164364700Y-125204000D02*
X180059300Y-125204000D01*
X186522000Y-118994000D02*
X186522000Y-120704000D01*
X182904000Y-120704000D02*
X186522000Y-120704000D01*
X186522000Y-113484000D02*
X182904000Y-113484000D01*
X186522000Y-115194000D02*
X186522000Y-113484000D01*
X180059300Y-108984000D02*
X176072000Y-108984000D01*
X173872000Y-111184000D02*
X176072000Y-108984000D01*
X173872000Y-111184000D02*
X170552000Y-111184000D01*
X170552000Y-111184000D02*
X168352000Y-108984000D01*
X168352000Y-108984000D02*
X164364700Y-108984000D01*
X161520000Y-113484000D02*
X157902000Y-113484000D01*
X157902000Y-115194000D02*
X157902000Y-113484000D01*
X164366630Y-125205789D02*
G75*
G02X161520000Y-120704000I7845370J8111789D01*
G01*
X180057370Y-108982211D02*
G75*
G02X182904000Y-113484000I-7845370J-8111789D01*
G01*
X180057370Y-125205789D02*
G75*
G03X182904000Y-120704000I-7845370J8111789D01*
G01*
X164366630Y-108982211D02*
G75*
G03X161520000Y-113484000I7845370J-8111789D01*
G01*
X148202815Y-109538827D02*
G75*
G02X142855000Y-110002830I-2787815J1080827D01*
G01*
X148202815Y-107377173D02*
G75*
G03X142855000Y-106913170I-2787815J-1080827D01*
G01*
X147669479Y-109538429D02*
G75*
G02X143160316Y-109538000I-2254479J1080429D01*
G01*
X147669479Y-107377571D02*
G75*
G03X143160316Y-107378000I-2254479J-1080429D01*
G01*
X142855000Y-110003000D02*
X142855000Y-109538000D01*
X142855000Y-107378000D02*
X142855000Y-106913000D01*
X137788815Y-99124827D02*
G75*
G02X132441000Y-99588830I-2787815J1080827D01*
G01*
X137788815Y-96963173D02*
G75*
G03X132441000Y-96499170I-2787815J-1080827D01*
G01*
X137255479Y-99124429D02*
G75*
G02X132746316Y-99124000I-2254479J1080429D01*
G01*
X137255479Y-96963571D02*
G75*
G03X132746316Y-96964000I-2254479J-1080429D01*
G01*
X132441000Y-99589000D02*
X132441000Y-99124000D01*
X132441000Y-96964000D02*
X132441000Y-96499000D01*
X190366815Y-110554827D02*
G75*
G02X185019000Y-111018830I-2787815J1080827D01*
G01*
X190366815Y-108393173D02*
G75*
G03X185019000Y-107929170I-2787815J-1080827D01*
G01*
X189833479Y-110554429D02*
G75*
G02X185324316Y-110554000I-2254479J1080429D01*
G01*
X189833479Y-108393571D02*
G75*
G03X185324316Y-108394000I-2254479J-1080429D01*
G01*
X185019000Y-111019000D02*
X185019000Y-110554000D01*
X185019000Y-108394000D02*
X185019000Y-107929000D01*
X206368815Y-113856827D02*
G75*
G02X201021000Y-114320830I-2787815J1080827D01*
G01*
X206368815Y-111695173D02*
G75*
G03X201021000Y-111231170I-2787815J-1080827D01*
G01*
X205835479Y-113856429D02*
G75*
G02X201326316Y-113856000I-2254479J1080429D01*
G01*
X205835479Y-111695571D02*
G75*
G03X201326316Y-111696000I-2254479J-1080429D01*
G01*
X201021000Y-114321000D02*
X201021000Y-113856000D01*
X201021000Y-111696000D02*
X201021000Y-111231000D01*
X128428000Y-127574000D02*
X127428000Y-127574000D01*
X127428000Y-125174000D02*
X127428000Y-127574000D01*
X128397000Y-127574000D02*
X129397000Y-130574000D01*
X128428000Y-125174000D02*
X127428000Y-125174000D01*
X128428000Y-125174000D02*
X128428000Y-127574000D01*
X129428000Y-122174000D02*
X128428000Y-125174000D01*
X153330000Y-131414000D02*
X153330000Y-133254000D01*
X153090000Y-131414000D02*
X153090000Y-133254000D01*
X153210000Y-131414000D02*
X153210000Y-133254000D01*
X149326000Y-132334000D02*
X150506000Y-132334000D01*
X154966000Y-132334000D02*
X153786000Y-132334000D01*
X150506000Y-131414000D02*
X153786000Y-131414000D01*
X150506000Y-133254000D02*
X150506000Y-131414000D01*
X153786000Y-133254000D02*
X150506000Y-133254000D01*
X153786000Y-131414000D02*
X153786000Y-133254000D01*
X191286000Y-133604000D02*
X192056000Y-133604000D01*
X199366000Y-133604000D02*
X198596000Y-133604000D01*
X192056000Y-132234000D02*
X198596000Y-132234000D01*
X192056000Y-134974000D02*
X192056000Y-132234000D01*
X198596000Y-134974000D02*
X192056000Y-134974000D01*
X198596000Y-132234000D02*
X198596000Y-134974000D01*
X146788000Y-139700000D02*
X146018000Y-139700000D01*
X138708000Y-139700000D02*
X139478000Y-139700000D01*
X146018000Y-141070000D02*
X139478000Y-141070000D01*
X146018000Y-138330000D02*
X146018000Y-141070000D01*
X139478000Y-138330000D02*
X146018000Y-138330000D01*
X139478000Y-141070000D02*
X139478000Y-138330000D01*
X191286000Y-139700000D02*
X192056000Y-139700000D01*
X199366000Y-139700000D02*
X198596000Y-139700000D01*
X192056000Y-138330000D02*
X198596000Y-138330000D01*
X192056000Y-141070000D02*
X192056000Y-138330000D01*
X198596000Y-141070000D02*
X192056000Y-141070000D01*
X198596000Y-138330000D02*
X198596000Y-141070000D01*
X199366000Y-136652000D02*
X198596000Y-136652000D01*
X191286000Y-136652000D02*
X192056000Y-136652000D01*
X198596000Y-138022000D02*
X192056000Y-138022000D01*
X198596000Y-135282000D02*
X198596000Y-138022000D01*
X192056000Y-135282000D02*
X198596000Y-135282000D01*
X192056000Y-138022000D02*
X192056000Y-135282000D01*
X140097000Y-109981000D02*
X140097000Y-109870000D01*
X140097000Y-112271000D02*
X140097000Y-111998000D01*
X140097000Y-114561000D02*
X140097000Y-114288000D01*
X140097000Y-116690000D02*
X140097000Y-116579000D01*
X140836000Y-109870000D02*
X138296000Y-109870000D01*
X140836000Y-116690000D02*
X138296000Y-116690000D01*
X138296000Y-116690000D02*
X138296000Y-109870000D01*
X140836000Y-116690000D02*
X140836000Y-109870000D01*
X186158000Y-139700000D02*
X185388000Y-139700000D01*
X178078000Y-139700000D02*
X178848000Y-139700000D01*
X185388000Y-141070000D02*
X178848000Y-141070000D01*
X185388000Y-138330000D02*
X185388000Y-141070000D01*
X178848000Y-138330000D02*
X185388000Y-138330000D01*
X178848000Y-141070000D02*
X178848000Y-138330000D01*
X159742000Y-139700000D02*
X158972000Y-139700000D01*
X151662000Y-139700000D02*
X152432000Y-139700000D01*
X158972000Y-141070000D02*
X152432000Y-141070000D01*
X158972000Y-138330000D02*
X158972000Y-141070000D01*
X152432000Y-138330000D02*
X158972000Y-138330000D01*
X152432000Y-141070000D02*
X152432000Y-138330000D01*
X164870000Y-139700000D02*
X165640000Y-139700000D01*
X172950000Y-139700000D02*
X172180000Y-139700000D01*
X165640000Y-138330000D02*
X172180000Y-138330000D01*
X165640000Y-141070000D02*
X165640000Y-138330000D01*
X172180000Y-141070000D02*
X165640000Y-141070000D01*
X172180000Y-138330000D02*
X172180000Y-141070000D01*
X211982000Y-137462000D02*
X211982000Y-138962000D01*
X210732000Y-141462000D02*
X206232000Y-141462000D01*
X204982000Y-138962000D02*
X204982000Y-137462000D01*
X206232000Y-134962000D02*
X210732000Y-134962000D01*
D14*
X165286666Y-131735142D02*
X165334285Y-131782761D01*
X165477142Y-131830380D01*
X165572380Y-131830380D01*
X165715238Y-131782761D01*
X165810476Y-131687523D01*
X165858095Y-131592285D01*
X165905714Y-131401809D01*
X165905714Y-131258952D01*
X165858095Y-131068476D01*
X165810476Y-130973238D01*
X165715238Y-130878000D01*
X165572380Y-130830380D01*
X165477142Y-130830380D01*
X165334285Y-130878000D01*
X165286666Y-130925619D01*
X164905714Y-130925619D02*
X164858095Y-130878000D01*
X164762857Y-130830380D01*
X164524761Y-130830380D01*
X164429523Y-130878000D01*
X164381904Y-130925619D01*
X164334285Y-131020857D01*
X164334285Y-131116095D01*
X164381904Y-131258952D01*
X164953333Y-131830380D01*
X164334285Y-131830380D01*
X141327095Y-130396380D02*
X141327095Y-129396380D01*
X141089000Y-129396380D01*
X140946142Y-129444000D01*
X140850904Y-129539238D01*
X140803285Y-129634476D01*
X140755666Y-129824952D01*
X140755666Y-129967809D01*
X140803285Y-130158285D01*
X140850904Y-130253523D01*
X140946142Y-130348761D01*
X141089000Y-130396380D01*
X141327095Y-130396380D01*
X140184238Y-129824952D02*
X140279476Y-129777333D01*
X140327095Y-129729714D01*
X140374714Y-129634476D01*
X140374714Y-129586857D01*
X140327095Y-129491619D01*
X140279476Y-129444000D01*
X140184238Y-129396380D01*
X139993761Y-129396380D01*
X139898523Y-129444000D01*
X139850904Y-129491619D01*
X139803285Y-129586857D01*
X139803285Y-129634476D01*
X139850904Y-129729714D01*
X139898523Y-129777333D01*
X139993761Y-129824952D01*
X140184238Y-129824952D01*
X140279476Y-129872571D01*
X140327095Y-129920190D01*
X140374714Y-130015428D01*
X140374714Y-130205904D01*
X140327095Y-130301142D01*
X140279476Y-130348761D01*
X140184238Y-130396380D01*
X139993761Y-130396380D01*
X139898523Y-130348761D01*
X139850904Y-130301142D01*
X139803285Y-130205904D01*
X139803285Y-130015428D01*
X139850904Y-129920190D01*
X139898523Y-129872571D01*
X139993761Y-129824952D01*
X152630095Y-137358380D02*
X152630095Y-136358380D01*
X152392000Y-136358380D01*
X152249142Y-136406000D01*
X152153904Y-136501238D01*
X152106285Y-136596476D01*
X152058666Y-136786952D01*
X152058666Y-136929809D01*
X152106285Y-137120285D01*
X152153904Y-137215523D01*
X152249142Y-137310761D01*
X152392000Y-137358380D01*
X152630095Y-137358380D01*
X151725333Y-136358380D02*
X151106285Y-136358380D01*
X151439619Y-136739333D01*
X151296761Y-136739333D01*
X151201523Y-136786952D01*
X151153904Y-136834571D01*
X151106285Y-136929809D01*
X151106285Y-137167904D01*
X151153904Y-137263142D01*
X151201523Y-137310761D01*
X151296761Y-137358380D01*
X151582476Y-137358380D01*
X151677714Y-137310761D01*
X151725333Y-137263142D01*
X152630095Y-135072380D02*
X152630095Y-134072380D01*
X152392000Y-134072380D01*
X152249142Y-134120000D01*
X152153904Y-134215238D01*
X152106285Y-134310476D01*
X152058666Y-134500952D01*
X152058666Y-134643809D01*
X152106285Y-134834285D01*
X152153904Y-134929523D01*
X152249142Y-135024761D01*
X152392000Y-135072380D01*
X152630095Y-135072380D01*
X151677714Y-134167619D02*
X151630095Y-134120000D01*
X151534857Y-134072380D01*
X151296761Y-134072380D01*
X151201523Y-134120000D01*
X151153904Y-134167619D01*
X151106285Y-134262857D01*
X151106285Y-134358095D01*
X151153904Y-134500952D01*
X151725333Y-135072380D01*
X151106285Y-135072380D01*
X184784666Y-139463142D02*
X184832285Y-139510761D01*
X184975142Y-139558380D01*
X185070380Y-139558380D01*
X185213238Y-139510761D01*
X185308476Y-139415523D01*
X185356095Y-139320285D01*
X185403714Y-139129809D01*
X185403714Y-138986952D01*
X185356095Y-138796476D01*
X185308476Y-138701238D01*
X185213238Y-138606000D01*
X185070380Y-138558380D01*
X184975142Y-138558380D01*
X184832285Y-138606000D01*
X184784666Y-138653619D01*
X183832285Y-139558380D02*
X184403714Y-139558380D01*
X184118000Y-139558380D02*
X184118000Y-138558380D01*
X184213238Y-138701238D01*
X184308476Y-138796476D01*
X184403714Y-138844095D01*
X172997714Y-109402571D02*
X172854857Y-109450190D01*
X172807238Y-109497809D01*
X172759619Y-109593047D01*
X172759619Y-109735904D01*
X172807238Y-109831142D01*
X172854857Y-109878761D01*
X172950095Y-109926380D01*
X173331047Y-109926380D01*
X173331047Y-108926380D01*
X172997714Y-108926380D01*
X172902476Y-108974000D01*
X172854857Y-109021619D01*
X172807238Y-109116857D01*
X172807238Y-109212095D01*
X172854857Y-109307333D01*
X172902476Y-109354952D01*
X172997714Y-109402571D01*
X173331047Y-109402571D01*
X172473904Y-108926380D02*
X171902476Y-108926380D01*
X172188190Y-109926380D02*
X172188190Y-108926380D01*
X171045333Y-109926380D02*
X171616761Y-109926380D01*
X171331047Y-109926380D02*
X171331047Y-108926380D01*
X171426285Y-109069238D01*
X171521523Y-109164476D01*
X171616761Y-109212095D01*
X146026095Y-112720380D02*
X146026095Y-111720380D01*
X145788000Y-111720380D01*
X145645142Y-111768000D01*
X145549904Y-111863238D01*
X145502285Y-111958476D01*
X145454666Y-112148952D01*
X145454666Y-112291809D01*
X145502285Y-112482285D01*
X145549904Y-112577523D01*
X145645142Y-112672761D01*
X145788000Y-112720380D01*
X146026095Y-112720380D01*
X145121333Y-111720380D02*
X144454666Y-111720380D01*
X144883238Y-112720380D01*
X135612095Y-102052380D02*
X135612095Y-101052380D01*
X135374000Y-101052380D01*
X135231142Y-101100000D01*
X135135904Y-101195238D01*
X135088285Y-101290476D01*
X135040666Y-101480952D01*
X135040666Y-101623809D01*
X135088285Y-101814285D01*
X135135904Y-101909523D01*
X135231142Y-102004761D01*
X135374000Y-102052380D01*
X135612095Y-102052380D01*
X134183523Y-101052380D02*
X134374000Y-101052380D01*
X134469238Y-101100000D01*
X134516857Y-101147619D01*
X134612095Y-101290476D01*
X134659714Y-101480952D01*
X134659714Y-101861904D01*
X134612095Y-101957142D01*
X134564476Y-102004761D01*
X134469238Y-102052380D01*
X134278761Y-102052380D01*
X134183523Y-102004761D01*
X134135904Y-101957142D01*
X134088285Y-101861904D01*
X134088285Y-101623809D01*
X134135904Y-101528571D01*
X134183523Y-101480952D01*
X134278761Y-101433333D01*
X134469238Y-101433333D01*
X134564476Y-101480952D01*
X134612095Y-101528571D01*
X134659714Y-101623809D01*
X188444095Y-113736380D02*
X188444095Y-112736380D01*
X188206000Y-112736380D01*
X188063142Y-112784000D01*
X187967904Y-112879238D01*
X187920285Y-112974476D01*
X187872666Y-113164952D01*
X187872666Y-113307809D01*
X187920285Y-113498285D01*
X187967904Y-113593523D01*
X188063142Y-113688761D01*
X188206000Y-113736380D01*
X188444095Y-113736380D01*
X186967904Y-112736380D02*
X187444095Y-112736380D01*
X187491714Y-113212571D01*
X187444095Y-113164952D01*
X187348857Y-113117333D01*
X187110761Y-113117333D01*
X187015523Y-113164952D01*
X186967904Y-113212571D01*
X186920285Y-113307809D01*
X186920285Y-113545904D01*
X186967904Y-113641142D01*
X187015523Y-113688761D01*
X187110761Y-113736380D01*
X187348857Y-113736380D01*
X187444095Y-113688761D01*
X187491714Y-113641142D01*
X204446095Y-116784380D02*
X204446095Y-115784380D01*
X204208000Y-115784380D01*
X204065142Y-115832000D01*
X203969904Y-115927238D01*
X203922285Y-116022476D01*
X203874666Y-116212952D01*
X203874666Y-116355809D01*
X203922285Y-116546285D01*
X203969904Y-116641523D01*
X204065142Y-116736761D01*
X204208000Y-116784380D01*
X204446095Y-116784380D01*
X203017523Y-116117714D02*
X203017523Y-116784380D01*
X203255619Y-115736761D02*
X203493714Y-116451047D01*
X202874666Y-116451047D01*
X132459361Y-125057066D02*
X132506980Y-125199923D01*
X132506980Y-125438019D01*
X132459361Y-125533257D01*
X132411742Y-125580876D01*
X132316504Y-125628495D01*
X132221266Y-125628495D01*
X132126028Y-125580876D01*
X132078409Y-125533257D01*
X132030790Y-125438019D01*
X131983171Y-125247542D01*
X131935552Y-125152304D01*
X131887933Y-125104685D01*
X131792695Y-125057066D01*
X131697457Y-125057066D01*
X131602219Y-125104685D01*
X131554600Y-125152304D01*
X131506980Y-125247542D01*
X131506980Y-125485638D01*
X131554600Y-125628495D01*
X131506980Y-125961828D02*
X132506980Y-126199923D01*
X131792695Y-126390400D01*
X132506980Y-126580876D01*
X131506980Y-126818971D01*
X131602219Y-127152304D02*
X131554600Y-127199923D01*
X131506980Y-127295161D01*
X131506980Y-127533257D01*
X131554600Y-127628495D01*
X131602219Y-127676114D01*
X131697457Y-127723733D01*
X131792695Y-127723733D01*
X131935552Y-127676114D01*
X132506980Y-127104685D01*
X132506980Y-127723733D01*
X152630095Y-132786380D02*
X152630095Y-131786380D01*
X152392000Y-131786380D01*
X152249142Y-131834000D01*
X152153904Y-131929238D01*
X152106285Y-132024476D01*
X152058666Y-132214952D01*
X152058666Y-132357809D01*
X152106285Y-132548285D01*
X152153904Y-132643523D01*
X152249142Y-132738761D01*
X152392000Y-132786380D01*
X152630095Y-132786380D01*
X151106285Y-132786380D02*
X151677714Y-132786380D01*
X151392000Y-132786380D02*
X151392000Y-131786380D01*
X151487238Y-131929238D01*
X151582476Y-132024476D01*
X151677714Y-132072095D01*
X195492666Y-134056380D02*
X195826000Y-133580190D01*
X196064095Y-134056380D02*
X196064095Y-133056380D01*
X195683142Y-133056380D01*
X195587904Y-133104000D01*
X195540285Y-133151619D01*
X195492666Y-133246857D01*
X195492666Y-133389714D01*
X195540285Y-133484952D01*
X195587904Y-133532571D01*
X195683142Y-133580190D01*
X196064095Y-133580190D01*
X195159333Y-133056380D02*
X194492666Y-133056380D01*
X194921238Y-134056380D01*
X142660666Y-140152380D02*
X142994000Y-139676190D01*
X143232095Y-140152380D02*
X143232095Y-139152380D01*
X142851142Y-139152380D01*
X142755904Y-139200000D01*
X142708285Y-139247619D01*
X142660666Y-139342857D01*
X142660666Y-139485714D01*
X142708285Y-139580952D01*
X142755904Y-139628571D01*
X142851142Y-139676190D01*
X143232095Y-139676190D01*
X141755904Y-139152380D02*
X142232095Y-139152380D01*
X142279714Y-139628571D01*
X142232095Y-139580952D01*
X142136857Y-139533333D01*
X141898761Y-139533333D01*
X141803523Y-139580952D01*
X141755904Y-139628571D01*
X141708285Y-139723809D01*
X141708285Y-139961904D01*
X141755904Y-140057142D01*
X141803523Y-140104761D01*
X141898761Y-140152380D01*
X142136857Y-140152380D01*
X142232095Y-140104761D01*
X142279714Y-140057142D01*
X195746666Y-140152380D02*
X196080000Y-139676190D01*
X196318095Y-140152380D02*
X196318095Y-139152380D01*
X195937142Y-139152380D01*
X195841904Y-139200000D01*
X195794285Y-139247619D01*
X195746666Y-139342857D01*
X195746666Y-139485714D01*
X195794285Y-139580952D01*
X195841904Y-139628571D01*
X195937142Y-139676190D01*
X196318095Y-139676190D01*
X194889523Y-139152380D02*
X195080000Y-139152380D01*
X195175238Y-139200000D01*
X195222857Y-139247619D01*
X195318095Y-139390476D01*
X195365714Y-139580952D01*
X195365714Y-139961904D01*
X195318095Y-140057142D01*
X195270476Y-140104761D01*
X195175238Y-140152380D01*
X194984761Y-140152380D01*
X194889523Y-140104761D01*
X194841904Y-140057142D01*
X194794285Y-139961904D01*
X194794285Y-139723809D01*
X194841904Y-139628571D01*
X194889523Y-139580952D01*
X194984761Y-139533333D01*
X195175238Y-139533333D01*
X195270476Y-139580952D01*
X195318095Y-139628571D01*
X195365714Y-139723809D01*
X196000666Y-137104380D02*
X196334000Y-136628190D01*
X196572095Y-137104380D02*
X196572095Y-136104380D01*
X196191142Y-136104380D01*
X196095904Y-136152000D01*
X196048285Y-136199619D01*
X196000666Y-136294857D01*
X196000666Y-136437714D01*
X196048285Y-136532952D01*
X196095904Y-136580571D01*
X196191142Y-136628190D01*
X196572095Y-136628190D01*
X195048285Y-137104380D02*
X195619714Y-137104380D01*
X195334000Y-137104380D02*
X195334000Y-136104380D01*
X195429238Y-136247238D01*
X195524476Y-136342476D01*
X195619714Y-136390095D01*
X139993619Y-118014761D02*
X139946000Y-117919523D01*
X139850761Y-117824285D01*
X139707904Y-117681428D01*
X139660285Y-117586190D01*
X139660285Y-117490952D01*
X139898380Y-117538571D02*
X139850761Y-117443333D01*
X139755523Y-117348095D01*
X139565047Y-117300476D01*
X139231714Y-117300476D01*
X139041238Y-117348095D01*
X138946000Y-117443333D01*
X138898380Y-117538571D01*
X138898380Y-117729047D01*
X138946000Y-117824285D01*
X139041238Y-117919523D01*
X139231714Y-117967142D01*
X139565047Y-117967142D01*
X139755523Y-117919523D01*
X139850761Y-117824285D01*
X139898380Y-117729047D01*
X139898380Y-117538571D01*
X139898380Y-118919523D02*
X139898380Y-118348095D01*
X139898380Y-118633809D02*
X138898380Y-118633809D01*
X139041238Y-118538571D01*
X139136476Y-118443333D01*
X139184095Y-118348095D01*
X182030666Y-140152380D02*
X182364000Y-139676190D01*
X182602095Y-140152380D02*
X182602095Y-139152380D01*
X182221142Y-139152380D01*
X182125904Y-139200000D01*
X182078285Y-139247619D01*
X182030666Y-139342857D01*
X182030666Y-139485714D01*
X182078285Y-139580952D01*
X182125904Y-139628571D01*
X182221142Y-139676190D01*
X182602095Y-139676190D01*
X181649714Y-139247619D02*
X181602095Y-139200000D01*
X181506857Y-139152380D01*
X181268761Y-139152380D01*
X181173523Y-139200000D01*
X181125904Y-139247619D01*
X181078285Y-139342857D01*
X181078285Y-139438095D01*
X181125904Y-139580952D01*
X181697333Y-140152380D01*
X181078285Y-140152380D01*
X156122666Y-139898380D02*
X156456000Y-139422190D01*
X156694095Y-139898380D02*
X156694095Y-138898380D01*
X156313142Y-138898380D01*
X156217904Y-138946000D01*
X156170285Y-138993619D01*
X156122666Y-139088857D01*
X156122666Y-139231714D01*
X156170285Y-139326952D01*
X156217904Y-139374571D01*
X156313142Y-139422190D01*
X156694095Y-139422190D01*
X155265523Y-139231714D02*
X155265523Y-139898380D01*
X155503619Y-138850761D02*
X155741714Y-139565047D01*
X155122666Y-139565047D01*
X169330666Y-140152380D02*
X169664000Y-139676190D01*
X169902095Y-140152380D02*
X169902095Y-139152380D01*
X169521142Y-139152380D01*
X169425904Y-139200000D01*
X169378285Y-139247619D01*
X169330666Y-139342857D01*
X169330666Y-139485714D01*
X169378285Y-139580952D01*
X169425904Y-139628571D01*
X169521142Y-139676190D01*
X169902095Y-139676190D01*
X168997333Y-139152380D02*
X168378285Y-139152380D01*
X168711619Y-139533333D01*
X168568761Y-139533333D01*
X168473523Y-139580952D01*
X168425904Y-139628571D01*
X168378285Y-139723809D01*
X168378285Y-139961904D01*
X168425904Y-140057142D01*
X168473523Y-140104761D01*
X168568761Y-140152380D01*
X168854476Y-140152380D01*
X168949714Y-140104761D01*
X168997333Y-140057142D01*
M02*
