G04 #@! TF.GenerationSoftware,KiCad,Pcbnew,(5.1.5-0-10_14)*
G04 #@! TF.CreationDate,2020-11-16T18:29:34+01:00*
G04 #@! TF.ProjectId,badge_2020,62616467-655f-4323-9032-302e6b696361,rev?*
G04 #@! TF.SameCoordinates,Original*
G04 #@! TF.FileFunction,Soldermask,Top*
G04 #@! TF.FilePolarity,Negative*
%FSLAX46Y46*%
G04 Gerber Fmt 4.6, Leading zero omitted, Abs format (unit mm)*
G04 Created by KiCad (PCBNEW (5.1.5-0-10_14)) date 2020-11-16 18:29:34*
%MOMM*%
%LPD*%
G04 APERTURE LIST*
%ADD10C,0.100000*%
G04 APERTURE END LIST*
D10*
G36*
X212082026Y-139308115D02*
G01*
X212300411Y-139398573D01*
X212300413Y-139398574D01*
X212496955Y-139529899D01*
X212664101Y-139697045D01*
X212795427Y-139893589D01*
X212885885Y-140111974D01*
X212932000Y-140343809D01*
X212932000Y-140580191D01*
X212885885Y-140812026D01*
X212795427Y-141030411D01*
X212795426Y-141030413D01*
X212664101Y-141226955D01*
X212496955Y-141394101D01*
X212300413Y-141525426D01*
X212300412Y-141525427D01*
X212300411Y-141525427D01*
X212082026Y-141615885D01*
X211850191Y-141662000D01*
X211613809Y-141662000D01*
X211381974Y-141615885D01*
X211163589Y-141525427D01*
X211163588Y-141525427D01*
X211163587Y-141525426D01*
X210967045Y-141394101D01*
X210799899Y-141226955D01*
X210668574Y-141030413D01*
X210668573Y-141030411D01*
X210578115Y-140812026D01*
X210532000Y-140580191D01*
X210532000Y-140343809D01*
X210578115Y-140111974D01*
X210668573Y-139893589D01*
X210799899Y-139697045D01*
X210967045Y-139529899D01*
X211163587Y-139398574D01*
X211163589Y-139398573D01*
X211381974Y-139308115D01*
X211613809Y-139262000D01*
X211850191Y-139262000D01*
X212082026Y-139308115D01*
G37*
G36*
X205582026Y-139308115D02*
G01*
X205800411Y-139398573D01*
X205800413Y-139398574D01*
X205996955Y-139529899D01*
X206164101Y-139697045D01*
X206295427Y-139893589D01*
X206385885Y-140111974D01*
X206432000Y-140343809D01*
X206432000Y-140580191D01*
X206385885Y-140812026D01*
X206295427Y-141030411D01*
X206295426Y-141030413D01*
X206164101Y-141226955D01*
X205996955Y-141394101D01*
X205800413Y-141525426D01*
X205800412Y-141525427D01*
X205800411Y-141525427D01*
X205582026Y-141615885D01*
X205350191Y-141662000D01*
X205113809Y-141662000D01*
X204881974Y-141615885D01*
X204663589Y-141525427D01*
X204663588Y-141525427D01*
X204663587Y-141525426D01*
X204467045Y-141394101D01*
X204299899Y-141226955D01*
X204168574Y-141030413D01*
X204168573Y-141030411D01*
X204078115Y-140812026D01*
X204032000Y-140580191D01*
X204032000Y-140343809D01*
X204078115Y-140111974D01*
X204168573Y-139893589D01*
X204299899Y-139697045D01*
X204467045Y-139529899D01*
X204663587Y-139398574D01*
X204663589Y-139398573D01*
X204881974Y-139308115D01*
X205113809Y-139262000D01*
X205350191Y-139262000D01*
X205582026Y-139308115D01*
G37*
G36*
X187425290Y-138725619D02*
G01*
X187489689Y-138738429D01*
X187671678Y-138813811D01*
X187835463Y-138923249D01*
X187974751Y-139062537D01*
X188084189Y-139226322D01*
X188159571Y-139408311D01*
X188159571Y-139408312D01*
X188198000Y-139601507D01*
X188198000Y-139798493D01*
X188179084Y-139893589D01*
X188159571Y-139991689D01*
X188084189Y-140173678D01*
X187974751Y-140337463D01*
X187835463Y-140476751D01*
X187671678Y-140586189D01*
X187489689Y-140661571D01*
X187425290Y-140674381D01*
X187296493Y-140700000D01*
X187099507Y-140700000D01*
X186970710Y-140674381D01*
X186906311Y-140661571D01*
X186724322Y-140586189D01*
X186560537Y-140476751D01*
X186421249Y-140337463D01*
X186311811Y-140173678D01*
X186236429Y-139991689D01*
X186216916Y-139893589D01*
X186198000Y-139798493D01*
X186198000Y-139601507D01*
X186236429Y-139408312D01*
X186236429Y-139408311D01*
X186311811Y-139226322D01*
X186421249Y-139062537D01*
X186560537Y-138923249D01*
X186724322Y-138813811D01*
X186906311Y-138738429D01*
X186970710Y-138725619D01*
X187099507Y-138700000D01*
X187296493Y-138700000D01*
X187425290Y-138725619D01*
G37*
G36*
X177265290Y-138725619D02*
G01*
X177329689Y-138738429D01*
X177511678Y-138813811D01*
X177675463Y-138923249D01*
X177814751Y-139062537D01*
X177924189Y-139226322D01*
X177999571Y-139408311D01*
X177999571Y-139408312D01*
X178038000Y-139601507D01*
X178038000Y-139798493D01*
X178019084Y-139893589D01*
X177999571Y-139991689D01*
X177924189Y-140173678D01*
X177814751Y-140337463D01*
X177675463Y-140476751D01*
X177511678Y-140586189D01*
X177329689Y-140661571D01*
X177265290Y-140674381D01*
X177136493Y-140700000D01*
X176939507Y-140700000D01*
X176810710Y-140674381D01*
X176746311Y-140661571D01*
X176564322Y-140586189D01*
X176400537Y-140476751D01*
X176261249Y-140337463D01*
X176151811Y-140173678D01*
X176076429Y-139991689D01*
X176056916Y-139893589D01*
X176038000Y-139798493D01*
X176038000Y-139601507D01*
X176076429Y-139408312D01*
X176076429Y-139408311D01*
X176151811Y-139226322D01*
X176261249Y-139062537D01*
X176400537Y-138923249D01*
X176564322Y-138813811D01*
X176746311Y-138738429D01*
X176810710Y-138725619D01*
X176939507Y-138700000D01*
X177136493Y-138700000D01*
X177265290Y-138725619D01*
G37*
G36*
X174217290Y-138725619D02*
G01*
X174281689Y-138738429D01*
X174463678Y-138813811D01*
X174627463Y-138923249D01*
X174766751Y-139062537D01*
X174876189Y-139226322D01*
X174951571Y-139408311D01*
X174951571Y-139408312D01*
X174990000Y-139601507D01*
X174990000Y-139798493D01*
X174971084Y-139893589D01*
X174951571Y-139991689D01*
X174876189Y-140173678D01*
X174766751Y-140337463D01*
X174627463Y-140476751D01*
X174463678Y-140586189D01*
X174281689Y-140661571D01*
X174217290Y-140674381D01*
X174088493Y-140700000D01*
X173891507Y-140700000D01*
X173762710Y-140674381D01*
X173698311Y-140661571D01*
X173516322Y-140586189D01*
X173352537Y-140476751D01*
X173213249Y-140337463D01*
X173103811Y-140173678D01*
X173028429Y-139991689D01*
X173008916Y-139893589D01*
X172990000Y-139798493D01*
X172990000Y-139601507D01*
X173028429Y-139408312D01*
X173028429Y-139408311D01*
X173103811Y-139226322D01*
X173213249Y-139062537D01*
X173352537Y-138923249D01*
X173516322Y-138813811D01*
X173698311Y-138738429D01*
X173762710Y-138725619D01*
X173891507Y-138700000D01*
X174088493Y-138700000D01*
X174217290Y-138725619D01*
G37*
G36*
X164057290Y-138725619D02*
G01*
X164121689Y-138738429D01*
X164303678Y-138813811D01*
X164467463Y-138923249D01*
X164606751Y-139062537D01*
X164716189Y-139226322D01*
X164791571Y-139408311D01*
X164791571Y-139408312D01*
X164830000Y-139601507D01*
X164830000Y-139798493D01*
X164811084Y-139893589D01*
X164791571Y-139991689D01*
X164716189Y-140173678D01*
X164606751Y-140337463D01*
X164467463Y-140476751D01*
X164303678Y-140586189D01*
X164121689Y-140661571D01*
X164057290Y-140674381D01*
X163928493Y-140700000D01*
X163731507Y-140700000D01*
X163602710Y-140674381D01*
X163538311Y-140661571D01*
X163356322Y-140586189D01*
X163192537Y-140476751D01*
X163053249Y-140337463D01*
X162943811Y-140173678D01*
X162868429Y-139991689D01*
X162848916Y-139893589D01*
X162830000Y-139798493D01*
X162830000Y-139601507D01*
X162868429Y-139408312D01*
X162868429Y-139408311D01*
X162943811Y-139226322D01*
X163053249Y-139062537D01*
X163192537Y-138923249D01*
X163356322Y-138813811D01*
X163538311Y-138738429D01*
X163602710Y-138725619D01*
X163731507Y-138700000D01*
X163928493Y-138700000D01*
X164057290Y-138725619D01*
G37*
G36*
X161009290Y-138725619D02*
G01*
X161073689Y-138738429D01*
X161255678Y-138813811D01*
X161419463Y-138923249D01*
X161558751Y-139062537D01*
X161668189Y-139226322D01*
X161743571Y-139408311D01*
X161743571Y-139408312D01*
X161782000Y-139601507D01*
X161782000Y-139798493D01*
X161763084Y-139893589D01*
X161743571Y-139991689D01*
X161668189Y-140173678D01*
X161558751Y-140337463D01*
X161419463Y-140476751D01*
X161255678Y-140586189D01*
X161073689Y-140661571D01*
X161009290Y-140674381D01*
X160880493Y-140700000D01*
X160683507Y-140700000D01*
X160554710Y-140674381D01*
X160490311Y-140661571D01*
X160308322Y-140586189D01*
X160144537Y-140476751D01*
X160005249Y-140337463D01*
X159895811Y-140173678D01*
X159820429Y-139991689D01*
X159800916Y-139893589D01*
X159782000Y-139798493D01*
X159782000Y-139601507D01*
X159820429Y-139408312D01*
X159820429Y-139408311D01*
X159895811Y-139226322D01*
X160005249Y-139062537D01*
X160144537Y-138923249D01*
X160308322Y-138813811D01*
X160490311Y-138738429D01*
X160554710Y-138725619D01*
X160683507Y-138700000D01*
X160880493Y-138700000D01*
X161009290Y-138725619D01*
G37*
G36*
X150849290Y-138725619D02*
G01*
X150913689Y-138738429D01*
X151095678Y-138813811D01*
X151259463Y-138923249D01*
X151398751Y-139062537D01*
X151508189Y-139226322D01*
X151583571Y-139408311D01*
X151583571Y-139408312D01*
X151622000Y-139601507D01*
X151622000Y-139798493D01*
X151603084Y-139893589D01*
X151583571Y-139991689D01*
X151508189Y-140173678D01*
X151398751Y-140337463D01*
X151259463Y-140476751D01*
X151095678Y-140586189D01*
X150913689Y-140661571D01*
X150849290Y-140674381D01*
X150720493Y-140700000D01*
X150523507Y-140700000D01*
X150394710Y-140674381D01*
X150330311Y-140661571D01*
X150148322Y-140586189D01*
X149984537Y-140476751D01*
X149845249Y-140337463D01*
X149735811Y-140173678D01*
X149660429Y-139991689D01*
X149640916Y-139893589D01*
X149622000Y-139798493D01*
X149622000Y-139601507D01*
X149660429Y-139408312D01*
X149660429Y-139408311D01*
X149735811Y-139226322D01*
X149845249Y-139062537D01*
X149984537Y-138923249D01*
X150148322Y-138813811D01*
X150330311Y-138738429D01*
X150394710Y-138725619D01*
X150523507Y-138700000D01*
X150720493Y-138700000D01*
X150849290Y-138725619D01*
G37*
G36*
X148055290Y-138725619D02*
G01*
X148119689Y-138738429D01*
X148301678Y-138813811D01*
X148465463Y-138923249D01*
X148604751Y-139062537D01*
X148714189Y-139226322D01*
X148789571Y-139408311D01*
X148789571Y-139408312D01*
X148828000Y-139601507D01*
X148828000Y-139798493D01*
X148809084Y-139893589D01*
X148789571Y-139991689D01*
X148714189Y-140173678D01*
X148604751Y-140337463D01*
X148465463Y-140476751D01*
X148301678Y-140586189D01*
X148119689Y-140661571D01*
X148055290Y-140674381D01*
X147926493Y-140700000D01*
X147729507Y-140700000D01*
X147600710Y-140674381D01*
X147536311Y-140661571D01*
X147354322Y-140586189D01*
X147190537Y-140476751D01*
X147051249Y-140337463D01*
X146941811Y-140173678D01*
X146866429Y-139991689D01*
X146846916Y-139893589D01*
X146828000Y-139798493D01*
X146828000Y-139601507D01*
X146866429Y-139408312D01*
X146866429Y-139408311D01*
X146941811Y-139226322D01*
X147051249Y-139062537D01*
X147190537Y-138923249D01*
X147354322Y-138813811D01*
X147536311Y-138738429D01*
X147600710Y-138725619D01*
X147729507Y-138700000D01*
X147926493Y-138700000D01*
X148055290Y-138725619D01*
G37*
G36*
X137895290Y-138725619D02*
G01*
X137959689Y-138738429D01*
X138141678Y-138813811D01*
X138305463Y-138923249D01*
X138444751Y-139062537D01*
X138554189Y-139226322D01*
X138629571Y-139408311D01*
X138629571Y-139408312D01*
X138668000Y-139601507D01*
X138668000Y-139798493D01*
X138649084Y-139893589D01*
X138629571Y-139991689D01*
X138554189Y-140173678D01*
X138444751Y-140337463D01*
X138305463Y-140476751D01*
X138141678Y-140586189D01*
X137959689Y-140661571D01*
X137895290Y-140674381D01*
X137766493Y-140700000D01*
X137569507Y-140700000D01*
X137440710Y-140674381D01*
X137376311Y-140661571D01*
X137194322Y-140586189D01*
X137030537Y-140476751D01*
X136891249Y-140337463D01*
X136781811Y-140173678D01*
X136706429Y-139991689D01*
X136686916Y-139893589D01*
X136668000Y-139798493D01*
X136668000Y-139601507D01*
X136706429Y-139408312D01*
X136706429Y-139408311D01*
X136781811Y-139226322D01*
X136891249Y-139062537D01*
X137030537Y-138923249D01*
X137194322Y-138813811D01*
X137376311Y-138738429D01*
X137440710Y-138725619D01*
X137569507Y-138700000D01*
X137766493Y-138700000D01*
X137895290Y-138725619D01*
G37*
G36*
X190473290Y-138725619D02*
G01*
X190537689Y-138738429D01*
X190719678Y-138813811D01*
X190883463Y-138923249D01*
X191022751Y-139062537D01*
X191132189Y-139226322D01*
X191207571Y-139408311D01*
X191207571Y-139408312D01*
X191246000Y-139601507D01*
X191246000Y-139798493D01*
X191227084Y-139893589D01*
X191207571Y-139991689D01*
X191132189Y-140173678D01*
X191022751Y-140337463D01*
X190883463Y-140476751D01*
X190719678Y-140586189D01*
X190537689Y-140661571D01*
X190473290Y-140674381D01*
X190344493Y-140700000D01*
X190147507Y-140700000D01*
X190018710Y-140674381D01*
X189954311Y-140661571D01*
X189772322Y-140586189D01*
X189608537Y-140476751D01*
X189469249Y-140337463D01*
X189359811Y-140173678D01*
X189284429Y-139991689D01*
X189264916Y-139893589D01*
X189246000Y-139798493D01*
X189246000Y-139601507D01*
X189284429Y-139408312D01*
X189284429Y-139408311D01*
X189359811Y-139226322D01*
X189469249Y-139062537D01*
X189608537Y-138923249D01*
X189772322Y-138813811D01*
X189954311Y-138738429D01*
X190018710Y-138725619D01*
X190147507Y-138700000D01*
X190344493Y-138700000D01*
X190473290Y-138725619D01*
G37*
G36*
X200633290Y-138725619D02*
G01*
X200697689Y-138738429D01*
X200879678Y-138813811D01*
X201043463Y-138923249D01*
X201182751Y-139062537D01*
X201292189Y-139226322D01*
X201367571Y-139408311D01*
X201367571Y-139408312D01*
X201406000Y-139601507D01*
X201406000Y-139798493D01*
X201387084Y-139893589D01*
X201367571Y-139991689D01*
X201292189Y-140173678D01*
X201182751Y-140337463D01*
X201043463Y-140476751D01*
X200879678Y-140586189D01*
X200697689Y-140661571D01*
X200633290Y-140674381D01*
X200504493Y-140700000D01*
X200307507Y-140700000D01*
X200178710Y-140674381D01*
X200114311Y-140661571D01*
X199932322Y-140586189D01*
X199768537Y-140476751D01*
X199629249Y-140337463D01*
X199519811Y-140173678D01*
X199444429Y-139991689D01*
X199424916Y-139893589D01*
X199406000Y-139798493D01*
X199406000Y-139601507D01*
X199444429Y-139408312D01*
X199444429Y-139408311D01*
X199519811Y-139226322D01*
X199629249Y-139062537D01*
X199768537Y-138923249D01*
X199932322Y-138813811D01*
X200114311Y-138738429D01*
X200178710Y-138725619D01*
X200307507Y-138700000D01*
X200504493Y-138700000D01*
X200633290Y-138725619D01*
G37*
G36*
X182345290Y-135931619D02*
G01*
X182409689Y-135944429D01*
X182591678Y-136019811D01*
X182755463Y-136129249D01*
X182894751Y-136268537D01*
X183004189Y-136432322D01*
X183079571Y-136614311D01*
X183118000Y-136807509D01*
X183118000Y-137004491D01*
X183079571Y-137197689D01*
X183004189Y-137379678D01*
X182894751Y-137543463D01*
X182755463Y-137682751D01*
X182591678Y-137792189D01*
X182409689Y-137867571D01*
X182345290Y-137880381D01*
X182216493Y-137906000D01*
X182019507Y-137906000D01*
X181890710Y-137880381D01*
X181826311Y-137867571D01*
X181644322Y-137792189D01*
X181480537Y-137682751D01*
X181341249Y-137543463D01*
X181231811Y-137379678D01*
X181156429Y-137197689D01*
X181118000Y-137004491D01*
X181118000Y-136807509D01*
X181156429Y-136614311D01*
X181231811Y-136432322D01*
X181341249Y-136268537D01*
X181480537Y-136129249D01*
X181644322Y-136019811D01*
X181826311Y-135944429D01*
X181890710Y-135931619D01*
X182019507Y-135906000D01*
X182216493Y-135906000D01*
X182345290Y-135931619D01*
G37*
G36*
X187345290Y-135931619D02*
G01*
X187409689Y-135944429D01*
X187591678Y-136019811D01*
X187755463Y-136129249D01*
X187894751Y-136268537D01*
X188004189Y-136432322D01*
X188079571Y-136614311D01*
X188118000Y-136807509D01*
X188118000Y-137004491D01*
X188079571Y-137197689D01*
X188004189Y-137379678D01*
X187894751Y-137543463D01*
X187755463Y-137682751D01*
X187591678Y-137792189D01*
X187409689Y-137867571D01*
X187345290Y-137880381D01*
X187216493Y-137906000D01*
X187019507Y-137906000D01*
X186890710Y-137880381D01*
X186826311Y-137867571D01*
X186644322Y-137792189D01*
X186480537Y-137682751D01*
X186341249Y-137543463D01*
X186231811Y-137379678D01*
X186156429Y-137197689D01*
X186118000Y-137004491D01*
X186118000Y-136807509D01*
X186156429Y-136614311D01*
X186231811Y-136432322D01*
X186341249Y-136268537D01*
X186480537Y-136129249D01*
X186644322Y-136019811D01*
X186826311Y-135944429D01*
X186890710Y-135931619D01*
X187019507Y-135906000D01*
X187216493Y-135906000D01*
X187345290Y-135931619D01*
G37*
G36*
X148521336Y-135974254D02*
G01*
X148613105Y-135992508D01*
X148785994Y-136064121D01*
X148941590Y-136168087D01*
X149073913Y-136300410D01*
X149177879Y-136456006D01*
X149249492Y-136628895D01*
X149286000Y-136812433D01*
X149286000Y-136999567D01*
X149249492Y-137183105D01*
X149177879Y-137355994D01*
X149073913Y-137511590D01*
X148941590Y-137643913D01*
X148785994Y-137747879D01*
X148613105Y-137819492D01*
X148521336Y-137837746D01*
X148429568Y-137856000D01*
X148242432Y-137856000D01*
X148150664Y-137837746D01*
X148058895Y-137819492D01*
X147886006Y-137747879D01*
X147730410Y-137643913D01*
X147598087Y-137511590D01*
X147494121Y-137355994D01*
X147422508Y-137183105D01*
X147386000Y-136999567D01*
X147386000Y-136812433D01*
X147422508Y-136628895D01*
X147494121Y-136456006D01*
X147598087Y-136300410D01*
X147730410Y-136168087D01*
X147886006Y-136064121D01*
X148058895Y-135992508D01*
X148150664Y-135974254D01*
X148242432Y-135956000D01*
X148429568Y-135956000D01*
X148521336Y-135974254D01*
G37*
G36*
X156906000Y-137856000D02*
G01*
X155006000Y-137856000D01*
X155006000Y-135956000D01*
X156906000Y-135956000D01*
X156906000Y-137856000D01*
G37*
G36*
X190473290Y-135677619D02*
G01*
X190537689Y-135690429D01*
X190719678Y-135765811D01*
X190883463Y-135875249D01*
X191022751Y-136014537D01*
X191132189Y-136178322D01*
X191187571Y-136312027D01*
X191207571Y-136360312D01*
X191246000Y-136553507D01*
X191246000Y-136750493D01*
X191233679Y-136812433D01*
X191207571Y-136943689D01*
X191132189Y-137125678D01*
X191022751Y-137289463D01*
X190883463Y-137428751D01*
X190719678Y-137538189D01*
X190537689Y-137613571D01*
X190473290Y-137626381D01*
X190344493Y-137652000D01*
X190147507Y-137652000D01*
X190018710Y-137626381D01*
X189954311Y-137613571D01*
X189772322Y-137538189D01*
X189608537Y-137428751D01*
X189469249Y-137289463D01*
X189359811Y-137125678D01*
X189284429Y-136943689D01*
X189258321Y-136812433D01*
X189246000Y-136750493D01*
X189246000Y-136553507D01*
X189284429Y-136360312D01*
X189304429Y-136312027D01*
X189359811Y-136178322D01*
X189469249Y-136014537D01*
X189608537Y-135875249D01*
X189772322Y-135765811D01*
X189954311Y-135690429D01*
X190018710Y-135677619D01*
X190147507Y-135652000D01*
X190344493Y-135652000D01*
X190473290Y-135677619D01*
G37*
G36*
X200633290Y-135677619D02*
G01*
X200697689Y-135690429D01*
X200879678Y-135765811D01*
X201043463Y-135875249D01*
X201182751Y-136014537D01*
X201292189Y-136178322D01*
X201347571Y-136312027D01*
X201367571Y-136360312D01*
X201406000Y-136553507D01*
X201406000Y-136750493D01*
X201393679Y-136812433D01*
X201367571Y-136943689D01*
X201292189Y-137125678D01*
X201182751Y-137289463D01*
X201043463Y-137428751D01*
X200879678Y-137538189D01*
X200697689Y-137613571D01*
X200633290Y-137626381D01*
X200504493Y-137652000D01*
X200307507Y-137652000D01*
X200178710Y-137626381D01*
X200114311Y-137613571D01*
X199932322Y-137538189D01*
X199768537Y-137428751D01*
X199629249Y-137289463D01*
X199519811Y-137125678D01*
X199444429Y-136943689D01*
X199418321Y-136812433D01*
X199406000Y-136750493D01*
X199406000Y-136553507D01*
X199444429Y-136360312D01*
X199464429Y-136312027D01*
X199519811Y-136178322D01*
X199629249Y-136014537D01*
X199768537Y-135875249D01*
X199932322Y-135765811D01*
X200114311Y-135690429D01*
X200178710Y-135677619D01*
X200307507Y-135652000D01*
X200504493Y-135652000D01*
X200633290Y-135677619D01*
G37*
G36*
X205582026Y-134808115D02*
G01*
X205796867Y-134897105D01*
X205800413Y-134898574D01*
X205996368Y-135029507D01*
X205996955Y-135029899D01*
X206164101Y-135197045D01*
X206295427Y-135393589D01*
X206385885Y-135611974D01*
X206432000Y-135843809D01*
X206432000Y-136080191D01*
X206385885Y-136312026D01*
X206295427Y-136530411D01*
X206295426Y-136530413D01*
X206164101Y-136726955D01*
X205996955Y-136894101D01*
X205800413Y-137025426D01*
X205800412Y-137025427D01*
X205800411Y-137025427D01*
X205582026Y-137115885D01*
X205350191Y-137162000D01*
X205113809Y-137162000D01*
X204881974Y-137115885D01*
X204663589Y-137025427D01*
X204663588Y-137025427D01*
X204663587Y-137025426D01*
X204467045Y-136894101D01*
X204299899Y-136726955D01*
X204168574Y-136530413D01*
X204168573Y-136530411D01*
X204078115Y-136312026D01*
X204032000Y-136080191D01*
X204032000Y-135843809D01*
X204078115Y-135611974D01*
X204168573Y-135393589D01*
X204299899Y-135197045D01*
X204467045Y-135029899D01*
X204467632Y-135029507D01*
X204663587Y-134898574D01*
X204667133Y-134897105D01*
X204881974Y-134808115D01*
X205113809Y-134762000D01*
X205350191Y-134762000D01*
X205582026Y-134808115D01*
G37*
G36*
X212082026Y-134808115D02*
G01*
X212296867Y-134897105D01*
X212300413Y-134898574D01*
X212496368Y-135029507D01*
X212496955Y-135029899D01*
X212664101Y-135197045D01*
X212795427Y-135393589D01*
X212885885Y-135611974D01*
X212932000Y-135843809D01*
X212932000Y-136080191D01*
X212885885Y-136312026D01*
X212795427Y-136530411D01*
X212795426Y-136530413D01*
X212664101Y-136726955D01*
X212496955Y-136894101D01*
X212300413Y-137025426D01*
X212300412Y-137025427D01*
X212300411Y-137025427D01*
X212082026Y-137115885D01*
X211850191Y-137162000D01*
X211613809Y-137162000D01*
X211381974Y-137115885D01*
X211163589Y-137025427D01*
X211163588Y-137025427D01*
X211163587Y-137025426D01*
X210967045Y-136894101D01*
X210799899Y-136726955D01*
X210668574Y-136530413D01*
X210668573Y-136530411D01*
X210578115Y-136312026D01*
X210532000Y-136080191D01*
X210532000Y-135843809D01*
X210578115Y-135611974D01*
X210668573Y-135393589D01*
X210799899Y-135197045D01*
X210967045Y-135029899D01*
X210967632Y-135029507D01*
X211163587Y-134898574D01*
X211167133Y-134897105D01*
X211381974Y-134808115D01*
X211613809Y-134762000D01*
X211850191Y-134762000D01*
X212082026Y-134808115D01*
G37*
G36*
X177011290Y-134407619D02*
G01*
X177075689Y-134420429D01*
X177257678Y-134495811D01*
X177421463Y-134605249D01*
X177560751Y-134744537D01*
X177670189Y-134908322D01*
X177737155Y-135069994D01*
X177745571Y-135090312D01*
X177772480Y-135225590D01*
X177784000Y-135283509D01*
X177784000Y-135480491D01*
X177745571Y-135673689D01*
X177670189Y-135855678D01*
X177560751Y-136019463D01*
X177421463Y-136158751D01*
X177257678Y-136268189D01*
X177075689Y-136343571D01*
X177011290Y-136356381D01*
X176882493Y-136382000D01*
X176685507Y-136382000D01*
X176556710Y-136356381D01*
X176492311Y-136343571D01*
X176310322Y-136268189D01*
X176146537Y-136158751D01*
X176007249Y-136019463D01*
X175897811Y-135855678D01*
X175822429Y-135673689D01*
X175784000Y-135480491D01*
X175784000Y-135283509D01*
X175795521Y-135225590D01*
X175822429Y-135090312D01*
X175830845Y-135069994D01*
X175897811Y-134908322D01*
X176007249Y-134744537D01*
X176146537Y-134605249D01*
X176310322Y-134495811D01*
X176492311Y-134420429D01*
X176556710Y-134407619D01*
X176685507Y-134382000D01*
X176882493Y-134382000D01*
X177011290Y-134407619D01*
G37*
G36*
X174471290Y-134407619D02*
G01*
X174535689Y-134420429D01*
X174717678Y-134495811D01*
X174881463Y-134605249D01*
X175020751Y-134744537D01*
X175130189Y-134908322D01*
X175197155Y-135069994D01*
X175205571Y-135090312D01*
X175232480Y-135225590D01*
X175244000Y-135283509D01*
X175244000Y-135480491D01*
X175205571Y-135673689D01*
X175130189Y-135855678D01*
X175020751Y-136019463D01*
X174881463Y-136158751D01*
X174717678Y-136268189D01*
X174535689Y-136343571D01*
X174471290Y-136356381D01*
X174342493Y-136382000D01*
X174145507Y-136382000D01*
X174016710Y-136356381D01*
X173952311Y-136343571D01*
X173770322Y-136268189D01*
X173606537Y-136158751D01*
X173467249Y-136019463D01*
X173357811Y-135855678D01*
X173282429Y-135673689D01*
X173244000Y-135480491D01*
X173244000Y-135283509D01*
X173255521Y-135225590D01*
X173282429Y-135090312D01*
X173290845Y-135069994D01*
X173357811Y-134908322D01*
X173467249Y-134744537D01*
X173606537Y-134605249D01*
X173770322Y-134495811D01*
X173952311Y-134420429D01*
X174016710Y-134407619D01*
X174145507Y-134382000D01*
X174342493Y-134382000D01*
X174471290Y-134407619D01*
G37*
G36*
X164097290Y-134153619D02*
G01*
X164161689Y-134166429D01*
X164343678Y-134241811D01*
X164507463Y-134351249D01*
X164646751Y-134490537D01*
X164756189Y-134654322D01*
X164831571Y-134836311D01*
X164870000Y-135029509D01*
X164870000Y-135226491D01*
X164831571Y-135419689D01*
X164756189Y-135601678D01*
X164646751Y-135765463D01*
X164507463Y-135904751D01*
X164343678Y-136014189D01*
X164161689Y-136089571D01*
X164097290Y-136102381D01*
X163968493Y-136128000D01*
X163771507Y-136128000D01*
X163642710Y-136102381D01*
X163578311Y-136089571D01*
X163396322Y-136014189D01*
X163232537Y-135904751D01*
X163093249Y-135765463D01*
X162983811Y-135601678D01*
X162908429Y-135419689D01*
X162870000Y-135226491D01*
X162870000Y-135029509D01*
X162908429Y-134836311D01*
X162983811Y-134654322D01*
X163093249Y-134490537D01*
X163232537Y-134351249D01*
X163396322Y-134241811D01*
X163578311Y-134166429D01*
X163642710Y-134153619D01*
X163771507Y-134128000D01*
X163968493Y-134128000D01*
X164097290Y-134153619D01*
G37*
G36*
X167370000Y-136128000D02*
G01*
X165370000Y-136128000D01*
X165370000Y-134128000D01*
X167370000Y-134128000D01*
X167370000Y-136128000D01*
G37*
G36*
X156906000Y-135570000D02*
G01*
X155006000Y-135570000D01*
X155006000Y-133670000D01*
X156906000Y-133670000D01*
X156906000Y-135570000D01*
G37*
G36*
X148521336Y-133688254D02*
G01*
X148613105Y-133706508D01*
X148785994Y-133778121D01*
X148941590Y-133882087D01*
X149073913Y-134014410D01*
X149177879Y-134170006D01*
X149249492Y-134342895D01*
X149286000Y-134526433D01*
X149286000Y-134713567D01*
X149249492Y-134897105D01*
X149177879Y-135069994D01*
X149073913Y-135225590D01*
X148941590Y-135357913D01*
X148785994Y-135461879D01*
X148613105Y-135533492D01*
X148521336Y-135551746D01*
X148429568Y-135570000D01*
X148242432Y-135570000D01*
X148150664Y-135551746D01*
X148058895Y-135533492D01*
X147886006Y-135461879D01*
X147730410Y-135357913D01*
X147598087Y-135225590D01*
X147494121Y-135069994D01*
X147422508Y-134897105D01*
X147386000Y-134713567D01*
X147386000Y-134526433D01*
X147422508Y-134342895D01*
X147494121Y-134170006D01*
X147598087Y-134014410D01*
X147730410Y-133882087D01*
X147886006Y-133778121D01*
X148058895Y-133706508D01*
X148150664Y-133688254D01*
X148242432Y-133670000D01*
X148429568Y-133670000D01*
X148521336Y-133688254D01*
G37*
G36*
X200633290Y-132629619D02*
G01*
X200697689Y-132642429D01*
X200879678Y-132717811D01*
X201043463Y-132827249D01*
X201182751Y-132966537D01*
X201292189Y-133130322D01*
X201311059Y-133175879D01*
X201367571Y-133312312D01*
X201406000Y-133505507D01*
X201406000Y-133702493D01*
X201380381Y-133831290D01*
X201367571Y-133895689D01*
X201292189Y-134077678D01*
X201182751Y-134241463D01*
X201043463Y-134380751D01*
X200879678Y-134490189D01*
X200697689Y-134565571D01*
X200633290Y-134578381D01*
X200504493Y-134604000D01*
X200307507Y-134604000D01*
X200178710Y-134578381D01*
X200114311Y-134565571D01*
X199932322Y-134490189D01*
X199768537Y-134380751D01*
X199629249Y-134241463D01*
X199519811Y-134077678D01*
X199444429Y-133895689D01*
X199431619Y-133831290D01*
X199406000Y-133702493D01*
X199406000Y-133505507D01*
X199444429Y-133312312D01*
X199500941Y-133175879D01*
X199519811Y-133130322D01*
X199629249Y-132966537D01*
X199768537Y-132827249D01*
X199932322Y-132717811D01*
X200114311Y-132642429D01*
X200178710Y-132629619D01*
X200307507Y-132604000D01*
X200504493Y-132604000D01*
X200633290Y-132629619D01*
G37*
G36*
X190473290Y-132629619D02*
G01*
X190537689Y-132642429D01*
X190719678Y-132717811D01*
X190883463Y-132827249D01*
X191022751Y-132966537D01*
X191132189Y-133130322D01*
X191151059Y-133175879D01*
X191207571Y-133312312D01*
X191246000Y-133505507D01*
X191246000Y-133702493D01*
X191220381Y-133831290D01*
X191207571Y-133895689D01*
X191132189Y-134077678D01*
X191022751Y-134241463D01*
X190883463Y-134380751D01*
X190719678Y-134490189D01*
X190537689Y-134565571D01*
X190473290Y-134578381D01*
X190344493Y-134604000D01*
X190147507Y-134604000D01*
X190018710Y-134578381D01*
X189954311Y-134565571D01*
X189772322Y-134490189D01*
X189608537Y-134380751D01*
X189469249Y-134241463D01*
X189359811Y-134077678D01*
X189284429Y-133895689D01*
X189271619Y-133831290D01*
X189246000Y-133702493D01*
X189246000Y-133505507D01*
X189284429Y-133312312D01*
X189340941Y-133175879D01*
X189359811Y-133130322D01*
X189469249Y-132966537D01*
X189608537Y-132827249D01*
X189772322Y-132717811D01*
X189954311Y-132642429D01*
X190018710Y-132629619D01*
X190147507Y-132604000D01*
X190344493Y-132604000D01*
X190473290Y-132629619D01*
G37*
G36*
X156906000Y-133284000D02*
G01*
X155006000Y-133284000D01*
X155006000Y-131384000D01*
X156906000Y-131384000D01*
X156906000Y-133284000D01*
G37*
G36*
X148521336Y-131402254D02*
G01*
X148613105Y-131420508D01*
X148785994Y-131492121D01*
X148941590Y-131596087D01*
X149073913Y-131728410D01*
X149177879Y-131884006D01*
X149249492Y-132056895D01*
X149286000Y-132240433D01*
X149286000Y-132427567D01*
X149249492Y-132611105D01*
X149177879Y-132783994D01*
X149073913Y-132939590D01*
X148941590Y-133071913D01*
X148785994Y-133175879D01*
X148613105Y-133247492D01*
X148521336Y-133265746D01*
X148429568Y-133284000D01*
X148242432Y-133284000D01*
X148150664Y-133265746D01*
X148058895Y-133247492D01*
X147886006Y-133175879D01*
X147730410Y-133071913D01*
X147598087Y-132939590D01*
X147494121Y-132783994D01*
X147422508Y-132611105D01*
X147386000Y-132427567D01*
X147386000Y-132240433D01*
X147422508Y-132056895D01*
X147494121Y-131884006D01*
X147598087Y-131728410D01*
X147730410Y-131596087D01*
X147886006Y-131492121D01*
X148058895Y-131420508D01*
X148150664Y-131402254D01*
X148242432Y-131384000D01*
X148429568Y-131384000D01*
X148521336Y-131402254D01*
G37*
G36*
X135355290Y-128819619D02*
G01*
X135419689Y-128832429D01*
X135601678Y-128907811D01*
X135765463Y-129017249D01*
X135904751Y-129156537D01*
X136014189Y-129320322D01*
X136089571Y-129502311D01*
X136128000Y-129695509D01*
X136128000Y-129892491D01*
X136089571Y-130085689D01*
X136014189Y-130267678D01*
X135904751Y-130431463D01*
X135765463Y-130570751D01*
X135601678Y-130680189D01*
X135419689Y-130755571D01*
X135355290Y-130768381D01*
X135226493Y-130794000D01*
X135029507Y-130794000D01*
X134900710Y-130768381D01*
X134836311Y-130755571D01*
X134654322Y-130680189D01*
X134490537Y-130570751D01*
X134351249Y-130431463D01*
X134241811Y-130267678D01*
X134166429Y-130085689D01*
X134128000Y-129892491D01*
X134128000Y-129695509D01*
X134166429Y-129502311D01*
X134241811Y-129320322D01*
X134351249Y-129156537D01*
X134490537Y-129017249D01*
X134654322Y-128907811D01*
X134836311Y-128832429D01*
X134900710Y-128819619D01*
X135029507Y-128794000D01*
X135226493Y-128794000D01*
X135355290Y-128819619D01*
G37*
G36*
X135355290Y-126279619D02*
G01*
X135419689Y-126292429D01*
X135601678Y-126367811D01*
X135765463Y-126477249D01*
X135904751Y-126616537D01*
X136014189Y-126780322D01*
X136089571Y-126962311D01*
X136098732Y-127008366D01*
X136114484Y-127087556D01*
X136128000Y-127155509D01*
X136128000Y-127352491D01*
X136089571Y-127545689D01*
X136014189Y-127727678D01*
X135904751Y-127891463D01*
X135765463Y-128030751D01*
X135601678Y-128140189D01*
X135419689Y-128215571D01*
X135355290Y-128228381D01*
X135226493Y-128254000D01*
X135029507Y-128254000D01*
X134900710Y-128228381D01*
X134836311Y-128215571D01*
X134654322Y-128140189D01*
X134490537Y-128030751D01*
X134351249Y-127891463D01*
X134241811Y-127727678D01*
X134166429Y-127545689D01*
X134128000Y-127352491D01*
X134128000Y-127155509D01*
X134141517Y-127087556D01*
X134157268Y-127008366D01*
X134166429Y-126962311D01*
X134241811Y-126780322D01*
X134351249Y-126616537D01*
X134490537Y-126477249D01*
X134654322Y-126367811D01*
X134836311Y-126292429D01*
X134900710Y-126279619D01*
X135029507Y-126254000D01*
X135226493Y-126254000D01*
X135355290Y-126279619D01*
G37*
G36*
X140689000Y-124863007D02*
G01*
X140691402Y-124887393D01*
X140698515Y-124910842D01*
X140710066Y-124932453D01*
X140725611Y-124951395D01*
X140744553Y-124966940D01*
X140766164Y-124978491D01*
X140789613Y-124985604D01*
X140813999Y-124988006D01*
X140838385Y-124985604D01*
X140872923Y-124973246D01*
X140941363Y-124936664D01*
X140989929Y-124921932D01*
X141079915Y-124894635D01*
X141224000Y-124880444D01*
X141368084Y-124894635D01*
X141458070Y-124921932D01*
X141506636Y-124936664D01*
X141634318Y-125004912D01*
X141746238Y-125096762D01*
X141762375Y-125116425D01*
X141779702Y-125133752D01*
X141800077Y-125147366D01*
X141822716Y-125156743D01*
X141846749Y-125161523D01*
X141871253Y-125161523D01*
X141895286Y-125156742D01*
X141917925Y-125147365D01*
X141938299Y-125133751D01*
X141955625Y-125116425D01*
X141971762Y-125096762D01*
X142083681Y-125004912D01*
X142211363Y-124936664D01*
X142259929Y-124921932D01*
X142349915Y-124894635D01*
X142494000Y-124880444D01*
X142638084Y-124894635D01*
X142728070Y-124921932D01*
X142776636Y-124936664D01*
X142904318Y-125004912D01*
X143016238Y-125096762D01*
X143108088Y-125208681D01*
X143176336Y-125336363D01*
X143187272Y-125372415D01*
X143218365Y-125474915D01*
X143229000Y-125582895D01*
X143229000Y-126385105D01*
X143218365Y-126493085D01*
X143187272Y-126595585D01*
X143176336Y-126631637D01*
X143108088Y-126759319D01*
X143016238Y-126871238D01*
X142904319Y-126963088D01*
X142776637Y-127031336D01*
X142740585Y-127042272D01*
X142638085Y-127073365D01*
X142494000Y-127087556D01*
X142349916Y-127073365D01*
X142247416Y-127042272D01*
X142211364Y-127031336D01*
X142083682Y-126963088D01*
X141971764Y-126871239D01*
X141971763Y-126871238D01*
X141955621Y-126851569D01*
X141938300Y-126834248D01*
X141917926Y-126820634D01*
X141895287Y-126811257D01*
X141871254Y-126806476D01*
X141846750Y-126806476D01*
X141822717Y-126811256D01*
X141800078Y-126820633D01*
X141779703Y-126834247D01*
X141762380Y-126851569D01*
X141746238Y-126871238D01*
X141746236Y-126871240D01*
X141634319Y-126963088D01*
X141506637Y-127031336D01*
X141470585Y-127042272D01*
X141368085Y-127073365D01*
X141224000Y-127087556D01*
X141079916Y-127073365D01*
X140977416Y-127042272D01*
X140941364Y-127031336D01*
X140872923Y-126994753D01*
X140850285Y-126985375D01*
X140826251Y-126980595D01*
X140801747Y-126980595D01*
X140777714Y-126985375D01*
X140755075Y-126994753D01*
X140734701Y-127008366D01*
X140717374Y-127025693D01*
X140703760Y-127046068D01*
X140694382Y-127068706D01*
X140689602Y-127092740D01*
X140689000Y-127104992D01*
X140689000Y-128184000D01*
X139219000Y-128184000D01*
X139219000Y-127104993D01*
X139216598Y-127080607D01*
X139209485Y-127057158D01*
X139197934Y-127035547D01*
X139182389Y-127016605D01*
X139163447Y-127001060D01*
X139141836Y-126989509D01*
X139118387Y-126982396D01*
X139094001Y-126979994D01*
X139069615Y-126982396D01*
X139035077Y-126994754D01*
X138966637Y-127031336D01*
X138930585Y-127042272D01*
X138828085Y-127073365D01*
X138684000Y-127087556D01*
X138539916Y-127073365D01*
X138437416Y-127042272D01*
X138401364Y-127031336D01*
X138273682Y-126963088D01*
X138161763Y-126871238D01*
X138069913Y-126759319D01*
X138001665Y-126631636D01*
X137997085Y-126616537D01*
X137959635Y-126493085D01*
X137949000Y-126385105D01*
X137949000Y-125582896D01*
X137959635Y-125474916D01*
X138001663Y-125336368D01*
X138001664Y-125336364D01*
X138069912Y-125208682D01*
X138161762Y-125096762D01*
X138273681Y-125004912D01*
X138401363Y-124936664D01*
X138449929Y-124921932D01*
X138539915Y-124894635D01*
X138684000Y-124880444D01*
X138828084Y-124894635D01*
X138918070Y-124921932D01*
X138966636Y-124936664D01*
X139035077Y-124973247D01*
X139057715Y-124982625D01*
X139081749Y-124987405D01*
X139106253Y-124987405D01*
X139130286Y-124982625D01*
X139152925Y-124973247D01*
X139173299Y-124959634D01*
X139190626Y-124942307D01*
X139204240Y-124921932D01*
X139213618Y-124899294D01*
X139218398Y-124875260D01*
X139219000Y-124863008D01*
X139219000Y-124784000D01*
X140689000Y-124784000D01*
X140689000Y-124863007D01*
G37*
G36*
X136128000Y-125714000D02*
G01*
X134128000Y-125714000D01*
X134128000Y-123714000D01*
X136128000Y-123714000D01*
X136128000Y-125714000D01*
G37*
G36*
X129134000Y-117976000D02*
G01*
X117234000Y-117976000D01*
X117234000Y-115576000D01*
X129134000Y-115576000D01*
X129134000Y-117976000D01*
G37*
G36*
X133381204Y-115312868D02*
G01*
X133556278Y-115385386D01*
X133556279Y-115385387D01*
X133713837Y-115490663D01*
X133847837Y-115624663D01*
X133935607Y-115756021D01*
X133953114Y-115782222D01*
X133989372Y-115869758D01*
X134025632Y-115957296D01*
X134062600Y-116143150D01*
X134062600Y-116332650D01*
X134025632Y-116518504D01*
X133953114Y-116693578D01*
X133953113Y-116693579D01*
X133847837Y-116851137D01*
X133713837Y-116985137D01*
X133582479Y-117072907D01*
X133556278Y-117090414D01*
X133468742Y-117126672D01*
X133381204Y-117162932D01*
X133195350Y-117199900D01*
X133005850Y-117199900D01*
X132819996Y-117162932D01*
X132732458Y-117126672D01*
X132644922Y-117090414D01*
X132618721Y-117072907D01*
X132487363Y-116985137D01*
X132353363Y-116851137D01*
X132248087Y-116693579D01*
X132248086Y-116693578D01*
X132175568Y-116518504D01*
X132138600Y-116332650D01*
X132138600Y-116143150D01*
X132175568Y-115957296D01*
X132211828Y-115869758D01*
X132248086Y-115782222D01*
X132265593Y-115756021D01*
X132353363Y-115624663D01*
X132487363Y-115490663D01*
X132644921Y-115385387D01*
X132644922Y-115385386D01*
X132819996Y-115312868D01*
X133005850Y-115275900D01*
X133195350Y-115275900D01*
X133381204Y-115312868D01*
G37*
G36*
X139694799Y-109946569D02*
G01*
X139894377Y-110007110D01*
X140078306Y-110105423D01*
X140239522Y-110237728D01*
X140371827Y-110398944D01*
X140470140Y-110582873D01*
X140530681Y-110782451D01*
X140551122Y-110990000D01*
X140530681Y-111197549D01*
X140470140Y-111397127D01*
X140371827Y-111581056D01*
X140239522Y-111742272D01*
X140078306Y-111874577D01*
X139894377Y-111972890D01*
X139754295Y-112015383D01*
X139731656Y-112024761D01*
X139711282Y-112038374D01*
X139693955Y-112055701D01*
X139680341Y-112076076D01*
X139670963Y-112098715D01*
X139666183Y-112122748D01*
X139666183Y-112147252D01*
X139670963Y-112171285D01*
X139680341Y-112193924D01*
X139693954Y-112214298D01*
X139711281Y-112231625D01*
X139731656Y-112245239D01*
X139754295Y-112254617D01*
X139894377Y-112297110D01*
X140078306Y-112395423D01*
X140239522Y-112527728D01*
X140371827Y-112688944D01*
X140470140Y-112872873D01*
X140530681Y-113072451D01*
X140551122Y-113280000D01*
X140530681Y-113487549D01*
X140470140Y-113687127D01*
X140371827Y-113871056D01*
X140239522Y-114032272D01*
X140078306Y-114164577D01*
X139894374Y-114262891D01*
X139882033Y-114266635D01*
X139859395Y-114276012D01*
X139839020Y-114289626D01*
X139821693Y-114306953D01*
X139808080Y-114327327D01*
X139798702Y-114349966D01*
X139793922Y-114373999D01*
X139793922Y-114398503D01*
X139798703Y-114422537D01*
X139808080Y-114445175D01*
X139821694Y-114465550D01*
X139839021Y-114482877D01*
X139859395Y-114496490D01*
X139882034Y-114505868D01*
X139918319Y-114511250D01*
X140546000Y-114511250D01*
X140546000Y-116628750D01*
X138346000Y-116628750D01*
X138346000Y-114511250D01*
X138973681Y-114511250D01*
X138998067Y-114508848D01*
X139021516Y-114501735D01*
X139043127Y-114490184D01*
X139062069Y-114474639D01*
X139077614Y-114455697D01*
X139089165Y-114434086D01*
X139096278Y-114410637D01*
X139098680Y-114386251D01*
X139096278Y-114361865D01*
X139089165Y-114338416D01*
X139077614Y-114316805D01*
X139062069Y-114297863D01*
X139043127Y-114282318D01*
X139009967Y-114266635D01*
X138997626Y-114262891D01*
X138813694Y-114164577D01*
X138652478Y-114032272D01*
X138520173Y-113871056D01*
X138421860Y-113687127D01*
X138361319Y-113487549D01*
X138340878Y-113280000D01*
X138361319Y-113072451D01*
X138421860Y-112872873D01*
X138520173Y-112688944D01*
X138652478Y-112527728D01*
X138813694Y-112395423D01*
X138997623Y-112297110D01*
X139137705Y-112254617D01*
X139160344Y-112245239D01*
X139180718Y-112231626D01*
X139198045Y-112214299D01*
X139211659Y-112193924D01*
X139221037Y-112171285D01*
X139225817Y-112147252D01*
X139225817Y-112122748D01*
X139221037Y-112098715D01*
X139211659Y-112076076D01*
X139198046Y-112055702D01*
X139180719Y-112038375D01*
X139160344Y-112024761D01*
X139137705Y-112015383D01*
X138997623Y-111972890D01*
X138813694Y-111874577D01*
X138652478Y-111742272D01*
X138520173Y-111581056D01*
X138421860Y-111397127D01*
X138361319Y-111197549D01*
X138340878Y-110990000D01*
X138361319Y-110782451D01*
X138421860Y-110582873D01*
X138520173Y-110398944D01*
X138652478Y-110237728D01*
X138813694Y-110105423D01*
X138997623Y-110007110D01*
X139197201Y-109946569D01*
X139352742Y-109931250D01*
X139539258Y-109931250D01*
X139694799Y-109946569D01*
G37*
G36*
X203681000Y-111655007D02*
G01*
X203683402Y-111679393D01*
X203690515Y-111702842D01*
X203702066Y-111724453D01*
X203717611Y-111743395D01*
X203736553Y-111758940D01*
X203758164Y-111770491D01*
X203781613Y-111777604D01*
X203805999Y-111780006D01*
X203830385Y-111777604D01*
X203864923Y-111765246D01*
X203933363Y-111728664D01*
X203981929Y-111713932D01*
X204071915Y-111686635D01*
X204216000Y-111672444D01*
X204360084Y-111686635D01*
X204450070Y-111713932D01*
X204498636Y-111728664D01*
X204626318Y-111796912D01*
X204738238Y-111888762D01*
X204754375Y-111908425D01*
X204771702Y-111925752D01*
X204792077Y-111939366D01*
X204814716Y-111948743D01*
X204838749Y-111953523D01*
X204863253Y-111953523D01*
X204887286Y-111948742D01*
X204909925Y-111939365D01*
X204930299Y-111925751D01*
X204947625Y-111908425D01*
X204963762Y-111888762D01*
X205075681Y-111796912D01*
X205203363Y-111728664D01*
X205251929Y-111713932D01*
X205341915Y-111686635D01*
X205486000Y-111672444D01*
X205630084Y-111686635D01*
X205720070Y-111713932D01*
X205768636Y-111728664D01*
X205896318Y-111796912D01*
X206008238Y-111888762D01*
X206100088Y-112000681D01*
X206168336Y-112128363D01*
X206174066Y-112147252D01*
X206210365Y-112266915D01*
X206221000Y-112374895D01*
X206221000Y-113177105D01*
X206210365Y-113285085D01*
X206179272Y-113387585D01*
X206168336Y-113423637D01*
X206100088Y-113551319D01*
X206008238Y-113663238D01*
X205896319Y-113755088D01*
X205768637Y-113823336D01*
X205737935Y-113832649D01*
X205630085Y-113865365D01*
X205486000Y-113879556D01*
X205341916Y-113865365D01*
X205234066Y-113832649D01*
X205203364Y-113823336D01*
X205075682Y-113755088D01*
X204963764Y-113663239D01*
X204963763Y-113663238D01*
X204947621Y-113643569D01*
X204930300Y-113626248D01*
X204909926Y-113612634D01*
X204887287Y-113603257D01*
X204863254Y-113598476D01*
X204838750Y-113598476D01*
X204814717Y-113603256D01*
X204792078Y-113612633D01*
X204771703Y-113626247D01*
X204754380Y-113643569D01*
X204738238Y-113663238D01*
X204738236Y-113663240D01*
X204626319Y-113755088D01*
X204498637Y-113823336D01*
X204467935Y-113832649D01*
X204360085Y-113865365D01*
X204216000Y-113879556D01*
X204071916Y-113865365D01*
X203964066Y-113832649D01*
X203933364Y-113823336D01*
X203864923Y-113786753D01*
X203842285Y-113777375D01*
X203818251Y-113772595D01*
X203793747Y-113772595D01*
X203769714Y-113777375D01*
X203747075Y-113786753D01*
X203726701Y-113800366D01*
X203709374Y-113817693D01*
X203695760Y-113838068D01*
X203686382Y-113860706D01*
X203681602Y-113884740D01*
X203681000Y-113896992D01*
X203681000Y-114976000D01*
X202211000Y-114976000D01*
X202211000Y-113896992D01*
X202208598Y-113872607D01*
X202201485Y-113849158D01*
X202189934Y-113827547D01*
X202174389Y-113808605D01*
X202155447Y-113793060D01*
X202133836Y-113781509D01*
X202110387Y-113774396D01*
X202086001Y-113771994D01*
X202061615Y-113774396D01*
X202027077Y-113786754D01*
X201958637Y-113823336D01*
X201927935Y-113832649D01*
X201820085Y-113865365D01*
X201676000Y-113879556D01*
X201531916Y-113865365D01*
X201424066Y-113832649D01*
X201393364Y-113823336D01*
X201265682Y-113755088D01*
X201153763Y-113663238D01*
X201061913Y-113551319D01*
X200993665Y-113423636D01*
X200993664Y-113423633D01*
X200951635Y-113285085D01*
X200941000Y-113177105D01*
X200941000Y-112374896D01*
X200951635Y-112266916D01*
X200993663Y-112128368D01*
X200993664Y-112128364D01*
X201061912Y-112000682D01*
X201153762Y-111888762D01*
X201265681Y-111796912D01*
X201393363Y-111728664D01*
X201441929Y-111713932D01*
X201531915Y-111686635D01*
X201676000Y-111672444D01*
X201820084Y-111686635D01*
X201910070Y-111713932D01*
X201958636Y-111728664D01*
X202027077Y-111765247D01*
X202049715Y-111774625D01*
X202073749Y-111779405D01*
X202098253Y-111779405D01*
X202122286Y-111774625D01*
X202144925Y-111765247D01*
X202165299Y-111751634D01*
X202182626Y-111734307D01*
X202196240Y-111713932D01*
X202205618Y-111691294D01*
X202210398Y-111667260D01*
X202211000Y-111655008D01*
X202211000Y-111576000D01*
X203681000Y-111576000D01*
X203681000Y-111655007D01*
G37*
G36*
X133357804Y-107139268D02*
G01*
X133445342Y-107175528D01*
X133532878Y-107211786D01*
X133532879Y-107211787D01*
X133690437Y-107317063D01*
X133824437Y-107451063D01*
X133912207Y-107582421D01*
X133929714Y-107608622D01*
X133960390Y-107682681D01*
X134002232Y-107783696D01*
X134039200Y-107969550D01*
X134039200Y-108159050D01*
X134002232Y-108344904D01*
X133974468Y-108411932D01*
X133929714Y-108519978D01*
X133929713Y-108519979D01*
X133824437Y-108677537D01*
X133690440Y-108811534D01*
X133676491Y-108820854D01*
X133657549Y-108836399D01*
X133642003Y-108855341D01*
X133630451Y-108876951D01*
X133623337Y-108900400D01*
X133620935Y-108924786D01*
X133623336Y-108949172D01*
X133630449Y-108972621D01*
X133641999Y-108994232D01*
X133657544Y-109013174D01*
X133676488Y-109028722D01*
X133726539Y-109062165D01*
X133860537Y-109196163D01*
X133935429Y-109308248D01*
X133965814Y-109353722D01*
X134000345Y-109437087D01*
X134038332Y-109528796D01*
X134075300Y-109714650D01*
X134075300Y-109904150D01*
X134038332Y-110090004D01*
X134025229Y-110121636D01*
X133965814Y-110265078D01*
X133965813Y-110265079D01*
X133860537Y-110422637D01*
X133726537Y-110556637D01*
X133615458Y-110630857D01*
X133568978Y-110661914D01*
X133568975Y-110661915D01*
X133567407Y-110662963D01*
X133549122Y-110672737D01*
X133530180Y-110688282D01*
X133514634Y-110707224D01*
X133503083Y-110728834D01*
X133495969Y-110752283D01*
X133493567Y-110776669D01*
X133495968Y-110801055D01*
X133503081Y-110824505D01*
X133514632Y-110846115D01*
X133530177Y-110865057D01*
X133549121Y-110880604D01*
X133713837Y-110990663D01*
X133847837Y-111124663D01*
X133935607Y-111256021D01*
X133953114Y-111282222D01*
X134025632Y-111457296D01*
X134062600Y-111643150D01*
X134062600Y-111832650D01*
X134025632Y-112018504D01*
X134010224Y-112055701D01*
X133953114Y-112193578D01*
X133935607Y-112219779D01*
X133847837Y-112351137D01*
X133713837Y-112485137D01*
X133582479Y-112572907D01*
X133556278Y-112590414D01*
X133479015Y-112622417D01*
X133457406Y-112633967D01*
X133438464Y-112649513D01*
X133422919Y-112668454D01*
X133411368Y-112690065D01*
X133404255Y-112713514D01*
X133401853Y-112737900D01*
X133404255Y-112762286D01*
X133411368Y-112785735D01*
X133422919Y-112807346D01*
X133438465Y-112826288D01*
X133457406Y-112841833D01*
X133479015Y-112853383D01*
X133556278Y-112885386D01*
X133556279Y-112885387D01*
X133713837Y-112990663D01*
X133847837Y-113124663D01*
X133935607Y-113256021D01*
X133953114Y-113282222D01*
X134025632Y-113457296D01*
X134062600Y-113643150D01*
X134062600Y-113832650D01*
X134025632Y-114018504D01*
X134019929Y-114032271D01*
X133953114Y-114193578D01*
X133953113Y-114193579D01*
X133847837Y-114351137D01*
X133713837Y-114485137D01*
X133582479Y-114572907D01*
X133556278Y-114590414D01*
X133468742Y-114626672D01*
X133381204Y-114662932D01*
X133195350Y-114699900D01*
X133005850Y-114699900D01*
X132819996Y-114662932D01*
X132732458Y-114626672D01*
X132644922Y-114590414D01*
X132618721Y-114572907D01*
X132487363Y-114485137D01*
X132353363Y-114351137D01*
X132248087Y-114193579D01*
X132248086Y-114193578D01*
X132181271Y-114032271D01*
X132175568Y-114018504D01*
X132138600Y-113832650D01*
X132138600Y-113643150D01*
X132175568Y-113457296D01*
X132248086Y-113282222D01*
X132265593Y-113256021D01*
X132353363Y-113124663D01*
X132487363Y-112990663D01*
X132644921Y-112885387D01*
X132644922Y-112885386D01*
X132722185Y-112853383D01*
X132743794Y-112841833D01*
X132762736Y-112826287D01*
X132778281Y-112807346D01*
X132789832Y-112785735D01*
X132796945Y-112762286D01*
X132799347Y-112737900D01*
X132796945Y-112713514D01*
X132789832Y-112690065D01*
X132778281Y-112668454D01*
X132762735Y-112649512D01*
X132743794Y-112633967D01*
X132722185Y-112622417D01*
X132644922Y-112590414D01*
X132618721Y-112572907D01*
X132487363Y-112485137D01*
X132353363Y-112351137D01*
X132265593Y-112219779D01*
X132248086Y-112193578D01*
X132190976Y-112055701D01*
X132175568Y-112018504D01*
X132138600Y-111832650D01*
X132138600Y-111643150D01*
X132175568Y-111457296D01*
X132211828Y-111369758D01*
X132248086Y-111282222D01*
X132265593Y-111256021D01*
X132353363Y-111124663D01*
X132487363Y-110990663D01*
X132598442Y-110916443D01*
X132644922Y-110885386D01*
X132644925Y-110885385D01*
X132646493Y-110884337D01*
X132664778Y-110874563D01*
X132683720Y-110859018D01*
X132699266Y-110840076D01*
X132710817Y-110818466D01*
X132717931Y-110795017D01*
X132720333Y-110770631D01*
X132717932Y-110746245D01*
X132710819Y-110722795D01*
X132699268Y-110701185D01*
X132683723Y-110682243D01*
X132664779Y-110666696D01*
X132500063Y-110556637D01*
X132366063Y-110422637D01*
X132260787Y-110265079D01*
X132260786Y-110265078D01*
X132201371Y-110121636D01*
X132188268Y-110090004D01*
X132151300Y-109904150D01*
X132151300Y-109714650D01*
X132188268Y-109528796D01*
X132226255Y-109437087D01*
X132260786Y-109353722D01*
X132291171Y-109308248D01*
X132366063Y-109196163D01*
X132500060Y-109062166D01*
X132514009Y-109052846D01*
X132532951Y-109037301D01*
X132548497Y-109018359D01*
X132560049Y-108996749D01*
X132567163Y-108973300D01*
X132569565Y-108948914D01*
X132567164Y-108924528D01*
X132560051Y-108901079D01*
X132548501Y-108879468D01*
X132532956Y-108860526D01*
X132514012Y-108844978D01*
X132463961Y-108811535D01*
X132329963Y-108677537D01*
X132224687Y-108519979D01*
X132224686Y-108519978D01*
X132179932Y-108411932D01*
X132152168Y-108344904D01*
X132115200Y-108159050D01*
X132115200Y-107969550D01*
X132152168Y-107783696D01*
X132194010Y-107682681D01*
X132224686Y-107608622D01*
X132242193Y-107582421D01*
X132329963Y-107451063D01*
X132463963Y-107317063D01*
X132621521Y-107211787D01*
X132621522Y-107211786D01*
X132796596Y-107139268D01*
X132982450Y-107102300D01*
X133171950Y-107102300D01*
X133357804Y-107139268D01*
G37*
G36*
X129134000Y-114476000D02*
G01*
X118234000Y-114476000D01*
X118234000Y-113076000D01*
X129134000Y-113076000D01*
X129134000Y-114476000D01*
G37*
G36*
X129134000Y-112476000D02*
G01*
X118234000Y-112476000D01*
X118234000Y-111076000D01*
X129134000Y-111076000D01*
X129134000Y-112476000D01*
G37*
G36*
X187679000Y-108353007D02*
G01*
X187681402Y-108377393D01*
X187688515Y-108400842D01*
X187700066Y-108422453D01*
X187715611Y-108441395D01*
X187734553Y-108456940D01*
X187756164Y-108468491D01*
X187779613Y-108475604D01*
X187803999Y-108478006D01*
X187828385Y-108475604D01*
X187862923Y-108463246D01*
X187931363Y-108426664D01*
X187979929Y-108411932D01*
X188069915Y-108384635D01*
X188214000Y-108370444D01*
X188358084Y-108384635D01*
X188448070Y-108411932D01*
X188496636Y-108426664D01*
X188624318Y-108494912D01*
X188736238Y-108586762D01*
X188752375Y-108606425D01*
X188769702Y-108623752D01*
X188790077Y-108637366D01*
X188812716Y-108646743D01*
X188836749Y-108651523D01*
X188861253Y-108651523D01*
X188885286Y-108646742D01*
X188907925Y-108637365D01*
X188928299Y-108623751D01*
X188945625Y-108606425D01*
X188961762Y-108586762D01*
X189073681Y-108494912D01*
X189201363Y-108426664D01*
X189249929Y-108411932D01*
X189339915Y-108384635D01*
X189484000Y-108370444D01*
X189628084Y-108384635D01*
X189718070Y-108411932D01*
X189766636Y-108426664D01*
X189894318Y-108494912D01*
X190006238Y-108586762D01*
X190098088Y-108698681D01*
X190166336Y-108826363D01*
X190169380Y-108836399D01*
X190208365Y-108964915D01*
X190219000Y-109072895D01*
X190219000Y-109875105D01*
X190208365Y-109983085D01*
X190201077Y-110007110D01*
X190166336Y-110121637D01*
X190098088Y-110249319D01*
X190006238Y-110361238D01*
X189894319Y-110453088D01*
X189766637Y-110521336D01*
X189730585Y-110532272D01*
X189628085Y-110563365D01*
X189484000Y-110577556D01*
X189339916Y-110563365D01*
X189237416Y-110532272D01*
X189201364Y-110521336D01*
X189073682Y-110453088D01*
X188961764Y-110361239D01*
X188961763Y-110361238D01*
X188945621Y-110341569D01*
X188928300Y-110324248D01*
X188907926Y-110310634D01*
X188885287Y-110301257D01*
X188861254Y-110296476D01*
X188836750Y-110296476D01*
X188812717Y-110301256D01*
X188790078Y-110310633D01*
X188769703Y-110324247D01*
X188752380Y-110341569D01*
X188736238Y-110361238D01*
X188736236Y-110361240D01*
X188624319Y-110453088D01*
X188496637Y-110521336D01*
X188460585Y-110532272D01*
X188358085Y-110563365D01*
X188214000Y-110577556D01*
X188069916Y-110563365D01*
X187967416Y-110532272D01*
X187931364Y-110521336D01*
X187862923Y-110484753D01*
X187840285Y-110475375D01*
X187816251Y-110470595D01*
X187791747Y-110470595D01*
X187767714Y-110475375D01*
X187745075Y-110484753D01*
X187724701Y-110498366D01*
X187707374Y-110515693D01*
X187693760Y-110536068D01*
X187684382Y-110558706D01*
X187679602Y-110582740D01*
X187679000Y-110594992D01*
X187679000Y-111674000D01*
X186209000Y-111674000D01*
X186209000Y-110594993D01*
X186206598Y-110570607D01*
X186199485Y-110547158D01*
X186187934Y-110525547D01*
X186172389Y-110506605D01*
X186153447Y-110491060D01*
X186131836Y-110479509D01*
X186108387Y-110472396D01*
X186084001Y-110469994D01*
X186059615Y-110472396D01*
X186025077Y-110484754D01*
X185956637Y-110521336D01*
X185920585Y-110532272D01*
X185818085Y-110563365D01*
X185674000Y-110577556D01*
X185529916Y-110563365D01*
X185427416Y-110532272D01*
X185391364Y-110521336D01*
X185263682Y-110453088D01*
X185151763Y-110361238D01*
X185059913Y-110249319D01*
X184991665Y-110121636D01*
X184982069Y-110090004D01*
X184949635Y-109983085D01*
X184939000Y-109875105D01*
X184939000Y-109072896D01*
X184949635Y-108964916D01*
X184991663Y-108826368D01*
X184991664Y-108826364D01*
X185059912Y-108698682D01*
X185151762Y-108586762D01*
X185263681Y-108494912D01*
X185391363Y-108426664D01*
X185439929Y-108411932D01*
X185529915Y-108384635D01*
X185674000Y-108370444D01*
X185818084Y-108384635D01*
X185908070Y-108411932D01*
X185956636Y-108426664D01*
X186025077Y-108463247D01*
X186047715Y-108472625D01*
X186071749Y-108477405D01*
X186096253Y-108477405D01*
X186120286Y-108472625D01*
X186142925Y-108463247D01*
X186163299Y-108449634D01*
X186180626Y-108432307D01*
X186194240Y-108411932D01*
X186203618Y-108389294D01*
X186208398Y-108365260D01*
X186209000Y-108353008D01*
X186209000Y-108274000D01*
X187679000Y-108274000D01*
X187679000Y-108353007D01*
G37*
G36*
X145515000Y-107337007D02*
G01*
X145517402Y-107361393D01*
X145524515Y-107384842D01*
X145536066Y-107406453D01*
X145551611Y-107425395D01*
X145570553Y-107440940D01*
X145592164Y-107452491D01*
X145615613Y-107459604D01*
X145639999Y-107462006D01*
X145664385Y-107459604D01*
X145698923Y-107447246D01*
X145767363Y-107410664D01*
X145815929Y-107395932D01*
X145905915Y-107368635D01*
X146050000Y-107354444D01*
X146194084Y-107368635D01*
X146284070Y-107395932D01*
X146332636Y-107410664D01*
X146460318Y-107478912D01*
X146572238Y-107570762D01*
X146588375Y-107590425D01*
X146605702Y-107607752D01*
X146626077Y-107621366D01*
X146648716Y-107630743D01*
X146672749Y-107635523D01*
X146697253Y-107635523D01*
X146721286Y-107630742D01*
X146743925Y-107621365D01*
X146764299Y-107607751D01*
X146781625Y-107590425D01*
X146797762Y-107570762D01*
X146909681Y-107478912D01*
X147037363Y-107410664D01*
X147085929Y-107395932D01*
X147175915Y-107368635D01*
X147320000Y-107354444D01*
X147464084Y-107368635D01*
X147554070Y-107395932D01*
X147602636Y-107410664D01*
X147730318Y-107478912D01*
X147842238Y-107570762D01*
X147934088Y-107682681D01*
X148002336Y-107810363D01*
X148013272Y-107846415D01*
X148044365Y-107948915D01*
X148055000Y-108056895D01*
X148055000Y-108859105D01*
X148044365Y-108967085D01*
X148023065Y-109037301D01*
X148002336Y-109105637D01*
X147934088Y-109233319D01*
X147842238Y-109345238D01*
X147730319Y-109437088D01*
X147602637Y-109505336D01*
X147566585Y-109516272D01*
X147464085Y-109547365D01*
X147320000Y-109561556D01*
X147175916Y-109547365D01*
X147073416Y-109516272D01*
X147037364Y-109505336D01*
X146909682Y-109437088D01*
X146797764Y-109345239D01*
X146797763Y-109345238D01*
X146781621Y-109325569D01*
X146764300Y-109308248D01*
X146743926Y-109294634D01*
X146721287Y-109285257D01*
X146697254Y-109280476D01*
X146672750Y-109280476D01*
X146648717Y-109285256D01*
X146626078Y-109294633D01*
X146605703Y-109308247D01*
X146588380Y-109325569D01*
X146572238Y-109345238D01*
X146572236Y-109345240D01*
X146460319Y-109437088D01*
X146332637Y-109505336D01*
X146296585Y-109516272D01*
X146194085Y-109547365D01*
X146050000Y-109561556D01*
X145905916Y-109547365D01*
X145803416Y-109516272D01*
X145767364Y-109505336D01*
X145698923Y-109468753D01*
X145676285Y-109459375D01*
X145652251Y-109454595D01*
X145627747Y-109454595D01*
X145603714Y-109459375D01*
X145581075Y-109468753D01*
X145560701Y-109482366D01*
X145543374Y-109499693D01*
X145529760Y-109520068D01*
X145520382Y-109542706D01*
X145515602Y-109566740D01*
X145515000Y-109578992D01*
X145515000Y-110658000D01*
X144045000Y-110658000D01*
X144045000Y-109578993D01*
X144042598Y-109554607D01*
X144035485Y-109531158D01*
X144023934Y-109509547D01*
X144008389Y-109490605D01*
X143989447Y-109475060D01*
X143967836Y-109463509D01*
X143944387Y-109456396D01*
X143920001Y-109453994D01*
X143895615Y-109456396D01*
X143861077Y-109468754D01*
X143792637Y-109505336D01*
X143756585Y-109516272D01*
X143654085Y-109547365D01*
X143510000Y-109561556D01*
X143365916Y-109547365D01*
X143263416Y-109516272D01*
X143227364Y-109505336D01*
X143099682Y-109437088D01*
X142987763Y-109345238D01*
X142895913Y-109233319D01*
X142827665Y-109105636D01*
X142811651Y-109052846D01*
X142785635Y-108967085D01*
X142775000Y-108859105D01*
X142775000Y-108056896D01*
X142785635Y-107948916D01*
X142827663Y-107810368D01*
X142827664Y-107810364D01*
X142895912Y-107682682D01*
X142987762Y-107570762D01*
X143099681Y-107478912D01*
X143227363Y-107410664D01*
X143275929Y-107395932D01*
X143365915Y-107368635D01*
X143510000Y-107354444D01*
X143654084Y-107368635D01*
X143744070Y-107395932D01*
X143792636Y-107410664D01*
X143861077Y-107447247D01*
X143883715Y-107456625D01*
X143907749Y-107461405D01*
X143932253Y-107461405D01*
X143956286Y-107456625D01*
X143978925Y-107447247D01*
X143999299Y-107433634D01*
X144016626Y-107416307D01*
X144030240Y-107395932D01*
X144039618Y-107373294D01*
X144044398Y-107349260D01*
X144045000Y-107337008D01*
X144045000Y-107258000D01*
X145515000Y-107258000D01*
X145515000Y-107337007D01*
G37*
G36*
X129134000Y-109976000D02*
G01*
X117234000Y-109976000D01*
X117234000Y-107576000D01*
X129134000Y-107576000D01*
X129134000Y-109976000D01*
G37*
G36*
X149590000Y-103362000D02*
G01*
X147590000Y-103362000D01*
X147590000Y-101362000D01*
X149590000Y-101362000D01*
X149590000Y-103362000D01*
G37*
G36*
X151357290Y-101387619D02*
G01*
X151421689Y-101400429D01*
X151603678Y-101475811D01*
X151767463Y-101585249D01*
X151906751Y-101724537D01*
X152016189Y-101888322D01*
X152091571Y-102070311D01*
X152130000Y-102263509D01*
X152130000Y-102460491D01*
X152091571Y-102653689D01*
X152016189Y-102835678D01*
X151906751Y-102999463D01*
X151767463Y-103138751D01*
X151603678Y-103248189D01*
X151421689Y-103323571D01*
X151357290Y-103336381D01*
X151228493Y-103362000D01*
X151031507Y-103362000D01*
X150902710Y-103336381D01*
X150838311Y-103323571D01*
X150656322Y-103248189D01*
X150492537Y-103138751D01*
X150353249Y-102999463D01*
X150243811Y-102835678D01*
X150168429Y-102653689D01*
X150130000Y-102460491D01*
X150130000Y-102263509D01*
X150168429Y-102070311D01*
X150243811Y-101888322D01*
X150353249Y-101724537D01*
X150492537Y-101585249D01*
X150656322Y-101475811D01*
X150838311Y-101400429D01*
X150902710Y-101387619D01*
X151031507Y-101362000D01*
X151228493Y-101362000D01*
X151357290Y-101387619D01*
G37*
G36*
X156437290Y-101387619D02*
G01*
X156501689Y-101400429D01*
X156683678Y-101475811D01*
X156847463Y-101585249D01*
X156986751Y-101724537D01*
X157096189Y-101888322D01*
X157171571Y-102070311D01*
X157210000Y-102263509D01*
X157210000Y-102460491D01*
X157171571Y-102653689D01*
X157096189Y-102835678D01*
X156986751Y-102999463D01*
X156847463Y-103138751D01*
X156683678Y-103248189D01*
X156501689Y-103323571D01*
X156437290Y-103336381D01*
X156308493Y-103362000D01*
X156111507Y-103362000D01*
X155982710Y-103336381D01*
X155918311Y-103323571D01*
X155736322Y-103248189D01*
X155572537Y-103138751D01*
X155433249Y-102999463D01*
X155323811Y-102835678D01*
X155248429Y-102653689D01*
X155210000Y-102460491D01*
X155210000Y-102263509D01*
X155248429Y-102070311D01*
X155323811Y-101888322D01*
X155433249Y-101724537D01*
X155572537Y-101585249D01*
X155736322Y-101475811D01*
X155918311Y-101400429D01*
X155982710Y-101387619D01*
X156111507Y-101362000D01*
X156308493Y-101362000D01*
X156437290Y-101387619D01*
G37*
G36*
X153897290Y-101387619D02*
G01*
X153961689Y-101400429D01*
X154143678Y-101475811D01*
X154307463Y-101585249D01*
X154446751Y-101724537D01*
X154556189Y-101888322D01*
X154631571Y-102070311D01*
X154670000Y-102263509D01*
X154670000Y-102460491D01*
X154631571Y-102653689D01*
X154556189Y-102835678D01*
X154446751Y-102999463D01*
X154307463Y-103138751D01*
X154143678Y-103248189D01*
X153961689Y-103323571D01*
X153897290Y-103336381D01*
X153768493Y-103362000D01*
X153571507Y-103362000D01*
X153442710Y-103336381D01*
X153378311Y-103323571D01*
X153196322Y-103248189D01*
X153032537Y-103138751D01*
X152893249Y-102999463D01*
X152783811Y-102835678D01*
X152708429Y-102653689D01*
X152670000Y-102460491D01*
X152670000Y-102263509D01*
X152708429Y-102070311D01*
X152783811Y-101888322D01*
X152893249Y-101724537D01*
X153032537Y-101585249D01*
X153196322Y-101475811D01*
X153378311Y-101400429D01*
X153442710Y-101387619D01*
X153571507Y-101362000D01*
X153768493Y-101362000D01*
X153897290Y-101387619D01*
G37*
G36*
X135101000Y-96923007D02*
G01*
X135103402Y-96947393D01*
X135110515Y-96970842D01*
X135122066Y-96992453D01*
X135137611Y-97011395D01*
X135156553Y-97026940D01*
X135178164Y-97038491D01*
X135201613Y-97045604D01*
X135225999Y-97048006D01*
X135250385Y-97045604D01*
X135284923Y-97033246D01*
X135353363Y-96996664D01*
X135401929Y-96981932D01*
X135491915Y-96954635D01*
X135636000Y-96940444D01*
X135780084Y-96954635D01*
X135870070Y-96981932D01*
X135918636Y-96996664D01*
X136046318Y-97064912D01*
X136158238Y-97156762D01*
X136174375Y-97176425D01*
X136191702Y-97193752D01*
X136212077Y-97207366D01*
X136234716Y-97216743D01*
X136258749Y-97221523D01*
X136283253Y-97221523D01*
X136307286Y-97216742D01*
X136329925Y-97207365D01*
X136350299Y-97193751D01*
X136367625Y-97176425D01*
X136383762Y-97156762D01*
X136495681Y-97064912D01*
X136623363Y-96996664D01*
X136671929Y-96981932D01*
X136761915Y-96954635D01*
X136906000Y-96940444D01*
X137050084Y-96954635D01*
X137140070Y-96981932D01*
X137188636Y-96996664D01*
X137316318Y-97064912D01*
X137428238Y-97156762D01*
X137520088Y-97268681D01*
X137588336Y-97396363D01*
X137599272Y-97432415D01*
X137630365Y-97534915D01*
X137641000Y-97642895D01*
X137641000Y-98445105D01*
X137630365Y-98553085D01*
X137599272Y-98655585D01*
X137588336Y-98691637D01*
X137520088Y-98819319D01*
X137428238Y-98931238D01*
X137316319Y-99023088D01*
X137188637Y-99091336D01*
X137152585Y-99102272D01*
X137050085Y-99133365D01*
X136906000Y-99147556D01*
X136761916Y-99133365D01*
X136659416Y-99102272D01*
X136623364Y-99091336D01*
X136495682Y-99023088D01*
X136383764Y-98931239D01*
X136383763Y-98931238D01*
X136367621Y-98911569D01*
X136350300Y-98894248D01*
X136329926Y-98880634D01*
X136307287Y-98871257D01*
X136283254Y-98866476D01*
X136258750Y-98866476D01*
X136234717Y-98871256D01*
X136212078Y-98880633D01*
X136191703Y-98894247D01*
X136174380Y-98911569D01*
X136158238Y-98931238D01*
X136158236Y-98931240D01*
X136046319Y-99023088D01*
X135918637Y-99091336D01*
X135882585Y-99102272D01*
X135780085Y-99133365D01*
X135636000Y-99147556D01*
X135491916Y-99133365D01*
X135389416Y-99102272D01*
X135353364Y-99091336D01*
X135284923Y-99054753D01*
X135262285Y-99045375D01*
X135238251Y-99040595D01*
X135213747Y-99040595D01*
X135189714Y-99045375D01*
X135167075Y-99054753D01*
X135146701Y-99068366D01*
X135129374Y-99085693D01*
X135115760Y-99106068D01*
X135106382Y-99128706D01*
X135101602Y-99152740D01*
X135101000Y-99164992D01*
X135101000Y-100244000D01*
X133631000Y-100244000D01*
X133631000Y-99164993D01*
X133628598Y-99140607D01*
X133621485Y-99117158D01*
X133609934Y-99095547D01*
X133594389Y-99076605D01*
X133575447Y-99061060D01*
X133553836Y-99049509D01*
X133530387Y-99042396D01*
X133506001Y-99039994D01*
X133481615Y-99042396D01*
X133447077Y-99054754D01*
X133378637Y-99091336D01*
X133342585Y-99102272D01*
X133240085Y-99133365D01*
X133096000Y-99147556D01*
X132951916Y-99133365D01*
X132849416Y-99102272D01*
X132813364Y-99091336D01*
X132685682Y-99023088D01*
X132573763Y-98931238D01*
X132481913Y-98819319D01*
X132413665Y-98691636D01*
X132413664Y-98691633D01*
X132371635Y-98553085D01*
X132361000Y-98445105D01*
X132361000Y-97642896D01*
X132371635Y-97534916D01*
X132413663Y-97396368D01*
X132413664Y-97396364D01*
X132481912Y-97268682D01*
X132573762Y-97156762D01*
X132685681Y-97064912D01*
X132813363Y-96996664D01*
X132861929Y-96981932D01*
X132951915Y-96954635D01*
X133096000Y-96940444D01*
X133240084Y-96954635D01*
X133330070Y-96981932D01*
X133378636Y-96996664D01*
X133447077Y-97033247D01*
X133469715Y-97042625D01*
X133493749Y-97047405D01*
X133518253Y-97047405D01*
X133542286Y-97042625D01*
X133564925Y-97033247D01*
X133585299Y-97019634D01*
X133602626Y-97002307D01*
X133616240Y-96981932D01*
X133625618Y-96959294D01*
X133630398Y-96935260D01*
X133631000Y-96923008D01*
X133631000Y-96844000D01*
X135101000Y-96844000D01*
X135101000Y-96923007D01*
G37*
G36*
X156437290Y-93767619D02*
G01*
X156501689Y-93780429D01*
X156683678Y-93855811D01*
X156847463Y-93965249D01*
X156986751Y-94104537D01*
X157096189Y-94268322D01*
X157171571Y-94450311D01*
X157210000Y-94643509D01*
X157210000Y-94840491D01*
X157171571Y-95033689D01*
X157096189Y-95215678D01*
X156986751Y-95379463D01*
X156847463Y-95518751D01*
X156683678Y-95628189D01*
X156501689Y-95703571D01*
X156437290Y-95716381D01*
X156308493Y-95742000D01*
X156111507Y-95742000D01*
X155982710Y-95716381D01*
X155918311Y-95703571D01*
X155736322Y-95628189D01*
X155572537Y-95518751D01*
X155433249Y-95379463D01*
X155323811Y-95215678D01*
X155248429Y-95033689D01*
X155210000Y-94840491D01*
X155210000Y-94643509D01*
X155248429Y-94450311D01*
X155323811Y-94268322D01*
X155433249Y-94104537D01*
X155572537Y-93965249D01*
X155736322Y-93855811D01*
X155918311Y-93780429D01*
X155982710Y-93767619D01*
X156111507Y-93742000D01*
X156308493Y-93742000D01*
X156437290Y-93767619D01*
G37*
G36*
X153897290Y-93767619D02*
G01*
X153961689Y-93780429D01*
X154143678Y-93855811D01*
X154307463Y-93965249D01*
X154446751Y-94104537D01*
X154556189Y-94268322D01*
X154631571Y-94450311D01*
X154670000Y-94643509D01*
X154670000Y-94840491D01*
X154631571Y-95033689D01*
X154556189Y-95215678D01*
X154446751Y-95379463D01*
X154307463Y-95518751D01*
X154143678Y-95628189D01*
X153961689Y-95703571D01*
X153897290Y-95716381D01*
X153768493Y-95742000D01*
X153571507Y-95742000D01*
X153442710Y-95716381D01*
X153378311Y-95703571D01*
X153196322Y-95628189D01*
X153032537Y-95518751D01*
X152893249Y-95379463D01*
X152783811Y-95215678D01*
X152708429Y-95033689D01*
X152670000Y-94840491D01*
X152670000Y-94643509D01*
X152708429Y-94450311D01*
X152783811Y-94268322D01*
X152893249Y-94104537D01*
X153032537Y-93965249D01*
X153196322Y-93855811D01*
X153378311Y-93780429D01*
X153442710Y-93767619D01*
X153571507Y-93742000D01*
X153768493Y-93742000D01*
X153897290Y-93767619D01*
G37*
G36*
X151357290Y-93767619D02*
G01*
X151421689Y-93780429D01*
X151603678Y-93855811D01*
X151767463Y-93965249D01*
X151906751Y-94104537D01*
X152016189Y-94268322D01*
X152091571Y-94450311D01*
X152130000Y-94643509D01*
X152130000Y-94840491D01*
X152091571Y-95033689D01*
X152016189Y-95215678D01*
X151906751Y-95379463D01*
X151767463Y-95518751D01*
X151603678Y-95628189D01*
X151421689Y-95703571D01*
X151357290Y-95716381D01*
X151228493Y-95742000D01*
X151031507Y-95742000D01*
X150902710Y-95716381D01*
X150838311Y-95703571D01*
X150656322Y-95628189D01*
X150492537Y-95518751D01*
X150353249Y-95379463D01*
X150243811Y-95215678D01*
X150168429Y-95033689D01*
X150130000Y-94840491D01*
X150130000Y-94643509D01*
X150168429Y-94450311D01*
X150243811Y-94268322D01*
X150353249Y-94104537D01*
X150492537Y-93965249D01*
X150656322Y-93855811D01*
X150838311Y-93780429D01*
X150902710Y-93767619D01*
X151031507Y-93742000D01*
X151228493Y-93742000D01*
X151357290Y-93767619D01*
G37*
G36*
X148817290Y-93767619D02*
G01*
X148881689Y-93780429D01*
X149063678Y-93855811D01*
X149227463Y-93965249D01*
X149366751Y-94104537D01*
X149476189Y-94268322D01*
X149551571Y-94450311D01*
X149590000Y-94643509D01*
X149590000Y-94840491D01*
X149551571Y-95033689D01*
X149476189Y-95215678D01*
X149366751Y-95379463D01*
X149227463Y-95518751D01*
X149063678Y-95628189D01*
X148881689Y-95703571D01*
X148817290Y-95716381D01*
X148688493Y-95742000D01*
X148491507Y-95742000D01*
X148362710Y-95716381D01*
X148298311Y-95703571D01*
X148116322Y-95628189D01*
X147952537Y-95518751D01*
X147813249Y-95379463D01*
X147703811Y-95215678D01*
X147628429Y-95033689D01*
X147590000Y-94840491D01*
X147590000Y-94643509D01*
X147628429Y-94450311D01*
X147703811Y-94268322D01*
X147813249Y-94104537D01*
X147952537Y-93965249D01*
X148116322Y-93855811D01*
X148298311Y-93780429D01*
X148362710Y-93767619D01*
X148491507Y-93742000D01*
X148688493Y-93742000D01*
X148817290Y-93767619D01*
G37*
M02*
