G04 #@! TF.GenerationSoftware,KiCad,Pcbnew,(5.1.5-0-10_14)*
G04 #@! TF.CreationDate,2020-11-16T18:29:34+01:00*
G04 #@! TF.ProjectId,badge_2020,62616467-655f-4323-9032-302e6b696361,rev?*
G04 #@! TF.SameCoordinates,Original*
G04 #@! TF.FileFunction,Copper,L1,Top*
G04 #@! TF.FilePolarity,Positive*
%FSLAX46Y46*%
G04 Gerber Fmt 4.6, Leading zero omitted, Abs format (unit mm)*
G04 Created by KiCad (PCBNEW (5.1.5-0-10_14)) date 2020-11-16 18:29:34*
%MOMM*%
%LPD*%
G04 APERTURE LIST*
%ADD10C,0.500000*%
%ADD11C,1.600000*%
%ADD12R,1.600000X1.600000*%
%ADD13R,1.070000X3.000000*%
%ADD14O,1.070000X1.800000*%
%ADD15O,1.500000X1.500000*%
%ADD16R,1.500000X1.500000*%
%ADD17R,11.500000X2.000000*%
%ADD18R,10.500000X1.000000*%
%ADD19C,1.524000*%
%ADD20O,1.600000X1.600000*%
%ADD21O,1.800000X1.717500*%
%ADD22R,1.800000X1.717500*%
%ADD23C,2.000000*%
G04 APERTURE END LIST*
D10*
X130759700Y-109876000D02*
X130759700Y-109276000D01*
X130778500Y-109816900D02*
X132778500Y-109816900D01*
X128783100Y-116276000D02*
X132783100Y-116276000D01*
X128783100Y-109276000D02*
X130783100Y-109276000D01*
X128783100Y-111776000D02*
X132783100Y-111776000D01*
X128783100Y-113776000D02*
X132783100Y-113776000D01*
D11*
X163870000Y-135128000D03*
D12*
X166370000Y-135128000D03*
D13*
X139954000Y-126484000D03*
D14*
X138684000Y-125984000D03*
X141224000Y-125984000D03*
X142494000Y-125984000D03*
D15*
X148336000Y-136906000D03*
D16*
X155956000Y-136906000D03*
D15*
X148336000Y-134620000D03*
D16*
X155956000Y-134620000D03*
D11*
X187118000Y-136906000D03*
X182118000Y-136906000D03*
D17*
X123184000Y-108776000D03*
X123184000Y-116776000D03*
D18*
X123684000Y-113776000D03*
X123684000Y-111776000D03*
D19*
X133113300Y-109809400D03*
X133100600Y-111737900D03*
X133100600Y-113737900D03*
X133100600Y-116237900D03*
X133077200Y-108064300D03*
D20*
X148590000Y-94742000D03*
X156210000Y-102362000D03*
X151130000Y-94742000D03*
X153670000Y-102362000D03*
X153670000Y-94742000D03*
X151130000Y-102362000D03*
X156210000Y-94742000D03*
D12*
X148590000Y-102362000D03*
D11*
X176784000Y-135382000D03*
X174244000Y-135382000D03*
D13*
X144780000Y-108958000D03*
D14*
X143510000Y-108458000D03*
X146050000Y-108458000D03*
X147320000Y-108458000D03*
D13*
X134366000Y-98544000D03*
D14*
X133096000Y-98044000D03*
X135636000Y-98044000D03*
X136906000Y-98044000D03*
D13*
X186944000Y-109974000D03*
D14*
X185674000Y-109474000D03*
X188214000Y-109474000D03*
X189484000Y-109474000D03*
D13*
X202946000Y-113276000D03*
D14*
X201676000Y-112776000D03*
X204216000Y-112776000D03*
X205486000Y-112776000D03*
D20*
X135128000Y-127254000D03*
X135128000Y-129794000D03*
D12*
X135128000Y-124714000D03*
D15*
X148336000Y-132334000D03*
D16*
X155956000Y-132334000D03*
D20*
X190246000Y-133604000D03*
D11*
X200406000Y-133604000D03*
D20*
X147828000Y-139700000D03*
D11*
X137668000Y-139700000D03*
D20*
X190246000Y-139700000D03*
D11*
X200406000Y-139700000D03*
D20*
X200406000Y-136652000D03*
D11*
X190246000Y-136652000D03*
D21*
X139446000Y-110990000D03*
X139446000Y-113280000D03*
D22*
X139446000Y-115570000D03*
D20*
X187198000Y-139700000D03*
D11*
X177038000Y-139700000D03*
D20*
X160782000Y-139700000D03*
D11*
X150622000Y-139700000D03*
D20*
X163830000Y-139700000D03*
D11*
X173990000Y-139700000D03*
D23*
X211732000Y-140462000D03*
X211732000Y-135962000D03*
X205232000Y-140462000D03*
X205232000Y-135962000D03*
D10*
X148336000Y-136906000D02*
X148336000Y-134620000D01*
X133077200Y-108064300D02*
X133839199Y-108826299D01*
X133478510Y-109809400D02*
X134030600Y-109809400D01*
X133839199Y-109448711D02*
X133478510Y-109809400D01*
X133839199Y-108826299D02*
X133839199Y-109448711D01*
X203962000Y-116078000D02*
X204216000Y-115824000D01*
X204216000Y-115824000D02*
X204216000Y-112776000D01*
X197068046Y-113502046D02*
X199644000Y-116078000D01*
X199644000Y-116078000D02*
X203962000Y-116078000D01*
X197068046Y-113476008D02*
X197068046Y-113502046D01*
X195352038Y-111760000D02*
X197068046Y-113476008D01*
X189100000Y-111760000D02*
X195352038Y-111760000D01*
X188214000Y-110874000D02*
X189100000Y-111760000D01*
X188214000Y-109474000D02*
X188214000Y-110874000D01*
X156210000Y-108966000D02*
X156210000Y-102362000D01*
X146812000Y-111252000D02*
X146050000Y-110490000D01*
X136652000Y-101092000D02*
X143764000Y-101092000D01*
X135636000Y-100076000D02*
X136652000Y-101092000D01*
X135636000Y-98044000D02*
X135636000Y-100076000D01*
X141224000Y-125984000D02*
X141224000Y-132588000D01*
X143256000Y-134620000D02*
X148336000Y-134620000D01*
X141224000Y-132588000D02*
X143256000Y-134620000D01*
X141224000Y-125984000D02*
X141224000Y-127508000D01*
X141224000Y-127508000D02*
X141986000Y-128270000D01*
X141986000Y-128270000D02*
X143256000Y-128270000D01*
X146050000Y-125476000D02*
X146050000Y-109728000D01*
X143256000Y-128270000D02*
X146050000Y-125476000D01*
X146050000Y-109728000D02*
X146050000Y-108458000D01*
X146050000Y-110490000D02*
X146050000Y-109728000D01*
X153924000Y-111252000D02*
X154178000Y-110998000D01*
X147828000Y-111252000D02*
X153924000Y-111252000D01*
X154178000Y-110998000D02*
X156210000Y-108966000D01*
X148336000Y-111252000D02*
X147828000Y-111252000D01*
X147828000Y-111252000D02*
X146812000Y-111252000D01*
X188214000Y-112014000D02*
X188214000Y-109474000D01*
X175794038Y-111760000D02*
X175794038Y-111786038D01*
X176784000Y-112776000D02*
X187452000Y-112776000D01*
X175794038Y-111786038D02*
X176784000Y-112776000D01*
X187452000Y-112776000D02*
X188214000Y-112014000D01*
X162840038Y-98806000D02*
X175794038Y-111760000D01*
X143764000Y-101092000D02*
X144018000Y-101092000D01*
X145034000Y-105156000D02*
X139192000Y-105156000D01*
X134538600Y-109809400D02*
X133478510Y-109809400D01*
X139192000Y-105156000D02*
X134538600Y-109809400D01*
X146050000Y-106172000D02*
X145034000Y-105156000D01*
X146050000Y-108458000D02*
X146050000Y-106172000D01*
X153797000Y-99949000D02*
X156210000Y-102362000D01*
X145161000Y-99949000D02*
X153797000Y-99949000D01*
X144018000Y-101092000D02*
X145161000Y-99949000D01*
X158634630Y-98806000D02*
X160528000Y-98806000D01*
X156210000Y-101230630D02*
X158634630Y-98806000D01*
X156210000Y-102362000D02*
X156210000Y-101230630D01*
X160528000Y-98806000D02*
X162840038Y-98806000D01*
X159004000Y-138176000D02*
X172466000Y-138176000D01*
X157734000Y-136906000D02*
X159004000Y-138176000D01*
X155956000Y-136906000D02*
X157734000Y-136906000D01*
X172466000Y-138176000D02*
X173990000Y-139700000D01*
X134714100Y-116237900D02*
X133483110Y-116237900D01*
X135382000Y-115570000D02*
X134714100Y-116237900D01*
X137414000Y-108458000D02*
X135382000Y-110490000D01*
X141732000Y-110236000D02*
X139954000Y-108458000D01*
X135382000Y-110490000D02*
X135382000Y-115570000D01*
X139954000Y-108458000D02*
X137414000Y-108458000D01*
X141224000Y-115316000D02*
X141732000Y-114808000D01*
X141100000Y-115316000D02*
X141224000Y-115316000D01*
X140846000Y-115570000D02*
X141100000Y-115316000D01*
X141732000Y-114808000D02*
X141732000Y-110236000D01*
X139446000Y-115570000D02*
X140846000Y-115570000D01*
X161798000Y-130810000D02*
X149098000Y-130810000D01*
X161036000Y-130810000D02*
X161798000Y-130810000D01*
X149098000Y-130810000D02*
X148336000Y-131572000D01*
X148336000Y-131572000D02*
X148336000Y-132334000D01*
X195834000Y-132080000D02*
X200406000Y-136652000D01*
X186944000Y-132080000D02*
X195834000Y-132080000D01*
X176022000Y-130810000D02*
X182118000Y-136906000D01*
X175514000Y-130810000D02*
X176022000Y-130810000D01*
X161798000Y-130810000D02*
X175514000Y-130810000D01*
X182917999Y-136106001D02*
X186944000Y-132080000D01*
X182118000Y-136906000D02*
X182917999Y-136106001D01*
X162560000Y-137414000D02*
X175768000Y-137414000D01*
X175768000Y-137414000D02*
X177038000Y-138684000D01*
X159766000Y-134620000D02*
X162560000Y-137414000D01*
X177038000Y-138684000D02*
X177038000Y-139700000D01*
X155956000Y-134620000D02*
X159766000Y-134620000D01*
X212344000Y-128524000D02*
X205486000Y-121920000D01*
X147966630Y-140970000D02*
X148082000Y-140970000D01*
X213614000Y-129794000D02*
X212344000Y-128524000D01*
X204216000Y-142240000D02*
X213106000Y-142240000D01*
X213614000Y-141732000D02*
X213614000Y-129794000D01*
X213106000Y-142240000D02*
X213614000Y-141732000D01*
X205486000Y-121920000D02*
X205486000Y-114176000D01*
X203708000Y-141732000D02*
X204216000Y-142240000D01*
X147828000Y-139700000D02*
X147828000Y-140831370D01*
X205486000Y-114176000D02*
X205486000Y-112776000D01*
X147828000Y-140831370D02*
X147966630Y-140970000D01*
X148844000Y-141732000D02*
X203708000Y-141732000D01*
X148082000Y-140970000D02*
X148844000Y-141732000D01*
X189484000Y-109474000D02*
X194056000Y-109474000D01*
X197358000Y-112776000D02*
X201676000Y-112776000D01*
X194056000Y-109474000D02*
X197358000Y-112776000D01*
X136906000Y-98044000D02*
X163068000Y-98044000D01*
X174498000Y-109474000D02*
X185674000Y-109474000D01*
X163068000Y-98044000D02*
X174498000Y-109474000D01*
X147320000Y-105637962D02*
X147320000Y-108458000D01*
X134620000Y-102108000D02*
X143790038Y-102108000D01*
X143790038Y-102108000D02*
X147320000Y-105637962D01*
X133096000Y-100584000D02*
X134620000Y-102108000D01*
X133096000Y-98044000D02*
X133096000Y-100584000D01*
X137160000Y-124714000D02*
X135128000Y-124714000D01*
X137414000Y-124460000D02*
X137160000Y-124714000D01*
X137414000Y-111506000D02*
X137414000Y-124460000D01*
X138046000Y-110990000D02*
X137414000Y-111506000D01*
X139446000Y-110990000D02*
X138046000Y-110990000D01*
X205232000Y-135962000D02*
X211732000Y-135962000D01*
X165608000Y-132334000D02*
X166370000Y-133096000D01*
X155956000Y-132334000D02*
X165608000Y-132334000D01*
X183134000Y-139700000D02*
X187198000Y-139700000D01*
X187198000Y-139700000D02*
X190246000Y-139700000D01*
X139954000Y-125984000D02*
X139954000Y-134366000D01*
X139954000Y-134366000D02*
X144018000Y-138430000D01*
X144018000Y-138430000D02*
X149352000Y-138430000D01*
X149352000Y-138430000D02*
X152400000Y-135382000D01*
X152400000Y-135382000D02*
X152400000Y-133604000D01*
X153670000Y-132334000D02*
X155956000Y-132334000D01*
X152400000Y-133604000D02*
X153670000Y-132334000D01*
X134366000Y-98044000D02*
X134366000Y-95250000D01*
X134366000Y-95250000D02*
X135890000Y-93726000D01*
X147574000Y-93726000D02*
X148590000Y-94742000D01*
X135890000Y-93726000D02*
X147574000Y-93726000D01*
X148590000Y-95873370D02*
X149606000Y-96889370D01*
X148590000Y-94742000D02*
X148590000Y-95873370D01*
X149606000Y-96889370D02*
X163437370Y-96889370D01*
X163437370Y-96889370D02*
X172466000Y-105918000D01*
X172466000Y-105918000D02*
X185928000Y-105918000D01*
X185928000Y-105918000D02*
X186944000Y-106934000D01*
X186944000Y-106934000D02*
X186944000Y-109474000D01*
X186944000Y-109474000D02*
X186944000Y-107442000D01*
X186944000Y-107442000D02*
X188214000Y-106172000D01*
X188214000Y-106172000D02*
X195072000Y-106172000D01*
X195072000Y-106172000D02*
X198882000Y-109982000D01*
X198882000Y-109982000D02*
X202184000Y-109982000D01*
X202184000Y-109982000D02*
X202946000Y-110744000D01*
X202946000Y-110744000D02*
X202946000Y-112776000D01*
X166370000Y-133096000D02*
X166370000Y-135128000D01*
X169194000Y-136652000D02*
X170180000Y-136652000D01*
X167670000Y-135128000D02*
X169194000Y-136652000D01*
X166370000Y-135128000D02*
X167670000Y-135128000D01*
X196850000Y-138176000D02*
X202946000Y-138176000D01*
X202946000Y-138176000D02*
X205232000Y-140462000D01*
X195326000Y-139700000D02*
X196850000Y-138176000D01*
X190246000Y-139700000D02*
X195326000Y-139700000D01*
X205232000Y-140462000D02*
X211732000Y-140462000D01*
X170180000Y-136652000D02*
X177500475Y-136697525D01*
X177500475Y-136697525D02*
X177591525Y-136697525D01*
X180594000Y-139700000D02*
X183134000Y-139700000D01*
X177591525Y-136697525D02*
X180594000Y-139700000D01*
X142494000Y-123952000D02*
X142494000Y-125984000D01*
X143510000Y-122936000D02*
X142494000Y-123952000D01*
X143510000Y-108458000D02*
X143510000Y-122936000D01*
M02*
