M48
; DRILL file {KiCad (5.1.5-0-10_14)} date 2020 November 16, Monday 18:29:27
; FORMAT={-:-/ absolute / inch / decimal}
; #@! TF.CreationDate,2020-11-16T18:29:27+01:00
; #@! TF.GenerationSoftware,Kicad,Pcbnew,(5.1.5-0-10_14)
; #@! TF.FileFunction,Plated,1,2,PTH
FMAT,2
INCH
T1C0.0295
T2C0.0300
T3C0.0315
T4C0.0354
T5C0.0433
%
G90
G05
T1
X5.84Y-5.3
X6.14Y-5.3
X5.84Y-5.39
X6.14Y-5.39
X5.84Y-5.21
X6.14Y-5.21
T2
X5.2393Y-4.2545
X5.2402Y-4.3991
X5.2402Y-4.4779
X5.2402Y-4.5763
X5.2407Y-4.3232
T3
X6.45Y-5.5
X6.85Y-5.5
X6.97Y-5.5
X7.37Y-5.5
X5.32Y-4.91
X5.32Y-5.01
X5.32Y-5.11
X5.93Y-5.5
X6.33Y-5.5
X6.86Y-5.33
X6.96Y-5.33
X7.49Y-5.38
X7.89Y-5.38
X6.4516Y-5.32
X6.55Y-5.32
X7.49Y-5.5
X7.89Y-5.5
X5.85Y-3.73
X5.85Y-4.03
X5.95Y-3.73
X5.95Y-4.03
X6.05Y-3.73
X6.05Y-4.03
X6.15Y-3.73
X6.15Y-4.03
X5.42Y-5.5
X5.82Y-5.5
X7.17Y-5.39
X7.3669Y-5.39
X7.49Y-5.26
X7.89Y-5.26
T4
X5.65Y-4.27
X5.7Y-4.27
X5.75Y-4.27
X5.8Y-4.27
X7.94Y-4.44
X7.99Y-4.44
X8.04Y-4.44
X8.09Y-4.44
X5.24Y-3.86
X5.29Y-3.86
X5.34Y-3.86
X5.39Y-3.86
X7.31Y-4.31
X7.36Y-4.31
X7.41Y-4.31
X7.46Y-4.31
X5.46Y-4.96
X5.51Y-4.96
X5.56Y-4.96
X5.61Y-4.96
T5
X8.08Y-5.3528
X8.08Y-5.53
X8.3359Y-5.3528
X8.3359Y-5.53
X5.49Y-4.3697
X5.49Y-4.4598
X5.49Y-4.55
T0
M30
