G04 #@! TF.GenerationSoftware,KiCad,Pcbnew,(5.1.5-0-10_14)*
G04 #@! TF.CreationDate,2020-10-20T19:31:47+02:00*
G04 #@! TF.ProjectId,badge_2020,62616467-655f-4323-9032-302e6b696361,rev?*
G04 #@! TF.SameCoordinates,Original*
G04 #@! TF.FileFunction,Copper,L1,Top*
G04 #@! TF.FilePolarity,Positive*
%FSLAX46Y46*%
G04 Gerber Fmt 4.6, Leading zero omitted, Abs format (unit mm)*
G04 Created by KiCad (PCBNEW (5.1.5-0-10_14)) date 2020-10-20 19:31:47*
%MOMM*%
%LPD*%
G04 APERTURE LIST*
%ADD10C,0.500000*%
%ADD11C,1.524000*%
%ADD12R,10.500000X1.000000*%
%ADD13R,11.500000X1.000000*%
%ADD14O,1.600000X1.600000*%
%ADD15R,1.600000X1.600000*%
%ADD16C,1.600000*%
%ADD17O,1.070000X1.800000*%
%ADD18R,1.070000X1.800000*%
%ADD19O,1.500000X1.500000*%
%ADD20R,1.500000X1.500000*%
%ADD21O,1.800000X1.717500*%
%ADD22R,1.800000X1.717500*%
%ADD23C,2.000000*%
%ADD24C,0.800000*%
G04 APERTURE END LIST*
D10*
X128364000Y-113776000D02*
X132364000Y-113776000D01*
X128364000Y-111776000D02*
X132364000Y-111776000D01*
X128364000Y-109276000D02*
X132364000Y-109276000D01*
X128364000Y-116276000D02*
X132364000Y-116276000D01*
D11*
X132364000Y-116276000D03*
X132364000Y-113776000D03*
X132364000Y-111776000D03*
X132364000Y-109276000D03*
D12*
X123684000Y-111776000D03*
X123684000Y-113776000D03*
D13*
X123184000Y-116276000D03*
X123184000Y-109276000D03*
D14*
X135890000Y-93726000D03*
X143510000Y-101346000D03*
X138430000Y-93726000D03*
X140970000Y-101346000D03*
X140970000Y-93726000D03*
X138430000Y-101346000D03*
X143510000Y-93726000D03*
D15*
X135890000Y-101346000D03*
D16*
X176784000Y-135382000D03*
X174244000Y-135382000D03*
D17*
X209042000Y-134620000D03*
X210312000Y-134620000D03*
X212852000Y-134620000D03*
D18*
X211582000Y-134620000D03*
D17*
X184912000Y-134620000D03*
X186182000Y-134620000D03*
X188722000Y-134620000D03*
D18*
X187452000Y-134620000D03*
D17*
X162306000Y-134620000D03*
X163576000Y-134620000D03*
X166116000Y-134620000D03*
D18*
X164846000Y-134620000D03*
D17*
X137922000Y-134620000D03*
X139192000Y-134620000D03*
X141732000Y-134620000D03*
D18*
X140462000Y-134620000D03*
D14*
X135128000Y-127254000D03*
X135128000Y-129794000D03*
D15*
X135128000Y-124714000D03*
D19*
X148336000Y-132334000D03*
D20*
X155956000Y-132334000D03*
D19*
X148336000Y-136906000D03*
D20*
X155956000Y-136906000D03*
D19*
X148336000Y-134620000D03*
D20*
X155956000Y-134620000D03*
D14*
X203200000Y-139700000D03*
D16*
X213360000Y-139700000D03*
D14*
X137668000Y-139700000D03*
D16*
X147828000Y-139700000D03*
D14*
X190246000Y-139700000D03*
D16*
X200406000Y-139700000D03*
D14*
X204470000Y-133350000D03*
D16*
X194310000Y-133350000D03*
D21*
X139446000Y-110990000D03*
X139446000Y-113280000D03*
D22*
X139446000Y-115570000D03*
D14*
X194310000Y-136652000D03*
D16*
X204470000Y-136652000D03*
D14*
X187198000Y-139700000D03*
D16*
X177038000Y-139700000D03*
D14*
X160782000Y-139700000D03*
D16*
X150622000Y-139700000D03*
D14*
X163830000Y-139700000D03*
D16*
X173990000Y-139700000D03*
D23*
X204366000Y-130302000D03*
X204366000Y-125802000D03*
X197866000Y-130302000D03*
X197866000Y-125802000D03*
D24*
X153162000Y-139954000D03*
D10*
X148336000Y-136906000D02*
X148336000Y-134620000D01*
X186182000Y-136398000D02*
X186182000Y-134620000D01*
X191262000Y-136652000D02*
X194310000Y-136652000D01*
X190754000Y-137160000D02*
X191262000Y-136652000D01*
X186182000Y-136652000D02*
X186690000Y-137160000D01*
X186690000Y-137160000D02*
X190754000Y-137160000D01*
X186182000Y-136398000D02*
X186182000Y-136652000D01*
X194310000Y-136652000D02*
X198628000Y-136652000D01*
X198628000Y-136652000D02*
X200152000Y-138176000D01*
X211836000Y-138176000D02*
X213360000Y-139700000D01*
X210312000Y-136020000D02*
X210312000Y-137922000D01*
X210312000Y-134620000D02*
X210312000Y-136020000D01*
X210312000Y-137922000D02*
X211836000Y-138176000D01*
X200152000Y-138176000D02*
X210312000Y-137922000D01*
X132588000Y-108510037D02*
X132653953Y-108575990D01*
X149085999Y-137655999D02*
X149085999Y-138163999D01*
X148336000Y-136906000D02*
X149085999Y-137655999D01*
X149085999Y-138163999D02*
X149098000Y-138176000D01*
X149098000Y-138176000D02*
X149098000Y-140716000D01*
X149332001Y-140950001D02*
X178542001Y-140950001D01*
X149098000Y-140716000D02*
X149332001Y-140950001D01*
X178542001Y-140950001D02*
X179070000Y-140422002D01*
X179070000Y-140422002D02*
X179070000Y-138176000D01*
X163576000Y-136398000D02*
X164338000Y-137160000D01*
X163576000Y-134620000D02*
X163576000Y-136398000D01*
X185166000Y-137414000D02*
X185420000Y-137160000D01*
X179832000Y-137414000D02*
X185166000Y-137414000D01*
X185420000Y-137160000D02*
X186182000Y-136398000D01*
X179070000Y-138176000D02*
X179832000Y-137414000D01*
X164338000Y-137160000D02*
X173482000Y-137160000D01*
X173482000Y-137160000D02*
X174244000Y-136398000D01*
X174244000Y-136398000D02*
X174244000Y-135382000D01*
X175260000Y-137414000D02*
X174244000Y-136398000D01*
X178308000Y-137414000D02*
X175260000Y-137414000D01*
X179070000Y-138176000D02*
X178308000Y-137414000D01*
X132653953Y-108575990D02*
X132858981Y-108781018D01*
X132842000Y-105156000D02*
X132653953Y-108575990D01*
X134112000Y-103886000D02*
X132842000Y-105156000D01*
X140970000Y-103886000D02*
X134112000Y-103886000D01*
X143510000Y-101346000D02*
X140970000Y-103886000D01*
X139192000Y-134620000D02*
X139192000Y-137414000D01*
X139192000Y-137414000D02*
X140970000Y-139192000D01*
X140970000Y-139192000D02*
X144526000Y-139192000D01*
X144526000Y-139192000D02*
X146812000Y-136906000D01*
X146812000Y-136906000D02*
X148336000Y-136906000D01*
X187452000Y-133096000D02*
X187452000Y-134620000D01*
X186944000Y-132588000D02*
X187452000Y-133096000D01*
X165608000Y-132588000D02*
X186944000Y-132588000D01*
X164846000Y-133350000D02*
X165608000Y-132588000D01*
X164846000Y-134620000D02*
X164846000Y-133350000D01*
X211582000Y-133220000D02*
X211582000Y-134620000D01*
X206459010Y-134662990D02*
X208788000Y-132334000D01*
X192828990Y-134662990D02*
X206459010Y-134662990D01*
X190754000Y-132588000D02*
X192828990Y-134662990D01*
X210696000Y-132334000D02*
X211582000Y-133220000D01*
X187960000Y-132588000D02*
X190754000Y-132588000D01*
X187452000Y-133096000D02*
X187960000Y-132588000D01*
X207264000Y-130302000D02*
X209042000Y-132080000D01*
X204366000Y-130302000D02*
X207264000Y-130302000D01*
X209042000Y-132080000D02*
X210696000Y-132334000D01*
X208788000Y-132334000D02*
X209042000Y-132080000D01*
X197866000Y-130302000D02*
X204366000Y-130302000D01*
X156718000Y-127762000D02*
X159004000Y-130048000D01*
X159004000Y-130048000D02*
X161605990Y-130109990D01*
X161605990Y-130109990D02*
X164846000Y-133350000D01*
X142494000Y-127762000D02*
X156718000Y-127762000D01*
X140462000Y-129794000D02*
X142494000Y-127762000D01*
X140462000Y-134620000D02*
X140462000Y-129794000D01*
X152400000Y-130048000D02*
X154686000Y-132334000D01*
X145034000Y-131064000D02*
X146050000Y-130048000D01*
X145034000Y-136652000D02*
X145034000Y-131064000D01*
X141224000Y-137668000D02*
X144018000Y-137668000D01*
X154686000Y-132334000D02*
X155956000Y-132334000D01*
X146050000Y-130048000D02*
X152400000Y-130048000D01*
X140462000Y-136906000D02*
X141224000Y-137668000D01*
X144018000Y-137668000D02*
X145034000Y-136652000D01*
X140462000Y-134620000D02*
X140462000Y-136906000D01*
X162175980Y-129409980D02*
X163576000Y-130810000D01*
X174244000Y-130810000D02*
X175321990Y-131887990D01*
X163576000Y-130810000D02*
X174244000Y-130810000D01*
X139446000Y-116928750D02*
X145314037Y-122796787D01*
X139446000Y-115570000D02*
X139446000Y-116928750D01*
X133064010Y-115986047D02*
X132858981Y-115781018D01*
X133064010Y-116332000D02*
X133064010Y-115986047D01*
X140846000Y-115570000D02*
X141100000Y-115316000D01*
X139446000Y-115570000D02*
X140846000Y-115570000D01*
X141100000Y-115316000D02*
X141224000Y-115316000D01*
X141224000Y-115316000D02*
X141732000Y-114808000D01*
X141732000Y-114808000D02*
X141732000Y-110236000D01*
X141732000Y-110236000D02*
X139954000Y-108458000D01*
X139954000Y-108458000D02*
X136652000Y-108458000D01*
X136652000Y-108458000D02*
X135382000Y-109728000D01*
X135382000Y-109728000D02*
X135382000Y-115062000D01*
X134457953Y-115986047D02*
X133064010Y-115986047D01*
X135382000Y-115062000D02*
X134457953Y-115986047D01*
X145314037Y-124941963D02*
X145515963Y-124941963D01*
X145314037Y-122796787D02*
X145314037Y-124941963D01*
X145515963Y-124941963D02*
X146304000Y-125730000D01*
X146304000Y-125730000D02*
X157480000Y-125730000D01*
X157480000Y-125730000D02*
X158750000Y-127000000D01*
X158750000Y-128524000D02*
X159512000Y-129286000D01*
X158750000Y-127000000D02*
X158750000Y-128524000D01*
X159512000Y-129286000D02*
X162175980Y-129409980D01*
X195641990Y-131887990D02*
X195641990Y-132141990D01*
X175321990Y-131887990D02*
X195641990Y-131887990D01*
X196850000Y-133350000D02*
X204470000Y-133350000D01*
X195641990Y-132141990D02*
X196850000Y-133350000D01*
X139446000Y-110990000D02*
X138046000Y-110990000D01*
X136652000Y-116332000D02*
X136652000Y-112268000D01*
X137160000Y-124714000D02*
X139700000Y-122174000D01*
X139700000Y-119380000D02*
X136652000Y-116332000D01*
X139700000Y-122174000D02*
X139700000Y-119380000D01*
X135128000Y-124714000D02*
X137160000Y-124714000D01*
X136652000Y-112268000D02*
X137414000Y-111506000D01*
X138046000Y-110990000D02*
X137414000Y-111506000D01*
X172466000Y-138176000D02*
X173990000Y-139700000D01*
X159004000Y-138176000D02*
X172466000Y-138176000D01*
X157734000Y-136906000D02*
X159004000Y-138176000D01*
X155956000Y-136906000D02*
X157734000Y-136906000D01*
X173990000Y-139700000D02*
X177038000Y-139700000D01*
X153162000Y-139954000D02*
X153162000Y-137668000D01*
X153162000Y-137668000D02*
X153924000Y-136906000D01*
X153924000Y-136906000D02*
X155956000Y-136906000D01*
X137668000Y-137922000D02*
X137668000Y-139700000D01*
X137922000Y-137668000D02*
X137668000Y-137922000D01*
X137922000Y-134620000D02*
X137922000Y-137668000D01*
X143256000Y-128778000D02*
X155702000Y-128778000D01*
X141732000Y-130302000D02*
X143256000Y-128778000D01*
X161544000Y-134620000D02*
X162306000Y-134620000D01*
X155702000Y-128778000D02*
X161544000Y-134620000D01*
X141732000Y-134620000D02*
X141732000Y-130302000D01*
X180594000Y-134620000D02*
X184912000Y-134620000D01*
X170688000Y-133604000D02*
X179578000Y-133604000D01*
X179578000Y-133604000D02*
X180594000Y-134620000D01*
X169672000Y-134620000D02*
X170688000Y-133604000D01*
X166116000Y-134620000D02*
X169672000Y-134620000D01*
X206991000Y-135363000D02*
X207734000Y-134620000D01*
X207734000Y-134620000D02*
X209042000Y-134620000D01*
X189757000Y-134620000D02*
X190500000Y-135363000D01*
X190500000Y-135363000D02*
X206991000Y-135363000D01*
X188722000Y-134620000D02*
X189757000Y-134620000D01*
M02*
