G04 #@! TF.GenerationSoftware,KiCad,Pcbnew,(5.1.5-0-10_14)*
G04 #@! TF.CreationDate,2020-10-20T19:31:47+02:00*
G04 #@! TF.ProjectId,badge_2020,62616467-655f-4323-9032-302e6b696361,rev?*
G04 #@! TF.SameCoordinates,Original*
G04 #@! TF.FileFunction,Soldermask,Top*
G04 #@! TF.FilePolarity,Negative*
%FSLAX46Y46*%
G04 Gerber Fmt 4.6, Leading zero omitted, Abs format (unit mm)*
G04 Created by KiCad (PCBNEW (5.1.5-0-10_14)) date 2020-10-20 19:31:47*
%MOMM*%
%LPD*%
G04 APERTURE LIST*
%ADD10C,0.100000*%
G04 APERTURE END LIST*
D10*
G36*
X213587290Y-138725619D02*
G01*
X213651689Y-138738429D01*
X213833678Y-138813811D01*
X213997463Y-138923249D01*
X214136751Y-139062537D01*
X214246189Y-139226322D01*
X214321571Y-139408311D01*
X214360000Y-139601509D01*
X214360000Y-139798491D01*
X214321571Y-139991689D01*
X214246189Y-140173678D01*
X214136751Y-140337463D01*
X213997463Y-140476751D01*
X213833678Y-140586189D01*
X213651689Y-140661571D01*
X213587290Y-140674381D01*
X213458493Y-140700000D01*
X213261507Y-140700000D01*
X213132710Y-140674381D01*
X213068311Y-140661571D01*
X212886322Y-140586189D01*
X212722537Y-140476751D01*
X212583249Y-140337463D01*
X212473811Y-140173678D01*
X212398429Y-139991689D01*
X212360000Y-139798491D01*
X212360000Y-139601509D01*
X212398429Y-139408311D01*
X212473811Y-139226322D01*
X212583249Y-139062537D01*
X212722537Y-138923249D01*
X212886322Y-138813811D01*
X213068311Y-138738429D01*
X213132710Y-138725619D01*
X213261507Y-138700000D01*
X213458493Y-138700000D01*
X213587290Y-138725619D01*
G37*
G36*
X203427290Y-138725619D02*
G01*
X203491689Y-138738429D01*
X203673678Y-138813811D01*
X203837463Y-138923249D01*
X203976751Y-139062537D01*
X204086189Y-139226322D01*
X204161571Y-139408311D01*
X204200000Y-139601509D01*
X204200000Y-139798491D01*
X204161571Y-139991689D01*
X204086189Y-140173678D01*
X203976751Y-140337463D01*
X203837463Y-140476751D01*
X203673678Y-140586189D01*
X203491689Y-140661571D01*
X203427290Y-140674381D01*
X203298493Y-140700000D01*
X203101507Y-140700000D01*
X202972710Y-140674381D01*
X202908311Y-140661571D01*
X202726322Y-140586189D01*
X202562537Y-140476751D01*
X202423249Y-140337463D01*
X202313811Y-140173678D01*
X202238429Y-139991689D01*
X202200000Y-139798491D01*
X202200000Y-139601509D01*
X202238429Y-139408311D01*
X202313811Y-139226322D01*
X202423249Y-139062537D01*
X202562537Y-138923249D01*
X202726322Y-138813811D01*
X202908311Y-138738429D01*
X202972710Y-138725619D01*
X203101507Y-138700000D01*
X203298493Y-138700000D01*
X203427290Y-138725619D01*
G37*
G36*
X200633290Y-138725619D02*
G01*
X200697689Y-138738429D01*
X200879678Y-138813811D01*
X201043463Y-138923249D01*
X201182751Y-139062537D01*
X201292189Y-139226322D01*
X201367571Y-139408311D01*
X201406000Y-139601509D01*
X201406000Y-139798491D01*
X201367571Y-139991689D01*
X201292189Y-140173678D01*
X201182751Y-140337463D01*
X201043463Y-140476751D01*
X200879678Y-140586189D01*
X200697689Y-140661571D01*
X200633290Y-140674381D01*
X200504493Y-140700000D01*
X200307507Y-140700000D01*
X200178710Y-140674381D01*
X200114311Y-140661571D01*
X199932322Y-140586189D01*
X199768537Y-140476751D01*
X199629249Y-140337463D01*
X199519811Y-140173678D01*
X199444429Y-139991689D01*
X199406000Y-139798491D01*
X199406000Y-139601509D01*
X199444429Y-139408311D01*
X199519811Y-139226322D01*
X199629249Y-139062537D01*
X199768537Y-138923249D01*
X199932322Y-138813811D01*
X200114311Y-138738429D01*
X200178710Y-138725619D01*
X200307507Y-138700000D01*
X200504493Y-138700000D01*
X200633290Y-138725619D01*
G37*
G36*
X190473290Y-138725619D02*
G01*
X190537689Y-138738429D01*
X190719678Y-138813811D01*
X190883463Y-138923249D01*
X191022751Y-139062537D01*
X191132189Y-139226322D01*
X191207571Y-139408311D01*
X191246000Y-139601509D01*
X191246000Y-139798491D01*
X191207571Y-139991689D01*
X191132189Y-140173678D01*
X191022751Y-140337463D01*
X190883463Y-140476751D01*
X190719678Y-140586189D01*
X190537689Y-140661571D01*
X190473290Y-140674381D01*
X190344493Y-140700000D01*
X190147507Y-140700000D01*
X190018710Y-140674381D01*
X189954311Y-140661571D01*
X189772322Y-140586189D01*
X189608537Y-140476751D01*
X189469249Y-140337463D01*
X189359811Y-140173678D01*
X189284429Y-139991689D01*
X189246000Y-139798491D01*
X189246000Y-139601509D01*
X189284429Y-139408311D01*
X189359811Y-139226322D01*
X189469249Y-139062537D01*
X189608537Y-138923249D01*
X189772322Y-138813811D01*
X189954311Y-138738429D01*
X190018710Y-138725619D01*
X190147507Y-138700000D01*
X190344493Y-138700000D01*
X190473290Y-138725619D01*
G37*
G36*
X187425290Y-138725619D02*
G01*
X187489689Y-138738429D01*
X187671678Y-138813811D01*
X187835463Y-138923249D01*
X187974751Y-139062537D01*
X188084189Y-139226322D01*
X188159571Y-139408311D01*
X188198000Y-139601509D01*
X188198000Y-139798491D01*
X188159571Y-139991689D01*
X188084189Y-140173678D01*
X187974751Y-140337463D01*
X187835463Y-140476751D01*
X187671678Y-140586189D01*
X187489689Y-140661571D01*
X187425290Y-140674381D01*
X187296493Y-140700000D01*
X187099507Y-140700000D01*
X186970710Y-140674381D01*
X186906311Y-140661571D01*
X186724322Y-140586189D01*
X186560537Y-140476751D01*
X186421249Y-140337463D01*
X186311811Y-140173678D01*
X186236429Y-139991689D01*
X186198000Y-139798491D01*
X186198000Y-139601509D01*
X186236429Y-139408311D01*
X186311811Y-139226322D01*
X186421249Y-139062537D01*
X186560537Y-138923249D01*
X186724322Y-138813811D01*
X186906311Y-138738429D01*
X186970710Y-138725619D01*
X187099507Y-138700000D01*
X187296493Y-138700000D01*
X187425290Y-138725619D01*
G37*
G36*
X177265290Y-138725619D02*
G01*
X177329689Y-138738429D01*
X177511678Y-138813811D01*
X177675463Y-138923249D01*
X177814751Y-139062537D01*
X177924189Y-139226322D01*
X177999571Y-139408311D01*
X178038000Y-139601509D01*
X178038000Y-139798491D01*
X177999571Y-139991689D01*
X177924189Y-140173678D01*
X177814751Y-140337463D01*
X177675463Y-140476751D01*
X177511678Y-140586189D01*
X177329689Y-140661571D01*
X177265290Y-140674381D01*
X177136493Y-140700000D01*
X176939507Y-140700000D01*
X176810710Y-140674381D01*
X176746311Y-140661571D01*
X176564322Y-140586189D01*
X176400537Y-140476751D01*
X176261249Y-140337463D01*
X176151811Y-140173678D01*
X176076429Y-139991689D01*
X176038000Y-139798491D01*
X176038000Y-139601509D01*
X176076429Y-139408311D01*
X176151811Y-139226322D01*
X176261249Y-139062537D01*
X176400537Y-138923249D01*
X176564322Y-138813811D01*
X176746311Y-138738429D01*
X176810710Y-138725619D01*
X176939507Y-138700000D01*
X177136493Y-138700000D01*
X177265290Y-138725619D01*
G37*
G36*
X174217290Y-138725619D02*
G01*
X174281689Y-138738429D01*
X174463678Y-138813811D01*
X174627463Y-138923249D01*
X174766751Y-139062537D01*
X174876189Y-139226322D01*
X174951571Y-139408311D01*
X174990000Y-139601509D01*
X174990000Y-139798491D01*
X174951571Y-139991689D01*
X174876189Y-140173678D01*
X174766751Y-140337463D01*
X174627463Y-140476751D01*
X174463678Y-140586189D01*
X174281689Y-140661571D01*
X174217290Y-140674381D01*
X174088493Y-140700000D01*
X173891507Y-140700000D01*
X173762710Y-140674381D01*
X173698311Y-140661571D01*
X173516322Y-140586189D01*
X173352537Y-140476751D01*
X173213249Y-140337463D01*
X173103811Y-140173678D01*
X173028429Y-139991689D01*
X172990000Y-139798491D01*
X172990000Y-139601509D01*
X173028429Y-139408311D01*
X173103811Y-139226322D01*
X173213249Y-139062537D01*
X173352537Y-138923249D01*
X173516322Y-138813811D01*
X173698311Y-138738429D01*
X173762710Y-138725619D01*
X173891507Y-138700000D01*
X174088493Y-138700000D01*
X174217290Y-138725619D01*
G37*
G36*
X164057290Y-138725619D02*
G01*
X164121689Y-138738429D01*
X164303678Y-138813811D01*
X164467463Y-138923249D01*
X164606751Y-139062537D01*
X164716189Y-139226322D01*
X164791571Y-139408311D01*
X164830000Y-139601509D01*
X164830000Y-139798491D01*
X164791571Y-139991689D01*
X164716189Y-140173678D01*
X164606751Y-140337463D01*
X164467463Y-140476751D01*
X164303678Y-140586189D01*
X164121689Y-140661571D01*
X164057290Y-140674381D01*
X163928493Y-140700000D01*
X163731507Y-140700000D01*
X163602710Y-140674381D01*
X163538311Y-140661571D01*
X163356322Y-140586189D01*
X163192537Y-140476751D01*
X163053249Y-140337463D01*
X162943811Y-140173678D01*
X162868429Y-139991689D01*
X162830000Y-139798491D01*
X162830000Y-139601509D01*
X162868429Y-139408311D01*
X162943811Y-139226322D01*
X163053249Y-139062537D01*
X163192537Y-138923249D01*
X163356322Y-138813811D01*
X163538311Y-138738429D01*
X163602710Y-138725619D01*
X163731507Y-138700000D01*
X163928493Y-138700000D01*
X164057290Y-138725619D01*
G37*
G36*
X161009290Y-138725619D02*
G01*
X161073689Y-138738429D01*
X161255678Y-138813811D01*
X161419463Y-138923249D01*
X161558751Y-139062537D01*
X161668189Y-139226322D01*
X161743571Y-139408311D01*
X161782000Y-139601509D01*
X161782000Y-139798491D01*
X161743571Y-139991689D01*
X161668189Y-140173678D01*
X161558751Y-140337463D01*
X161419463Y-140476751D01*
X161255678Y-140586189D01*
X161073689Y-140661571D01*
X161009290Y-140674381D01*
X160880493Y-140700000D01*
X160683507Y-140700000D01*
X160554710Y-140674381D01*
X160490311Y-140661571D01*
X160308322Y-140586189D01*
X160144537Y-140476751D01*
X160005249Y-140337463D01*
X159895811Y-140173678D01*
X159820429Y-139991689D01*
X159782000Y-139798491D01*
X159782000Y-139601509D01*
X159820429Y-139408311D01*
X159895811Y-139226322D01*
X160005249Y-139062537D01*
X160144537Y-138923249D01*
X160308322Y-138813811D01*
X160490311Y-138738429D01*
X160554710Y-138725619D01*
X160683507Y-138700000D01*
X160880493Y-138700000D01*
X161009290Y-138725619D01*
G37*
G36*
X150849290Y-138725619D02*
G01*
X150913689Y-138738429D01*
X151095678Y-138813811D01*
X151259463Y-138923249D01*
X151398751Y-139062537D01*
X151508189Y-139226322D01*
X151583571Y-139408311D01*
X151622000Y-139601509D01*
X151622000Y-139798491D01*
X151583571Y-139991689D01*
X151508189Y-140173678D01*
X151398751Y-140337463D01*
X151259463Y-140476751D01*
X151095678Y-140586189D01*
X150913689Y-140661571D01*
X150849290Y-140674381D01*
X150720493Y-140700000D01*
X150523507Y-140700000D01*
X150394710Y-140674381D01*
X150330311Y-140661571D01*
X150148322Y-140586189D01*
X149984537Y-140476751D01*
X149845249Y-140337463D01*
X149735811Y-140173678D01*
X149660429Y-139991689D01*
X149622000Y-139798491D01*
X149622000Y-139601509D01*
X149660429Y-139408311D01*
X149735811Y-139226322D01*
X149845249Y-139062537D01*
X149984537Y-138923249D01*
X150148322Y-138813811D01*
X150330311Y-138738429D01*
X150394710Y-138725619D01*
X150523507Y-138700000D01*
X150720493Y-138700000D01*
X150849290Y-138725619D01*
G37*
G36*
X148055290Y-138725619D02*
G01*
X148119689Y-138738429D01*
X148301678Y-138813811D01*
X148465463Y-138923249D01*
X148604751Y-139062537D01*
X148714189Y-139226322D01*
X148789571Y-139408311D01*
X148828000Y-139601509D01*
X148828000Y-139798491D01*
X148789571Y-139991689D01*
X148714189Y-140173678D01*
X148604751Y-140337463D01*
X148465463Y-140476751D01*
X148301678Y-140586189D01*
X148119689Y-140661571D01*
X148055290Y-140674381D01*
X147926493Y-140700000D01*
X147729507Y-140700000D01*
X147600710Y-140674381D01*
X147536311Y-140661571D01*
X147354322Y-140586189D01*
X147190537Y-140476751D01*
X147051249Y-140337463D01*
X146941811Y-140173678D01*
X146866429Y-139991689D01*
X146828000Y-139798491D01*
X146828000Y-139601509D01*
X146866429Y-139408311D01*
X146941811Y-139226322D01*
X147051249Y-139062537D01*
X147190537Y-138923249D01*
X147354322Y-138813811D01*
X147536311Y-138738429D01*
X147600710Y-138725619D01*
X147729507Y-138700000D01*
X147926493Y-138700000D01*
X148055290Y-138725619D01*
G37*
G36*
X137895290Y-138725619D02*
G01*
X137959689Y-138738429D01*
X138141678Y-138813811D01*
X138305463Y-138923249D01*
X138444751Y-139062537D01*
X138554189Y-139226322D01*
X138629571Y-139408311D01*
X138668000Y-139601509D01*
X138668000Y-139798491D01*
X138629571Y-139991689D01*
X138554189Y-140173678D01*
X138444751Y-140337463D01*
X138305463Y-140476751D01*
X138141678Y-140586189D01*
X137959689Y-140661571D01*
X137895290Y-140674381D01*
X137766493Y-140700000D01*
X137569507Y-140700000D01*
X137440710Y-140674381D01*
X137376311Y-140661571D01*
X137194322Y-140586189D01*
X137030537Y-140476751D01*
X136891249Y-140337463D01*
X136781811Y-140173678D01*
X136706429Y-139991689D01*
X136668000Y-139798491D01*
X136668000Y-139601509D01*
X136706429Y-139408311D01*
X136781811Y-139226322D01*
X136891249Y-139062537D01*
X137030537Y-138923249D01*
X137194322Y-138813811D01*
X137376311Y-138738429D01*
X137440710Y-138725619D01*
X137569507Y-138700000D01*
X137766493Y-138700000D01*
X137895290Y-138725619D01*
G37*
G36*
X156906000Y-137856000D02*
G01*
X155006000Y-137856000D01*
X155006000Y-135956000D01*
X156906000Y-135956000D01*
X156906000Y-137856000D01*
G37*
G36*
X148521336Y-135974254D02*
G01*
X148613105Y-135992508D01*
X148785994Y-136064121D01*
X148941590Y-136168087D01*
X149073913Y-136300410D01*
X149177879Y-136456006D01*
X149249492Y-136628895D01*
X149286000Y-136812433D01*
X149286000Y-136999567D01*
X149249492Y-137183105D01*
X149177879Y-137355994D01*
X149073913Y-137511590D01*
X148941590Y-137643913D01*
X148785994Y-137747879D01*
X148613105Y-137819492D01*
X148521336Y-137837746D01*
X148429568Y-137856000D01*
X148242432Y-137856000D01*
X148150664Y-137837746D01*
X148058895Y-137819492D01*
X147886006Y-137747879D01*
X147730410Y-137643913D01*
X147598087Y-137511590D01*
X147494121Y-137355994D01*
X147422508Y-137183105D01*
X147386000Y-136999567D01*
X147386000Y-136812433D01*
X147422508Y-136628895D01*
X147494121Y-136456006D01*
X147598087Y-136300410D01*
X147730410Y-136168087D01*
X147886006Y-136064121D01*
X148058895Y-135992508D01*
X148150664Y-135974254D01*
X148242432Y-135956000D01*
X148429568Y-135956000D01*
X148521336Y-135974254D01*
G37*
G36*
X194537290Y-135677619D02*
G01*
X194601689Y-135690429D01*
X194783678Y-135765811D01*
X194947463Y-135875249D01*
X195086751Y-136014537D01*
X195196189Y-136178322D01*
X195264637Y-136343571D01*
X195271571Y-136360312D01*
X195310000Y-136553507D01*
X195310000Y-136750493D01*
X195297679Y-136812433D01*
X195271571Y-136943689D01*
X195196189Y-137125678D01*
X195086751Y-137289463D01*
X194947463Y-137428751D01*
X194783678Y-137538189D01*
X194601689Y-137613571D01*
X194537290Y-137626381D01*
X194408493Y-137652000D01*
X194211507Y-137652000D01*
X194082710Y-137626381D01*
X194018311Y-137613571D01*
X193836322Y-137538189D01*
X193672537Y-137428751D01*
X193533249Y-137289463D01*
X193423811Y-137125678D01*
X193348429Y-136943689D01*
X193322321Y-136812433D01*
X193310000Y-136750493D01*
X193310000Y-136553507D01*
X193348429Y-136360312D01*
X193355363Y-136343571D01*
X193423811Y-136178322D01*
X193533249Y-136014537D01*
X193672537Y-135875249D01*
X193836322Y-135765811D01*
X194018311Y-135690429D01*
X194082710Y-135677619D01*
X194211507Y-135652000D01*
X194408493Y-135652000D01*
X194537290Y-135677619D01*
G37*
G36*
X204697290Y-135677619D02*
G01*
X204761689Y-135690429D01*
X204943678Y-135765811D01*
X205107463Y-135875249D01*
X205246751Y-136014537D01*
X205356189Y-136178322D01*
X205424637Y-136343571D01*
X205431571Y-136360312D01*
X205470000Y-136553507D01*
X205470000Y-136750493D01*
X205457679Y-136812433D01*
X205431571Y-136943689D01*
X205356189Y-137125678D01*
X205246751Y-137289463D01*
X205107463Y-137428751D01*
X204943678Y-137538189D01*
X204761689Y-137613571D01*
X204697290Y-137626381D01*
X204568493Y-137652000D01*
X204371507Y-137652000D01*
X204242710Y-137626381D01*
X204178311Y-137613571D01*
X203996322Y-137538189D01*
X203832537Y-137428751D01*
X203693249Y-137289463D01*
X203583811Y-137125678D01*
X203508429Y-136943689D01*
X203482321Y-136812433D01*
X203470000Y-136750493D01*
X203470000Y-136553507D01*
X203508429Y-136360312D01*
X203515363Y-136343571D01*
X203583811Y-136178322D01*
X203693249Y-136014537D01*
X203832537Y-135875249D01*
X203996322Y-135765811D01*
X204178311Y-135690429D01*
X204242710Y-135677619D01*
X204371507Y-135652000D01*
X204568493Y-135652000D01*
X204697290Y-135677619D01*
G37*
G36*
X177011290Y-134407619D02*
G01*
X177075689Y-134420429D01*
X177257678Y-134495811D01*
X177421463Y-134605249D01*
X177560751Y-134744537D01*
X177670189Y-134908322D01*
X177745571Y-135090311D01*
X177758381Y-135154710D01*
X177772480Y-135225590D01*
X177784000Y-135283509D01*
X177784000Y-135480491D01*
X177745571Y-135673689D01*
X177670189Y-135855678D01*
X177560751Y-136019463D01*
X177421463Y-136158751D01*
X177257678Y-136268189D01*
X177075689Y-136343571D01*
X177011290Y-136356381D01*
X176882493Y-136382000D01*
X176685507Y-136382000D01*
X176556710Y-136356381D01*
X176492311Y-136343571D01*
X176310322Y-136268189D01*
X176146537Y-136158751D01*
X176007249Y-136019463D01*
X175897811Y-135855678D01*
X175822429Y-135673689D01*
X175784000Y-135480491D01*
X175784000Y-135283509D01*
X175795521Y-135225590D01*
X175809619Y-135154710D01*
X175822429Y-135090311D01*
X175897811Y-134908322D01*
X176007249Y-134744537D01*
X176146537Y-134605249D01*
X176310322Y-134495811D01*
X176492311Y-134420429D01*
X176556710Y-134407619D01*
X176685507Y-134382000D01*
X176882493Y-134382000D01*
X177011290Y-134407619D01*
G37*
G36*
X174471290Y-134407619D02*
G01*
X174535689Y-134420429D01*
X174717678Y-134495811D01*
X174881463Y-134605249D01*
X175020751Y-134744537D01*
X175130189Y-134908322D01*
X175205571Y-135090311D01*
X175218381Y-135154710D01*
X175232480Y-135225590D01*
X175244000Y-135283509D01*
X175244000Y-135480491D01*
X175205571Y-135673689D01*
X175130189Y-135855678D01*
X175020751Y-136019463D01*
X174881463Y-136158751D01*
X174717678Y-136268189D01*
X174535689Y-136343571D01*
X174471290Y-136356381D01*
X174342493Y-136382000D01*
X174145507Y-136382000D01*
X174016710Y-136356381D01*
X173952311Y-136343571D01*
X173770322Y-136268189D01*
X173606537Y-136158751D01*
X173467249Y-136019463D01*
X173357811Y-135855678D01*
X173282429Y-135673689D01*
X173244000Y-135480491D01*
X173244000Y-135283509D01*
X173255521Y-135225590D01*
X173269619Y-135154710D01*
X173282429Y-135090311D01*
X173357811Y-134908322D01*
X173467249Y-134744537D01*
X173606537Y-134605249D01*
X173770322Y-134495811D01*
X173952311Y-134420429D01*
X174016710Y-134407619D01*
X174145507Y-134382000D01*
X174342493Y-134382000D01*
X174471290Y-134407619D01*
G37*
G36*
X188866085Y-133530635D02*
G01*
X188956068Y-133557931D01*
X189004637Y-133572664D01*
X189132319Y-133640912D01*
X189244238Y-133732762D01*
X189336088Y-133844681D01*
X189404336Y-133972363D01*
X189404337Y-133972367D01*
X189446365Y-134110915D01*
X189457000Y-134218895D01*
X189457000Y-135021105D01*
X189446365Y-135129085D01*
X189417091Y-135225589D01*
X189404336Y-135267637D01*
X189336088Y-135395319D01*
X189244238Y-135507238D01*
X189132318Y-135599088D01*
X189004636Y-135667336D01*
X188968584Y-135678272D01*
X188866084Y-135709365D01*
X188722000Y-135723556D01*
X188577915Y-135709365D01*
X188475415Y-135678272D01*
X188439363Y-135667336D01*
X188370923Y-135630754D01*
X188348284Y-135621376D01*
X188324251Y-135616596D01*
X188299747Y-135616596D01*
X188275713Y-135621377D01*
X188253075Y-135630754D01*
X188232700Y-135644368D01*
X188215373Y-135661695D01*
X188201760Y-135682069D01*
X188192382Y-135704708D01*
X188190114Y-135720000D01*
X186714932Y-135720000D01*
X186714598Y-135716606D01*
X186707485Y-135693157D01*
X186695934Y-135671546D01*
X186680389Y-135652604D01*
X186661447Y-135637059D01*
X186639836Y-135625508D01*
X186616387Y-135618395D01*
X186592001Y-135615993D01*
X186567615Y-135618395D01*
X186544166Y-135625508D01*
X186533077Y-135630753D01*
X186464636Y-135667336D01*
X186428584Y-135678272D01*
X186326084Y-135709365D01*
X186182000Y-135723556D01*
X186037915Y-135709365D01*
X185935415Y-135678272D01*
X185899363Y-135667336D01*
X185771681Y-135599088D01*
X185659762Y-135507238D01*
X185643625Y-135487575D01*
X185626298Y-135470248D01*
X185605923Y-135456634D01*
X185583284Y-135447257D01*
X185559251Y-135442477D01*
X185534747Y-135442477D01*
X185510714Y-135447258D01*
X185488075Y-135456635D01*
X185467701Y-135470249D01*
X185450375Y-135487575D01*
X185434238Y-135507238D01*
X185322318Y-135599088D01*
X185194636Y-135667336D01*
X185158584Y-135678272D01*
X185056084Y-135709365D01*
X184912000Y-135723556D01*
X184767915Y-135709365D01*
X184665415Y-135678272D01*
X184629363Y-135667336D01*
X184501681Y-135599088D01*
X184389762Y-135507238D01*
X184297912Y-135395318D01*
X184229664Y-135267636D01*
X184216909Y-135225589D01*
X184187635Y-135129084D01*
X184177000Y-135021104D01*
X184177000Y-134218895D01*
X184187635Y-134110915D01*
X184229664Y-133972367D01*
X184229665Y-133972364D01*
X184297913Y-133844681D01*
X184389763Y-133732762D01*
X184501682Y-133640912D01*
X184629364Y-133572664D01*
X184677933Y-133557931D01*
X184767916Y-133530635D01*
X184912000Y-133516444D01*
X185056085Y-133530635D01*
X185146068Y-133557931D01*
X185194637Y-133572664D01*
X185322319Y-133640912D01*
X185323265Y-133641688D01*
X185434238Y-133732762D01*
X185450380Y-133752431D01*
X185467704Y-133769753D01*
X185488078Y-133783367D01*
X185510717Y-133792744D01*
X185534750Y-133797524D01*
X185559255Y-133797524D01*
X185583288Y-133792743D01*
X185605926Y-133783366D01*
X185626301Y-133769752D01*
X185643621Y-133752431D01*
X185659763Y-133732762D01*
X185770735Y-133641689D01*
X185771682Y-133640912D01*
X185899364Y-133572664D01*
X185947933Y-133557931D01*
X186037916Y-133530635D01*
X186182000Y-133516444D01*
X186326085Y-133530635D01*
X186416068Y-133557931D01*
X186464637Y-133572664D01*
X186533077Y-133609246D01*
X186555716Y-133618624D01*
X186579749Y-133623404D01*
X186604253Y-133623404D01*
X186628287Y-133618623D01*
X186650925Y-133609246D01*
X186671300Y-133595632D01*
X186688627Y-133578305D01*
X186702240Y-133557931D01*
X186711618Y-133535292D01*
X186713886Y-133520000D01*
X188189068Y-133520000D01*
X188189402Y-133523394D01*
X188196515Y-133546843D01*
X188208066Y-133568454D01*
X188223611Y-133587396D01*
X188242553Y-133602941D01*
X188264164Y-133614492D01*
X188287613Y-133621605D01*
X188311999Y-133624007D01*
X188336385Y-133621605D01*
X188359834Y-133614492D01*
X188370923Y-133609247D01*
X188439364Y-133572664D01*
X188487933Y-133557931D01*
X188577916Y-133530635D01*
X188722000Y-133516444D01*
X188866085Y-133530635D01*
G37*
G36*
X212996085Y-133530635D02*
G01*
X213086068Y-133557931D01*
X213134637Y-133572664D01*
X213262319Y-133640912D01*
X213374238Y-133732762D01*
X213466088Y-133844681D01*
X213534336Y-133972363D01*
X213534337Y-133972367D01*
X213576365Y-134110915D01*
X213587000Y-134218895D01*
X213587000Y-135021105D01*
X213576365Y-135129085D01*
X213547091Y-135225589D01*
X213534336Y-135267637D01*
X213466088Y-135395319D01*
X213374238Y-135507238D01*
X213262318Y-135599088D01*
X213134636Y-135667336D01*
X213098584Y-135678272D01*
X212996084Y-135709365D01*
X212852000Y-135723556D01*
X212707915Y-135709365D01*
X212605415Y-135678272D01*
X212569363Y-135667336D01*
X212500923Y-135630754D01*
X212478284Y-135621376D01*
X212454251Y-135616596D01*
X212429747Y-135616596D01*
X212405713Y-135621377D01*
X212383075Y-135630754D01*
X212362700Y-135644368D01*
X212345373Y-135661695D01*
X212331760Y-135682069D01*
X212322382Y-135704708D01*
X212320114Y-135720000D01*
X210844932Y-135720000D01*
X210844598Y-135716606D01*
X210837485Y-135693157D01*
X210825934Y-135671546D01*
X210810389Y-135652604D01*
X210791447Y-135637059D01*
X210769836Y-135625508D01*
X210746387Y-135618395D01*
X210722001Y-135615993D01*
X210697615Y-135618395D01*
X210674166Y-135625508D01*
X210663077Y-135630753D01*
X210594636Y-135667336D01*
X210558584Y-135678272D01*
X210456084Y-135709365D01*
X210312000Y-135723556D01*
X210167915Y-135709365D01*
X210065415Y-135678272D01*
X210029363Y-135667336D01*
X209901681Y-135599088D01*
X209789762Y-135507238D01*
X209773625Y-135487575D01*
X209756298Y-135470248D01*
X209735923Y-135456634D01*
X209713284Y-135447257D01*
X209689251Y-135442477D01*
X209664747Y-135442477D01*
X209640714Y-135447258D01*
X209618075Y-135456635D01*
X209597701Y-135470249D01*
X209580375Y-135487575D01*
X209564238Y-135507238D01*
X209452318Y-135599088D01*
X209324636Y-135667336D01*
X209288584Y-135678272D01*
X209186084Y-135709365D01*
X209042000Y-135723556D01*
X208897915Y-135709365D01*
X208795415Y-135678272D01*
X208759363Y-135667336D01*
X208631681Y-135599088D01*
X208519762Y-135507238D01*
X208427912Y-135395318D01*
X208359664Y-135267636D01*
X208346909Y-135225589D01*
X208317635Y-135129084D01*
X208307000Y-135021104D01*
X208307000Y-134218895D01*
X208317635Y-134110915D01*
X208359664Y-133972367D01*
X208359665Y-133972364D01*
X208427913Y-133844681D01*
X208519763Y-133732762D01*
X208631682Y-133640912D01*
X208759364Y-133572664D01*
X208807933Y-133557931D01*
X208897916Y-133530635D01*
X209042000Y-133516444D01*
X209186085Y-133530635D01*
X209276068Y-133557931D01*
X209324637Y-133572664D01*
X209452319Y-133640912D01*
X209453265Y-133641688D01*
X209564238Y-133732762D01*
X209580380Y-133752431D01*
X209597704Y-133769753D01*
X209618078Y-133783367D01*
X209640717Y-133792744D01*
X209664750Y-133797524D01*
X209689255Y-133797524D01*
X209713288Y-133792743D01*
X209735926Y-133783366D01*
X209756301Y-133769752D01*
X209773621Y-133752431D01*
X209789763Y-133732762D01*
X209900735Y-133641689D01*
X209901682Y-133640912D01*
X210029364Y-133572664D01*
X210077933Y-133557931D01*
X210167916Y-133530635D01*
X210312000Y-133516444D01*
X210456085Y-133530635D01*
X210546068Y-133557931D01*
X210594637Y-133572664D01*
X210663077Y-133609246D01*
X210685716Y-133618624D01*
X210709749Y-133623404D01*
X210734253Y-133623404D01*
X210758287Y-133618623D01*
X210780925Y-133609246D01*
X210801300Y-133595632D01*
X210818627Y-133578305D01*
X210832240Y-133557931D01*
X210841618Y-133535292D01*
X210843886Y-133520000D01*
X212319068Y-133520000D01*
X212319402Y-133523394D01*
X212326515Y-133546843D01*
X212338066Y-133568454D01*
X212353611Y-133587396D01*
X212372553Y-133602941D01*
X212394164Y-133614492D01*
X212417613Y-133621605D01*
X212441999Y-133624007D01*
X212466385Y-133621605D01*
X212489834Y-133614492D01*
X212500923Y-133609247D01*
X212569364Y-133572664D01*
X212617933Y-133557931D01*
X212707916Y-133530635D01*
X212852000Y-133516444D01*
X212996085Y-133530635D01*
G37*
G36*
X166260085Y-133530635D02*
G01*
X166350068Y-133557931D01*
X166398637Y-133572664D01*
X166526319Y-133640912D01*
X166638238Y-133732762D01*
X166730088Y-133844681D01*
X166798336Y-133972363D01*
X166798337Y-133972367D01*
X166840365Y-134110915D01*
X166851000Y-134218895D01*
X166851000Y-135021105D01*
X166840365Y-135129085D01*
X166811091Y-135225589D01*
X166798336Y-135267637D01*
X166730088Y-135395319D01*
X166638238Y-135507238D01*
X166526318Y-135599088D01*
X166398636Y-135667336D01*
X166362584Y-135678272D01*
X166260084Y-135709365D01*
X166116000Y-135723556D01*
X165971915Y-135709365D01*
X165869415Y-135678272D01*
X165833363Y-135667336D01*
X165764923Y-135630754D01*
X165742284Y-135621376D01*
X165718251Y-135616596D01*
X165693747Y-135616596D01*
X165669713Y-135621377D01*
X165647075Y-135630754D01*
X165626700Y-135644368D01*
X165609373Y-135661695D01*
X165595760Y-135682069D01*
X165586382Y-135704708D01*
X165584114Y-135720000D01*
X164108932Y-135720000D01*
X164108598Y-135716606D01*
X164101485Y-135693157D01*
X164089934Y-135671546D01*
X164074389Y-135652604D01*
X164055447Y-135637059D01*
X164033836Y-135625508D01*
X164010387Y-135618395D01*
X163986001Y-135615993D01*
X163961615Y-135618395D01*
X163938166Y-135625508D01*
X163927077Y-135630753D01*
X163858636Y-135667336D01*
X163822584Y-135678272D01*
X163720084Y-135709365D01*
X163576000Y-135723556D01*
X163431915Y-135709365D01*
X163329415Y-135678272D01*
X163293363Y-135667336D01*
X163165681Y-135599088D01*
X163053762Y-135507238D01*
X163037625Y-135487575D01*
X163020298Y-135470248D01*
X162999923Y-135456634D01*
X162977284Y-135447257D01*
X162953251Y-135442477D01*
X162928747Y-135442477D01*
X162904714Y-135447258D01*
X162882075Y-135456635D01*
X162861701Y-135470249D01*
X162844375Y-135487575D01*
X162828238Y-135507238D01*
X162716318Y-135599088D01*
X162588636Y-135667336D01*
X162552584Y-135678272D01*
X162450084Y-135709365D01*
X162306000Y-135723556D01*
X162161915Y-135709365D01*
X162059415Y-135678272D01*
X162023363Y-135667336D01*
X161895681Y-135599088D01*
X161783762Y-135507238D01*
X161691912Y-135395318D01*
X161623664Y-135267636D01*
X161610909Y-135225589D01*
X161581635Y-135129084D01*
X161571000Y-135021104D01*
X161571000Y-134218895D01*
X161581635Y-134110915D01*
X161623664Y-133972367D01*
X161623665Y-133972364D01*
X161691913Y-133844681D01*
X161783763Y-133732762D01*
X161895682Y-133640912D01*
X162023364Y-133572664D01*
X162071933Y-133557931D01*
X162161916Y-133530635D01*
X162306000Y-133516444D01*
X162450085Y-133530635D01*
X162540068Y-133557931D01*
X162588637Y-133572664D01*
X162716319Y-133640912D01*
X162717265Y-133641688D01*
X162828238Y-133732762D01*
X162844380Y-133752431D01*
X162861704Y-133769753D01*
X162882078Y-133783367D01*
X162904717Y-133792744D01*
X162928750Y-133797524D01*
X162953255Y-133797524D01*
X162977288Y-133792743D01*
X162999926Y-133783366D01*
X163020301Y-133769752D01*
X163037621Y-133752431D01*
X163053763Y-133732762D01*
X163164735Y-133641689D01*
X163165682Y-133640912D01*
X163293364Y-133572664D01*
X163341933Y-133557931D01*
X163431916Y-133530635D01*
X163576000Y-133516444D01*
X163720085Y-133530635D01*
X163810068Y-133557931D01*
X163858637Y-133572664D01*
X163927077Y-133609246D01*
X163949716Y-133618624D01*
X163973749Y-133623404D01*
X163998253Y-133623404D01*
X164022287Y-133618623D01*
X164044925Y-133609246D01*
X164065300Y-133595632D01*
X164082627Y-133578305D01*
X164096240Y-133557931D01*
X164105618Y-133535292D01*
X164107886Y-133520000D01*
X165583068Y-133520000D01*
X165583402Y-133523394D01*
X165590515Y-133546843D01*
X165602066Y-133568454D01*
X165617611Y-133587396D01*
X165636553Y-133602941D01*
X165658164Y-133614492D01*
X165681613Y-133621605D01*
X165705999Y-133624007D01*
X165730385Y-133621605D01*
X165753834Y-133614492D01*
X165764923Y-133609247D01*
X165833364Y-133572664D01*
X165881933Y-133557931D01*
X165971916Y-133530635D01*
X166116000Y-133516444D01*
X166260085Y-133530635D01*
G37*
G36*
X141876085Y-133530635D02*
G01*
X141966068Y-133557931D01*
X142014637Y-133572664D01*
X142142319Y-133640912D01*
X142254238Y-133732762D01*
X142346088Y-133844681D01*
X142414336Y-133972363D01*
X142414337Y-133972367D01*
X142456365Y-134110915D01*
X142467000Y-134218895D01*
X142467000Y-135021105D01*
X142456365Y-135129085D01*
X142427091Y-135225589D01*
X142414336Y-135267637D01*
X142346088Y-135395319D01*
X142254238Y-135507238D01*
X142142318Y-135599088D01*
X142014636Y-135667336D01*
X141978584Y-135678272D01*
X141876084Y-135709365D01*
X141732000Y-135723556D01*
X141587915Y-135709365D01*
X141485415Y-135678272D01*
X141449363Y-135667336D01*
X141380923Y-135630754D01*
X141358284Y-135621376D01*
X141334251Y-135616596D01*
X141309747Y-135616596D01*
X141285713Y-135621377D01*
X141263075Y-135630754D01*
X141242700Y-135644368D01*
X141225373Y-135661695D01*
X141211760Y-135682069D01*
X141202382Y-135704708D01*
X141200114Y-135720000D01*
X139724932Y-135720000D01*
X139724598Y-135716606D01*
X139717485Y-135693157D01*
X139705934Y-135671546D01*
X139690389Y-135652604D01*
X139671447Y-135637059D01*
X139649836Y-135625508D01*
X139626387Y-135618395D01*
X139602001Y-135615993D01*
X139577615Y-135618395D01*
X139554166Y-135625508D01*
X139543077Y-135630753D01*
X139474636Y-135667336D01*
X139438584Y-135678272D01*
X139336084Y-135709365D01*
X139192000Y-135723556D01*
X139047915Y-135709365D01*
X138945415Y-135678272D01*
X138909363Y-135667336D01*
X138781681Y-135599088D01*
X138669762Y-135507238D01*
X138653625Y-135487575D01*
X138636298Y-135470248D01*
X138615923Y-135456634D01*
X138593284Y-135447257D01*
X138569251Y-135442477D01*
X138544747Y-135442477D01*
X138520714Y-135447258D01*
X138498075Y-135456635D01*
X138477701Y-135470249D01*
X138460375Y-135487575D01*
X138444238Y-135507238D01*
X138332318Y-135599088D01*
X138204636Y-135667336D01*
X138168584Y-135678272D01*
X138066084Y-135709365D01*
X137922000Y-135723556D01*
X137777915Y-135709365D01*
X137675415Y-135678272D01*
X137639363Y-135667336D01*
X137511681Y-135599088D01*
X137399762Y-135507238D01*
X137307912Y-135395318D01*
X137239664Y-135267636D01*
X137226909Y-135225589D01*
X137197635Y-135129084D01*
X137187000Y-135021104D01*
X137187000Y-134218895D01*
X137197635Y-134110915D01*
X137239664Y-133972367D01*
X137239665Y-133972364D01*
X137307913Y-133844681D01*
X137399763Y-133732762D01*
X137511682Y-133640912D01*
X137639364Y-133572664D01*
X137687933Y-133557931D01*
X137777916Y-133530635D01*
X137922000Y-133516444D01*
X138066085Y-133530635D01*
X138156068Y-133557931D01*
X138204637Y-133572664D01*
X138332319Y-133640912D01*
X138333265Y-133641688D01*
X138444238Y-133732762D01*
X138460380Y-133752431D01*
X138477704Y-133769753D01*
X138498078Y-133783367D01*
X138520717Y-133792744D01*
X138544750Y-133797524D01*
X138569255Y-133797524D01*
X138593288Y-133792743D01*
X138615926Y-133783366D01*
X138636301Y-133769752D01*
X138653621Y-133752431D01*
X138669763Y-133732762D01*
X138780735Y-133641689D01*
X138781682Y-133640912D01*
X138909364Y-133572664D01*
X138957933Y-133557931D01*
X139047916Y-133530635D01*
X139192000Y-133516444D01*
X139336085Y-133530635D01*
X139426068Y-133557931D01*
X139474637Y-133572664D01*
X139543077Y-133609246D01*
X139565716Y-133618624D01*
X139589749Y-133623404D01*
X139614253Y-133623404D01*
X139638287Y-133618623D01*
X139660925Y-133609246D01*
X139681300Y-133595632D01*
X139698627Y-133578305D01*
X139712240Y-133557931D01*
X139721618Y-133535292D01*
X139723886Y-133520000D01*
X141199068Y-133520000D01*
X141199402Y-133523394D01*
X141206515Y-133546843D01*
X141218066Y-133568454D01*
X141233611Y-133587396D01*
X141252553Y-133602941D01*
X141274164Y-133614492D01*
X141297613Y-133621605D01*
X141321999Y-133624007D01*
X141346385Y-133621605D01*
X141369834Y-133614492D01*
X141380923Y-133609247D01*
X141449364Y-133572664D01*
X141497933Y-133557931D01*
X141587916Y-133530635D01*
X141732000Y-133516444D01*
X141876085Y-133530635D01*
G37*
G36*
X156906000Y-135570000D02*
G01*
X155006000Y-135570000D01*
X155006000Y-133670000D01*
X156906000Y-133670000D01*
X156906000Y-135570000D01*
G37*
G36*
X148521336Y-133688254D02*
G01*
X148613105Y-133706508D01*
X148785994Y-133778121D01*
X148941590Y-133882087D01*
X149073913Y-134014410D01*
X149177879Y-134170006D01*
X149249492Y-134342895D01*
X149286000Y-134526433D01*
X149286000Y-134713567D01*
X149249492Y-134897105D01*
X149177879Y-135069994D01*
X149073913Y-135225590D01*
X148941590Y-135357913D01*
X148785994Y-135461879D01*
X148613105Y-135533492D01*
X148521336Y-135551746D01*
X148429568Y-135570000D01*
X148242432Y-135570000D01*
X148150664Y-135551746D01*
X148058895Y-135533492D01*
X147886006Y-135461879D01*
X147730410Y-135357913D01*
X147598087Y-135225590D01*
X147494121Y-135069994D01*
X147422508Y-134897105D01*
X147386000Y-134713567D01*
X147386000Y-134526433D01*
X147422508Y-134342895D01*
X147494121Y-134170006D01*
X147598087Y-134014410D01*
X147730410Y-133882087D01*
X147886006Y-133778121D01*
X148058895Y-133706508D01*
X148150664Y-133688254D01*
X148242432Y-133670000D01*
X148429568Y-133670000D01*
X148521336Y-133688254D01*
G37*
G36*
X194537290Y-132375619D02*
G01*
X194601689Y-132388429D01*
X194783678Y-132463811D01*
X194947463Y-132573249D01*
X195086751Y-132712537D01*
X195196189Y-132876322D01*
X195271571Y-133058311D01*
X195284381Y-133122710D01*
X195310000Y-133251507D01*
X195310000Y-133448493D01*
X195290437Y-133546843D01*
X195271571Y-133641689D01*
X195196189Y-133823678D01*
X195086751Y-133987463D01*
X194947463Y-134126751D01*
X194783678Y-134236189D01*
X194601689Y-134311571D01*
X194537290Y-134324381D01*
X194408493Y-134350000D01*
X194211507Y-134350000D01*
X194082710Y-134324381D01*
X194018311Y-134311571D01*
X193836322Y-134236189D01*
X193672537Y-134126751D01*
X193533249Y-133987463D01*
X193423811Y-133823678D01*
X193348429Y-133641689D01*
X193329563Y-133546843D01*
X193310000Y-133448493D01*
X193310000Y-133251507D01*
X193335619Y-133122710D01*
X193348429Y-133058311D01*
X193423811Y-132876322D01*
X193533249Y-132712537D01*
X193672537Y-132573249D01*
X193836322Y-132463811D01*
X194018311Y-132388429D01*
X194082710Y-132375619D01*
X194211507Y-132350000D01*
X194408493Y-132350000D01*
X194537290Y-132375619D01*
G37*
G36*
X204697290Y-132375619D02*
G01*
X204761689Y-132388429D01*
X204943678Y-132463811D01*
X205107463Y-132573249D01*
X205246751Y-132712537D01*
X205356189Y-132876322D01*
X205431571Y-133058311D01*
X205444381Y-133122710D01*
X205470000Y-133251507D01*
X205470000Y-133448493D01*
X205450437Y-133546843D01*
X205431571Y-133641689D01*
X205356189Y-133823678D01*
X205246751Y-133987463D01*
X205107463Y-134126751D01*
X204943678Y-134236189D01*
X204761689Y-134311571D01*
X204697290Y-134324381D01*
X204568493Y-134350000D01*
X204371507Y-134350000D01*
X204242710Y-134324381D01*
X204178311Y-134311571D01*
X203996322Y-134236189D01*
X203832537Y-134126751D01*
X203693249Y-133987463D01*
X203583811Y-133823678D01*
X203508429Y-133641689D01*
X203489563Y-133546843D01*
X203470000Y-133448493D01*
X203470000Y-133251507D01*
X203495619Y-133122710D01*
X203508429Y-133058311D01*
X203583811Y-132876322D01*
X203693249Y-132712537D01*
X203832537Y-132573249D01*
X203996322Y-132463811D01*
X204178311Y-132388429D01*
X204242710Y-132375619D01*
X204371507Y-132350000D01*
X204568493Y-132350000D01*
X204697290Y-132375619D01*
G37*
G36*
X148521336Y-131402254D02*
G01*
X148613105Y-131420508D01*
X148785994Y-131492121D01*
X148941590Y-131596087D01*
X149073913Y-131728410D01*
X149177879Y-131884006D01*
X149249492Y-132056895D01*
X149286000Y-132240433D01*
X149286000Y-132427567D01*
X149249492Y-132611105D01*
X149177879Y-132783994D01*
X149073913Y-132939590D01*
X148941590Y-133071913D01*
X148785994Y-133175879D01*
X148613105Y-133247492D01*
X148521336Y-133265746D01*
X148429568Y-133284000D01*
X148242432Y-133284000D01*
X148150664Y-133265746D01*
X148058895Y-133247492D01*
X147886006Y-133175879D01*
X147730410Y-133071913D01*
X147598087Y-132939590D01*
X147494121Y-132783994D01*
X147422508Y-132611105D01*
X147386000Y-132427567D01*
X147386000Y-132240433D01*
X147422508Y-132056895D01*
X147494121Y-131884006D01*
X147598087Y-131728410D01*
X147730410Y-131596087D01*
X147886006Y-131492121D01*
X148058895Y-131420508D01*
X148150664Y-131402254D01*
X148242432Y-131384000D01*
X148429568Y-131384000D01*
X148521336Y-131402254D01*
G37*
G36*
X156906000Y-133284000D02*
G01*
X155006000Y-133284000D01*
X155006000Y-131384000D01*
X156906000Y-131384000D01*
X156906000Y-133284000D01*
G37*
G36*
X204716026Y-129148115D02*
G01*
X204934411Y-129238573D01*
X204934413Y-129238574D01*
X205130955Y-129369899D01*
X205298101Y-129537045D01*
X205429427Y-129733589D01*
X205519885Y-129951974D01*
X205566000Y-130183809D01*
X205566000Y-130420191D01*
X205519885Y-130652026D01*
X205476995Y-130755571D01*
X205429426Y-130870413D01*
X205298101Y-131066955D01*
X205130955Y-131234101D01*
X204934413Y-131365426D01*
X204934412Y-131365427D01*
X204934411Y-131365427D01*
X204716026Y-131455885D01*
X204484191Y-131502000D01*
X204247809Y-131502000D01*
X204015974Y-131455885D01*
X203797589Y-131365427D01*
X203797588Y-131365427D01*
X203797587Y-131365426D01*
X203601045Y-131234101D01*
X203433899Y-131066955D01*
X203302574Y-130870413D01*
X203255005Y-130755571D01*
X203212115Y-130652026D01*
X203166000Y-130420191D01*
X203166000Y-130183809D01*
X203212115Y-129951974D01*
X203302573Y-129733589D01*
X203433899Y-129537045D01*
X203601045Y-129369899D01*
X203797587Y-129238574D01*
X203797589Y-129238573D01*
X204015974Y-129148115D01*
X204247809Y-129102000D01*
X204484191Y-129102000D01*
X204716026Y-129148115D01*
G37*
G36*
X198216026Y-129148115D02*
G01*
X198434411Y-129238573D01*
X198434413Y-129238574D01*
X198630955Y-129369899D01*
X198798101Y-129537045D01*
X198929427Y-129733589D01*
X199019885Y-129951974D01*
X199066000Y-130183809D01*
X199066000Y-130420191D01*
X199019885Y-130652026D01*
X198976995Y-130755571D01*
X198929426Y-130870413D01*
X198798101Y-131066955D01*
X198630955Y-131234101D01*
X198434413Y-131365426D01*
X198434412Y-131365427D01*
X198434411Y-131365427D01*
X198216026Y-131455885D01*
X197984191Y-131502000D01*
X197747809Y-131502000D01*
X197515974Y-131455885D01*
X197297589Y-131365427D01*
X197297588Y-131365427D01*
X197297587Y-131365426D01*
X197101045Y-131234101D01*
X196933899Y-131066955D01*
X196802574Y-130870413D01*
X196755005Y-130755571D01*
X196712115Y-130652026D01*
X196666000Y-130420191D01*
X196666000Y-130183809D01*
X196712115Y-129951974D01*
X196802573Y-129733589D01*
X196933899Y-129537045D01*
X197101045Y-129369899D01*
X197297587Y-129238574D01*
X197297589Y-129238573D01*
X197515974Y-129148115D01*
X197747809Y-129102000D01*
X197984191Y-129102000D01*
X198216026Y-129148115D01*
G37*
G36*
X135355290Y-128819619D02*
G01*
X135419689Y-128832429D01*
X135601678Y-128907811D01*
X135765463Y-129017249D01*
X135904751Y-129156537D01*
X136014189Y-129320322D01*
X136034724Y-129369899D01*
X136089571Y-129502312D01*
X136128000Y-129695507D01*
X136128000Y-129892493D01*
X136116168Y-129951974D01*
X136089571Y-130085689D01*
X136014189Y-130267678D01*
X135904751Y-130431463D01*
X135765463Y-130570751D01*
X135601678Y-130680189D01*
X135419689Y-130755571D01*
X135355290Y-130768381D01*
X135226493Y-130794000D01*
X135029507Y-130794000D01*
X134900710Y-130768381D01*
X134836311Y-130755571D01*
X134654322Y-130680189D01*
X134490537Y-130570751D01*
X134351249Y-130431463D01*
X134241811Y-130267678D01*
X134166429Y-130085689D01*
X134139832Y-129951974D01*
X134128000Y-129892493D01*
X134128000Y-129695507D01*
X134166429Y-129502312D01*
X134221276Y-129369899D01*
X134241811Y-129320322D01*
X134351249Y-129156537D01*
X134490537Y-129017249D01*
X134654322Y-128907811D01*
X134836311Y-128832429D01*
X134900710Y-128819619D01*
X135029507Y-128794000D01*
X135226493Y-128794000D01*
X135355290Y-128819619D01*
G37*
G36*
X135355290Y-126279619D02*
G01*
X135419689Y-126292429D01*
X135601678Y-126367811D01*
X135765463Y-126477249D01*
X135904751Y-126616537D01*
X136014189Y-126780322D01*
X136089571Y-126962311D01*
X136128000Y-127155509D01*
X136128000Y-127352491D01*
X136089571Y-127545689D01*
X136014189Y-127727678D01*
X135904751Y-127891463D01*
X135765463Y-128030751D01*
X135601678Y-128140189D01*
X135419689Y-128215571D01*
X135355290Y-128228381D01*
X135226493Y-128254000D01*
X135029507Y-128254000D01*
X134900710Y-128228381D01*
X134836311Y-128215571D01*
X134654322Y-128140189D01*
X134490537Y-128030751D01*
X134351249Y-127891463D01*
X134241811Y-127727678D01*
X134166429Y-127545689D01*
X134128000Y-127352491D01*
X134128000Y-127155509D01*
X134166429Y-126962311D01*
X134241811Y-126780322D01*
X134351249Y-126616537D01*
X134490537Y-126477249D01*
X134654322Y-126367811D01*
X134836311Y-126292429D01*
X134900710Y-126279619D01*
X135029507Y-126254000D01*
X135226493Y-126254000D01*
X135355290Y-126279619D01*
G37*
G36*
X198216026Y-124648115D02*
G01*
X198434411Y-124738573D01*
X198434413Y-124738574D01*
X198630955Y-124869899D01*
X198798101Y-125037045D01*
X198929427Y-125233589D01*
X199019885Y-125451974D01*
X199066000Y-125683809D01*
X199066000Y-125920191D01*
X199019885Y-126152026D01*
X198977646Y-126254000D01*
X198929426Y-126370413D01*
X198798101Y-126566955D01*
X198630955Y-126734101D01*
X198434413Y-126865426D01*
X198434412Y-126865427D01*
X198434411Y-126865427D01*
X198216026Y-126955885D01*
X197984191Y-127002000D01*
X197747809Y-127002000D01*
X197515974Y-126955885D01*
X197297589Y-126865427D01*
X197297588Y-126865427D01*
X197297587Y-126865426D01*
X197101045Y-126734101D01*
X196933899Y-126566955D01*
X196802574Y-126370413D01*
X196754354Y-126254000D01*
X196712115Y-126152026D01*
X196666000Y-125920191D01*
X196666000Y-125683809D01*
X196712115Y-125451974D01*
X196802573Y-125233589D01*
X196933899Y-125037045D01*
X197101045Y-124869899D01*
X197297587Y-124738574D01*
X197297589Y-124738573D01*
X197515974Y-124648115D01*
X197747809Y-124602000D01*
X197984191Y-124602000D01*
X198216026Y-124648115D01*
G37*
G36*
X204716026Y-124648115D02*
G01*
X204934411Y-124738573D01*
X204934413Y-124738574D01*
X205130955Y-124869899D01*
X205298101Y-125037045D01*
X205429427Y-125233589D01*
X205519885Y-125451974D01*
X205566000Y-125683809D01*
X205566000Y-125920191D01*
X205519885Y-126152026D01*
X205477646Y-126254000D01*
X205429426Y-126370413D01*
X205298101Y-126566955D01*
X205130955Y-126734101D01*
X204934413Y-126865426D01*
X204934412Y-126865427D01*
X204934411Y-126865427D01*
X204716026Y-126955885D01*
X204484191Y-127002000D01*
X204247809Y-127002000D01*
X204015974Y-126955885D01*
X203797589Y-126865427D01*
X203797588Y-126865427D01*
X203797587Y-126865426D01*
X203601045Y-126734101D01*
X203433899Y-126566955D01*
X203302574Y-126370413D01*
X203254354Y-126254000D01*
X203212115Y-126152026D01*
X203166000Y-125920191D01*
X203166000Y-125683809D01*
X203212115Y-125451974D01*
X203302573Y-125233589D01*
X203433899Y-125037045D01*
X203601045Y-124869899D01*
X203797587Y-124738574D01*
X203797589Y-124738573D01*
X204015974Y-124648115D01*
X204247809Y-124602000D01*
X204484191Y-124602000D01*
X204716026Y-124648115D01*
G37*
G36*
X136128000Y-125714000D02*
G01*
X134128000Y-125714000D01*
X134128000Y-123714000D01*
X136128000Y-123714000D01*
X136128000Y-125714000D01*
G37*
G36*
X132644604Y-115350968D02*
G01*
X132819678Y-115423486D01*
X132819679Y-115423487D01*
X132977237Y-115528763D01*
X133111237Y-115662763D01*
X133199007Y-115794121D01*
X133216514Y-115820322D01*
X133252772Y-115907858D01*
X133289032Y-115995396D01*
X133326000Y-116181250D01*
X133326000Y-116370750D01*
X133289032Y-116556604D01*
X133259148Y-116628750D01*
X133216514Y-116731678D01*
X133216513Y-116731679D01*
X133111237Y-116889237D01*
X132977237Y-117023237D01*
X132845879Y-117111007D01*
X132819678Y-117128514D01*
X132644604Y-117201032D01*
X132458750Y-117238000D01*
X132269250Y-117238000D01*
X132083396Y-117201032D01*
X131908322Y-117128514D01*
X131882121Y-117111007D01*
X131750763Y-117023237D01*
X131616763Y-116889237D01*
X131511487Y-116731679D01*
X131511486Y-116731678D01*
X131468852Y-116628750D01*
X131438968Y-116556604D01*
X131402000Y-116370750D01*
X131402000Y-116181250D01*
X131438968Y-115995396D01*
X131475228Y-115907858D01*
X131511486Y-115820322D01*
X131528993Y-115794121D01*
X131616763Y-115662763D01*
X131750763Y-115528763D01*
X131908321Y-115423487D01*
X131908322Y-115423486D01*
X132083396Y-115350968D01*
X132269250Y-115314000D01*
X132458750Y-115314000D01*
X132644604Y-115350968D01*
G37*
G36*
X129134000Y-116976000D02*
G01*
X117234000Y-116976000D01*
X117234000Y-115576000D01*
X129134000Y-115576000D01*
X129134000Y-116976000D01*
G37*
G36*
X139694799Y-109946569D02*
G01*
X139894377Y-110007110D01*
X140078306Y-110105423D01*
X140239522Y-110237728D01*
X140371827Y-110398944D01*
X140470140Y-110582873D01*
X140530681Y-110782451D01*
X140551122Y-110990000D01*
X140530681Y-111197549D01*
X140470140Y-111397127D01*
X140371827Y-111581056D01*
X140239522Y-111742272D01*
X140078306Y-111874577D01*
X139894377Y-111972890D01*
X139754295Y-112015383D01*
X139731656Y-112024761D01*
X139711282Y-112038374D01*
X139693955Y-112055701D01*
X139680341Y-112076076D01*
X139670963Y-112098715D01*
X139666183Y-112122748D01*
X139666183Y-112147252D01*
X139670963Y-112171285D01*
X139680341Y-112193924D01*
X139693954Y-112214298D01*
X139711281Y-112231625D01*
X139731656Y-112245239D01*
X139754295Y-112254617D01*
X139894377Y-112297110D01*
X140078306Y-112395423D01*
X140239522Y-112527728D01*
X140371827Y-112688944D01*
X140470140Y-112872873D01*
X140530681Y-113072451D01*
X140551122Y-113280000D01*
X140530681Y-113487549D01*
X140470140Y-113687127D01*
X140371827Y-113871056D01*
X140239522Y-114032272D01*
X140078306Y-114164577D01*
X139894374Y-114262891D01*
X139882033Y-114266635D01*
X139859395Y-114276012D01*
X139839020Y-114289626D01*
X139821693Y-114306953D01*
X139808080Y-114327327D01*
X139798702Y-114349966D01*
X139793922Y-114373999D01*
X139793922Y-114398503D01*
X139798703Y-114422537D01*
X139808080Y-114445175D01*
X139821694Y-114465550D01*
X139839021Y-114482877D01*
X139859395Y-114496490D01*
X139882034Y-114505868D01*
X139918319Y-114511250D01*
X140546000Y-114511250D01*
X140546000Y-116628750D01*
X138346000Y-116628750D01*
X138346000Y-114511250D01*
X138973681Y-114511250D01*
X138998067Y-114508848D01*
X139021516Y-114501735D01*
X139043127Y-114490184D01*
X139062069Y-114474639D01*
X139077614Y-114455697D01*
X139089165Y-114434086D01*
X139096278Y-114410637D01*
X139098680Y-114386251D01*
X139096278Y-114361865D01*
X139089165Y-114338416D01*
X139077614Y-114316805D01*
X139062069Y-114297863D01*
X139043127Y-114282318D01*
X139009967Y-114266635D01*
X138997626Y-114262891D01*
X138813694Y-114164577D01*
X138652478Y-114032272D01*
X138520173Y-113871056D01*
X138421860Y-113687127D01*
X138361319Y-113487549D01*
X138340878Y-113280000D01*
X138361319Y-113072451D01*
X138421860Y-112872873D01*
X138520173Y-112688944D01*
X138652478Y-112527728D01*
X138813694Y-112395423D01*
X138997623Y-112297110D01*
X139137705Y-112254617D01*
X139160344Y-112245239D01*
X139180718Y-112231626D01*
X139198045Y-112214299D01*
X139211659Y-112193924D01*
X139221037Y-112171285D01*
X139225817Y-112147252D01*
X139225817Y-112122748D01*
X139221037Y-112098715D01*
X139211659Y-112076076D01*
X139198046Y-112055702D01*
X139180719Y-112038375D01*
X139160344Y-112024761D01*
X139137705Y-112015383D01*
X138997623Y-111972890D01*
X138813694Y-111874577D01*
X138652478Y-111742272D01*
X138520173Y-111581056D01*
X138421860Y-111397127D01*
X138361319Y-111197549D01*
X138340878Y-110990000D01*
X138361319Y-110782451D01*
X138421860Y-110582873D01*
X138520173Y-110398944D01*
X138652478Y-110237728D01*
X138813694Y-110105423D01*
X138997623Y-110007110D01*
X139197201Y-109946569D01*
X139352742Y-109931250D01*
X139539258Y-109931250D01*
X139694799Y-109946569D01*
G37*
G36*
X132644604Y-110850968D02*
G01*
X132732142Y-110887228D01*
X132819678Y-110923486D01*
X132819679Y-110923487D01*
X132977237Y-111028763D01*
X133111237Y-111162763D01*
X133199007Y-111294121D01*
X133216514Y-111320322D01*
X133248327Y-111397126D01*
X133289032Y-111495396D01*
X133326000Y-111681250D01*
X133326000Y-111870750D01*
X133289032Y-112056604D01*
X133280966Y-112076076D01*
X133216514Y-112231678D01*
X133216513Y-112231679D01*
X133111237Y-112389237D01*
X132977237Y-112523237D01*
X132845879Y-112611007D01*
X132819678Y-112628514D01*
X132742415Y-112660517D01*
X132720806Y-112672067D01*
X132701864Y-112687613D01*
X132686319Y-112706554D01*
X132674768Y-112728165D01*
X132667655Y-112751614D01*
X132665253Y-112776000D01*
X132667655Y-112800386D01*
X132674768Y-112823835D01*
X132686319Y-112845446D01*
X132701865Y-112864388D01*
X132720806Y-112879933D01*
X132742415Y-112891483D01*
X132819678Y-112923486D01*
X132819679Y-112923487D01*
X132977237Y-113028763D01*
X133111237Y-113162763D01*
X133199007Y-113294121D01*
X133216514Y-113320322D01*
X133289032Y-113495396D01*
X133326000Y-113681250D01*
X133326000Y-113870750D01*
X133289032Y-114056604D01*
X133252772Y-114144142D01*
X133216514Y-114231678D01*
X133216513Y-114231679D01*
X133111237Y-114389237D01*
X132977237Y-114523237D01*
X132845879Y-114611007D01*
X132819678Y-114628514D01*
X132644604Y-114701032D01*
X132458750Y-114738000D01*
X132269250Y-114738000D01*
X132083396Y-114701032D01*
X131908322Y-114628514D01*
X131882121Y-114611007D01*
X131750763Y-114523237D01*
X131616763Y-114389237D01*
X131511487Y-114231679D01*
X131511486Y-114231678D01*
X131475228Y-114144142D01*
X131438968Y-114056604D01*
X131402000Y-113870750D01*
X131402000Y-113681250D01*
X131438968Y-113495396D01*
X131475228Y-113407858D01*
X131511486Y-113320322D01*
X131528993Y-113294121D01*
X131616763Y-113162763D01*
X131750763Y-113028763D01*
X131908321Y-112923487D01*
X131908322Y-112923486D01*
X131985585Y-112891483D01*
X132007194Y-112879933D01*
X132026136Y-112864387D01*
X132041681Y-112845446D01*
X132053232Y-112823835D01*
X132060345Y-112800386D01*
X132062747Y-112776000D01*
X132060345Y-112751614D01*
X132053232Y-112728165D01*
X132041681Y-112706554D01*
X132026135Y-112687612D01*
X132007194Y-112672067D01*
X131985585Y-112660517D01*
X131908322Y-112628514D01*
X131882121Y-112611007D01*
X131750763Y-112523237D01*
X131616763Y-112389237D01*
X131511487Y-112231679D01*
X131511486Y-112231678D01*
X131447034Y-112076076D01*
X131438968Y-112056604D01*
X131402000Y-111870750D01*
X131402000Y-111681250D01*
X131438968Y-111495396D01*
X131479673Y-111397126D01*
X131511486Y-111320322D01*
X131528993Y-111294121D01*
X131616763Y-111162763D01*
X131750763Y-111028763D01*
X131908321Y-110923487D01*
X131908322Y-110923486D01*
X131995858Y-110887228D01*
X132083396Y-110850968D01*
X132269250Y-110814000D01*
X132458750Y-110814000D01*
X132644604Y-110850968D01*
G37*
G36*
X129134000Y-114476000D02*
G01*
X118234000Y-114476000D01*
X118234000Y-113076000D01*
X129134000Y-113076000D01*
X129134000Y-114476000D01*
G37*
G36*
X129134000Y-112476000D02*
G01*
X118234000Y-112476000D01*
X118234000Y-111076000D01*
X129134000Y-111076000D01*
X129134000Y-112476000D01*
G37*
G36*
X132644604Y-108350968D02*
G01*
X132819678Y-108423486D01*
X132819679Y-108423487D01*
X132977237Y-108528763D01*
X133111237Y-108662763D01*
X133199007Y-108794121D01*
X133216514Y-108820322D01*
X133289032Y-108995396D01*
X133326000Y-109181250D01*
X133326000Y-109370750D01*
X133289032Y-109556604D01*
X133216514Y-109731678D01*
X133216513Y-109731679D01*
X133111237Y-109889237D01*
X132977237Y-110023237D01*
X132854236Y-110105423D01*
X132819678Y-110128514D01*
X132732142Y-110164772D01*
X132644604Y-110201032D01*
X132458750Y-110238000D01*
X132269250Y-110238000D01*
X132083396Y-110201032D01*
X131995858Y-110164772D01*
X131908322Y-110128514D01*
X131873764Y-110105423D01*
X131750763Y-110023237D01*
X131616763Y-109889237D01*
X131511487Y-109731679D01*
X131511486Y-109731678D01*
X131475228Y-109644142D01*
X131438968Y-109556604D01*
X131402000Y-109370750D01*
X131402000Y-109181250D01*
X131438968Y-108995396D01*
X131511486Y-108820322D01*
X131528993Y-108794121D01*
X131616763Y-108662763D01*
X131750763Y-108528763D01*
X131908321Y-108423487D01*
X131908322Y-108423486D01*
X131995858Y-108387228D01*
X132083396Y-108350968D01*
X132269250Y-108314000D01*
X132458750Y-108314000D01*
X132644604Y-108350968D01*
G37*
G36*
X129134000Y-109976000D02*
G01*
X117234000Y-109976000D01*
X117234000Y-108576000D01*
X129134000Y-108576000D01*
X129134000Y-109976000D01*
G37*
G36*
X143737290Y-100371619D02*
G01*
X143801689Y-100384429D01*
X143983678Y-100459811D01*
X144147463Y-100569249D01*
X144286751Y-100708537D01*
X144396189Y-100872322D01*
X144471571Y-101054311D01*
X144510000Y-101247509D01*
X144510000Y-101444491D01*
X144471571Y-101637689D01*
X144396189Y-101819678D01*
X144286751Y-101983463D01*
X144147463Y-102122751D01*
X143983678Y-102232189D01*
X143801689Y-102307571D01*
X143737290Y-102320381D01*
X143608493Y-102346000D01*
X143411507Y-102346000D01*
X143282710Y-102320381D01*
X143218311Y-102307571D01*
X143036322Y-102232189D01*
X142872537Y-102122751D01*
X142733249Y-101983463D01*
X142623811Y-101819678D01*
X142548429Y-101637689D01*
X142510000Y-101444491D01*
X142510000Y-101247509D01*
X142548429Y-101054311D01*
X142623811Y-100872322D01*
X142733249Y-100708537D01*
X142872537Y-100569249D01*
X143036322Y-100459811D01*
X143218311Y-100384429D01*
X143282710Y-100371619D01*
X143411507Y-100346000D01*
X143608493Y-100346000D01*
X143737290Y-100371619D01*
G37*
G36*
X141197290Y-100371619D02*
G01*
X141261689Y-100384429D01*
X141443678Y-100459811D01*
X141607463Y-100569249D01*
X141746751Y-100708537D01*
X141856189Y-100872322D01*
X141931571Y-101054311D01*
X141970000Y-101247509D01*
X141970000Y-101444491D01*
X141931571Y-101637689D01*
X141856189Y-101819678D01*
X141746751Y-101983463D01*
X141607463Y-102122751D01*
X141443678Y-102232189D01*
X141261689Y-102307571D01*
X141197290Y-102320381D01*
X141068493Y-102346000D01*
X140871507Y-102346000D01*
X140742710Y-102320381D01*
X140678311Y-102307571D01*
X140496322Y-102232189D01*
X140332537Y-102122751D01*
X140193249Y-101983463D01*
X140083811Y-101819678D01*
X140008429Y-101637689D01*
X139970000Y-101444491D01*
X139970000Y-101247509D01*
X140008429Y-101054311D01*
X140083811Y-100872322D01*
X140193249Y-100708537D01*
X140332537Y-100569249D01*
X140496322Y-100459811D01*
X140678311Y-100384429D01*
X140742710Y-100371619D01*
X140871507Y-100346000D01*
X141068493Y-100346000D01*
X141197290Y-100371619D01*
G37*
G36*
X138657290Y-100371619D02*
G01*
X138721689Y-100384429D01*
X138903678Y-100459811D01*
X139067463Y-100569249D01*
X139206751Y-100708537D01*
X139316189Y-100872322D01*
X139391571Y-101054311D01*
X139430000Y-101247509D01*
X139430000Y-101444491D01*
X139391571Y-101637689D01*
X139316189Y-101819678D01*
X139206751Y-101983463D01*
X139067463Y-102122751D01*
X138903678Y-102232189D01*
X138721689Y-102307571D01*
X138657290Y-102320381D01*
X138528493Y-102346000D01*
X138331507Y-102346000D01*
X138202710Y-102320381D01*
X138138311Y-102307571D01*
X137956322Y-102232189D01*
X137792537Y-102122751D01*
X137653249Y-101983463D01*
X137543811Y-101819678D01*
X137468429Y-101637689D01*
X137430000Y-101444491D01*
X137430000Y-101247509D01*
X137468429Y-101054311D01*
X137543811Y-100872322D01*
X137653249Y-100708537D01*
X137792537Y-100569249D01*
X137956322Y-100459811D01*
X138138311Y-100384429D01*
X138202710Y-100371619D01*
X138331507Y-100346000D01*
X138528493Y-100346000D01*
X138657290Y-100371619D01*
G37*
G36*
X136890000Y-102346000D02*
G01*
X134890000Y-102346000D01*
X134890000Y-100346000D01*
X136890000Y-100346000D01*
X136890000Y-102346000D01*
G37*
G36*
X143737290Y-92751619D02*
G01*
X143801689Y-92764429D01*
X143983678Y-92839811D01*
X144147463Y-92949249D01*
X144286751Y-93088537D01*
X144396189Y-93252322D01*
X144471571Y-93434311D01*
X144510000Y-93627509D01*
X144510000Y-93824491D01*
X144471571Y-94017689D01*
X144396189Y-94199678D01*
X144286751Y-94363463D01*
X144147463Y-94502751D01*
X143983678Y-94612189D01*
X143801689Y-94687571D01*
X143737290Y-94700381D01*
X143608493Y-94726000D01*
X143411507Y-94726000D01*
X143282710Y-94700381D01*
X143218311Y-94687571D01*
X143036322Y-94612189D01*
X142872537Y-94502751D01*
X142733249Y-94363463D01*
X142623811Y-94199678D01*
X142548429Y-94017689D01*
X142510000Y-93824491D01*
X142510000Y-93627509D01*
X142548429Y-93434311D01*
X142623811Y-93252322D01*
X142733249Y-93088537D01*
X142872537Y-92949249D01*
X143036322Y-92839811D01*
X143218311Y-92764429D01*
X143282710Y-92751619D01*
X143411507Y-92726000D01*
X143608493Y-92726000D01*
X143737290Y-92751619D01*
G37*
G36*
X141197290Y-92751619D02*
G01*
X141261689Y-92764429D01*
X141443678Y-92839811D01*
X141607463Y-92949249D01*
X141746751Y-93088537D01*
X141856189Y-93252322D01*
X141931571Y-93434311D01*
X141970000Y-93627509D01*
X141970000Y-93824491D01*
X141931571Y-94017689D01*
X141856189Y-94199678D01*
X141746751Y-94363463D01*
X141607463Y-94502751D01*
X141443678Y-94612189D01*
X141261689Y-94687571D01*
X141197290Y-94700381D01*
X141068493Y-94726000D01*
X140871507Y-94726000D01*
X140742710Y-94700381D01*
X140678311Y-94687571D01*
X140496322Y-94612189D01*
X140332537Y-94502751D01*
X140193249Y-94363463D01*
X140083811Y-94199678D01*
X140008429Y-94017689D01*
X139970000Y-93824491D01*
X139970000Y-93627509D01*
X140008429Y-93434311D01*
X140083811Y-93252322D01*
X140193249Y-93088537D01*
X140332537Y-92949249D01*
X140496322Y-92839811D01*
X140678311Y-92764429D01*
X140742710Y-92751619D01*
X140871507Y-92726000D01*
X141068493Y-92726000D01*
X141197290Y-92751619D01*
G37*
G36*
X138657290Y-92751619D02*
G01*
X138721689Y-92764429D01*
X138903678Y-92839811D01*
X139067463Y-92949249D01*
X139206751Y-93088537D01*
X139316189Y-93252322D01*
X139391571Y-93434311D01*
X139430000Y-93627509D01*
X139430000Y-93824491D01*
X139391571Y-94017689D01*
X139316189Y-94199678D01*
X139206751Y-94363463D01*
X139067463Y-94502751D01*
X138903678Y-94612189D01*
X138721689Y-94687571D01*
X138657290Y-94700381D01*
X138528493Y-94726000D01*
X138331507Y-94726000D01*
X138202710Y-94700381D01*
X138138311Y-94687571D01*
X137956322Y-94612189D01*
X137792537Y-94502751D01*
X137653249Y-94363463D01*
X137543811Y-94199678D01*
X137468429Y-94017689D01*
X137430000Y-93824491D01*
X137430000Y-93627509D01*
X137468429Y-93434311D01*
X137543811Y-93252322D01*
X137653249Y-93088537D01*
X137792537Y-92949249D01*
X137956322Y-92839811D01*
X138138311Y-92764429D01*
X138202710Y-92751619D01*
X138331507Y-92726000D01*
X138528493Y-92726000D01*
X138657290Y-92751619D01*
G37*
G36*
X136117290Y-92751619D02*
G01*
X136181689Y-92764429D01*
X136363678Y-92839811D01*
X136527463Y-92949249D01*
X136666751Y-93088537D01*
X136776189Y-93252322D01*
X136851571Y-93434311D01*
X136890000Y-93627509D01*
X136890000Y-93824491D01*
X136851571Y-94017689D01*
X136776189Y-94199678D01*
X136666751Y-94363463D01*
X136527463Y-94502751D01*
X136363678Y-94612189D01*
X136181689Y-94687571D01*
X136117290Y-94700381D01*
X135988493Y-94726000D01*
X135791507Y-94726000D01*
X135662710Y-94700381D01*
X135598311Y-94687571D01*
X135416322Y-94612189D01*
X135252537Y-94502751D01*
X135113249Y-94363463D01*
X135003811Y-94199678D01*
X134928429Y-94017689D01*
X134890000Y-93824491D01*
X134890000Y-93627509D01*
X134928429Y-93434311D01*
X135003811Y-93252322D01*
X135113249Y-93088537D01*
X135252537Y-92949249D01*
X135416322Y-92839811D01*
X135598311Y-92764429D01*
X135662710Y-92751619D01*
X135791507Y-92726000D01*
X135988493Y-92726000D01*
X136117290Y-92751619D01*
G37*
M02*
