G04 #@! TF.GenerationSoftware,KiCad,Pcbnew,(5.1.5-0-10_14)*
G04 #@! TF.CreationDate,2020-10-20T19:31:47+02:00*
G04 #@! TF.ProjectId,badge_2020,62616467-655f-4323-9032-302e6b696361,rev?*
G04 #@! TF.SameCoordinates,Original*
G04 #@! TF.FileFunction,Profile,NP*
%FSLAX46Y46*%
G04 Gerber Fmt 4.6, Leading zero omitted, Abs format (unit mm)*
G04 Created by KiCad (PCBNEW (5.1.5-0-10_14)) date 2020-10-20 19:31:47*
%MOMM*%
%LPD*%
G04 APERTURE LIST*
%ADD10C,0.200000*%
G04 APERTURE END LIST*
D10*
X128270000Y-107259000D02*
X128270000Y-107950000D01*
X116332000Y-107950000D02*
X128270000Y-107950000D01*
X172486837Y-93646767D02*
X171599520Y-91317000D01*
X177704225Y-94740470D02*
X172486837Y-93646767D01*
X182189858Y-95901385D02*
X177704225Y-94740470D01*
X186221029Y-97134295D02*
X182189858Y-95901385D01*
X190075037Y-98443988D02*
X186221029Y-97134295D01*
X190462542Y-98303979D02*
X190075037Y-98443988D01*
X192426732Y-97675290D02*
X190462542Y-98303979D01*
X194466012Y-97390066D02*
X192426732Y-97675290D01*
X196013525Y-97480922D02*
X194466012Y-97390066D01*
X197512572Y-97872377D02*
X196013525Y-97480922D01*
X199221076Y-98798165D02*
X197512572Y-97872377D01*
X200619772Y-100146688D02*
X199221076Y-98798165D01*
X202937842Y-100432848D02*
X200619772Y-100146688D01*
X205176112Y-101089817D02*
X202937842Y-100432848D01*
X206348248Y-101650512D02*
X205176112Y-101089817D01*
X207429709Y-102377625D02*
X206348248Y-101650512D01*
X208363053Y-103276774D02*
X207429709Y-102377625D01*
X209090842Y-104353566D02*
X208363053Y-103276774D01*
X209793953Y-106050450D02*
X209090842Y-104353566D01*
X210193272Y-107838346D02*
X209793953Y-106050450D01*
X210205407Y-108476653D02*
X210193272Y-107838346D01*
X210265489Y-108573667D02*
X210205407Y-108476653D01*
X211808518Y-109835588D02*
X210265489Y-108573667D01*
X213430559Y-111501167D02*
X211808518Y-109835588D01*
X213434962Y-111505570D02*
X213430559Y-111501167D01*
X214657002Y-112782730D02*
X213434962Y-111505570D01*
X217166293Y-115956337D02*
X214657002Y-112782730D01*
X218226142Y-117640626D02*
X217166293Y-115956337D01*
X219150502Y-119391800D02*
X218226142Y-117640626D01*
X219415085Y-119992625D02*
X219150502Y-119391800D01*
X220138358Y-121997519D02*
X219415085Y-119992625D01*
X220720054Y-124223047D02*
X220138358Y-121997519D01*
X221514373Y-128734420D02*
X220720054Y-124223047D01*
X221909342Y-132323570D02*
X221514373Y-128734420D01*
X222016265Y-133787325D02*
X221909342Y-132323570D01*
X221699869Y-133801097D02*
X222016265Y-133787325D01*
X218092719Y-133881576D02*
X221699869Y-133801097D01*
X216244499Y-133822044D02*
X218092719Y-133881576D01*
X216779965Y-135756909D02*
X216244499Y-133822044D01*
X217070826Y-137659373D02*
X216779965Y-135756909D01*
X217170469Y-139459907D02*
X217070826Y-137659373D01*
X217132280Y-141088984D02*
X217170469Y-139459907D01*
X216855952Y-143554649D02*
X217132280Y-141088984D01*
X216668933Y-144500144D02*
X216855952Y-143554649D01*
X208861105Y-144121384D02*
X216668933Y-144500144D01*
X200651033Y-143596894D02*
X208861105Y-144121384D01*
X192585186Y-143197571D02*
X200651033Y-143596894D01*
X185210033Y-143194314D02*
X192585186Y-143197571D01*
X174914708Y-142923083D02*
X185210033Y-143194314D01*
X164652458Y-142944192D02*
X174914708Y-142923083D01*
X154485721Y-143208046D02*
X164652458Y-142944192D01*
X144476933Y-143665049D02*
X154485721Y-143208046D01*
X139032033Y-143982549D02*
X144476933Y-143665049D01*
X133294433Y-144169964D02*
X139032033Y-143982549D01*
X133702424Y-141727082D02*
X133294433Y-144169964D01*
X133982246Y-139358593D02*
X133702424Y-141727082D01*
X134108026Y-136834394D02*
X133982246Y-139358593D01*
X134031134Y-136798619D02*
X134108026Y-136834394D01*
X133048586Y-136302470D02*
X134031134Y-136798619D01*
X131286548Y-135225483D02*
X133048586Y-136302470D01*
X129650346Y-133959260D02*
X131286548Y-135225483D01*
X129057175Y-133999180D02*
X129650346Y-133959260D01*
X130032560Y-123530080D02*
X129057175Y-133999180D01*
X128502908Y-122408578D02*
X130032560Y-123530080D01*
X127585504Y-121271572D02*
X128502908Y-122408578D01*
X127174718Y-119997051D02*
X127585504Y-121271572D01*
X127164920Y-117602000D02*
X127174718Y-119997051D01*
X116332000Y-117602000D02*
X127164920Y-117602000D01*
X116332000Y-107950000D02*
X116332000Y-117602000D01*
X130571706Y-107242919D02*
X128270000Y-107259344D01*
X130202744Y-99427659D02*
X130571706Y-107242919D01*
X128926044Y-98873254D02*
X130202744Y-99427659D01*
X127685590Y-98005298D02*
X128926044Y-98873254D01*
X127169005Y-97432385D02*
X127685590Y-98005298D01*
X126769541Y-96755462D02*
X127169005Y-97432385D01*
X126523217Y-95965988D02*
X126769541Y-96755462D01*
X126466054Y-95055419D02*
X126523217Y-95965988D01*
X126757656Y-93158098D02*
X126466054Y-95055419D01*
X127402873Y-91672485D02*
X126757656Y-93158098D01*
X128377563Y-90596902D02*
X127402873Y-91672485D01*
X129657584Y-89929669D02*
X128377563Y-90596902D01*
X129365440Y-88258939D02*
X129657584Y-89929669D01*
X134843689Y-88623574D02*
X129365440Y-88258939D01*
X140583740Y-89124898D02*
X134843689Y-88623574D01*
X141236313Y-87759316D02*
X140583740Y-89124898D01*
X142144780Y-86553478D02*
X141236313Y-87759316D01*
X142797840Y-86006525D02*
X142144780Y-86553478D01*
X143547944Y-85606619D02*
X142797840Y-86006525D01*
X144363204Y-85364020D02*
X143547944Y-85606619D01*
X145211740Y-85288988D02*
X144363204Y-85364020D01*
X146060099Y-85376912D02*
X145211740Y-85288988D01*
X146878060Y-85615860D02*
X146060099Y-85376912D01*
X147656450Y-86033541D02*
X146878060Y-85615860D01*
X148325526Y-86603810D02*
X147656450Y-86033541D01*
X149383880Y-88016950D02*
X148325526Y-86603810D01*
X150627420Y-90170000D02*
X149383880Y-88016950D01*
X155043720Y-90705000D02*
X150627420Y-90170000D01*
X157815531Y-87562270D02*
X155043720Y-90705000D01*
X157422763Y-87010470D02*
X157815531Y-87562270D01*
X155145693Y-87985016D02*
X157422763Y-87010470D01*
X154307728Y-86832876D02*
X155145693Y-87985016D01*
X152690028Y-84510706D02*
X154307728Y-86832876D01*
X155801088Y-81789356D02*
X152690028Y-84510706D01*
X155360116Y-79779076D02*
X155801088Y-81789356D01*
X151978966Y-78451196D02*
X155360116Y-79779076D01*
X152553330Y-75009966D02*
X151978966Y-78451196D01*
X152724385Y-74523628D02*
X152553330Y-75009966D01*
X153051076Y-74123613D02*
X152724385Y-74523628D01*
X154543416Y-74171469D02*
X153051076Y-74123613D01*
X156595946Y-74258661D02*
X154543416Y-74171469D01*
X157710506Y-72672821D02*
X156595946Y-74258661D01*
X156098756Y-69510501D02*
X157710506Y-72672821D01*
X160116016Y-67172801D02*
X156098756Y-69510501D01*
X161470666Y-68428951D02*
X160116016Y-67172801D01*
X162814206Y-69691851D02*
X161470666Y-68428951D01*
X164913786Y-69353405D02*
X162814206Y-69691851D01*
X166326546Y-66177305D02*
X164913786Y-69353405D01*
X167131869Y-66340465D02*
X166326546Y-66177305D01*
X167418502Y-64853285D02*
X167131869Y-66340465D01*
X166186362Y-64344636D02*
X167418502Y-64853285D01*
X164856602Y-64318771D02*
X166186362Y-64344636D01*
X164451565Y-64470503D02*
X164856602Y-64318771D01*
X164114692Y-64736507D02*
X164451565Y-64470503D01*
X163537392Y-65389061D02*
X164114692Y-64736507D01*
X161526562Y-64979508D02*
X163537392Y-65389061D01*
X161963676Y-63762428D02*
X161526562Y-64979508D01*
X163089806Y-62367698D02*
X161963676Y-63762428D01*
X163764885Y-61854540D02*
X163089806Y-62367698D01*
X164529285Y-61495175D02*
X163764885Y-61854540D01*
X166192046Y-61183848D02*
X164529285Y-61495175D01*
X167435579Y-61232986D02*
X166192046Y-61183848D01*
X168634316Y-61561786D02*
X167435579Y-61232986D01*
X170249637Y-62489850D02*
X168634316Y-61561786D01*
X171810966Y-63512346D02*
X170249637Y-62489850D01*
X173149346Y-63985048D02*
X171810966Y-63512346D01*
X173854968Y-64010314D02*
X173149346Y-63985048D01*
X174542566Y-63835744D02*
X173854968Y-64010314D01*
X175081232Y-63430714D02*
X174542566Y-63835744D01*
X175462923Y-62866702D02*
X175081232Y-63430714D01*
X176244638Y-63013559D02*
X175462923Y-62866702D01*
X176994193Y-63264128D02*
X176244638Y-63013559D01*
X177214387Y-63457007D02*
X176994193Y-63264128D01*
X177305630Y-63748646D02*
X177214387Y-63457007D01*
X177110649Y-64411115D02*
X177305630Y-63748646D01*
X176725397Y-64999386D02*
X177110649Y-64411115D01*
X176123206Y-65723023D02*
X176725397Y-64999386D01*
X175398595Y-66324802D02*
X176123206Y-65723023D01*
X174572662Y-66770842D02*
X175398595Y-66324802D01*
X173666507Y-67027266D02*
X174572662Y-66770842D01*
X171850855Y-67051703D02*
X173666507Y-67027266D01*
X170959619Y-66877725D02*
X171850855Y-67051703D01*
X170107157Y-66560564D02*
X170959619Y-66877725D01*
X170007591Y-66542546D02*
X170107157Y-66560564D01*
X169965484Y-66642526D02*
X170007591Y-66542546D01*
X169912734Y-66907101D02*
X169965484Y-66642526D01*
X170914844Y-67110500D02*
X169912734Y-66907101D01*
X170958391Y-70595280D02*
X170914844Y-67110500D01*
X172743221Y-71681170D02*
X170958391Y-70595280D01*
X176315651Y-70424950D02*
X172743221Y-71681170D01*
X179003371Y-74121400D02*
X176315651Y-70424950D01*
X176339901Y-76531310D02*
X179003371Y-74121400D01*
X176779219Y-78353630D02*
X176339901Y-76531310D01*
X180298179Y-79665520D02*
X176779219Y-78353630D01*
X179480175Y-84068620D02*
X180298179Y-79665520D01*
X177774455Y-83983476D02*
X179480175Y-84068620D01*
X175825065Y-83886166D02*
X177774455Y-83983476D01*
X174574355Y-85508946D02*
X175825065Y-83886166D01*
X176268234Y-88282106D02*
X174574355Y-85508946D01*
X173312065Y-90800056D02*
X176268234Y-88282106D01*
X172393190Y-90103320D02*
X173312065Y-90800056D01*
X171599520Y-91317000D02*
X172393190Y-90103320D01*
M02*
